/* XPM */
static char *_632672688805[] = {
/* columns rows colors chars-per-pixel */
"50 25 54 1 ",
"  c #95581B",
". c #9F5C1A",
"X c #A8631F",
"o c #9B5D20",
"O c #A16224",
"+ c #A16325",
"@ c #A36426",
"# c #A46526",
"$ c #A56627",
"% c #A66627",
"& c #A66727",
"* c #A76728",
"= c #AA6928",
"- c #AF6C29",
"; c #B96D23",
": c #BA6E23",
"> c #B26E2A",
", c #BC7025",
"< c #BC7026",
"1 c #BE7226",
"2 c #BE7227",
"3 c #B7712B",
"4 c #BC732A",
"5 c #B9732C",
"6 c #BE762D",
"7 c #C3772B",
"8 c #C4762B",
"9 c #C3792E",
"0 c #C5792C",
"q c #C6792D",
"w c #C4792E",
"e c #C67A2F",
"r c #C67B2F",
"t c #C97C2F",
"y c #C97C30",
"u c #C97D30",
"i c #CA7C30",
"p c #CA7D30",
"a c #7CC244",
"s c #77C846",
"d c #72CC46",
"f c #73CC46",
"g c #72CC47",
"h c #73CC47",
"j c #BE8B34",
"k c #AE9D39",
"l c #B09A38",
"z c #9FAE3E",
"x c #C58232",
"c c #C28532",
"v c #C08833",
"b c #89BC42",
"n c #93B540",
"m c None",
/* pixels */
"mmmmmmmmmmmmmmmmmmmmmmmmmmmmmmmmmmmmmmmmmmmmmmmmmm",
"mmmmmmmmmmmmmmmmmmmmmmmmmmmmmmmmmmmmmmmmmmmmmmmmmm",
"mmmmmmmmmmmmmmmmmmmmmmmmmmmmmmmmmmmmmmmmmmmmmmmmmm",
"mmmmmmmmmmmmmmmmmmmmmmmmmmmmmmmmmmmmmmmmmmmmmmmmmm",
"mmmmmmmmmmmmhhhmmmmmmmmmmmmmmmmmmmmmmmmmmmmmmmmmmm",
"mmmmmmmmmmmhhhhhmmmmmmm@&*+ mmmmmmmmmmmmmmmmmmmmmm",
"mmmmmmmmmmmhhhhhhmmmmm-wppi4.+@mmmmmmmmmmmmmmmmmmm",
"mmmmmmmmmmmhhhhhhmmmm>pppppp:w5=ommmmmmmmmmmmmmmmm",
"mmmmmmmmmmmmhhhhhhmmmwpppppp7pppwX&&mmmmmmmmmmmmmm",
"mmmmmmmmmmmmmhhhhhhhazjpppppppppp8p6-&&mmmmmmmmmmm",
"mmmmmmmmmmhhhhhhhhhhhhscpppppppppppptw3&mmmmmmmmmm",
"mmmmmmmmmmhhhhhhhhhhhhhkppppppppppptppp9mmmmmmmmmm",
"mmmmmmmmmmhhhhhhhhhhhhhlppppppppppptppppmmmmmmmmmm",
"mmmmmmmmmmmmhhhhhhhhhhbxppppppwppppwpppmmmmmmmmmmm",
"mmmmmmmmmmmmmhhhhhhhnvpppppppt1tppp1pmmmmmmmmmmmmm",
"mmmmmmmmmmmmhhhhhhhmmpppppppp71pppmmmmmmmmmmmmmmmm",
"mmmmmmmmmmmmhhhhhhmmmpppppppp:1pmmmmmmmmmmmmmmmmmm",
"mmmmmmmmmmmhhhhhhmmmmmpppppp8mmmmmmmmmmmmmmmmmmmmm",
"mmmmmmmmmmmhhhhhhmmmmmmmmpmmmmmmmmmmmmmmmmmmmmmmmm",
"mmmmmmmmmmmmhhhhmmmmmmmmmmmmmmmmmmmmmmmmmmmmmmmmmm",
"mmmmmmmmmmmmmmmmmmmmmmmmmmmmmmmmmmmmmmmmmmmmmmmmmm",
"mmmmmmmmmmmmmmmmmmmmmmmmmmmmmmmmmmmmmmmmmmmmmmmmmm",
"mmmmmmmmmmmmmmmmmmmmmmmmmmmmmmmmmmmmmmmmmmmmmmmmmm",
"mmmmmmmmmmmmmmmmmmmmmmmmmmmmmmmmmmmmmmmmmmmmmmmmmm",
"mmmmmmmmmmmmmmmmmmmmmmmmmmmmmmmmmmmmmmmmmmmmmmmmmm"
};
