/* XPM */
static char *_631988070891[] = {
/* columns rows colors chars-per-pixel */
"50 50 46 1 ",
"  c #8A541F",
". c #9B5C1E",
"X c #9D5D1E",
"o c #935A22",
"O c #A36526",
"+ c #A46526",
"@ c #AA6623",
"# c #AA6928",
"$ c #AD6B29",
"% c #AE6B29",
"& c #B96D23",
"* c #B06D2A",
"= c #B36F2A",
"- c #B46E28",
"; c #BD7126",
": c #BD7227",
"> c #BF742A",
", c #BC742C",
"< c #BD752C",
"1 c #BE752D",
"2 c #C1772E",
"3 c #C2782E",
"4 c #C4782C",
"5 c #C67A2E",
"6 c #C77A2E",
"7 c #C77B2F",
"8 c #C87C2F",
"9 c #C97C2F",
"0 c #C97C30",
"q c #C97D30",
"w c #CA7D30",
"e c #C97E30",
"r c #CA7E30",
"t c #74CB47",
"y c #76CA47",
"u c #73CC46",
"i c #73CC47",
"p c #79C846",
"a c #78C946",
"s c #BD8030",
"d c #B19C38",
"f c #9DAE3E",
"g c #C18833",
"h c #C08A34",
"j c #91B841",
"k c None",
/* pixels */
"kkkkkkkkkkkkkkkkkkkkkkkkkkkkkkkkkkkkkkkkkkkkkkkkkk",
"kkkkkkkkkkkkkkkkkkkkkkkkkkkkkkkkkkkkkkkkkkkkkkkkkk",
"kkkkkkkkkkkkkkkkkkkkkkkkkkkkkkkkkkkkkkkkkkkkkkkkkk",
"kkkkkkkkkkkkkkkkkkkkkkkkkkkkkkkkkkkkkkkkkkkkkkkkkk",
"kkkkkkkkkkkkkkkkkkkkkkkkkkkkkkkkkkkkkkkkkkkkkkkkkk",
"kkkkkkkkkkkkkkkkkkkkkkkkkkkkkkkkkkkkkkkkkkkkkkkkkk",
"kkkkkkkkkkkkkkkkkkkkkkkkkkkkkkkkkkkkkkkkkkkkkkkkkk",
"kkkkkkkkkkkkkkkkkkkkkkkkkkkkkkkkkkkkkkkkkkkkkkkkkk",
"kkkkkkkkkkkkkkkkkkkkkkkkkkkkkkkkkkkkkkkkkkkkkkkkkk",
"kkkkkkkkkkkkkkkkkkkkkkkkkkkkkkkkkkkkkkkkkkkkkkkkkk",
"kkkkkkkkkkkkkkkkkkkkkkkkkkkkkkkkkkkkkkkkkkkkkkkkkk",
"kkkkkkkkkkkkkkkkkkkkkkkkkkkkkkkkkkkkkkkkkkkkkkkkkk",
"kkkkkkkkkkkkkkkkkkkkkkkkkkkkkkkkkkkkkkkkkkkkkkkkkk",
"kkkkkkkkkkkkkkkkkkkkkkkkkkkkkkkkkkkkkkkkkkkkkkkkkk",
"kkkkkkkkkkkkkkkkkkkkkkkkiiikkikkkkkkkkkkkkkkkkkkkk",
"kkkkkkkkkkkkkkkkkkkiiikkiiikiiikkkkkkkkkkkkkkkkkkk",
"kkkkkkkkkkkkkkkkkkkiiiiiiiiiiiiikkkkkkkkkkkkkkkkkk",
"kkkkkkkkkkkkkkkkkkkiiiiiiiiiiiikkkkkkkkkkkkkkkkkkk",
"kkkkkkkkkkkkkkkkkkkiiiiiiiiiiikkkkkkkkkkkkkkkkkkkk",
"kkkkkkkkkkkkkkkkkkkkkiiiiiiikkkkkkkkkkkkkkkkkkkkkk",
"kkkkkkkkkkkkkkkkkkkkkkiiiiikkkkkkkkkkkkkkkkkkkkkkk",
"kkkkkkkkkkkkkkkkkkkkkkktiiikkkkkkkkkkkkkkkkkkkkkkk",
"kkkkkkkkkkkkkkkkkkkkkkwjiiy1=kkkkkkkkkkkkkkkkkkkkk",
"kkkkkkkkkkkkkkkkkkkkkwwdayfww%kkkkkkkkkkkkkkkkkkkk",
"kkkkkkkkkkkkkkkkkkkkwwwwhhwww2kkkkkkkkkkkkkkkkkkkk",
"kkkkkkkkkkkkkkkkkkkkwwwwwgwww4+kkkkkkkkkkkkkkkkkkk",
"kkkkkkkkkkkkkkkkkkkkwwwwwwww92kkkkkkkkkkkkkkkkkkkk",
"kkkkkkkkkkkkkkkkkkkk9wwwwwww6@kkkkkkkkkkkkkkkkkkkk",
"kkkkkkkkkkkkkkkkkkkkk599www5:Xkkkkkkkkkkkkkkkkkkkk",
"kkkkkkkkkkkkkkkkkkkkk&:4wwww,kkkkkkkkkkkkkkkkkkkkk",
"kkkkkkkkkkkkkkkkkkkkkwwwwwww%kkkkkkkkkkkkkkkkkkkkk",
"kkkkkkkkkkkkkkkkkkkkkkwwww6>Xkkkkkkkkkkkkkkkkkkkkk",
"kkkkkkkkkkkkkkkkkkkkkkwwwww-kkkkkkkkkkkkkkkkkkkkkk",
"kkkkkkkkkkkkkkkkkkkkkkk59ww#kkkkkkkkkkkkkkkkkkkkkk",
"kkkkkkkkkkkkkkkkkkkkkkkwww2Okkkkkkkkkkkkkkkkkkkkkk",
"kkkkkkkkkkkkkkkkkkkkkkk,ww=kkkkkkkkkkkkkkkkkkkkkkk",
"kkkkkkkkkkkkkkkkkkkkkkkk52okkkkkkkkkkkkkkkkkkkkkkk",
"kkkkkkkkkkkkkkkkkkkkkkkkk kkkkkkkkkkkkkkkkkkkkkkkk",
"kkkkkkkkkkkkkkkkkkkkkkkkkkkkkkkkkkkkkkkkkkkkkkkkkk",
"kkkkkkkkkkkkkkkkkkkkkkkkkkkkkkkkkkkkkkkkkkkkkkkkkk",
"kkkkkkkkkkkkkkkkkkkkkkkkkkkkkkkkkkkkkkkkkkkkkkkkkk",
"kkkkkkkkkkkkkkkkkkkkkkkkkkkkkkkkkkkkkkkkkkkkkkkkkk",
"kkkkkkkkkkkkkkkkkkkkkkkkkkkkkkkkkkkkkkkkkkkkkkkkkk",
"kkkkkkkkkkkkkkkkkkkkkkkkkkkkkkkkkkkkkkkkkkkkkkkkkk",
"kkkkkkkkkkkkkkkkkkkkkkkkkkkkkkkkkkkkkkkkkkkkkkkkkk",
"kkkkkkkkkkkkkkkkkkkkkkkkkkkkkkkkkkkkkkkkkkkkkkkkkk",
"kkkkkkkkkkkkkkkkkkkkkkkkkkkkkkkkkkkkkkkkkkkkkkkkkk",
"kkkkkkkkkkkkkkkkkkkkkkkkkkkkkkkkkkkkkkkkkkkkkkkkkk",
"kkkkkkkkkkkkkkkkkkkkkkkkkkkkkkkkkkkkkkkkkkkkkkkkkk",
"kkkkkkkkkkkkkkkkkkkkkkkkkkkkkkkkkkkkkkkkkkkkkkkkkk"
};
