/* XPM */
static char *_632656620727[] = {
/* columns rows colors chars-per-pixel */
"50 25 39 1 ",
"  c #8DB6F2",
". c #8EB6F2",
"X c #92B9F3",
"o c #93B9F3",
"O c #98BCF3",
"+ c #9ABDF3",
"@ c #9DBFF3",
"# c #A1C1F4",
"$ c #ABC7F5",
"% c #B5CDF6",
"& c #B9CFF6",
"* c #BCD1F7",
"= c #BDD2F7",
"- c #BFD3F7",
"; c #C1D4F7",
": c #C1D5F7",
"> c #CCDBF8",
", c #CDDBF8",
"< c #CEDDF8",
"1 c #D3E0F9",
"2 c #D5E1FA",
"3 c #D8E3FA",
"4 c #DAE4FA",
"5 c #DEE7FB",
"6 c #E1E9FB",
"7 c #E2EAFB",
"8 c #E4EBFB",
"9 c #E7EDFC",
"0 c #E8EEFC",
"q c #EDF1FD",
"w c #ECF2FC",
"e c #F3F6FE",
"r c #F7F9FE",
"t c #FAFBFE",
"y c #FAFCFF",
"u c #FBFCFF",
"i c #FDFDFF",
"p c #FEFEFF",
"a c white",
/* pixels */
"                                             +tppp",
"                                             <pppp",
"                                             wpppp",
"                                             ppppp",
"                                            ;ppppp",
"                                           :6ppppp",
"                                          $66rpppp",
"                                          266qpppp",
"                                         #6666uppp",
"                                         %66669ppp",
"                                         =666669pp",
"                                         *6666668e",
"                                         $56666666",
"                                         X56666666",
"                                          :6666666",
"                                          X3666666",
"                                           @466666",
"                                            O,6666",
"                                              #=,1",
"                                                  ",
"                                                  ",
"                                                  ",
"                                                  ",
"                                                  ",
"                                                  "
};
