/* XPM */
static char *_632656625445[] = {
/* columns rows colors chars-per-pixel */
"50 25 78 1 ",
"  c #8DB6F2",
". c #8EB6F2",
"X c #8EB7F2",
"o c #90B8F2",
"O c #93B9F3",
"+ c #94BAF3",
"@ c #95BAF3",
"# c #96BBF3",
"$ c #9ABDF3",
"% c #9CBEF3",
"& c #9EBFF3",
"* c #9FC0F3",
"= c #9EC0F4",
"- c #9FC0F4",
"; c #A0C1F4",
": c #A1C1F4",
"> c #A2C2F4",
", c #A3C2F4",
"< c #A3C3F4",
"1 c #A4C3F4",
"2 c #A5C3F4",
"3 c #A6C4F4",
"4 c #A8C5F4",
"5 c #A9C5F4",
"6 c #ABC7F5",
"7 c #ADC8F5",
"8 c #AEC9F5",
"9 c #B0CAF5",
"0 c #B1CBF5",
"q c #B2CBF5",
"w c #B5CDF6",
"e c #B9D0F6",
"r c #BCD1F6",
"t c #C2D5F7",
"y c #C6D8F8",
"u c #C7D9F8",
"i c #C9DAF8",
"p c #CFDDF8",
"a c #CFDDF9",
"s c #CFDEF9",
"d c #D0DEF9",
"f c #D4E0F9",
"g c #D4E1F9",
"h c #D6E3F9",
"j c #D6E2FA",
"k c #D7E3FA",
"l c #D8E4FA",
"z c #D9E4FA",
"x c #DBE6FA",
"c c #DDE7FA",
"v c #DEE8FA",
"b c #E0E9FB",
"n c #E1E9FB",
"m c #E1EAFB",
"M c #E2EBFB",
"N c #E3EBFB",
"B c #E4ECFB",
"V c #E5EDFB",
"C c #E6EDFB",
"Z c #E5ECFC",
"A c #E6EDFC",
"S c #E8EEFC",
"D c #EAF0FC",
"F c #EBF1FC",
"G c #EBF1FD",
"H c #F3F7FD",
"J c #F4F7FE",
"K c #F5F8FE",
"L c #F8FAFE",
"P c #F9FBFE",
"I c #FAFBFE",
"U c #FAFCFE",
"Y c #FAFCFF",
"T c #FBFCFF",
"R c #FDFEFF",
"E c #FEFEFF",
"W c #FEFFFF",
"Q c white",
/* pixels */
"QQQQQQQQQQQQQQQQQQQQQQQQQQQQQQQQQQQQQQQQQQh:3:3=  ",
"QQQQQQQQQQQQQQQQQQQQQQQQQQQQQQQQQQQQQQQQQQh2<3<3@ ",
"QQQQQQQQQQQQQQQQQQQQQQQQQQQQQQQQQQQQQQQQQQh:3:3<= ",
"QQQQQQQQQQQQQQQQQQQQQQQQQQQQQQQQQQQQQQQQQQi2<3:3: ",
"QQQQQQQQQQQQQQQQQQQQQQQQQQQQQQQQQQQQQQQQQQq3<33:2 ",
"QQQQQQQQQQQQQQQQQQQQQQQQQQQQQQQQQQQQQQQQQH:33:<<= ",
"QQQQQQQQQQQQQQQQQQQQQQQQQQQQQQQQQQQQQQQQQQp:<3<3$ ",
"QQQQQQQQQQQQQQQQQQQQQQQQQQQQQQQQQQQQQQQQQQQw3:3:O ",
"QQQQQQQQQQQQQQQQQQQQQQQQQQQQQQQQQQQQQQQQQQQb222#  ",
"QQQQQQQQQQQYQQQQQQQQQQQQQQQQQQQQQQQQQQQQQQQY3:#   ",
"QQQQQQQQQQQQQQQQQQQQQQQQQQQQQQQQQQQQQQQQQQQQ8     ",
"QQQQQQQQQQYQQQQQQQQQQQQQQQQQQQQQQQQQQQQQQQQQq     ",
"LQQQQQQQLQQQLQQQQQQQQQQQQQQQQQQQQQQQQQQQQQQQ4     ",
"DQQQYQQQQQQQQQQQQQQQQQQQQQQQQQQQQQQQQQQQQQQQ@     ",
"bKQQQQYQQQYYQQQQQQQQQQQQQQQQQQQQQQQQQQQQQQQB      ",
"bNYQQQQYLQQQQQQQQQQQQQQQQQQQQQQQQQQQQQQQQQQ9      ",
"nnAYQQQYYQQYQQQQQQQQQQQQQQQQQQQQQQQQQQQQQQz       ",
"nnvhBYQQQYQQQQQQQQQQQQQQQQQQQQQQQQQQQQQQQbo       ",
"dt:  eDQQYQYYQQQQQQQQQQQQQQQQQQbDQQQQQQLy         ",
"       4ilBAvpLQQQQQQQQQQQQQQQQ8 8pvbhrO          ",
"        X     9YQQQQQQQQQQQQQQS                   ",
"        X      :bQQQQQQQQQQQQL:                   ",
"                 2uhYQQQQQQQH5                    ",
"                    &lLQQQJp@                     ",
"                       &:&                        "
};
