/* XPM */
static char *_632656639692[] = {
/* columns rows colors chars-per-pixel */
"50 25 97 2 ",
"   c #8DB6F2",
".  c #8EB6F2",
"X  c #8EB7F2",
"o  c #8FB7F2",
"O  c #90B8F2",
"+  c #92B8F2",
"@  c #92B9F3",
"#  c #93B9F3",
"$  c #93BAF3",
"%  c #94BAF3",
"&  c #95BAF3",
"*  c #97BCF3",
"=  c #9ABDF3",
"-  c #9BBEF3",
";  c #9CBEF3",
":  c #9EBFF3",
">  c #9EBFF4",
",  c #A1C1F4",
"<  c #A3C3F4",
"1  c #A4C3F4",
"2  c #A5C3F4",
"3  c #A6C4F4",
"4  c #A9C5F5",
"5  c #A9C6F4",
"6  c #AAC6F5",
"7  c #AAC7F5",
"8  c #ACC7F5",
"9  c #B0CAF5",
"0  c #B2CBF5",
"q  c #B5CDF6",
"w  c #B6CDF6",
"e  c #B6CEF6",
"r  c #B7CFF6",
"t  c #B8CFF6",
"y  c #B9D0F6",
"u  c #BAD0F6",
"i  c #BCD2F7",
"p  c #BED3F7",
"a  c #BFD3F7",
"s  c #C0D3F7",
"d  c #C1D5F7",
"f  c #C2D5F7",
"g  c #C4D6F7",
"h  c #C4D7F7",
"j  c #C6D7F8",
"k  c #C6D8F8",
"l  c #C7D8F8",
"z  c #C8D8F8",
"x  c #C8D9F8",
"c  c #CADAF8",
"v  c #CADBF8",
"b  c #CFDDF9",
"n  c #D0DDF9",
"m  c #D0DEF9",
"M  c #D1DFF9",
"N  c #D6E2FA",
"B  c #D9E4FA",
"V  c #DBE5FA",
"C  c #DDE7FA",
"Z  c #DCE6FB",
"A  c #E0E9FB",
"S  c #E1E9FB",
"D  c #E1EAFB",
"F  c #E3EAFB",
"G  c #E3EBFB",
"H  c #E4ECFB",
"J  c #E5ECFB",
"K  c #E5ECFC",
"L  c #E6ECFC",
"P  c #E6EDFC",
"I  c #E8EFFC",
"U  c #E9EFFC",
"Y  c #EAEFFC",
"T  c #EAF0FC",
"R  c #EBF1FC",
"E  c #EBF1FD",
"W  c #ECF1FC",
"Q  c #ECF1FD",
"!  c #ECF2FC",
"~  c #EDF2FC",
"^  c #EFF3FD",
"/  c #F2F5FD",
"(  c #F2F6FD",
")  c #F3F6FD",
"_  c #F4F7FD",
"`  c #F5F8FE",
"'  c #F6F8FE",
"]  c #F6F9FE",
"[  c #F7F9FE",
"{  c #FAFCFF",
"}  c #FBFCFF",
"|  c #FCFDFF",
" . c #FDFDFF",
".. c #FDFEFF",
"X. c #FEFEFF",
"o. c #FEFFFF",
"O. c white",
/* pixels */
"                                                                                                    ",
"                                                                                                    ",
"                                                                                                    ",
"                                                                                                    ",
"                                                                                                    ",
"                                                                                                    ",
"                                                                                                    ",
"                                                                                                    ",
"                                                                                                    ",
"                                                                                                    ",
"                                                                                                    ",
"                                        > e j n b c i 8 +                                           ",
"                & : 2 3 3 , -       3 n S S S S S S S S Z s &                                       ",
"            > 9 t e t t t t e e 4 h A A S S S S S S S S A A Z 4                                     ",
"        & 9 t t t t t t t t t i A W P A S S S S S S C S K Y T Y i O                                 ",
"      - e t t t t t t t t t u A W Y I I S S S S S L / O.O.O.O.O.O.| H u X                           ",
"    - u e u e u e u e u u r N T I W I W P A A J _ O.O.O.O.O.O.O.O.O.O.O.W 4                         ",
"  O q e u e u e u e u e r d T T W I W I I P P [ O.O.O.O.O.O.O.O.O.O.O.O.O.O.f                       ",
"  4 e u e u e u e u e u r B T T I W I W T Q O.O.O.O.O.O.O.O.O.O.O.O.O.O.O.O.O.f                     ",
"& u u e u e u e u e u e u T T T W I W I T [ O.O.O.O.O.O.O.O.O.O.O.O.O.O.O.O.O.O.9                   ",
"1 u u e e u e k n b f u c Y Y T I W W I [ O.O.O.O.O.O.O.O.O.O.O.O.O.O.O.O.O.O.O./                   ",
"v A T W P Z [ O.O.O.O.[ _ [ / T W I I W O.O.O.O.O.O.O.O.O.O.O.O.O.O.O.O.O.O.O.O.O.k                 ",
"O.O.O.O.O.O.O.O.O.O.O.O.O.O.O.O.[ T I _ O.O.O.O.O.O.O.O.O.O.O.O.O.O.O.O.O.O.O.O.O.Q & & X           ",
"O.O.O.O.O.O.O.O.O.O.O.O.O.O.O.O.O.O.[ O.O.O.O.O.O.O.O.O.O.O.O.O.O.O.O.O.O.O.O.O.O.O.q , < - X       ",
"O.O.O.O.O.O.O.O.O.O.O.O.O.O.O.O.O.O.O.O.O.O.O.O.O.O.O.O.O.O.O.O.O.O.O.O.O.O.O.O.O.O.v 1 1 1 , O     "
};
