/* XPM */
static char *_632656631043[] = {
/* columns rows colors chars-per-pixel */
"50 25 58 1 ",
"  c #8DB6F2",
". c #8EB6F2",
"X c #8EB7F2",
"o c #8FB7F2",
"O c #90B7F2",
"+ c #91B8F2",
"@ c #92B9F2",
"# c #92B9F3",
"$ c #93B9F3",
"% c #94BAF3",
"& c #96BBF3",
"* c #9ABDF3",
"= c #9FC0F4",
"- c #A0C1F4",
"; c #A1C1F4",
": c #A1C2F4",
"> c #A7C4F4",
", c #A8C5F4",
"< c #AAC6F5",
"1 c #B0CAF5",
"2 c #B5CDF6",
"3 c #B6CEF6",
"4 c #B8CFF6",
"5 c #BAD0F6",
"6 c #BDD2F7",
"7 c #BFD3F7",
"8 c #C1D5F7",
"9 c #C6D7F7",
"0 c #C7D9F8",
"q c #C8D8F8",
"w c #CBDBF8",
"e c #CCDCF8",
"r c #CDDCF8",
"t c #DBE6FA",
"y c #E0E9FB",
"u c #E3EAFB",
"i c #E3EBFB",
"p c #E5EDFC",
"a c #E6EDFC",
"s c #E7EEFC",
"d c #E8EEFC",
"f c #EBF1FC",
"g c #ECF1FC",
"h c #EEF2FD",
"j c #F0F4FD",
"k c #F1F5FD",
"l c #F3F6FD",
"z c #F4F7FD",
"x c #F4F7FE",
"c c #F8FAFE",
"v c #FBFCFE",
"b c #FBFCFF",
"n c #FBFDFF",
"m c #FCFDFF",
"M c #FDFDFF",
"N c #FEFEFF",
"B c #FEFFFF",
"V c white",
/* pixels */
"                                                  ",
"                                                  ",
"                                                  ",
"                                                  ",
"           >lvt>                                  ",
"        :allVVVvlu70<                             ",
"        uVVVVVVVVVnut-                            ",
"       #fVVVVVVVVVVcp1                            ",
"       :wVVVVVVVVVVVd%                            ",
"       :wVVVVVVVVVVV9                             ",
"       #5VVVVVcVVVVu%                             ",
"         aVVVvfa662O                              ",
"         #0hjuae42*                               ",
"           %25=#%O                                ",
"                                                  ",
"                                                  ",
"                                                  ",
"                                                  ",
"                                                  ",
"                                                  ",
"                                                  ",
"                                                 O",
"                                                4l",
"                                               rVV",
"                                              8VVV"
};
