/* XPM */
static char *_632734057718[] = {
/* columns rows colors chars-per-pixel */
"50 50 162 2 ",
"   c black",
".  c #0C0D0F",
"X  c #0D0E0F",
"o  c #373737",
"O  c #532F08",
"+  c #542F08",
"@  c #552F08",
"#  c #553008",
"$  c #573108",
"%  c #603609",
"&  c #613609",
"*  c #613709",
"=  c #623709",
"-  c #63380A",
";  c #66390A",
":  c #67390A",
">  c #703E0A",
",  c #72400A",
"<  c gray43",
"1  c #717171",
"2  c gray49",
"3  c gray50",
"4  c #8D500D",
"5  c #8F500D",
"6  c #9D5A09",
"7  c #A15C0F",
"8  c #A35D0F",
"9  c #A65D0D",
"0  c #A65C0E",
"q  c #AF6310",
"w  c #B06410",
"e  c #B06611",
"r  c #C46806",
"t  c #C46B0D",
"y  c #C46C0E",
"u  c #C86C0A",
"i  c #CD6D08",
"p  c #CC6E09",
"a  c #CE6E08",
"s  c #CF6E08",
"d  c #CF6F09",
"f  c #CD6F0A",
"g  c #CF6F0A",
"h  c #CF720F",
"j  c #C56E11",
"k  c #C86F10",
"l  c #C77213",
"z  c #C87213",
"x  c #CC7212",
"c  c #CC7213",
"v  c #CD7213",
"b  c #CC7313",
"n  c #CD7313",
"m  c #CE7413",
"M  c #CE7414",
"N  c #D27513",
"B  c #D37513",
"V  c #D47613",
"C  c #D47713",
"Z  c #DA7A14",
"A  c #DC7B14",
"S  c #DF7D14",
"D  c #D0781B",
"F  c #EF7F09",
"G  c #E07D14",
"H  c #E27F15",
"J  c #CE7A21",
"K  c #D57E21",
"L  c #FF890B",
"P  c #FF8A0F",
"I  c #E68116",
"U  c #E98316",
"Y  c #F08616",
"T  c #F18616",
"R  c #F48917",
"E  c #F78A17",
"W  c #FF8C11",
"Q  c #FD8C12",
"!  c #FF8C12",
"~  c #FB8D17",
"^  c #FF8D15",
"/  c #FC8D17",
"(  c #FF8F17",
")  c #FC8E18",
"_  c #FD8E18",
"`  c #FF8E18",
"'  c #FF8F18",
"]  c #FF8F19",
"[  c #FF9018",
"{  c #FF9118",
"}  c #FF9019",
"|  c #FF9218",
" . c #FF981A",
".. c #FF991A",
"X. c #E98F2E",
"o. c #FF9421",
"O. c #FF9525",
"+. c #F49229",
"@. c #FF9A2E",
"#. c #CC8841",
"$. c #CD8A42",
"%. c #CD9355",
"&. c #FFA84B",
"*. c #FFA84C",
"=. c #FFA94D",
"-. c #FFAD56",
";. c #FFB05C",
":. c #CD9963",
">. c #CF9D66",
",. c #CDA172",
"<. c #DDAB75",
"1. c #E5AD72",
"2. c #FFBA71",
"3. c #FFBE77",
"4. c #FFBF7B",
"5. c #FFC07E",
"6. c #FFC07F",
"7. c #B6B6B6",
"8. c #CCB093",
"9. c #C9B096",
"0. c #FFC181",
"q. c #FFC281",
"w. c #FFC384",
"e. c #FFCC97",
"r. c #E6CFB8",
"t. c #F0D6BA",
"y. c #F3D9BB",
"u. c #FEDEBB",
"i. c #CCC9C5",
"p. c #D1CCC8",
"a. c #CBCED1",
"s. c #CDCFD2",
"d. c gray84",
"f. c #D1D4D8",
"g. c #DFDFDF",
"h. c #FFEBD5",
"j. c #FFEEDC",
"k. c #FFEFDD",
"l. c #DCE2E8",
"z. c #E9E6E3",
"x. c #E5E7E8",
"c. c #E9E9E8",
"v. c #E9EBEE",
"b. c #FFF1E2",
"n. c #FFF6EB",
"m. c #E5EEF9",
"M. c #E9F0F8",
"N. c #EAF3FD",
"B. c #F6F6F6",
"V. c #FFFAF5",
"C. c #FFFAF6",
"Z. c gray98",
"A. c #FBFBFB",
"S. c #FFFBF8",
"D. c #FFFCF9",
"F. c #FFFCFA",
"G. c #FFFDFB",
"H. c #FDFDFC",
"J. c #FDFDFD",
"K. c #FEFEFE",
"L. c white",
"P. c None",
/* pixels */
"P.P.P.P.P.P.P.P.P.P.P.P.P.P.P.P.P.P.P.P.P.P.P.P.P.P.P.P.P.P.P.P.P.P.P.P.P.P.P.P.P.P.P.P.P.P.P.P.P.P.",
"P.P.P.P.P.P.P.P.P.P.P.P.P.P.P.P.P.P.P.P.P.P.P.P.P.P.P.P.P.P.P.P.P.P.P.P.P.P.P.P.P.P.P.P.P.P.P.P.P.P.",
"P.P.P.P.P.P.P.P.P.P.P.P.P.P.P.P.P.P.P.P.P.P.P.P.P.P.P.P.P.P.P.P.P.P.P.P.P.P.P.P.P.P.P.P.P.P.P.P.P.P.",
"P.P.P.P.P.P.P.P.P.P.P.P.P.P.P.P.P.P.P.P.P.P.P.P.P.P.P.P.P.P.P.P.P.P.P.P.P.P.P.P.P.P.P.P.P.P.P.P.P.P.",
"P.P.P.P.P.P.P.P.P.P.P.P.P.P.P.P.P.P.P.P.P.P.P.P.P.P.P.P.P.P.P.P.P.P.P.P.P.P.P.P.P.P.P.P.P.P.P.P.P.P.",
"P.P.P.P.P.P.P.P.P.P.P.P.P.P.P.P.P.P.P.P.P.P.P.P.P.P.P.P.P.P.P.P.P.P.P.P.P.P.P.P.P.P.P.P.P.P.P.P.P.P.",
"P.P.P.P.P.P.P.P.P.P.P.P.P.P.P.P.P.P.P.P.P.P.P.P.P.P.P.P.P.P.P.P.P.P.P.P.P.P.P.P.P.P.P.P.P.P.P.P.P.P.",
"P.P.P.P.P.P.P.P.P.P.P.P.P.P.P.P.P.P.P.P.P.P.P.P.P.P.P.P.P.P.P.P.P.P.P.P.P.P.P.P.P.P.P.P.P.P.P.P.P.P.",
"P.P.P.P.P.P.P.P.P.P.P.P.P.P.P.P.P.P.P.P.P.P.P.P.P.P.P.P.P.P.P.P.P.P.P.P.P.P.P.P.P.P.P.P.P.P.P.P.P.P.",
"P.P.P.P.P.P.P.P.P.P.P.P.P.P.P.P.P.P.P.P.P.P.P.P.P.P.P.P.P.P.P.P.P.P.P.P.P.P.P.P.P.P.P.P.P.P.P.P.P.P.",
"P.P.P.P.P.P.P.P.P.P.P.P.P.P.P.P.P.P.P.P.P.P.P.P.P.P.P.P.P.P.P.P.P.P.P.P.P.P.P.P.P.P.P.P.P.P.P.P.P.P.",
"P.P.P.P.P.P.P.P.P.P.P.P.P.P.P.P.P.P.P.P.P.P.P.P.P.P.P.P.P.P.P.P.P.P.P.P.P.P.P.P.P.P.P.P.P.P.P.P.P.P.",
"P.P.P.P.P.P.P.P.P.P.P.' ' ' P.P.P.P.P.P.P.P.P.P.P.P.P.P.P.P.P.P.P.P.P.P.' ' | P.P.P.P.P.P.P.P.P.P.P.",
"P.P.P.P.P.P.P.P.P.P.P.' ' ' ' ' ' ' P.P.P.P.P.P.P.P.P.P.P.P.P.P.' ' ' ' ' ' ' P.P.P.P.P.P.P.P.P.P.P.",
"P.P.P.P.P.P.P.P.P.P.P.P.' ' ' ' ' ' ' ' P.P.P.P.P.P.P.P.P.P.' ' ' ' ' ' ' ' P.P.P.P.P.P.P.P.P.P.P.P.",
"P.P.P.P.P.P.P.P.P.P.P.P.' ' ' ' ' ' ' ' ' ' ' ' ' ' ' ' ' ' ' ' ' ' ' ' ' ' P.P.P.P.P.P.P.P.P.P.P.P.",
"P.P.P.P.P.P.P.P.P.P.P.P.' ' ' ' ' ' ' ' ' ' ' ' ' ' ' ' ' ' ' ' ' ' ' ' ' ' P.P.P.P.P.P.P.P.P.P.P.P.",
"P.P.P.P.P.P.P.P.P.P.P.P.( ' ' ' ' ' ' ( ' ' ' ' ' ' ' ' ' ' ( ' ' ' ' ' ' ' P.P.P.P.P.P.P.P.P.P.P.P.",
"P.P.P.P.P.P.P.P.P.P.P.P.P.' ' ' ' ' ' ' ' ' ' ' ' ' ' ' ' ' ' ' ' ' ' ' ' P.P.P.P.P.P.P.P.P.P.P.P.P.",
"P.P.P.P.P.P.P.P.P.P.P.P.P.' ' ' ' ' ' ' ' ' ' ' ' ' ' ' ' ' ' ' ' ' ' ' ' P.P.P.P.P.P.D.P.P.P.P.P.P.",
"P.P.P.P.P.P.P.P.P.P.P.P.P.' ' ' ' ' ' ' | e | ' ' ' ' | e | ' ' ' ' ' ' E P.P.P.P.P.n.K.C.P.P.P.P.P.",
"P.P.P.P.P.P.P.P.P.P.P.P.P.' ' ' ' ' ' ' 7   w ' ' ' ' w   7 ' ' ' ' ' ' C P.P.P.P.P.K.K.K.h.P.P.P.P.",
"P.P.P.P.P.P.P.P.P.P.P.P.P.' ' ' ' ' ' | #   - | ' ' | %   # | ' ' ' ' ' I P.P.P.P.b.K.K.K.D.P.P.P.P.",
"P.P.P.P.P.P.P.P.P.P.P.P.' ' ' ' ' ' ' | +   % | ' ' | %   O | ' ' ' ' ' R M P.P.P.L *.q.2.o.P.P.P.P.",
"P.P.P.P.P.P.P.P.P.P.P.P.' ' ' ' ' ' ' | +   % | ' ' | %   + | ' ' ' ' ' ~ M P.P.P.' ' | ' ' P.P.P.P.",
"P.P.P.P.P.P.P.P.P.P.P.P.' ' ' ' ' ' ' | :   > | ' ' | ,   : | ' ' ' ' ' ' c P.P.' ' ' ' ' ' P.P.P.P.",
"P.P.P.P.P.P.P.P.P.P.P.' ' ' ' ' ' ' ' ' V   Z  . . . .A   N ' ' ' ' ' ' | M N ' ' ' ' ' ' ' P.P.P.P.",
"P.P.P.P.P.P.P.P.P.P.P.' ' ' ' ' ' ' ' ' ' Y l         z Y ' ' ' ' ' ' | ' c S ' ' ' ' ' ' ' P.P.P.P.",
"P.P.P.P.P.P.P.P.P.P.P.' ' | O.q.w.4.*.( ! ! 6         6 ! ! ( &.5.q.q.O.~ c S ' ' ' ' ' ' P.P.P.P.P.",
"P.P.P.P.P.P.P.P.P.P.P.' ' @.K.K.K.K.K.K.C.k.t..     . t.k.C.K.K.K.K.K.K.+.M H ' ' ' ' ' P.P.P.P.P.P.",
"P.P.P.P.P.P.P.P.P.P.P.P.' 4.K.K.K.K.K.K.K.K.K.g.1 1 f.Z.K.K.K.K.K.K.K.K.1.c U ' ' ' ' P.P.P.P.P.P.P.",
"P.P.P.P.P.P.P.P.P.P.P.P.' q.K.K.K.K.K.K.K.K.3 K.B.B.l.9.K.K.K.K.K.K.K.K.>.c T P.P.P.P.P.P.P.P.P.P.P.",
"P.P.P.P.P.P.P.P.P.P.P.P.' -.K.K.K.K.K.K.K.K.o 3 d.d.3 o K.K.K.K.K.K.K.v.#.M P.P.P.P.P.P.P.P.P.P.P.P.",
"P.P.P.P.P.P.P.P.P.P.P.P.P.L D.K.K.K.K.K.K.K.K.7.1 1 7.K.K.K.K.K.K.K.A.i.a P.P.P.P.P.P.P.P.P.P.P.P.P.",
"P.P.P.P.P.P.P.P.P.P.P.P.P.| ;.K.K.K.K.K.K.K.K.K.K.K.K.K.K.K.K.K.K.K.f.$.N P.P.P.P.P.P.P.P.P.P.P.P.P.",
"P.P.P.P.P.P.P.P.P.P.P.P.P.P.Q e.K.K.K.K.K.K.K.K.K.K.K.K.K.K.K.K.A.f.,.h P.P.P.P.P.P.P.P.P.P.P.P.P.P.",
"P.P.P.P.P.P.P.P.P.P.P.P.P.P.P.F 3.K.K.K.K.K.K.K.K.K.K.K.K.K.K.c.a.%.d P.P.P.P.P.P.P.P.P.P.P.P.P.P.P.",
"P.P.P.P.P.P.P.P.P.P.P.P.P.P.P.P.k X.u.K.K.K.K.K.K.K.K.K.K.x.s.8.J j P.P.P.P.P.P.P.P.P.P.P.P.P.P.P.P.",
"P.P.P.P.P.P.P.P.P.P.P.P.P.P.P.P.P.4 r K <.r.z.M.N.m.l.p.9.:.D u 4 P.P.P.P.P.P.P.P.P.P.P.P.P.P.P.P.P.",
"P.P.P.P.P.P.P.P.P.P.P.P.P.P.P.P.P.P.P.> 9 y a a d d d a y 9 > P.P.P.P.P.P.P.P.P.P.P.P.P.P.P.P.P.P.P.",
"P.P.P.P.P.P.P.P.P.P.P.P.P.P.P.P.P.P.P.P.P.P.P.P.P.P.P.P.P.P.P.P.P.P.P.P.P.P.P.P.P.P.P.P.P.P.P.P.P.P.",
"P.P.P.P.P.P.P.P.P.P.P.P.P.P.P.P.P.P.P.P.P.P.P.P.P.P.P.P.P.P.P.P.P.P.P.P.P.P.P.P.P.P.P.P.P.P.P.P.P.P.",
"P.P.P.P.P.P.P.P.P.P.P.P.P.P.P.P.P.P.P.P.P.P.P.P.P.P.P.P.P.P.P.P.P.P.P.P.P.P.P.P.P.P.P.P.P.P.P.P.P.P.",
"P.P.P.P.P.P.P.P.P.P.P.P.P.P.P.P.P.P.P.P.P.P.P.P.P.P.P.P.P.P.P.P.P.P.P.P.P.P.P.P.P.P.P.P.P.P.P.P.P.P.",
"P.P.P.P.P.P.P.P.P.P.P.P.P.P.P.P.P.P.P.P.P.P.P.P.P.P.P.P.P.P.P.P.P.P.P.P.P.P.P.P.P.P.P.P.P.P.P.P.P.P.",
"P.P.P.P.P.P.P.P.P.P.P.P.P.P.P.P.P.P.P.P.P.P.P.P.P.P.P.P.P.P.P.P.P.P.P.P.P.P.P.P.P.P.P.P.P.P.P.P.P.P.",
"P.P.P.P.P.P.P.P.P.P.P.P.P.P.P.P.P.P.P.P.P.P.P.P.P.P.P.P.P.P.P.P.P.P.P.P.P.P.P.P.P.P.P.P.P.P.P.P.P.P.",
"P.P.P.P.P.P.P.P.P.P.P.P.P.P.P.P.P.P.P.P.P.P.P.P.P.P.P.P.P.P.P.P.P.P.P.P.P.P.P.P.P.P.P.P.P.P.P.P.P.P.",
"P.P.P.P.P.P.P.P.P.P.P.P.P.P.P.P.P.P.P.P.P.P.P.P.P.P.P.P.P.P.P.P.P.P.P.P.P.P.P.P.P.P.P.P.P.P.P.P.P.P.",
"P.P.P.P.P.P.P.P.P.P.P.P.P.P.P.P.P.P.P.P.P.P.P.P.P.P.P.P.P.P.P.P.P.P.P.P.P.P.P.P.P.P.P.P.P.P.P.P.P.P."
};
