/* XPM */
static char *_632734052513[] = {
/* columns rows colors chars-per-pixel */
"50 25 130 2 ",
"   c black",
".  c #050300",
"X  c #060606",
"o  c gray3",
"O  c gray6",
"+  c #110A02",
"@  c #170D02",
"#  c #190E02",
"$  c #1C0F03",
"%  c #101010",
"&  c #211203",
"*  c #281603",
"=  c #311B04",
"-  c #361E05",
";  c #301F0D",
":  c #3D2206",
">  c gray16",
",  c #2F2F2F",
"<  c #323232",
"1  c #402406",
"2  c #4C2A07",
"3  c #532F08",
"4  c #5D3408",
"5  c #613609",
"6  c #683A0A",
"7  c #683B0A",
"8  c #713F0A",
"9  c gray26",
"0  c #494949",
"q  c #4C4C4C",
"w  c #565656",
"e  c #585858",
"r  c gray39",
"t  c #676767",
"y  c #7B7B7B",
"u  c #7E7E7E",
"i  c #844A0C",
"p  c #8A500D",
"a  c #98560F",
"s  c #9E5A0F",
"d  c #9F5D0F",
"f  c #A35F10",
"g  c #A65E10",
"h  c #A85F10",
"j  c #A96010",
"k  c #B06711",
"l  c #B56511",
"z  c #B76A12",
"x  c #C26C12",
"c  c #C16F13",
"v  c #C47113",
"b  c #C77113",
"n  c #CA7513",
"m  c #CF7614",
"M  c #D57914",
"N  c #E27F15",
"B  c #FF8707",
"V  c #FF8708",
"C  c #FF8809",
"Z  c #FF890D",
"A  c #E58216",
"S  c #ED8516",
"D  c #EF8716",
"F  c #F28817",
"G  c #F58B17",
"H  c #FF8C12",
"J  c #F88B17",
"K  c #FB8D17",
"L  c #FF8E15",
"P  c #FB8D18",
"I  c #FA8F18",
"U  c #FF8F18",
"Y  c #FF9018",
"T  c #FF9019",
"R  c #FF9519",
"E  c #FF921E",
"W  c #FF9A1A",
"Q  c #FF9D1A",
"!  c #FF9421",
"~  c #FF992C",
"^  c #FFA13C",
"/  c #FFA443",
"(  c #F8A953",
")  c #FFB258",
"_  c #FFB05D",
"`  c #FFB363",
"'  c #FFB66A",
"]  c #FFBB71",
"[  c #FFC07D",
"{  c #848484",
"}  c gray58",
"|  c gray60",
" . c #A2A2A2",
".. c gray65",
"X. c gray67",
"o. c #B1B1B1",
"O. c #B6B6B6",
"+. c #FFC282",
"@. c #FFC689",
"#. c #FFC990",
"$. c #FFCC97",
"%. c #FFD2A2",
"&. c #FFD4A6",
"*. c #FFD7AC",
"=. c #FFD8AF",
"-. c #FFD9B0",
";. c #FFDAB3",
":. c #C0C0C0",
">. c #C6C6C6",
",. c gray80",
"<. c #D2D2D2",
"1. c #D0D2D4",
"2. c #D5D5D5",
"3. c gainsboro",
"4. c #FFE6CB",
"5. c #FFE8CF",
"6. c #FFEAD4",
"7. c #FFF0DF",
"8. c #E9E9E9",
"9. c gray93",
"0. c #FFF0E1",
"q. c #FFF3E7",
"w. c #FFF4E8",
"e. c #FFF7EF",
"r. c gray95",
"t. c #F4F4F4",
"y. c #FFFAF6",
"u. c #F8F8F8",
"i. c #FFFCF9",
"p. c white",
/* pixels */
"U U U U U U U U U U U U U U U U T M z T U U U U U U U U U U U T d F T U U U U U U U U U U U U U U U ",
"U U U U U U U U U U U U U U U U S     l U U U U U U U U U U R 3   $ W L U U U U U U U U U U U U U U ",
"U U U U U U U U U U U U U U U T 6     . Q U U U U U U U U U F       f T U U U U U U U U U U U U U U ",
"U U U U U U U U U U U U U U U Q         c U U U U U U U U U p       1 R U U U U U U U U U U U U U U ",
"U U U U U U U U U U U U U U U G         a U U U U U U U U T 4       & T U U U U U U U U U U U U U U ",
"U U U U U U U U U U U U U U U k         6 T T L U U U U U W #         J U U U U U U U U U U U U U U ",
"U U U U U U U U U U U U U U U n         8 Y Y Y U U L T T R -       . P U U U U U U U U U U U U U U ",
"U U U U U U U U U U U U U U U Q         j T L T U U T L T T i       * R U U U U U U U U U U U U U U ",
"U U U U U U U U U U U U U U U R 1       A U U U U U U U U U b       5 T T Y U U U U U U U U U U U U ",
"U U U U U U U U U U U U U U U U g     = E U U U U U U U U U U +     m U T L U U U U U U U U U U U U ",
"U U U U U U U U U U U U U U U U T 2 @ A T T U P P U P U T T U x . i T U L U U U U U U U U U U U U U ",
"U U U U U U U U U U U U U U U U L G G T T :               8 T P G K T U T U U U U U U U U U U U U U ",
"U U U U U U T U U U T U U U U U T U U U s                   S T U U U U U U U U U T U U L T U U U U ",
"U U L Z C V C Z H U L U U U T T U U U T i                   v T U U U U U U U L L L H Z C B V C L U ",
"E ] %.5.w.e.7.4.-.$.[ _ ^ ~ E Z Z H L T h                   T T L H C Z ! ~ / ` +.$.-.6.0.e.y.q.*._ ",
"y.p.p.p.p.p.p.p.p.p.p.p.p.p.i.w.4.&.@.' (                 : ) ] #.=.6.e.p.p.p.p.p.p.p.p.p.p.p.p.p.p.",
"p.p.p.p.p.p.p.p.p.p.p.p.p.p.p.p.p.p.p.p.p. .              1.p.p.p.p.p.p.p.p.p.p.p.p.p.p.p.p.p.p.p.p.",
"p.p.p.p.p.p.p.p.p.p.p.p.p.p.p.p.p.p.p.p.p.p.X.%       > ,.p.p.p.p.p.p.p.p.p.p.p.p.p.p.p.p.p.p.p.p.p.",
"p.p.p.p.p.p.p.p.p.p.p.p.p.p.p.p.p.p.p.p.p.p.p.t.:. .2.r.p.p.p.p.p.p.p.p.p.p.p.p.p.p.p.p.p.p.p.p.p.p.",
"p.p.p.p.p.p.p.p.p.p.p.p.p.p.p.p.p.p.p.u <.p.p.p.p.p.p.p.p.p.O.o.p.p.p.p.p.p.p.p.p.p.p.p.p.p.p.p.p.p.",
"p.p.p.p.p.p.p.p.p.p.p.p.p.p.p.p.p.p.p.  w p.p.p.p.p.p.p.p.p.o 9 p.p.p.p.p.p.p.p.p.p.p.p.p.p.p.p.p.p.",
"p.p.p.p.p.p.p.p.p.p.p.p.p.p.p.p.p.p.p.0   } p.p.p.p.p.p.p.e   } p.p.p.p.p.p.p.p.p.p.p.p.p.p.p.p.p.p.",
"p.p.p.p.p.p.p.p.p.p.p.p.p.p.p.p.p.p.p.u.,   O r { | y w     t p.p.p.p.p.p.p.p.p.p.p.p.p.p.p.p.p.p.p.",
"p.p.p.p.p.p.p.p.p.p.p.p.p.p.p.p.p.p.p.p.p...< X       X q >.p.p.p.p.p.p.p.p.p.p.p.p.p.p.p.p.p.p.p.p.",
"p.p.p.p.p.p.p.p.p.p.p.p.p.p.p.p.p.p.p.p.p.p.p.u.8.3.9.p.p.p.p.p.p.p.p.p.p.p.p.p.p.p.p.p.p.p.p.p.p.p."
};
