/* XPM */
static char *_632734062819[] = {
/* columns rows colors chars-per-pixel */
"50 50 66 1 ",
"  c #663909",
". c #96540E",
"X c #A05A0E",
"o c #A45B0E",
"O c #A65D0E",
"+ c #B76611",
"@ c #B86711",
"# c #BA6710",
"$ c #C26D12",
"% c #C46E12",
"& c #CA7113",
"* c #CA7213",
"= c #CB7213",
"- c #CC7213",
"; c #CC7313",
": c #CD7313",
"> c #CF7312",
", c #CE7313",
"< c #CF7413",
"1 c #D07413",
"2 c #D07513",
"3 c #D47713",
"4 c #D17514",
"5 c #D87914",
"6 c #D97914",
"7 c #D97A14",
"8 c #DD7C14",
"9 c #E07D15",
"0 c #E27E15",
"q c #E27F15",
"w c #E48015",
"e c #E68115",
"r c #E88316",
"t c #EC8416",
"y c #F08716",
"u c #F18816",
"i c #F28817",
"p c #F48A17",
"a c #FF8C12",
"s c #FF8D13",
"d c #F88B17",
"f c #F98B17",
"g c #F98C17",
"h c #FA8D17",
"j c #FF8D14",
"k c #FF8E17",
"l c #FF8F17",
"z c #FC8D18",
"x c #FD8E18",
"c c #FE8E18",
"v c #FF8E18",
"b c #FF8F18",
"n c #FF9018",
"m c #FF9118",
"M c #FFB96E",
"N c #FFCF9E",
"B c #FFDCB6",
"V c #FFE0BF",
"C c #FFEEDC",
"Z c #FFEFDE",
"A c #FFF3E5",
"S c #FFF3E7",
"D c #FFF9F2",
"F c #FFFFFE",
"G c white",
"H c None",
/* pixels */
"HHHHHHHHHHHHHHHHHHHHHHHHHHHHHHHHHHHHHHHHHHHHHHHHHH",
"HHHHHHHHHHHHHHHHHHHHHHHHHHHHHHHHHHHHHHHHHHHHHHHHHH",
"HHHHHHHHHHHHHHHHHHHHHHHHHHHHHHHHHHHHHHHHHHHHHHHHHH",
"HHHHHHHHHHHHHHHHHHHHHHHHHHHHHHHHHHHHHHHHHHHHHHHHHH",
"HHHHHHHHHHHHHHHHHHHHHHHHHHHHHHHHHHHHHHHHHHHHHHHHHH",
"HHHHHHHHHHHHHHHHHHHHHHHHHHHHHHHHHHHHHHHHHHHHHHHHHH",
"HHHHHHHHHHHHHHHHHHHHHHHHHHHHHHHHHHHHHHHHHHHHHHHHHH",
"HHHHHHHHHHHHHHHHHHHHHHHHHHHHHHHHHHHHHHHHHHHHHHHHHH",
"HHHHHHHHHHHHHHHHHHHHHHHHHHHHHHHHHHHHHHHHHHHHHHHHHH",
"HHHHHHHHHHHHHHHHHHHHHHHHHHHHHHHHHHHHHHHHHHHHHHHHHH",
"HHHHHHHHHHHHHHHHHHHHHHHHHHHHHHHHHHHHHHHHHHHHHHHHHH",
"HHHHHHHHHHHHHHHHHHHHHHHHHHHHHHHHHHHHHHHHHHHHHHHHHH",
"HHHHHHHHHHHHHHHHHHHHHHHHHHHHHHHHHHHHHHHHHHHHHHHHHH",
"HHHHHHHHHHHHHHHHHHHHHHHHHHHHHHHHHHHHHHHHHHHHHHHHHH",
"HHHHHHHHHHHHHHHHHHHHHHHHHHHHHHHHHHHHHHHHHHHHHHHHHH",
"HHHHHHHHHHHvHHHHHHHHHnvnvnvnvHHHHHHHHHvHHHHHHHHHHH",
"HHHHHHHHHHHvvnvnHHHvvnvnvnvnvnvHHHvnvnvHHHHHHHHHHH",
"HHHHHHHHHHHHnvnvvnvnnvnvnvnvnvvnnvnvnvHHHHHHHHHHHH",
"HHHHHHHHHHHHvnvnnvnvvnvnvnvnnvnvvnvnvnHHHHHHHHHHHH",
"HHHHHHHHHHHHnvnvvnvnnvnvnvnvvnvnnvnvnvHHHHHHHHHHHH",
"HHHHHHHHHHHHvnvnnvvnvnvnvnvnnvnvvnvnnnHHHHHHHHHHHH",
"HHHHHHHHHHHHHnnvvnnlnvnvnvnvvnlnnvnvnHHHHHHHHHHHHH",
"HHHHHHHHHHHHHvvnnvnvvnvnvnvnvnvnvnvnvHHHHHHHHHHHHH",
"HHHHHHHHHHHHnvnvvnvnnvnvnvnvnvnvnvnvu:HHHHHHHHHHHH",
"HHHHHHHHHHHHnvlnvnvnvnvnvnvnvnvnvnvlg:HHHHHHHHHHHH",
"HHHHHHHHHHHHvnvnnvnvnvnvnvnvnvnvnvnvv=HHHHHHHHHHHH",
"HHHHHHHHHHHHnvnvvnvnvnvnvnvnvnvnvnvnn;;HHHHHHHHHHH",
"HHHHHHHHHHHvvnvnnvnvnvnvnvnvnvnvnvnvn;;HHHHHHHHHHH",
"HHHHHHHHHHHnvnvnvnvnvnvnvnvnvnvnvnvnv:;HHHHHHHHHHH",
"HHHHHHHHHHHvnvnvnvnvnvnvnvnvnvnvnvnvd:1HHHHHHHHHHH",
"HHHHHHHHHHHHvnvnvnvnvnvnvnvnvnvnvnvnt:;HHHHHHHHHHH",
"HHHHHHHHHHHHnvnvnvnvnvnvnvnvnvnvnvnv7:HHHHHHHHHHHH",
"HHHHHHHHHHHHnnvnvnvnvnvnvnvnvnvnvnvd=:HHHHHHHHHHHH",
"HHHHHHHHHHHHlvnvnvnvnvnvnvnvnvnvnvn3::HHHHHHHHHHHH",
"HHHHHHHHHHHHHnvnvnvnvnvnvnvnvnvnvn8::HHHHHHHHHHHHH",
"HHHHHHHHHHHHHHnvnvnvnvnvnvnvnvnvn0:<HHHHHHHHHHHHHH",
"HHHHHHHHHHHHHH#nnvnnvnvnvnvnvnnz7=1OHHHHHHHHHHHHHH",
"HHHHHHHHHHHHHHHorvnvnvnvnvnnnvw;:4XHHHHHHHHHHHHHHH",
"HHHHHHHHHHHHHHHHH$8eugvnvnge5=;4$HHHHHHHHHHHHHHHHH",
"HHHHHHHHHHHHHHHHHHH+=;vnnvt;;:@HHHHHHHHHHHHHHHHHHH",
"HHHHHHHHHHHHHHHHHHHHHHvvnvn HHHHHHHHHHHHHHHHHHHHHH",
"HHHHHHHHHHHHHHHHHHHHHHpnvnn.HHHHHHHHHHHHHHHHHHHHHH",
"HHHHHHHHHHHHHHHHHHHHHHvvnvnvHHHHHHHHHHHHHHHHHHHHHH",
"HHHHHHHHHHHHHHHHHHHHHHHnvnvnvsCHHHHHHHHHHHHHHHHHHH",
"HHHHHHHHHHHHHHHHHHHHHHHvnvnvvMGDHHHHHHHHHHHHHHHHHH",
"HHHHHHHHHHHHHHHHHHHHHHHHvnvnlBGGGHHHHHHHHHHHHHHHHH",
"HHHHHHHHHHHHHHHHHHHHHHHHvnnvaBGGGSHHHHHHHHHHHHHHHH",
"HHHHHHHHHHHHHHHHHHHHHHHHHHvnlNSCHHHHHHHHHHHHHHHHHH",
"HHHHHHHHHHHHHHHHHHHHHHHHHHHHHHHHHHHHHHHHHHHHHHHHHH",
"HHHHHHHHHHHHHHHHHHHHHHHHHHHHHHHHHHHHHHHHHHHHHHHHHH"
};
