/* XPM */
static char *_631988131777[] = {
/* columns rows colors chars-per-pixel */
"50 25 49 1 ",
"  c #393633",
". c #393733",
"X c #3A3633",
"o c #3A3733",
"O c #3A3734",
"+ c #3B3835",
"@ c #3D3936",
"# c #3D3A37",
"$ c #3E3B38",
"% c #3F3C39",
"& c #403D3A",
"* c #413E3B",
"= c #413F3B",
"- c #423F3B",
"; c #423F3C",
": c #44413B",
"> c #42403C",
", c #43403C",
"< c #43403D",
"1 c #44413D",
"2 c #44423D",
"3 c #45423D",
"4 c #46433D",
"5 c #46443E",
"6 c #47443E",
"7 c #47453E",
"8 c #48453E",
"9 c #48463E",
"0 c #49473F",
"q c #4A473F",
"w c #4B493F",
"e c #4C4A3E",
"r c #4D4A3F",
"t c #4C4B3F",
"y c #4D4B3F",
"u c #4E4B3F",
"i c #4C4940",
"p c #4C4A40",
"a c #4D4A40",
"s c #4D4B40",
"d c #4D4B41",
"f c #4E4B40",
"g c #4E4B41",
"h c #4D4C40",
"j c #4E4C40",
"k c #4E4C41",
"l c #4F4C41",
"z c #4F4D41",
"x c None",
/* pixels */
"xxxxxxxxxxxxxxxxxxxxxxxxxxxxxxxxxxxxxxxxxxxxxxxxxx",
"xxxxxxxxxxxxxxxxxxxxxxxxxxxxxxxxxxxxxxxxxxxxxxxxxx",
"xxxxxxxxxxxxxxxxxxxxxxxxxxxxxxxxxxxxxxxxxxxxxxxxxx",
"xxxxxxxxxxxxxxxxxyjzzzzzzzzzzjjyxxxxxxxxxxxxxxxxxx",
"xxxxxxxxxxxxxyyzzzzzzzzzzzzzzzzzzzjjxxxxxxxxxxxxxx",
"xxxxxxxxxxxjzzzzzzzzzzzzzzzzzzzzzzzzjjdxxxxxxxxxxx",
"xxxxxxxxxjzzzzzzzzzzzzzzzzzzzzzzzzzzzzzjxxxxxxxxxx",
"xxxxxxxyzzzzzzzzzzzzzzzzzzzzzzzzzzzzzzzzjjxxxxxxxx",
"xxxxxxdzzzzzzzzzzzzzzzjdzzjzzjzzjzzzzzzzzzjxxxxxxx",
"xxxxxdjzzzzzzzzzzzzjddddddydjjzzjjzzzzzzzzzjxxxxxx",
"xxxxxjzzzzzzdzzdi6333;;;-;;;;;3iiijjzjzzzzzzxxxxxx",
"xxxxjzzzzzzzd93;;;;;;;;;;;;;;;;;;;37djzzzzzjyxxxxx",
"xxxxjjzzzj93;;;;;;;;;;;;;;;;;;;;;;;;;39jzjzzjxxxxx",
"xxxxjzzjd3;;;;;;;;;;;;;;;;;;;;;;;;;;;;;<ijzzjxxxxx",
"xxxxxjz9;;;;;;;;;;;;;;;;;;;;;;;;;;;;;;;;<3jzyxxxxx",
"xxxxxj7;;;;;;;;;;;;;;;;;;;;;;;;;;;;;;;;;;;3jxxxxxx",
"xxxxxx;;;;;;;;;;;;;;;;;----%;;;;<<;;;;;;;;;:xxxxxx",
"xxxxxx<<;;;;;;;;%%             %+-;;;;;;;;-xxxxxxx",
"xxxxxxxx;;-;-++                   ++%<;-;-xxxxxxxx",
"xxxxxxxxx--+                          %-xxxxxxxxxx",
"xxxxxxxxxxx                           xxxxxxxxxxxx",
"xxxxxxxxxxxxxx                     +xxxxxxxxxxxxxx",
"xxxxxxxxxxxxxxxxx   + +    +    xxxxxxxxxxxxxxxxxx",
"xxxxxxxxxxxxxxxxxxxxxxxxxxxxxxxxxxxxxxxxxxxxxxxxxx",
"xxxxxxxxxxxxxxxxxxxxxxxxxxxxxxxxxxxxxxxxxxxxxxxxxx"
};
