/* XPM */
static char *_632734076732[] = {
/* columns rows colors chars-per-pixel */
"50 50 182 2 ",
"   c black",
".  c #010202",
"X  c #010203",
"o  c #040607",
"O  c #0E0F0F",
"+  c #0A1011",
"@  c #0C1314",
"#  c #0E1618",
"$  c #10191B",
"%  c #171818",
"&  c #161819",
"*  c #142023",
"=  c #142123",
"-  c #19292C",
";  c #1C2D30",
":  c #1C2D31",
">  c #1C2E30",
",  c #1C2E31",
"<  c #1D2F32",
"1  c #1A3236",
"2  c #1F3235",
"3  c #1D3236",
"4  c #1F3337",
"5  c #1E3538",
"6  c #202627",
"7  c #242626",
"8  c #242728",
"9  c #2B2F30",
"0  c #263437",
"q  c #2B3030",
"w  c #203539",
"e  c #223438",
"r  c #203639",
"t  c #213639",
"y  c #20363A",
"u  c #20373A",
"i  c #20373B",
"p  c #21373B",
"a  c #263639",
"s  c #20373C",
"d  c #22373C",
"f  c #20383C",
"g  c #21383C",
"h  c #21383D",
"j  c #22383C",
"k  c #23383C",
"l  c #22383D",
"z  c #22393D",
"x  c #23393D",
"c  c #22393E",
"v  c #23393E",
"b  c #233A3E",
"n  c #24393D",
"m  c #24393E",
"M  c #243A3E",
"N  c #253A3E",
"B  c #253B3E",
"V  c #253A3F",
"C  c #243B3F",
"Z  c #253B3F",
"A  c #263B3F",
"S  c #273C3F",
"D  c #2E393C",
"F  c #313536",
"G  c #333737",
"H  c #35383A",
"J  c #36393A",
"K  c #37393A",
"L  c #3A3B3C",
"P  c #383C3D",
"I  c #253C40",
"U  c #263C40",
"Y  c #273C40",
"T  c #263E42",
"R  c #273F43",
"E  c #283C40",
"W  c #293D41",
"Q  c #283E42",
"!  c #2B3E42",
"~  c #2C3F43",
"^  c #2C4043",
"/  c #284145",
"(  c #2A4045",
")  c #2E4044",
"_  c #2C4146",
"`  c #2F4348",
"'  c #354042",
"]  c #304245",
"[  c #314245",
"{  c #314246",
"}  c #324346",
"|  c #334447",
" . c #3C4041",
".. c #3B4244",
"X. c #3D4446",
"o. c #344548",
"O. c #354549",
"+. c #374649",
"@. c #38464A",
"#. c #34484C",
"$. c #35494E",
"%. c #3A484B",
"&. c #3A484C",
"*. c #3C494C",
"=. c #3C4A4D",
"-. c #3D4A4D",
";. c #3F4B4F",
":. c #3D4F55",
">. c #404445",
",. c #424546",
"<. c #414647",
"1. c #434849",
"2. c #454949",
"3. c #46494A",
"4. c #47494A",
"5. c #414D4F",
"6. c #494B4C",
"7. c #4A4C4C",
"8. c #4A4C4D",
"9. c #4B4C4E",
"0. c #4B4D4E",
"q. c #4D4D4E",
"w. c #4C4E4F",
"e. c #414D50",
"r. c #434E50",
"t. c #434E51",
"y. c #444F51",
"u. c #4E4F50",
"i. c #465052",
"p. c #475153",
"a. c #485153",
"s. c #4E5051",
"d. c #4F5253",
"f. c #495154",
"g. c #4A5255",
"h. c #4C5455",
"j. c #4D5557",
"k. c #4F5557",
"l. c #405258",
"z. c #425359",
"x. c #44555B",
"c. c #46565C",
"v. c #47575E",
"b. c #4F5658",
"n. c #535455",
"m. c #525759",
"M. c #545758",
"N. c #515859",
"B. c #52585A",
"V. c #565859",
"C. c #575859",
"Z. c #54595A",
"A. c #55595B",
"S. c #575B5D",
"D. c #595B5B",
"F. c #595B5C",
"G. c #5B5D5F",
"H. c #5C5F5F",
"J. c #4D5C64",
"K. c #5D5F60",
"L. c #5E5F60",
"P. c #5E6060",
"I. c #5E6061",
"U. c #5F6061",
"Y. c #5F6161",
"T. c #58656D",
"R. c #59666E",
"E. c #5A676F",
"W. c #5B6871",
"Q. c #5E6A72",
"!. c #606161",
"~. c #606162",
"^. c #616162",
"/. c #616262",
"(. c #616263",
"). c #626263",
"_. c #606C74",
"`. c #636E77",
"'. c #66717A",
"]. c #6F7982",
"[. c #808792",
"{. c None",
/* pixels */
"{.{.{.{.{.{.{.{.{.{.{.{.{.{.{.{.{.{.{.{.{.{.{.{.{.{.{.{.{.{.{.{.{.{.{.{.{.{.{.{.{.{.{.{.{.{.{.{.{.{.",
"{.{.{.{.{.{.{.{.{.{.{.{.{.{.{.{.{.{.{.{.{.{.{.{.{.{.{.{.{.{.{.{.{.{.{.{.{.{.{.{.{.{.{.{.{.{.{.{.{.{.",
"{.{.{.{.{.{.{.{.{.{.{.{.{.{.{.{.{.{.{.{.{.{.{.{.{.{.{.{.{.{.{.{.{.{.{.{.{.{.{.{.{.{.{.{.{.{.{.{.{.{.",
"{.{.{.{.{.{.{.{.{.{.{.{.{.{.{.{.{.{.{.{.{.{.{.{.{.{.{.{.{.{.{.{.{.{.{.{.{.{.{.{.{.{.{.{.{.{.{.{.{.{.",
"{.{.{.{.{.{.{.{.{.{.{.{.{.{.{.{.{.{.{.{.{.{.{.{.{.{.{.{.{.{.{.{.{.{.{.{.{.{.{.{.{.{.{.{.{.{.{.{.{.{.",
"{.{.{.{.{.{.{.{.{.{.{.{.{.{.{.{.{.{.{.{.{.{.{.{.{.{.{.{.{.{.{.{.{.{.{.{.{.{.{.{.{.{.{.{.{.{.{.{.{.{.",
"{.{.{.{.{.{.{.{.{.{.{.{.{.{.{.{.{.{.{.{.{.{.{.{.{.{.{.{.{.{.{.{.{.{.{.{.{.{.{.{.{.{.{.{.{.{.{.{.{.{.",
"{.{.{.{.{.{.{.{.{.{.{.{.{.{.{.{.{.{.{.{.{.{.{.{.{.{.{.{.{.{.{.{.{.{.{.{.{.{.{.{.{.{.{.{.{.{.{.{.{.{.",
"{.{.{.{.{.{.{.{.{.{.{.{.{.{.{.{.{.{.{.{.{.{.{.{.{.{.{.{.{.{.{.{.{.{.{.{.{.{.{.{.{.{.{.{.{.{.{.{.{.{.",
"{.{.{.{.{.{.{.{.{.{.{.{.{.{.{.{.{.{.{.{.{.{.{.{.{.{.{.{.{.{.{.{.{.{.{.{.{.{.{.{.{.{.{.{.{.{.{.{.{.{.",
"{.{.{.{.{.{.{.{.{.{.{.{.{.{.{.{.{.{.{.{.{.{.z z z {.{.{.{.{.{.{.{.{.{.{.{.{.{.{.{.{.{.{.{.{.{.{.{.{.",
"{.{.{.{.{.{.{.{.{.{.{.{.{.{.{.{.{.{.{.{.C Y t.h.h.@.z {.{.{.{.{.{.{.{.{.{.{.{.{.{.{.{.{.{.{.{.{.{.{.",
"{.{.{.{.{.{.{.{.{.{.{.{.{.{.{.{.{.{.{.C ! U.U.K.K.U.b.z {.{.{.{.{.{.{.{.{.{.{.{.{.{.{.{.{.{.{.{.{.{.",
"{.{.{.{.{.{.{.{.{.{.{.{.{.{.{.{.{.{.{.d S.H.K.K.K.K.K.*.{.{.{.{.{.{.{.{.{.{.{.{.{.{.{.{.{.{.{.{.{.{.",
"{.{.{.{.{.{.{.{.{.{.{.{.{.{.{.{.{.{.C ! (.U.K.K.K.K.K.b.z {.{.{.{.{.{.{.{.{.{.{.{.{.{.{.{.{.{.{.{.{.",
"{.{.{.{.{.{.{.{.{.{.{.{.{.{.{.{.{.{.C [ U.K.K.K.K.K.U.*.z {.{.{.{.{.{.{.{.{.{.{.{.{.{.{.{.{.{.{.{.{.",
"{.{.{.{.{.{.{.{.{.{.{.{.{.{.{.{.{.{.z C (.K.K.G.G.(.5.p C C C {.{.{.{.{.{.{.{.{.{.{.{.{.{.{.{.{.{.{.",
"{.{.{.{.{.{.{.{.{.{.{.{.{.{.{.{.{.C C C g.K.K.(.m.~ C C k C C C C {.{.{.{.{.{.{.{.{.{.{.{.{.{.{.{.{.",
"{.{.{.{.{.{.{.{.{.{.{.{.{.{.{.{.C C C C k 5.u.~ p C C C k C C a C a {.{.{.{.{.{.{.{.{.{.{.{.{.{.{.{.",
"{.{.{.{.{.{.{.{.{.{.{.{.{.{.{.C k C C a C z C C C C a z C C C C C C z {.{.{.{.{.{.{.{.{.{.{.{.{.{.{.",
"{.{.{.{.{.{.{.{.{.{.{.{.{.{.C C C C k C C k N C C k k C C C k C z z C 3 {.{.{.{.{.{.{.{.{.{.{.{.{.{.",
"{.{.{.{.{.{.{.{.{.{.{.{.{.C C C C k C C C N k C C C C C k C C k a.m.~ C , {.{.{.{.{.{.{.{.{.{.{.{.{.",
"{.{.{.{.{.{.{.{.{.{.{.{.{.C k C C C k k C C C C k C C k z I k u.(.K.U.C e {.{.{.{.{.{.{.{.{.{.{.{.{.",
"{.{.{.{.{.{.{.{.{.{.{.{.k C C C k C C C k N k N k C C C C z z K.! d y.*.p , {.{.{.{.{.{.{.{.{.{.{.{.",
"{.{.{.{.{.{.{.{.{.{.{.{.C C C k C C C C C C C C C C k N C N } } z Q z a.p > {.{.{.{.{.{.{.{.{.{.{.{.",
"{.{.{.{.{.{.{.{.{.{.{.{.C C C k k N k N k N k N N k C C C k } C 2   z | z > {.{.{.{.{.{.{.{.{.{.{.{.",
"{.{.{.{.{.{.{.{.{.{.{.C C C C C N C C k N C C k C N C N k C k E #   = z C , {.{.{.{.{.{.{.{.{.{.{.{.",
"{.{.{.{.{.{.{.{.{.{.{.I a z C C k C C N k C C N C k C k C C C Y o   @ Y z , , {.{.{.{.{.{.{.{.{.{.{.",
"{.{.{.{.{.{.{.{.K.K.U.+.C C C C N k N C C k N k C C C C C C k Q     + Y C , , {.{.{.{.{.{.{.{.{.{.{.",
"{.{.{.{.{.{.{.K.K.K.U.&.k N k N C C k C C N C C k N k N k C C I +   $ Y k , , {.{.{.{.{.{.{.{.{.{.{.",
"{.{.{.{.{.{.{.K.K.K.{.[ k N C k C C N C C k C C N C C k C k C C *   - C p - , {.{.{.{.{.{.{.{.{.{.{.",
"{.{.{.{.{.{.{.K.{.{.{.{.*.k C N k N k C C N k N k C C k C C C k k * C C C S {.{.{.{.{.{.{.{.{.{.{.{.",
"{.{.{.{.{.{.{.K.{.{.{.{.(.5.z C C C C C k C C k N k N C C I 5 C C C C C k C C {.{.{.{.{.{.{.{.{.{.{.",
"{.{.{.{.{.K.K.{.{.{.{.{.V.K.m.C z z C C k C C k C C k C C :.Q.T.d p k C C C k C C ( {.{.{.{.{.{.{.{.",
"{.{.{.{.{.{.{.{.{.{.{.{.{.H.G.P.o.z C z C C C C C C N C ! ` Q _ `.'.J.$.z C C z C       {.{.{.{.{.{.",
"{.{.{.{.{.{.{.{.{.{.{.{.{.2.(.G.U.Z.[ z C k k C k N k C $.v.v.z._.[.].W.p C C z *.      O {.{.{.{.{.",
"{.{.{.{.{.{.{.{.{.{.{.{.{.{.2.U.G.U.(.V.&.Y z z N C C C k x.T.E.:.3 p 5 3 a ' 8.q.L & & {.{.{.{.{.{.",
"{.{.{.{.{.{.{.{.{.{.{.{.{.{.{.P V.U.G.P.U.U.V.t.+.D z C C d p z e 0 H  .6.q.q.2.<.X.{.{.{.{.{.{.{.{.",
"{.{.{.{.{.{.{.{.{.{.{.{.{.{.{.{.8 <.n.V.S.G.U.U.U.(.(.D.n.d.s.q.q.n.,.K 7 {.{.{.{.{.{.{.{.{.{.{.{.{.",
"{.{.{.{.{.{.{.{.{.{.{.{.{.{.{.{.{.{.6 X.8.8.6.6.8.6.6.6.q.8.8.2.~ {.{.{.{.{.{.{.{.{.{.{.{.{.{.{.{.{.",
"{.{.{.{.{.{.{.{.{.{.{.{.{.{.{.{.{.{.{.{.{.{.9 J K J J F q {.{.{.{.{.{.{.{.{.{.{.{.{.{.{.{.{.{.{.{.{.",
"{.{.{.{.{.{.{.{.{.{.{.{.{.{.{.{.{.{.{.{.{.{.{.{.{.{.{.{.{.{.{.{.{.{.{.{.{.{.{.{.{.{.{.{.{.{.{.{.{.{.",
"{.{.{.{.{.{.{.{.{.{.{.{.{.{.{.{.{.{.{.{.{.{.{.{.{.{.{.{.{.{.{.{.{.{.{.{.{.{.{.{.{.{.{.{.{.{.{.{.{.{.",
"{.{.{.{.{.{.{.{.{.{.{.{.{.{.{.{.{.{.{.{.{.{.{.{.{.{.{.{.{.{.{.{.{.{.{.{.{.{.{.{.{.{.{.{.{.{.{.{.{.{.",
"{.{.{.{.{.{.{.{.{.{.{.{.{.{.{.{.{.{.{.{.{.{.{.{.{.{.{.{.{.{.{.{.{.{.{.{.{.{.{.{.{.{.{.{.{.{.{.{.{.{.",
"{.{.{.{.{.{.{.{.{.{.{.{.{.{.{.{.{.{.{.{.{.{.{.{.{.{.{.{.{.{.{.{.{.{.{.{.{.{.{.{.{.{.{.{.{.{.{.{.{.{.",
"{.{.{.{.{.{.{.{.{.{.{.{.{.{.{.{.{.{.{.{.{.{.{.{.{.{.{.{.{.{.{.{.{.{.{.{.{.{.{.{.{.{.{.{.{.{.{.{.{.{.",
"{.{.{.{.{.{.{.{.{.{.{.{.{.{.{.{.{.{.{.{.{.{.{.{.{.{.{.{.{.{.{.{.{.{.{.{.{.{.{.{.{.{.{.{.{.{.{.{.{.{.",
"{.{.{.{.{.{.{.{.{.{.{.{.{.{.{.{.{.{.{.{.{.{.{.{.{.{.{.{.{.{.{.{.{.{.{.{.{.{.{.{.{.{.{.{.{.{.{.{.{.{.",
"{.{.{.{.{.{.{.{.{.{.{.{.{.{.{.{.{.{.{.{.{.{.{.{.{.{.{.{.{.{.{.{.{.{.{.{.{.{.{.{.{.{.{.{.{.{.{.{.{.{."
};
