/* XPM */
static char *_632734072369[] = {
/* columns rows colors chars-per-pixel */
"50 50 190 2 ",
"   c black",
".  c #010202",
"X  c gray2",
"o  c #040506",
"O  c gray6",
"+  c #0A0F11",
"@  c #0A1112",
"#  c #0B1112",
"$  c #0B1212",
"%  c #0E1618",
"&  c #121C1E",
"*  c #121D1F",
"=  c #162326",
"-  c #1F2324",
";  c #19282B",
":  c #192A2C",
">  c #1B2C2F",
",  c #1B2D30",
"<  c #1D2D31",
"1  c #1C2E31",
"2  c #1C2F32",
"3  c #1D2F32",
"4  c #1D2F33",
"5  c #1C3337",
"6  c #1F3337",
"7  c #1D3538",
"8  c #1E3538",
"9  c #1F3639",
"0  c #1F373B",
"q  c #25292B",
"w  c #2B2F2F",
"e  c #2D3031",
"r  c #2E3132",
"t  c #203438",
"y  c #213538",
"u  c #213539",
"i  c #21363A",
"p  c #22373B",
"a  c #22383B",
"s  c #20383C",
"d  c #21383C",
"f  c #21383D",
"g  c #22383C",
"h  c #22383D",
"j  c #22393D",
"k  c #23393D",
"l  c #233A3D",
"z  c #23393E",
"x  c #223A3E",
"c  c #233A3E",
"v  c #24393D",
"b  c #27393D",
"n  c #243A3E",
"m  c #243A3F",
"M  c #243B3F",
"N  c #253B3F",
"B  c #29383A",
"V  c #373B3B",
"C  c #343D3F",
"Z  c #383A3B",
"A  c #393D3E",
"S  c #263B40",
"D  c #253C40",
"F  c #263C40",
"G  c #263E42",
"H  c #273F43",
"J  c #283C40",
"K  c #283D41",
"L  c #293D41",
"P  c #2A3E41",
"I  c #283D42",
"U  c #2A3E42",
"Y  c #2B3E42",
"T  c #2B3F42",
"R  c #2B3F43",
"E  c #2C3D40",
"W  c #2C3F43",
"Q  c #2D3F43",
"!  c #2B3F44",
"~  c #313E40",
"^  c #333F41",
"/  c #3D3F41",
"(  c #2D4043",
")  c #2E4043",
"_  c #2B4044",
"`  c #2D4044",
"'  c #2E4145",
"]  c #2D4146",
"[  c #304145",
"{  c #324346",
"}  c #394446",
"|  c #3E4446",
" . c #304449",
".. c #334448",
"X. c #344448",
"o. c #354548",
"O. c #364548",
"+. c #364649",
"@. c #38474A",
"#. c #39474B",
"$. c #36494F",
"%. c #3D4A4C",
"&. c #3C4A4D",
"*. c #3F4B4D",
"=. c #3E4B4E",
"-. c #3F4C4E",
";. c #3A4D53",
":. c #3B4D53",
">. c #424545",
",. c #424647",
"<. c #434647",
"1. c #434749",
"2. c #444848",
"3. c #464849",
"4. c #464949",
"5. c #464A4B",
"6. c #474A4B",
"7. c #414D4F",
"8. c #484A4B",
"9. c #494A4B",
"0. c #494B4C",
"q. c #494B4D",
"w. c #4A4B4C",
"e. c #494C4D",
"r. c #4A4C4D",
"t. c #4A4C4E",
"y. c #4B4D4E",
"u. c #4C4D4E",
"i. c #4C4E4E",
"p. c #4C4E4F",
"a. c #4D4E4F",
"s. c #444F51",
"d. c #454F51",
"f. c #4B4E50",
"g. c #4E4F50",
"h. c #465052",
"j. c #485153",
"k. c #4F5152",
"l. c #4C5456",
"z. c #4D5456",
"x. c #4D5556",
"c. c #415259",
"v. c #45555B",
"b. c #46575D",
"n. c #505152",
"m. c #505253",
"M. c #505456",
"N. c #535556",
"B. c #505758",
"V. c #505659",
"C. c #505759",
"Z. c #515759",
"A. c #545658",
"S. c #555758",
"D. c #555859",
"F. c #565859",
"G. c #575859",
"H. c #54595A",
"J. c #54595B",
"K. c #57595A",
"L. c #565B5C",
"P. c #58595A",
"I. c #5A5D5E",
"U. c #4D5D64",
"Y. c #4E5E65",
"T. c #4F5E65",
"R. c #505F67",
"E. c #5A5F60",
"W. c #5C5E60",
"Q. c #5C5F60",
"!. c #5D5F60",
"~. c #5E5F60",
"^. c #5E5F61",
"/. c #5E6060",
"(. c #5E6061",
"). c #5F6061",
"_. c #5F6062",
"`. c #5A686F",
"'. c #5B6870",
"]. c #5E6B73",
"[. c #606162",
"{. c #616263",
"}. c #626363",
"|. c #636364",
" X c #606C75",
".X c #657179",
"XX c #68737B",
"oX c #6F7983",
"OX c #838994",
"+X c None",
/* pixels */
"+X+X+X+X+X+X+X+X+X+X+X+X+X+X+X+X+X+X+X+X+X+X+X+X+X+X+X+X+X+X+X+X+X+X+X+X+X+X+X+X+X+X+X+X+X+X+X+X+X+X",
"+X+X+X+X+X+X+X+X+X+X+X+X+X+X+X+X+X+X+X+X+X+X+X+X+X+X+X+X+X+X+X+X+X+X+X+X+X+X+X+X+X+X+X+X+X+X+X+X+X+X",
"+X+X+X+X+X+X+X+X+X+X+X+X+X+X+X+X+X+X+X+X+X+X+X+X+X+X+X+X+X+X+X+X+X+X+X+X+X+X+X+X+X+X+X+X+X+X+X+X+X+X",
"+X+X+X+X+X+X+X+X+X+X+X+X+X+X+X+X+X+X+X+X+X+X+X+X+X+X+X+X+X+X+X+X+X+X+X+X+X+X+X+X+X+X+X+X+X+X+X+X+X+X",
"+X+X+X+X+X+X+X+X+X+X+X+X+X+X+X+X+X+X+X+X+X+X+X+X+X+X+X+X+X+X+X+X+X+X+X+X+X+X+X+X+X+X+X+X+X+X+X+X+X+X",
"+X+X+X+X+X+X+X+X+X+X+X+X+X+X+X+X+X+X+X+X+X+X+X+X+X+X+X+X+X+X+X+X+X+X+X+X+X+X+X+X+X+X+X+X+X+X+X+X+X+X",
"+X+X+X+X+X+X+X+X+X+X+X+X+X+X+X+X+X+X+X+X+X+X+X+X+X+X+X+X+X+X+X+X+X+X+X+X+X+X+X+X+X+X+X+X+X+X+X+X+X+X",
"+X+X+X+X+X+X+X+X+X+X+X+X+X+X+X+X+X+X+X+X+X+X+X+X+X+X+X+X+X+X+X+X+X+X+X+X+X+X+X+X+X+X+X+X+X+X+X+X+X+X",
"+X+X+X+X+X+X+X+X+X+X+X+X+X+X+X+X+X+X+X+X+X+X+X+X+X+X+X+X+X+X+X+X+X+X+X+X+X+X+X+X+X+X+X+X+X+X+X+X+X+X",
"+X+X+X+X+X+X+X+X+X+X+X+X+X+X+X+X+X+X+X+X+X+X+X+X+X+X+X+X+X+X+X+X+X+X+X+X+X+X+X+X+X+X+X+X+X+X+X+X+X+X",
"+X+X+X+X+X+X+X+X+X+X+X+X+X+X+X+X+X+X+X+X+X+X+X+Xj j J j j +X+X+X+X+X+X+X+X+X+X+X+X+X+X+X+X+X+X+X+X+X",
"+X+X+X+X+X+X+X+X+X+X+X+X+X+X+X+X+X+X+X+X+X+Xn W V.|.{.Q.&.j +X+X+X+X+X+X+X+X+X+X+X+X+X+X+X+X+X+X+X+X",
"+X+X+X+X+X+X+X+X+X+X+X+X+X+X+X+X+X+X+X+X+X+XF /.I.{.I.{.{.&.n +X+X+X+X+X+X+X+X+X+X+X+X+X+X+X+X+X+X+X",
"+X+X+X+X+X+X+X+X+X+X+X+X+X+X+X+X+X+X+X+X+Xj j.Q.).I.).I.I.{.n +X+X+X+X+X+X+X+X+X+X+X+X+X+X+X+X+X+X+X",
"+X+X+X+X+X+X+X+X+X+X+X+X+X+X+X+X+X+X+X+X+Xj M.I.I.{.Q.).I.{.[ n +X+X+X+X+X+X+X+X+X+X+X+X+X+X+X+X+X+X",
"+X+X+X+X+X+X+X+X+X+X+X+X+X+X+X+X+X+X+X+Xn n ( {.).I.I.{.I.{.' n +X+X+X+X+X+X+X+X+X+X+X+X+X+X+X+X+X+X",
"+X+X+X+X+X+X+X+X+X+X+X+X+X+X+X+X+X+Xn n n n n J H.).Q.Q.Q.I.n n +X+X+X+X+X+X+X+X+X+X+X+X+X+X+X+X+X+X",
"+X+X+X+X+X+X+X+X+X+X+X+X+X+X+X+Xj n n n n n n n j +.I.{.{.+.n n n i +X+X+X+X+X+X+X+X+X+X+X+X+X+X+X+X",
"+X+X+X+X+X+X+X+X+X+X+X+X+X+X+Xn n n n n n n n n n n i W D j n n n n t +X+X+X+X+X+X+X+X+X+X+X+X+X+X+X",
"+X+X+X+X+X+X+X+X+X+X+X+X+X+Xn j n n n n n n n j n n j n n n n n n n n 5 +X+X+X+X+X+X+X+X+X+X+X+X+X+X",
"+X+X+X+X+X+X+X+X+X+X+X+X+X+Xn j J D n n n n n n n v n v n n n n n n n i +X+X+X+X+X+X+X+X+X+X+X+X+X+X",
"+X+X+X+X+X+X+X+X+X+X+X+X+Xn j d.{./.' n n n n n n n n n n n n n n n n n 1 +X+X+X+X+X+X+X+X+X+X+X+X+X",
"+X+X+X+X+X+X+X+X+X+X+X+X+Xn ( {.d.V.L.j n n n n n n n n n n n n n n n n i +X+X+X+X+X+X+X+X+X+X+X+X+X",
"+X+X+X+X+X+X+X+X+X+X+X+Xn j h.' j g l.J n n n n n n n n n n n n n n n n i 1 +X+X+X+X+X+X+X+X+X+X+X+X",
"+X+X+X+X+X+X+X+X+X+X+X+Xn j 7.j ; n J ..n n n n n n n n n n n n n n n n n 1 +X+X+X+X+X+X+X+X+X+X+X+X",
"+X+X+X+X+X+X+X+X+X+X+X+Xj j W 1   = j ! n n n n n n n n n n n n n n n n n 1 +X+X+X+X+X+X+X+X+X+X+X+X",
"+X+X+X+X+X+X+X+X+X+X+Xn n n F &   # F D n n n n n n n n n n n n n n n n n 1 1 +X+X+X+X+X+X+X+X+X+X+X",
"+X+X+X+X+X+X+X+X+X+X+Xn n n F +     J n n n n n n n n n n n n n n n n n n 1 B +X+X+X+X+X+X+X+X+X+X+X",
"+X+X+X+X+X+X+X+X+X+X+Xn n n N #   o H n n n n n n n n n n n n n n n n n n 1 ^ ).Q.Q.+X+X+X+X+X+X+X+X",
"+X+X+X+X+X+X+X+X+X+X+Xn n n n &   % F n n n n n n n n n n n n n n n n n i 1 ~ ).Q.).Q.+X+X+X+X+X+X+X",
"+X+X+X+X+X+X+X+X+X+X+X+Xn n n t   1 j n n n n n n n n n n n n n n n n n i 1 C +X+XQ.).+X+X+X+X+X+X+X",
"+X+X+X+X+X+X+X+X+X+X+X+Xn n n n i n n n n n n n n n n n n n n n n n n D 1 2.+X+X+X+XQ.+X+X+X+X+X+X+X",
"+X+X+X+X+X+X+X+X+X+Xn n n n n n j n 9  .:.j n n n n n n n n n n n n j b 6.6.+X+X+X+XQ.Q.+X+X+X+X+X+X",
"+X+X+X+X+X+X+X# ; N n n n n j 8 '  X`.v.! n n n n n n n n n n n n i &.a.a.| +X+X+X+X+X+XQ.+X+X+X+X+X",
"+X+X+X+X+XX       j n n n 9 XXOXoXc.T.T.T.$.n n n n n n n n n a ( V.a.r.4.+X+X+X+X+X+X+X+X+X+X+X+X+X",
"+X+X+X+X+X+X    # Q.X.a n n J :.]..X'.Q n n n n n n n n n j ' V.{.a.r.r.+X+X+X+X+X+X+X+X+X+X+X+X+X+X",
"+X+X+X+X+X+X+Xw 8.r.n.f.} W N 9 a 5 n R.b.n n j j j j W &.L.{.H.r.r.r.+X+X+X+X+X+X+X+X+X+X+X+X+X+X+X",
"+X+X+X+X+X+X+X+X+X+XZ A 1.8.a.M.l.7.&.@.[ X.@.7.j.H.Q.{.Q.S.r.w.r.4.+X+X+X+X+X+X+X+X+X+X+X+X+X+X+X+X",
"+X+X+X+X+X+X+X+X+X+X+X+X+X+X+Xe >.k.n.N.P.P.H.P.H.S.n.g.8.u.a.2.e +X+X+X+X+X+X+X+X+X+X+X+X+X+X+X+X+X",
"+X+X+X+X+X+X+X+X+X+X+X+X+X+X+X+X+Xq V <.8.w.r.r.w.r.r.w.3./ q +X+X+X+X+X+X+X+X+X+X+X+X+X+X+X+X+X+X+X",
"+X+X+X+X+X+X+X+X+X+X+X+X+X+X+X+X+X+X+X+X+X+X+X+X+X+X+X+X+X+X+X+X+X+X+X+X+X+X+X+X+X+X+X+X+X+X+X+X+X+X",
"+X+X+X+X+X+X+X+X+X+X+X+X+X+X+X+X+X+X+X+X+X+X+X+X+X+X+X+X+X+X+X+X+X+X+X+X+X+X+X+X+X+X+X+X+X+X+X+X+X+X",
"+X+X+X+X+X+X+X+X+X+X+X+X+X+X+X+X+X+X+X+X+X+X+X+X+X+X+X+X+X+X+X+X+X+X+X+X+X+X+X+X+X+X+X+X+X+X+X+X+X+X",
"+X+X+X+X+X+X+X+X+X+X+X+X+X+X+X+X+X+X+X+X+X+X+X+X+X+X+X+X+X+X+X+X+X+X+X+X+X+X+X+X+X+X+X+X+X+X+X+X+X+X",
"+X+X+X+X+X+X+X+X+X+X+X+X+X+X+X+X+X+X+X+X+X+X+X+X+X+X+X+X+X+X+X+X+X+X+X+X+X+X+X+X+X+X+X+X+X+X+X+X+X+X",
"+X+X+X+X+X+X+X+X+X+X+X+X+X+X+X+X+X+X+X+X+X+X+X+X+X+X+X+X+X+X+X+X+X+X+X+X+X+X+X+X+X+X+X+X+X+X+X+X+X+X",
"+X+X+X+X+X+X+X+X+X+X+X+X+X+X+X+X+X+X+X+X+X+X+X+X+X+X+X+X+X+X+X+X+X+X+X+X+X+X+X+X+X+X+X+X+X+X+X+X+X+X",
"+X+X+X+X+X+X+X+X+X+X+X+X+X+X+X+X+X+X+X+X+X+X+X+X+X+X+X+X+X+X+X+X+X+X+X+X+X+X+X+X+X+X+X+X+X+X+X+X+X+X",
"+X+X+X+X+X+X+X+X+X+X+X+X+X+X+X+X+X+X+X+X+X+X+X+X+X+X+X+X+X+X+X+X+X+X+X+X+X+X+X+X+X+X+X+X+X+X+X+X+X+X",
"+X+X+X+X+X+X+X+X+X+X+X+X+X+X+X+X+X+X+X+X+X+X+X+X+X+X+X+X+X+X+X+X+X+X+X+X+X+X+X+X+X+X+X+X+X+X+X+X+X+X"
};
