/* XPM */
static char *_632734067718[] = {
/* columns rows colors chars-per-pixel */
"50 25 133 2 ",
"   c #010101",
".  c #020303",
"X  c #030506",
"o  c #06090A",
"O  c #090A0A",
"+  c #090F10",
"@  c #0A1112",
"#  c #0B1314",
"$  c #0E1719",
"%  c #0F181A",
"&  c #111112",
"*  c #151616",
"=  c #101A1C",
"-  c #111D1E",
";  c #121E20",
":  c #142022",
">  c #172629",
",  c #19292B",
"<  c #1C2D30",
"1  c #1C2E31",
"2  c #1D3033",
"3  c #1A3235",
"4  c #1F3336",
"5  c #1F3539",
"6  c #1F373B",
"7  c #242525",
"8  c #242728",
"9  c #2C2D2D",
"0  c #203437",
"q  c #203538",
"w  c #22373B",
"e  c #21383C",
"r  c #243A3E",
"t  c #253B3F",
"y  c #333535",
"u  c #393A3B",
"i  c #253C40",
"p  c #273C40",
"a  c #273F44",
"s  c #283C40",
"d  c #2C3D40",
"f  c #2D4043",
"g  c #2A4044",
"h  c #2F4144",
"j  c #2D4247",
"k  c #334347",
"l  c #344447",
"z  c #304449",
"x  c #344548",
"c  c #38474A",
"v  c #39484B",
"b  c #3A484B",
"n  c #3C494B",
"m  c #3C494C",
"M  c #384A51",
"N  c #3A4D52",
"B  c #3B4D53",
"V  c #404C4F",
"C  c #484A4B",
"Z  c #4B4D4E",
"A  c #424E50",
"S  c #444E51",
"D  c #455051",
"F  c #475053",
"G  c #485153",
"H  c #4A5355",
"J  c #4C5456",
"K  c #4D5456",
"L  c #43545B",
"P  c #46565D",
"I  c #4F5658",
"U  c #48575E",
"Y  c #505252",
"T  c #515354",
"R  c #515658",
"E  c #525859",
"W  c #575B5C",
"Q  c #595A5B",
"!  c #595B5B",
"~  c #595B5C",
"^  c #585C5D",
"/  c #5B5D5D",
"(  c #5B5D5F",
")  c #5C5E5F",
"_  c #5D5F5F",
"`  c #4F5E65",
"'  c #505F67",
"]  c #5C5E60",
"[  c #5D5F60",
"{  c #5F6161",
"}  c #5F6162",
"|  c #54636A",
" . c #56636B",
".. c #5D6A73",
"X. c #606162",
"o. c #616366",
"O. c #646668",
"+. c #686A6D",
"@. c #626E76",
"#. c #6E7074",
"$. c #6E7174",
"%. c #717277",
"&. c #76787D",
"*. c #6E7781",
"=. c #767A81",
"-. c #717A84",
";. c #797B81",
":. c #757E88",
">. c #767E88",
",. c #79828C",
"<. c #7C848E",
"1. c #7E8691",
"2. c #7F8792",
"3. c #83858E",
"4. c #808791",
"5. c #878993",
"6. c #838995",
"7. c #848A95",
"8. c #868C97",
"9. c #888A93",
"0. c #888C97",
"q. c #8C8D97",
"w. c #898E9A",
"e. c #8D9099",
"r. c #90929D",
"t. c #92939E",
"y. c #9496A1",
"u. c #9497A2",
"i. c #969AA7",
"p. c #989AA6",
"a. c #999CA9",
"s. c #9EA1AD",
"d. c #A7A8B6",
/* pixels */
"r r r r r r r r r r r r r r r e I [ [ W s r r r r r r e m [ X.) c e r r r r r r r r r r r r r r r r ",
"r r r r r r r r r r r r r r r J [ [ [ [ [ r r r r r r c X.[ [ [ o.l r r r r r r r r r r r r r r r r ",
"r r r r r r r r r r r r r r x X.} } [ } [ G e r r r r X.} } ( X.) } e e r r r r r r r r r r r r r r ",
"r r r r r r r r r r r r r e E } x 6 e d ~ X.i r r r m X.F w w r H X.b i r r r r r r r r r r r r r r ",
"r r r r r r r r r r r r r e X.l r r a e r X.l r r e J J e r s i w E H e r r r r r r r r r r r r r l ",
"J e r r r r r r r r r r r s E e r <   < r b V r r w [ e e w . = i t ! e r r r r r r r r r r r r r ) ",
"} m r r r r r r r r r r r x l r i       i e A r r 6 J e r #     2 r S e r r r r r r r r r r r e W } ",
"[ X.h r r r r r r r r r r l i r ,       0 e x r r 6 m r i       = r x e r r r r r r r r r r e J ) ) ",
"[ [ } r r r r r r r r r r t r r =       : r r r e s i e w       @ t r r r r r r r r r r t e m } } } ",
"[ [ [ ~ e r r r r r r r r r r r %       ; r r r i e s e 0         t r r r r r r r r r r r f X.) ) ) ",
"[ [ [ [ J w r r r r r r r r r r :       : r r r e s e s 0       @ t r r r r r r r r r r t } ) } } ) ",
"[ [ [ [ } V e r r r r r r r r r <       w r r r s e i e i       = r r r r r r r r r r r ( ) ) } ) ) ",
"[ [ [ [ [ } c r r r r r r r r r t o   X r r r r r r r r r =     2 r r r r r r r r r e W } ) ) ) ) } ",
"[ [ [ [ [ [ X.c ` w e r r r r r i , # < r r r r r r r r r w % : r r r r r r r 3 B M W ) ) ) } ) ) ) ",
"[ [ [ [ [ [ [ [ =.1.1.| r w e r t e < w r r r r r r r r r t 2 4 r r r e 3 U >.8.*.O.) ) ) } ) } } } ",
"[ [ [ [ [ [ [ [ ) J 0 | 4.7...z 3 e t t r r r r r r r r r e t e 5 6 | <.8.@.h t ) ) ) } ) } ) ) ) ) ",
"} ) ) ) _ ) ! ( ) } ( k w < P >.7...B 6 r r r r r r s e s e h  .:.7.| 6 5 r D X.) [ ( ) ) } ) ) ) ) ",
") ) } } } } &.t.t.q.t.t.y.0.,.w.a.d.a.| r r r r r r e i e h i.d.s.t.<.2.t.t.e.t.t.e.3.) ) } ) } } } ",
") } ) ) ) ) ( ( ( ( Q ) #.4.y.4.| t w e e i w , , , 4 e r s 6 6 L -.u.5.&.o.Q Q ) ) ) _ ) ) } ) ) ) ",
") ) } ) ) } } ) %.9.p.q.&.X.) ) ) S t t w >           + e e s z R ) ( ) $.5.i.e.;.X._ _ } ) ) ) ) } ",
"} } ) ) } ) ) ) &.o.Q ) [ [ [ [ ) ) } [ ~ 8           O [ [ } } _ } ( ( ) ( Q } $.+.) ) } ) ) } ) ) ",
") ) ) } ) ) } ) ) ) _ _ [ [ [ [ [ [ [ [ [ u           * } } ] [ ( } _ } _ } _ ) ) ) } ) } ) ) } } ) ",
") ) ) } ) } ) } } ) } ) [ [ [ [ [ [ [ [ [ W &         Z [ [ [ [ ( _ } _ } ( } ) X.} ) ) ) ) ) ) ) ) ",
"} } ) ) ) } ) ) ) ) } ) [ [ [ [ [ [ [ [ [ [ Y y 7 9 C ~ [ [ [ [ } _ ( ( } _ ) ) ) ) ) } ) } } ) } } ",
") ) } ) ) } ) ) [ [ [ [ [ [ [ [ [ [ [ [ [ [ ) T Z K Q ) ) [ [ [ ) } ) ) } ) ) } ) } ) ) } ) ) } ) ) "
};
