/* XPM */
static char *_633188953747[] = {
/* columns rows colors chars-per-pixel */
"50 50 230 2 ",
"   c #211D1F",
".  c #332E31",
"X  c #524A4F",
"o  c #5C5358",
"O  c #62595E",
"+  c #6E646A",
"@  c #796E75",
"#  c #7F747A",
"$  c #7F747B",
"%  c #84787F",
"&  c #887C82",
"*  c #8C7F87",
"=  c #967982",
"-  c #E17D98",
";  c #E07F99",
":  c #91848B",
">  c #93878F",
",  c #9C8E95",
"<  c #9F9099",
"1  c #A2848E",
"2  c #A98A94",
"3  c #AC8B96",
"4  c #AB8C96",
"5  c #AA9BA3",
"6  c #A99BA4",
"7  c #AA9BA4",
"8  c #AB9CA4",
"9  c #AC9DA6",
"0  c #AD9EA7",
"q  c #BC97A3",
"w  c #B5A5AE",
"e  c #B9A1AB",
"r  c #B8A8B1",
"t  c #BAAAB4",
"y  c #BBAAB4",
"u  c #BCACB5",
"i  c #BDADB6",
"p  c #BEAEB7",
"a  c #BFAEB8",
"s  c #BFAFB8",
"d  c #DD869D",
"f  c #E2819B",
"g  c #E79FB4",
"h  c #C7A2AF",
"j  c #CAA3AF",
"k  c #C0AFB9",
"l  c #D8AEBC",
"z  c #DDAEBD",
"x  c #C2B1BA",
"c  c #C2B1BB",
"v  c #C4B3BD",
"b  c #C5B3BE",
"n  c #C5B4BE",
"m  c #C6B5BF",
"M  c #D2B0BD",
"N  c #DBB0BD",
"B  c #DCB0BD",
"V  c #E2A0B3",
"C  c #E7A1B6",
"Z  c #E3A7B8",
"A  c #E7A6B9",
"S  c #E8A3B8",
"D  c #E3A9B9",
"F  c #E4AABC",
"G  c #E3ACBC",
"H  c #E3ADBD",
"J  c #E3AEBE",
"K  c #E3AFBF",
"L  c #E5AEBF",
"P  c #C8B6C1",
"I  c #C8B7C1",
"U  c #C9B7C2",
"Y  c #CAB8C2",
"T  c #CAB9C3",
"R  c #CBBAC4",
"E  c #CDBAC5",
"W  c #CDBBC6",
"Q  c #CFBCC7",
"!  c #D3BAC5",
"~  c #D1BEC9",
"^  c #D1BFC9",
"/  c #D2BFCA",
"(  c #D7BDC9",
")  c #E3B3C1",
"_  c #E3B3C2",
"`  c #E5B1C1",
"'  c #E6B1C1",
"]  c #E0B4C2",
"[  c #E3B4C2",
"{  c #E3B4C3",
"}  c #E3B6C4",
"|  c #E3B7C5",
" . c #E3B7C6",
".. c #E4B7C5",
"X. c #EAB1C4",
"o. c #E9B3C4",
"O. c #E9B3C5",
"+. c #E9B5C6",
"@. c #EAB4C6",
"#. c #E9B7C7",
"$. c #EAB6C7",
"%. c #E3B8C6",
"&. c #E4B8C6",
"*. c #E4B9C7",
"=. c #E5BAC7",
"-. c #EBB7C9",
";. c #E4BAC8",
":. c #E5BAC8",
">. c #E5BBC8",
",. c #E5BBC9",
"<. c #E5BCCA",
"1. c #E6BDCB",
"2. c #E6BECB",
"3. c #E6BECC",
"4. c #E6BFCC",
"5. c #EAB8C9",
"6. c #EBBCCC",
"7. c #ECBCCC",
"8. c #ECBDCE",
"9. c #ECBECE",
"0. c #ECBECF",
"q. c #EDBECF",
"w. c #D6C4CF",
"e. c #D9C5D1",
"r. c #D8C6D0",
"t. c #D9C6D1",
"y. c #DAC7D2",
"u. c #DDC9D4",
"i. c #DDCAD4",
"p. c #DDCAD5",
"a. c #DDCBD5",
"s. c #E7C0CD",
"d. c #E5C1CE",
"f. c #E7C0CE",
"g. c #E7C1CE",
"h. c #E7C2CF",
"j. c #E8C3D0",
"k. c #E8C3D1",
"l. c #ECC1D0",
"z. c #ECC2D1",
"x. c #EDC2D1",
"c. c #EDC2D2",
"v. c #E8C4D1",
"b. c #E8C5D2",
"n. c #E9C5D2",
"m. c #E9C5D3",
"M. c #E9C6D3",
"N. c #EDC4D3",
"B. c #EAC7D5",
"V. c #EDC6D5",
"C. c #EAC8D5",
"Z. c #EAC9D6",
"A. c #EACAD6",
"S. c #EACAD7",
"D. c #EBCAD7",
"F. c #ECC9D7",
"G. c #EEC8D6",
"H. c #E1CDD8",
"J. c #E2CFDA",
"K. c #E3CFDB",
"L. c #EBCBD8",
"P. c #EECAD9",
"I. c #ECCDDA",
"U. c #ECCEDB",
"Y. c #EFCEDB",
"T. c #EDCFDC",
"R. c #E4D0DB",
"E. c #E5D1DD",
"W. c #E7D3DE",
"Q. c #EDD0DC",
"!. c #EDD0DD",
"~. c #EDD1DD",
"^. c #EFD0DD",
"/. c #EDD1DE",
"(. c #EDD2DE",
"). c #EDD2DF",
"_. c #EED2DE",
"`. c #EED2DF",
"'. c #EED3DF",
"]. c #F0D1DE",
"[. c #F0D2DF",
"{. c #EED3E0",
"}. c #EFD3E0",
"|. c #E8D4E0",
" X c #E9D5E1",
".X c #EAD6E1",
"XX c #EBD6E1",
"oX c #EBD6E2",
"OX c #EBD7E2",
"+X c #EBD7E3",
"@X c #EED4E0",
"#X c #EFD4E1",
"$X c #EFD5E1",
"%X c #ECD7E3",
"&X c #EFD6E2",
"*X c #EFD6E3",
"=X c #ECD8E4",
"-X c #EDD8E4",
";X c #EDD9E5",
":X c #EED9E5",
">X c #EEDAE6",
",X c #EFDAE6",
"<X c #EFDBE6",
"1X c #F0D3E0",
"2X c #F0D5E2",
"3X c #F0D6E2",
"4X c #F1D6E3",
"5X c #F0D7E3",
"6X c #F0D7E4",
"7X c #F1D7E4",
"8X c #F0D8E4",
"9X c #F0D8E5",
"0X c #F0D9E5",
"qX c #F1D9E5",
"wX c #F1DAE6",
"eX c #F1DAE7",
"rX c #F0DBE7",
"tX c #F1DBE7",
"yX c #F2DAE7",
"uX c #F2DBE7",
"iX c #F0DCE7",
"pX c #F1DBE8",
"aX c #F2DBE8",
"sX c #F1DCE8",
"dX c #F1DDE8",
"fX c #F1DDE9",
"gX c #F2DCE8",
"hX c #F2DCE9",
"jX c #F2DDE9",
"kX c None",
/* pixels */
"kXkXkXkXkXkXkXkXkXkXkXkXkXkXkXkXkXkXkXkXkXkXkXkXkXkXkXkXkXkXkXkXkXkXkXkXkXkXkXkXkXkXkXkXkXkXkXkXkXkX",
"kXkXkXkXkXkXkXkXkXkXkXkXkXkXkXkXkXkXkXkXkXkXkXkXkXkXkXkXkXkXkXkXkXkXkXkXkXkXkXkXkXkXkXkXkXkXkXkXkXkX",
"kXkXkXkXkXkXkXkXkXkXkXkXkXkXkXkXkXkXkXkXkXkXkXkXkXkXkXkXkXkXkXkXkXkXkXkXkXkXkXkXkXkXkXkXkXkXkXkXkXkX",
"kXkXkXkXkXkXkXkXkXkXkXkXkXkXkXkXkXkXkXkXkXkXkXkXkXkXkXkXkXkXkXkXkXkXkXkXkXkXkXkXkXkXkXkXkXkXkXkXkXkX",
"kXkXkXkXkXkXkXkXkXkXkXkXkXkXkXkXkXkXkXkXkXkXkXkXkXkXkXkXkXkXkXkXkXkXkXkXkXkXkXkXkXkXkXkXkXkXkXkXkXkX",
"kXkXkXkXkXkXkXkXkXkXkXkXkXkXkXkXkXkXkXkXkXkXkXkXkXkXkXkXkXkXkXkXkXkXkXkXkXkXkXkXkXkXkXkXkXkXkXkXkXkX",
"kXkXkXkXkXkXkXkXkXkXkXkXkXkXkXkXkXkXkXkXkXkXkXkXkXkXkXkXkXkXkXkXkXkXkXkXkXkXkXkXkXkXkXkXkXkXkXkXkXkX",
"kXkXkXkXkXkXkXkXkXkXkXkXkXkXkXkXkXkXkXkXkXkXkXkXkXkXkXkXkXkXkXkXkXkXkXkXkXkXkXkXkXkXkXkXkXkXkXkXkXkX",
"kXkXkXkXkXkXkXkXkXkXkXkXkXkXkXkXkXkXkXkXkXkXkXkXkXkXkXkXkXkXkXkXkXkXkXkXkXkXkXkXkXkXkXkXkXkXkXkXkXkX",
"kXkXkXkXkXkXkXkXkXkXkXkXkXkXkXkXkXkXkXkXkXkXkXkXkXkXkXkXkXkXkXkXkXkXkXkXkXkXkXkXkXkXkXkXkXkXkXkXkXkX",
"kXkXkXkXkXkXkXkXkXkXkXkXkXkXkXkXkXkXkXkXkXkXkXkXkXkXkXkXkXkXkXkXkXkXkXkXkXkXkXkXkXkXkXkXkXkXkXkXkXkX",
"kXkXkXkXkXkXkXkXkXkXkXkXkXkXkXkXkXkXkXkXkXkXkXkXkXkXkXkXkXkXkXkXkXkXkXkXkXkXkXkXkXkXkXkXkXkXkXkXkXkX",
"kXkXkXkXkXkXkXkXkXkXkXkXkXkXkXkXkXkXkXkXkXkXkXkXkXkXkXkXkXkXkXkXkXkXkXkXkXkXkXkXkXkXkXkXkXkXkXkXkXkX",
"kXkXkXkXkXkXkXkXkXkXkXkXkXkXkXkXkXkXkXkXkXkXkXkXkXkXkXkXkXkXkXkXkXkXkXkXkXkXkXkXkXkXkXkXkXkXkXkXkXkX",
"kXkXkXkXkXkXkXkXkXkXkXkXkXkX,.&.,.T.jXjXjXjXjXjXkXkXkXkXkXkXkXkXkXkXkXkXkXkXkXkXkXkXkXkXkXkXkXkXkXkX",
"kXkXkXkXkXkXkXkXkXkXkXkXkX| | ,.).jXjXjXjXjXjXjXjXjXkXkXkXkXkXkXkXkXkXkXkXkXkXkXkXkXkXkXkXkXkXkXkXkX",
"kXkXkXkXkXkXkXkXkXkXkX&.} ) &.5XjXjXjXjXjXjXjXjXjXjXjXkXkXkXkXkXkXkXkXkXkXkXkXkXkXkXkXkXkXkXkXkXkXkX",
"kXkXkXkXkXkXkXkXkXkX,.) ) F 5X5XjXjXjXjXjXjXjXjXjXjXjXjXE.kXkXkXkXkXkXkXkXkXkXkXkXkXkXkXkXkXkXkXkXkX",
"kXkXkXkXkXkXkXkXkXkX} Z L -.[.P.jXjXjXjXjXjXjXjXjXjXjXjX,Xy.kXjXjXjXjXjXjXjXjXjXkXkXkXkXkXkXkXkXkXkX",
"kXkXkXkXkXkXkXkXkX| } L ) 8.x.7XjXjXjXjXjXjXjXjXjXjXjXjXjXrXjXjXjXiX7X'.).T.).7XiXjXjXkXkXkXkXkXkXkX",
"kXkXkXkXkXkXkXkX,.| } ..X.q.7.jXjXjXjXjXjXjXjXjXjXjXjXjXjXjXjX).j.&.&.&.| } | &.2.Z.rXpXkXkXkXkXkXkX",
"kXkXkXkXkXkXkXkX| | } M.$.X.V.jXjXjX,XoXjXjXjXjXjXjXjXjXjXjX5X&.} } } } } } } } } | j.6XjXkXkXkXkXkX",
"kXkXkXkXkXkXkXkX} } | ).c.g rXjXn 8 5 9 jXjXjXjXjXjXjXjXjXjX$X| } } } } } } } } } } } 4.rXjXkXkXkXkX",
"kXkXkXkXkXkXkX&.} ..&.rX[.A gXjXi.o . E jXjXjXjXjXjXjXjXjXjXrX2.} } } } } } } } } } } } F.jXjXkXkXkX",
"kXkXkXkXkXkXkX,.} } d.jXrX).jXjXH.X @ # iXjXjXjXjXjXjXjXjXjXjX).2.} } } } } | } } } } } &.$XjXkXkXkX",
"kXkXkXkXkXkXkX&.} } M.N.X.5XgXgXE.u H.w.jXjXjXjXjXjXjXjXjXjXjXjX*X~.I.Z.M.d.4.&.} } } } %.M.jXjXkXkX",
"kXkXkXkXkXkXkX&.} } L f - G.gXgXrX,XjXjXjXjXjXjXjXjXjXjXjXjXjXoX*XjXjXjXjXjXjX*X).M.&.| } &.*XjXkXkX",
"kXkXkXkXkXkXkX&.} } g - - F.gXgXjXjXjXjXjXjXjXjXjXjXjXjXjXjXrXR b kXkXkXkXjXjXjXjXiX,XY.2.%.P.jXkXkX",
"kXkXkXkXkXkXkX&.} } z d ; F.jXjXiXH.pXP ,XjXjXjXjXjXjXjXjXjX,XP P kXkXkXkXkXkXkXkXjXjXjXpX).V.iXjXkX",
"kXkXkXkXkXkXkX,.} } d.( M oXjXjXR.O & + oXjXjXjXjXjXjXjXjXjX<XoXrXpXjXjXjXjXjXkXkXkXkXkXjXjXjXjXjXkX",
"kXkXkXkXkXkXkX&.} } 2.rX$Xl.jXjX<X6   # oXjXjXjXjXjXjXjXjXjXjXjXjXrXrXjXjXjXjXjXjXjXjXkXkXkXjXjXjXkX",
"kXkXkXkXkXkXkXkX} } &.rXY.C jXjXjX% 6 * y.jXjXjXjXjXjXjXjXjXjXjXZ.,.,.4.M.Y.$XrXjXjXjXjXjXkXkXkXjXkX",
"kXkXkXkXkXkXkXkX..| | Y.8.S ).jXjXy.$XW.,XjXjXjXjXjXjXjXjXjXjXM.} } } } } } | &.k.).rXjXjXjXkXkXkXkX",
"kXkXkXkXkXkXkXkX&.} | h.+.-.x.jXjXjXjXjXjXjXjXjXjXjXjXjXjXjXrX..} } } } } } } } | ..j.5XjXjXjXkXkXkX",
"kXkXkXkXkXkXkXkXkX| } ) +.q.7.pXjXjXjXjXjXjXjXjXjXjXjX<XjXjXrX%.} | } } } } } } } } } ,.5XjXjXjXkXkX",
"kXkXkXkXkXkXkXkXkXl } G ) q.V.1XjXjXjXjXjXjXjXjXjXjX+Xw.R.iXjX).d...} } } } } } } } } } &.5XjXjXkXkX",
"kXkXkXkXkXkXkXkXkXkX) G L +.$XP.jXjXjXjXjXjXjXjXjX|.W c c I oXjXrX5XY.v.2.;.| | } } } } ..4.pXjXjXkX",
"kXkXkXkXkXkXkXkXkXkX2 B ) L ).jXjXjXjXjXjXjXjX,Xi.P c a > kXkXs H.rXjXjXiXrX6X5XY.M.,...} } Z.jXjXkX",
"kXkXkXkXkXkXkXkXkXkXkX= j N &.).jXjXjXjXjXoXi.R s c r kXkXkXkXkXkXkXy y.R.rXrXjXjXjXrX).k.&.&.rXjXkX",
"kXkXkXkXkXkXkXkXkXkXkXkXkX3 q h ! y.w./ P b c c t < kXkXkXkXkXkXkXkXkXkXkXkX, x E u.oXrXjX5XZ.Z.jXkX",
"kXkXkXkXkXkXkXkXkXkXkXkXkXkXkX1 4 e a k u w 9 : kXkXkXkXkXkXkXkXkXkXkXkXkXkXkXkXkXkXkXkXkXjXjXiXjXjX",
"kXkXkXkXkXkXkXkXkXkXkXkXkXkXkXkXkXkXkXkXkXkXkXkXkXkXkXkXkXkXkXkXkXkXkXkXkXkXkXkXkXkXkXkXkXkXkXkXjXjX",
"kXkXkXkXkXkXkXkXkXkXkXkXkXkXkXkXkXkXkXkXkXkXkXkXkXkXkXkXkXkXkXkXkXkXkXkXkXkXkXkXkXkXkXkXkXkXkXkXkXkX",
"kXkXkXkXkXkXkXkXkXkXkXkXkXkXkXkXkXkXkXkXkXkXkXkXkXkXkXkXkXkXkXkXkXkXkXkXkXkXkXkXkXkXkXkXkXkXkXkXkXkX",
"kXkXkXkXkXkXkXkXkXkXkXkXkXkXkXkXkXkXkXkXkXkXkXkXkXkXkXkXkXkXkXkXkXkXkXkXkXkXkXkXkXkXkXkXkXkXkXkXkXkX",
"kXkXkXkXkXkXkXkXkXkXkXkXkXkXkXkXkXkXkXkXkXkXkXkXkXkXkXkXkXkXkXkXkXkXkXkXkXkXkXkXkXkXkXkXkXkXkXkXkXkX",
"kXkXkXkXkXkXkXkXkXkXkXkXkXkXkXkXkXkXkXkXkXkXkXkXkXkXkXkXkXkXkXkXkXkXkXkXkXkXkXkXkXkXkXkXkXkXkXkXkXkX",
"kXkXkXkXkXkXkXkXkXkXkXkXkXkXkXkXkXkXkXkXkXkXkXkXkXkXkXkXkXkXkXkXkXkXkXkXkXkXkXkXkXkXkXkXkXkXkXkXkXkX",
"kXkXkXkXkXkXkXkXkXkXkXkXkXkXkXkXkXkXkXkXkXkXkXkXkXkXkXkXkXkXkXkXkXkXkXkXkXkXkXkXkXkXkXkXkXkXkXkXkXkX",
"kXkXkXkXkXkXkXkXkXkXkXkXkXkXkXkXkXkXkXkXkXkXkXkXkXkXkXkXkXkXkXkXkXkXkXkXkXkXkXkXkXkXkXkXkXkXkXkXkXkX"
};
