/* XPM */
static char *_631988143242[] = {
/* columns rows colors chars-per-pixel */
"50 50 174 2 ",
"   c black",
".  c #040404",
"X  c #40393D",
"o  c #453E42",
"O  c #72676E",
"+  c #7F6870",
"@  c #8D767E",
"#  c #9A7B85",
"$  c #9A7C86",
"%  c #9C7E88",
"&  c #D47790",
"*  c #DD7B95",
"=  c #E17D98",
"-  c #9C8E96",
";  c #A1828C",
":  c #A1838D",
">  c #A68891",
",  c #A68892",
"<  c #AB8C96",
"1  c #AD8C96",
"2  c #AF8F98",
"3  c #AE8E99",
"4  c #AF8E99",
"5  c #AF8F99",
"6  c #B78A97",
"7  c #B08F99",
"8  c #B3919C",
"9  c #B5929C",
"0  c #B5929D",
"q  c #B6929D",
"w  c #B7939E",
"e  c #B8949F",
"r  c #A798A0",
"t  c #AC9DA6",
"y  c #B994A0",
"u  c #BA96A1",
"i  c #BB96A1",
"p  c #B996A2",
"a  c #B997A3",
"s  c #BC96A2",
"d  c #BE98A3",
"f  c #BE99A4",
"g  c #BF9AA5",
"h  c gray64",
"j  c #BCABB4",
"k  c #C099A5",
"l  c #C19AA6",
"z  c #C39CA8",
"x  c #C39CA9",
"c  c #E492A9",
"v  c #E19BAF",
"b  c #E598AE",
"n  c #C8A0AC",
"m  c #CEA5B2",
"M  c #D1A7B4",
"N  c #D2A8B5",
"B  c #D3A9B6",
"V  c #D8ADBB",
"C  c #DAAFBC",
"Z  c #C3B1BB",
"A  c #C3B2BC",
"S  c #C5B3BD",
"D  c #C6B5BF",
"F  c #C7B5BF",
"G  c #C9B4BB",
"H  c #DCB0BE",
"J  c #E7A3B7",
"K  c #E8A7BB",
"L  c #C8B7C1",
"P  c #C9B8C2",
"I  c #CBB9C3",
"U  c #CCBBC5",
"Y  c #DAB3C0",
"T  c #DEB2C0",
"R  c #DFB3C0",
"E  c #D0BEC9",
"W  c #DCBBC8",
"Q  c #E0B4C2",
"!  c #E1B4C2",
"~  c #E1B5C3",
"^  c #E2B5C3",
"/  c #E3B6C4",
"(  c #E3B7C5",
")  c #E9B4C5",
"_  c #EAB5C6",
"`  c #E4B8C6",
"'  c #E4B9C7",
"]  c #EBB7C8",
"[  c #E4BAC8",
"{  c #E5BAC8",
"}  c #E5BBC8",
"|  c #E5BCCA",
" . c #E5BDCA",
".. c #E6BDCA",
"X. c #E6BDCB",
"o. c #E6BECB",
"O. c #E6BECC",
"+. c #E6BFCC",
"@. c #ECBDCD",
"#. c #ECBFCE",
"$. c #CDC0C8",
"%. c #D6C3CE",
"&. c #D8C5D0",
"*. c #DDCAD5",
"=. c #D8CFD4",
"-. c #DCD2D6",
";. c #DCDBDB",
":. c #E6C0CD",
">. c #E7C0CD",
",. c #E7C0CE",
"<. c #ECC0CF",
"1. c #E7C2D0",
"2. c #E8C3D0",
"3. c #EDC3D3",
"4. c #E9C5D2",
"5. c #E9C6D2",
"6. c #E9C6D3",
"7. c #E9C7D3",
"8. c #E9C7D4",
"9. c #E9C7D5",
"0. c #EDC5D4",
"q. c #EAC8D5",
"w. c #EAC9D5",
"e. c #EAC9D6",
"r. c #EEC8D7",
"t. c #EECAD8",
"y. c #EBCCD9",
"u. c #ECCDD9",
"i. c #ECCDDA",
"p. c #ECCFDB",
"a. c #ECCFDC",
"s. c #EDCFDC",
"d. c #E4D0DC",
"f. c #E5D1DC",
"g. c #E6D7DF",
"h. c #EDD0DC",
"j. c #EDD2DF",
"k. c #EED3DF",
"l. c #F0D0DE",
"z. c #F0D1DF",
"x. c #EED3E0",
"c. c #E9D4E0",
"v. c #E9D5E0",
"b. c #E9D5E1",
"n. c #EBD7E2",
"m. c #EFD6E2",
"M. c #ECD8E3",
"N. c #EED9E5",
"B. c #EEDAE5",
"V. c #F0D3E0",
"C. c #F0D4E1",
"Z. c #F0D5E2",
"A. c #F1D6E3",
"S. c #F0D7E3",
"D. c #F0D8E4",
"F. c #F1D9E5",
"G. c #F1D9E6",
"H. c #F1DAE6",
"J. c #F1DAE7",
"K. c #F1DBE7",
"L. c #F2DBE7",
"P. c #F1DBE8",
"I. c #F1DCE8",
"U. c #F1DDE8",
"Y. c #F2DCE8",
"T. c #F2DCE9",
"R. c #F2DDE9",
"E. c #F3DEEA",
"W. c #EBE1E7",
"Q. c #E9E6E8",
"!. c #E9E9E9",
"~. c #EBEAEA",
"^. c gray92",
"/. c None",
/* pixels */
"/./././././././././././././././././././././././././././././././././././././././././././././././././.",
"/./././././././././././././././.R.R.R.R././././././././././././././././././././././././././././././.",
"/./././././././././././././././.R.R.R.R.R.R././././././././././././././././././././././././././././.",
"/./././././././././././././././.H.i.P.R.R.R.R.R././././././././././././././././././././././././././.",
"/./././././././././././././././.R.X.X.k.R.R.R.R.R./././././././././././././././././././././././././.",
"/././././././././././././././././.e./ / e.P.R.R.R.R././././././././././././././././././././././././.",
"/././././././././././././././././.k./ / ^ 6.R.R.R.R.R./././././././././././././././././././././././.",
"/././././././././././././././././.R.{ / / / a.R.R.R.R.R././././././././././././././././././././././.",
"/./././././././././././././././././.e.^ / / ' H.R.R.R.R././././././././././././././././././././././.",
"/./././././././././././././././././.k.( / / / e.R.R.R.R.R./././././././././././././././././././././.",
"/./././././././././././././././././.R.X./ / / ' H.R.R.R.R./././././././././././././././././././././.",
"/././././././././././././././././././.h./ / / / y.R.R.R.R./././././././././././././././././././././.",
"/././././././././././././././././././.H.X./ / / X.R.R.R.R.R././././././././././././././././././././.",
"/./././././././././././././././././././.i./ / / ^ S.R.R.R.R././././././././././././././././././././.",
"/./././././././././././././././././././.H.X./ / / k.R.R.R.R././././././././././././././././././././.",
"/././././././././././././././././././././.a./ / ^ 6.R.R.R.R././././././././././././././././././././.",
"/././././././././././././././././././././.R.+./ / 8.R.R.R.R././././././././././././././././././././.",
"/././././././././././././././././././.R.R.R.S.+.+.m.R.R.R.R.R./././././././././././././././././././.",
"/././././././././././././././././.R.R.R.R.R.R.R.R.R.R.R.R.R.R.R.R./././././././././././././././././.",
"/./././././././././././././././.R.R.R.R.R.R.R.R.R.R.R.R.R.R.R.R.R.R././././././././././././././././.",
"/././././././././././././././.R.R.R.R.R.R.R.R.R.R.R.R.R.R.R.R.R.R.R.b./././././././././././././././.",
"/./././././././././././././.R.R.R.R.R.R.R.R.R.R.R.R.R.R.R.R.R.R.R.R.R.*././././././././././././././.",
"/././././././././././././.R.R.R.R.R.R.R.R.R.R.R.R.R.R.R.R.R.R.R.R.R.R.B.L /././././././././././././.",
"/././././././././././././.R.R.R.R.R.R.R.R.R.R.R.R.R.R.R.R.R.R.R.R.R.R.R.%./././././././././././././.",
"/./././././././././././.R.R.R.R.R.R.R.R.R.R.R.R.R.R.R.R.R.R.R.R.R.R.R.R.f.A /./././././././././././.",
"/./././././././././././.R.R.R.R.R.R.R.R.R.R.R.R.R.R.R.R.R.R.R.R.R.R.R.R.M.D /./././././././././././.",
"/./././././././././././.R.R.R.R.R.R.R.R.R.R.R.R.R.R.R.R.R.R.R.R.R.R.R.R.R.L /./././././././././././.",
"/./././././././././././.R.R.R.R.R.f.R.R.R.R.R.R.R.R.R.R.R.R.R.R.R.R.R.R.R.P A /././././././././././.",
"/././././././././././.R.R.R.R.R.&.X - R.R.R.R.R.R.R.R.R.R.R.R.R.R.R.R.R.R.U Z /././././././././././.",
"/././././././././././.R.R.R.R.R.r   o b.R.R.R.R.R.R.R.R.R.R.R.R.R.R.R.R.R.P A /././././././././././.",
"/./././././././././././.R.R.R.R.j . O B.R.R.R.R.R.R.R.R.R.R.R.R.R.R.R.R.R.L Z /././././././././././.",
"/./././././././././././.R.R.R.R.b.t E R.R.R.R.R.R.R.R.R.R.R.R.R.R.R.R.R.b.U -.^.^./././././././././.",
"/./././././././././././.R.R.R.R.R.H.R.R.R.R.R.R.R.R.R.R.R.R.R.R.R.R.R.R.W.!.^.^.^.^././././././././.",
"/././././././././././.R.R.R.R.R.R.R.H.0.t.R.R.R.R.R.R.R.R.R.R.R.R.R.R.R.Q.^.^.^.^.^.^./././././././.",
"/././././././././.R.R.R.R.R.R.V.0.#.#.S.R.R.R.R.R.R.R.R.R.R.Y.Y.R.R.R.v.^.^.^.^.^.^.^.^././././././.",
"/./././././././.) t.R.R.R.R.J b K ) ] ] ] l.R.R.R.R.R.R.E.Y.Y.Y.R.U.W -.^.^.^.^.^.^.^.^././././././.",
"/././././././.= * c R.R.R.R.R.V.3.@.<.3.S.R.R.R.R.R.R.R.R.R.R.U.h.H e G ^.^.^.^.^.^.^.^././././././.",
"/././././././.& * v 4.y.k.S.P.H.U.U.H.S.l.R.R.R.R.R.R.R.U.B.i.X.N e 9 8 ;.^.^.^.^.^.^./././././././.",
"/./././././././.6 s x M ^ / ' ' X.,.,.<.6.6.6.7.8.e.6.<.X.^ V x e e < /.h !.^.^.^.^././././././././.",
"/./././././././././.i i i n B H R R ^ ^ ^ ^ / ^ / / H H m l 0 0 8 : /./././././.^./././././././././.",
"/./././././././././././././.5 0 0 s d l l l l l l d e 0 0 0 8 : /./././././././././././././././././.",
"/./././././././././././././././.@ $ % , < 5 5 5 8 7 7 , $ + /./././././././././././././././././././.",
"/./././././././././././././././././././././././././././././././././././././././././././././././././.",
"/./././././././././././././././././././././././././././././././././././././././././././././././././.",
"/./././././././././././././././././././././././././././././././././././././././././././././././././.",
"/./././././././././././././././././././././././././././././././././././././././././././././././././.",
"/./././././././././././././././././././././././././././././././././././././././././././././././././.",
"/./././././././././././././././././././././././././././././././././././././././././././././././././.",
"/./././././././././././././././././././././././././././././././././././././././././././././././././.",
"/./././././././././././././././././././././././././././././././././././././././././././././././././."
};
