/* XPM */
static char *_631988153074[] = {
/* columns rows colors chars-per-pixel */
"50 50 109 2 ",
"   c #917780",
".  c #927780",
"X  c #977B84",
"o  c #9E818B",
"O  c #A98A94",
"+  c #AA8A94",
"@  c #AA8B95",
"#  c #B3909B",
"$  c #B1929B",
"%  c #B4919C",
"&  c #B6929D",
"*  c #B7939E",
"=  c #B7949F",
"-  c #B795A0",
";  c #BB96A1",
":  c #B998A3",
">  c #BA9AA5",
",  c #BE99A4",
"<  c #BF9BA6",
"1  c #AEAEAE",
"2  c #BDA7AE",
"3  c #BEA6B1",
"4  c #C59EAA",
"5  c #C7A0AC",
"6  c #CAA2AE",
"7  c #C2A8B0",
"8  c #C0AAB5",
"9  c #D9AEBB",
"0  c #D8AFBC",
"q  c #C3B1BB",
"w  c #C3B2BB",
"e  c #C3B2BC",
"r  c #C4B3BD",
"t  c #C6B4BE",
"y  c #C6B5BF",
"u  c #C7B5BF",
"i  c #D6B3BE",
"p  c #DCB1BE",
"a  c #C9B7C2",
"s  c #CCB6C0",
"d  c #E2B6C4",
"f  c #E3B6C4",
"g  c #E4B7C5",
"h  c #E3B9C7",
"j  c #E4B8C5",
"k  c #E4B8C6",
"l  c #E4BAC7",
"z  c #E4BBC8",
"x  c #E5BBC9",
"c  c #E4BECA",
"v  c #E6BECB",
"b  c #E7BFCC",
"n  c #D9C6D1",
"m  c #D8D8D8",
"M  c #DDDDDD",
"N  c #E7C1CF",
"B  c #E8C3D0",
"V  c #E8C5D1",
"C  c #E8C5D2",
"Z  c #E0CCD7",
"A  c #E3CCD7",
"S  c #E6CCD5",
"D  c #E8C8D3",
"F  c #EAC9D7",
"G  c #EACAD7",
"H  c #EBCAD7",
"J  c #E9CED7",
"K  c #E1CDD8",
"L  c #EBCBD8",
"P  c #EBCCD9",
"I  c #EBCDD9",
"U  c #EACEDA",
"Y  c #E5D1DC",
"T  c #E8D3D9",
"R  c #EDD0DC",
"E  c #EDD0DD",
"W  c #EDD2DF",
"Q  c #EED2DF",
"!  c #E8D6DC",
"~  c #E9D5E1",
"^  c #EBD7E3",
"/  c #EED4E0",
"(  c #EED5E1",
")  c #EFD5E1",
"_  c #EFD6E2",
"`  c #E9DDE0",
"'  c #F0D7E3",
"]  c #F0D8E4",
"[  c #F0D9E5",
"{  c #F1D9E6",
"}  c #F1DAE6",
"|  c #F0DBE7",
" . c #F1DBE7",
".. c #F1DCE8",
"X. c #F2DCE8",
"o. c #F2DDE8",
"O. c #F2DCE9",
"+. c #F2DDE9",
"@. c #F2DEEA",
"#. c #E1E1E1",
"$. c #E4E0E1",
"%. c #E9E2E4",
"&. c #EAE4E6",
"*. c #EAE6E7",
"=. c #EAE9EA",
"-. c #EAEAEA",
";. c #EBEAEA",
":. c gray92",
">. c None",
/* pixels */
">.>.>.>.>.>.>.>.>.>.>.>.>.>.>.>.>.>.>.>.>.>.>.>.>.>.>.>.>.>.>.>.>.>.>.>.>.>.>.>.>.>.>.>.>.>.>.>.>.>.",
">.>.>.>.>.>.>.>.>.>.>.>.>.+.+.>.>.>.>.>.>.>.>.>.>.>.>.>.>.>.>.>.>.>.+.+.+.>.>.>.>.>.>.>.>.>.>.>.>.>.",
">.>.>.>.>.>.>.>.>.>.>.>.>.+.+.+.+.>.>.>.>.>.>.>.>.>.>.>.>.>.>.>.>.+.+.+.+.>.>.>.>.>.>.>.>.>.>.>.>.>.",
">.>.>.>.>.>.>.>.>.>.>.>.>.+.+.+.+.+.>.>.>.>.>.>.>.>.>.>.>.>.>.>.+.+.+.+.+.>.>.>.>.>.>.>.>.>.>.>.>.>.",
">.>.>.>.>.>.>.>.>.>.>.>.>.+.+.+.+.+.+.>.>.>.>.>.>.>.>.>.>.>.>.+.+.+.+.+.+.>.>.>.>.>.>.>.>.>.>.>.>.>.",
">.>.>.>.>.>.>.>.>.>.>.>.>.+.+.+.+.+.+.+.>.>.>.>.>.>.>.>.>.>.+.+.+.+.+.+.+.>.>.>.>.>.>.>.>.>.>.>.>.>.",
">.>.>.>.>.>.>.>.>.>.>.>.>.+.+.+.+.+.+.+.+.>.>.>.>.>.>.>.>.+.+.+.+.+.+.+.+.>.>.>.>.>.>.>.>.>.>.>.>.>.",
">.>.>.>.>.>.>.>.>.>.>.>.>.+.+.+.+.+.+.+.+.>.>.>.>.>.>.>.>.+.+.+.+.+.+.+.+.>.>.>.>.>.>.>.>.>.>.>.>.>.",
">.>.>.>.>.>.>.>.>.>.>.>.>.+.+.+.+.+.+.+.+.+.>.>.>.>.>.>.+.+.+.+.+.+.+.+.+.>.>.>.>.>.>.>.>.>.>.>.>.>.",
">.>.>.>.>.>.>.>.>.>.>.>.>.+.+.+.+.+.+.+.+.+.>.>.>.>.>.>.+.+.+.+.+.+.+.+.+.>.>.>.>.>.>.>.>.>.>.>.>.>.",
">.>.>.>.>.>.>.>.>.>.>.>.>.+.+.+.+.+.+.+.+.+.>.>.>.>.>.>.+.+.+.+.+.+.+.+.+.>.>.>.>.>.>.>.>.>.>.>.>.>.",
">.>.>.>.>.>.>.>.>.>.>.>.>.+.+.+.+.+.+.+.+.+.>.>.>.>.>.>.+.+.+.+.+.+.+.+.+.>.>.>.>.>.>.>.>.>.>.>.>.>.",
">.>.>.>.>.>.>.>.>.>.>.>.>.+.+.+.+.+.+.+.+.+.>.>.>.>.>.+.+.+.+.+.+.+.+.+.+.>.>.>.>.>.>.>.>.>.>.>.>.>.",
">.>.>.>.>.>.>.>.>.>.>.>.>.+.+.+.+.+.+.+.+.+.>.>.>.>.>.+.+.+.+.+.+.+.+.+.+.>.>.>.>.>.>.>.>.>.>.>.>.>.",
">.>.>.>.>.>.>.>.>.>.>.>.>.+.+.+.+.+.+.+.+.+.+.>.>.>.>.+.+.+.+.+.+.+.+.+.+.>.>.>.>.>.>.>.>.>.>.>.>.>.",
">.>.>.>.>.>.>.>.>.>.>.>.>.+.+.+.+.+.+.+.+.+. .>.>.>.>.+.+.+.+.+.+.+.+.+.+.>.>.>.>.>.>.>.>.>.>.>.>.>.",
">.>.>.>.>.>.>.>.>.>.>.>.>.>.+.+.+.+.+.+.+.+.) g f Q +.+.+.+.+.+.+.+.+.+.>.>.>.>.>.>.>.>.>.>.>.>.>.>.",
">.>.>.>.>.>.>.>.>.>.>.>.>.>.+.+.+.+.+.+.+.+. .f N +.+.+.+.+.+.+.+.+.+.+.>.>.>.>.>.>.>.>.>.>.>.>.>.>.",
">.>.>.>.>.>.>.>.>.>.>.>.>.>.+.+.+.+.+.+.+.+.+.k ) +.+.+.+.+.+.+.+.+.+.+.>.>.>.>.>.>.>.>.>.>.>.>.>.>.",
">.>.>.>.>.>.>.>.>.>.>.>.>.>.>.+.+.+.+.+.+.+.+.F +.+.+.+.+.+.+.+.+.+.+.>.>.>.>.>.>.>.>.>.>.>.>.>.>.>.",
">.>.>.>.>.>.>.>.>.>.>.>.>.>.>.+.+.+.+.+.+.+.+.+.+.+.+.+.+.+.+.+.+.+.) >.>.>.>.>.>.>.>.>.>.>.>.>.>.>.",
">.>.>.>.>.>.>.>.>.>.>.>.>.>.+.+.+.+.+.+.+.+.+.+.+.+.+.+.+.+.+.+.+.+.) A >.>.>.>.>.>.>.>.>.>.>.>.>.>.",
">.>.>.>.>.>.>.>.>.>.>.>.>.+.+.+.+.+.+.+.+.+.+.+.+.+.+.+.+.+.+.+.+.+.+.O.a >.>.>.>.>.>.>.>.>.>.>.>.>.",
">.>.>.>.>.>.>.>.>.>.>.>.>.+.+.+.+.+.+.+.+.+.+.+.+.+.+.+.+.+.+.+.+.+.+.+.n >.>.>.>.>.>.>.>.>.>.>.>.>.",
">.>.>.>.>.>.>.>.>.>.>.>.+.+.+.+.+.+.+.+.+.+.+.+.+.+.+.+.+.+.+.+.X.@.X.@.T q >.>.>.>.>.>.>.>.>.>.>.>.",
">.>.>.>.>.>.>.>.>.>.>.>.+.+.+.+.+.+.+.+.+.+.+.+.+.+.+.+.+.+.+.+.@.X.@.X.^ q >.>.>.>.>.>.>.>.>.>.>.>.",
">.>.>.>.>.>.>.>.>.>.>.>.+.+.+.+.+.+.+.+.+.+.+.+.+.+.+.+.+.+.+.+.X.@.X.@.O.q >.>.>.>.>.>.>.>.>.>.>.>.",
">.>.>.>.>.>.>.>.>.>.>.+.+.+.+.+.+.+.+.+.+.+.+.+.+.+.+.+.+.+.+.+.@.X.@.X.+.a q >.>.>.>.>.>.>.>.>.>.>.",
">.>.>.>.>.>.>.>.>.>.>.+.+.+.+.+.+.+.+.+.+.+.+.+.+.+.+.+.+.+.+.+.X.@.X.@...a r >.>.>.>.>.>.>.>.>.>.>.",
">.>.>.>.>.>.>.>.>.>.>.+.+.+.+.+.+.+.+.+.+.+.+.+.+.+.+.+.+.+.+.+.@.X.@.X...r e >.>.>.>.>.>.>.>.>.>.>.",
">.>.>.>.>.>.>.>.>.>.>.Q ..+.+.+.+.+.+.+.+.+.+.+.+.+.+.+.+.+.+.+.@.@.@.@.~ w 8 >.>.>.>.>.>.>.>.>.>.>.",
">.>.>.>.>.>.>.>.>.>.>.v F +.+.+.+.+.+.+.+.+.+.+.+.+.+.+.+.+.+.+.@.@.@.@.n 3 : >.>.>.>.>.>.>.>.>.>.>.",
">.>.>.>.>.>.>.>.>.>.>.>.k R +.+.+.+.+.+.+.+.+.+.+.+.+.+.+.+.+.+.+.+.+.+.s * >.>.>.>.>.>.>.>.>.>.>.>.",
">.>.>.>.>.>.>.>.>.>.>.>.k k Q +.+.+.+.+.+.+.+.+.+.+.+.+.+.+.+.+.+.+.+.A - - >.>.>.>.>.>.>.>.>.>.>.>.",
">.>.>.>.>.>.>.>.>.>.>.>.v f f H +.+.+.+.+.+.+.) W ..+.+.+.+.+.+.+...P < & : >.>.>.>.>.>.>.>.>.>.>.>.",
">.>.>.>.>.>.>.>.>.>.>.>.>.k f f B  .+.+.+. .P T %.! H F  .+.+.+...V 5 * * >.>.>.>.>.>.>.>.>.>.>.>.>.",
">.>.>.>.>.>.>.>.>.>.>.>.>.>.f f f k L ' ) D ` :.:.:.:.*.V +.' H h 4 & & >.>.>.>.>.>.>.>.>.>.>.>.>.>.",
">.>.>.>.>.>.>.>.>.>.>.>.>.>.O p f f f k v *.:.:.:.:.:.:.S N k 9 , % & . >.>.>.>.>.>.>.>.>.>.>.>.>.>.",
">.>.>.>.>.>.>.>.>.>.>.>.>.>.>.X 5 0 f f c :.:.:.:.:.:.:.%.9 4 * & $ . >.>.>.>.>.>.>.>.>.>.>.>.>.>.>.",
">.>.>.>.>.>.>.>.>.>.>.>.>.>.>.>.>.O ; 6 i *.:.:.:.:.:.:.-.7 % % O >.>.>.>.>.>.>.>.>.>.>.>.>.>.>.>.>.",
">.>.>.>.>.>.>.>.>.>.>.>.>.>.>.>.>.>.>.o 2 :.:.:.:.:.:.:.$.$ o >.>.>.>.>.>.>.>.>.>.>.>.>.>.>.>.>.>.>.",
">.>.>.>.>.>.>.>.>.>.>.>.>.>.>.>.>.>.>.>.>.M :.:.:.:.:.:.1 >.>.>.>.>.>.>.>.>.>.>.>.>.>.>.>.>.>.>.>.>.",
">.>.>.>.>.>.>.>.>.>.>.>.>.>.>.>.>.>.>.>.>.>.m :.:.:.:.#.>.>.>.>.>.>.>.>.>.>.>.>.>.>.>.>.>.>.>.>.>.>.",
">.>.>.>.>.>.>.>.>.>.>.>.>.>.>.>.>.>.>.>.>.>.>.:.:.>.>.>.>.>.>.>.>.>.>.>.>.>.>.>.>.>.>.>.>.>.>.>.>.>.",
">.>.>.>.>.>.>.>.>.>.>.>.>.>.>.>.>.>.>.>.>.>.>.>.>.>.>.>.>.>.>.>.>.>.>.>.>.>.>.>.>.>.>.>.>.>.>.>.>.>.",
">.>.>.>.>.>.>.>.>.>.>.>.>.>.>.>.>.>.>.>.>.>.>.>.>.>.>.>.>.>.>.>.>.>.>.>.>.>.>.>.>.>.>.>.>.>.>.>.>.>.",
">.>.>.>.>.>.>.>.>.>.>.>.>.>.>.>.>.>.>.>.>.>.>.>.>.>.>.>.>.>.>.>.>.>.>.>.>.>.>.>.>.>.>.>.>.>.>.>.>.>.",
">.>.>.>.>.>.>.>.>.>.>.>.>.>.>.>.>.>.>.>.>.>.>.>.>.>.>.>.>.>.>.>.>.>.>.>.>.>.>.>.>.>.>.>.>.>.>.>.>.>.",
">.>.>.>.>.>.>.>.>.>.>.>.>.>.>.>.>.>.>.>.>.>.>.>.>.>.>.>.>.>.>.>.>.>.>.>.>.>.>.>.>.>.>.>.>.>.>.>.>.>.",
">.>.>.>.>.>.>.>.>.>.>.>.>.>.>.>.>.>.>.>.>.>.>.>.>.>.>.>.>.>.>.>.>.>.>.>.>.>.>.>.>.>.>.>.>.>.>.>.>.>."
};
