/* XPM */
static char *_631988148145[] = {
/* columns rows colors chars-per-pixel */
"50 50 169 2 ",
"   c black",
".  c #090708",
"X  c #252023",
"o  c #463F43",
"O  c #4C4449",
"+  c #816971",
"@  c #91777F",
"#  c #B5647A",
"$  c #B6657B",
"%  c #B66B7F",
"&  c #947A82",
"*  c #977D86",
"=  c #9A7B85",
"-  c #CD728A",
";  c #8C8087",
":  c #9F818A",
">  c #A2848E",
",  c #A98A95",
"<  c #AC8B95",
"1  c #AD8D98",
"2  c #AF8F98",
"3  c #AF8F99",
"4  c #B88594",
"5  c #B68F9A",
"6  c #B2919B",
"7  c #B3919C",
"8  c #B5929D",
"9  c #B6929D",
"0  c #B7929D",
"q  c #B7939E",
"w  c #B9949F",
"e  c #AB9CA5",
"r  c #B795A1",
"t  c #B997A2",
"y  c #BC97A2",
"u  c #BD97A3",
"i  c #BD98A4",
"p  c #BE98A4",
"a  c #BF98A4",
"s  c #BCACB1",
"d  c #C38C9C",
"f  c #C09AA6",
"g  c #C19AA6",
"h  c #C69FAB",
"j  c #E596AC",
"k  c #E79FB5",
"l  c #CBA3AF",
"z  c #CBA7B3",
"x  c #CCA4B0",
"c  c #D3A9B6",
"v  c #D7ACBA",
"b  c #D7ADBA",
"n  c #D6AEBA",
"m  c #C2B1BB",
"M  c #C3B1BB",
"N  c #C3B2BC",
"B  c #C4B2BC",
"V  c #C4B3BD",
"C  c #C5B4BD",
"Z  c #C5B4BE",
"A  c #D9B0BD",
"S  c #DDB1BF",
"D  c #C8B6C0",
"F  c #CBB9C3",
"G  c #CFBDC7",
"H  c #DEB2C0",
"J  c #DFB3C1",
"K  c #D8BCC6",
"L  c #D1BFCA",
"P  c #EAAFC2",
"I  c #E1B4C2",
"U  c #E1B5C2",
"Y  c #E1B5C3",
"T  c #E2B5C3",
"R  c #E2B6C4",
"E  c #E3B6C4",
"W  c #E3B7C4",
"Q  c #E3B7C5",
"!  c #E4B8C6",
"~  c #E4B9C7",
"^  c #EBB6C8",
"/  c #EBB7C8",
"(  c #E4BAC8",
")  c #E5BAC8",
"_  c #E5BBC9",
"`  c #E5BCC9",
"'  c #E5BCCA",
"]  c #E5BDCB",
"[  c #E6BCCA",
"{  c #E6BDCB",
"}  c #E9BACA",
"|  c #EBBBCC",
" . c #ECBECD",
".. c #ECBECE",
"X. c #D3C1CB",
"o. c #D6C4CE",
"O. c #D7C4CF",
"+. c #D9C6D0",
"@. c #DAC7D2",
"#. c gray85",
"$. c #E7C0CD",
"%. c #E7C0CE",
"&. c #E7C1CF",
"*. c #E1C5D1",
"=. c #E8C2D0",
"-. c #ECC0D0",
";. c #ECC1D0",
":. c #E8C4D2",
">. c #E9C5D2",
",. c #E9C6D2",
"<. c #E9C6D3",
"1. c #E9C7D4",
"2. c #EDC5D5",
"3. c #E0CCD7",
"4. c #E9C8D4",
"5. c #EAC9D6",
"6. c #EBC9D6",
"7. c #EACAD6",
"8. c #EDC9D7",
"9. c #E2CED9",
"0. c #EBCBD8",
"q. c #EECAD9",
"w. c #EBCCD8",
"e. c #EBCCD9",
"r. c #EBCDDA",
"t. c #ECCDDA",
"y. c #EECCDA",
"u. c #EFCFDD",
"i. c #E4D1DC",
"p. c #E7D3DE",
"a. c #E0D6DC",
"s. c #EAD0DC",
"d. c #EDD1DD",
"f. c #EDD1DE",
"g. c #EFD0DE",
"h. c #EED1DE",
"j. c #EED2DF",
"k. c #E3DDDF",
"l. c #EED3E0",
"z. c #E9D4E0",
"x. c #EAD5E1",
"c. c #E9D6E1",
"v. c #EFD6E2",
"b. c #EFD7E3",
"n. c #ECD8E4",
"m. c #EDD9E4",
"M. c #EFDAE6",
"N. c #F0D6E2",
"B. c #F0D7E3",
"V. c #F0D8E4",
"C. c #F1D9E5",
"Z. c #F1DAE6",
"A. c #F1DAE7",
"S. c #F0DBE7",
"D. c #F1DBE7",
"F. c #F1DCE8",
"G. c #F1DDE9",
"H. c #F2DCE8",
"J. c #F2DDE8",
"K. c #F2DDE9",
"L. c #F1DEE8",
"P. c #F2DEE9",
"I. c #F3DEEA",
"U. c #E6E3E4",
"Y. c #EFE0E8",
"T. c #E9E7E8",
"R. c #EBE7E9",
"E. c gray92",
"W. c None",
/* pixels */
"W.W.W.W.W.W.W.W.W.W.W.W.W.W.W.W.W.W.W.W.W.W.W.W.W.W.W.W.W.W.W.W.W.W.W.W.W.W.W.W.W.W.W.W.W.W.W.W.W.W.",
"W.W.W.W.W.W.W.W.W.W.W.W.W.W.W.W.W.W.W.W.W.W.W.W.W.W.W.W.W.W.K.K.K.K.K.W.W.W.W.W.W.W.W.W.W.W.W.W.W.W.",
"W.W.W.W.W.W.W.W.W.W.W.W.W.W.W.W.W.W.W.W.W.W.W.W.W.W.W.W.K.K.K.K.K.K.K.W.W.W.W.W.W.W.W.W.W.W.W.W.W.W.",
"W.W.W.W.W.W.W.W.W.W.W.W.W.W.W.W.W.W.W.W.W.W.W.W.W.W.K.K.K.K.K.K.B.d.W.W.W.W.W.W.W.W.W.W.W.W.W.W.W.W.",
"W.W.W.W.W.W.W.W.W.W.W.W.W.W.W.W.W.W.W.W.W.W.W.W.W.K.K.K.K.K.A.1.W d.W.W.W.W.W.W.W.W.W.W.W.W.W.W.W.W.",
"W.W.W.W.W.W.W.W.W.W.W.W.W.W.W.W.W.W.W.W.W.W.W.W.K.K.K.K.K.v.' E ~ A.W.W.W.W.W.W.W.W.W.W.W.W.W.W.W.W.",
"W.W.W.W.W.W.W.W.W.W.W.W.W.W.W.W.W.W.W.W.W.W.W.K.K.K.K.K.B.( E E %.D.W.W.W.W.W.W.W.W.W.W.W.W.W.W.W.W.",
"W.W.W.W.W.W.W.W.W.W.W.W.W.W.W.W.W.W.W.W.W.W.W.K.K.K.K.K.' E E E e.W.W.W.W.W.W.W.W.W.W.W.W.W.W.W.W.W.",
"W.W.W.W.W.W.W.W.W.W.W.W.W.W.W.W.W.W.W.W.W.W.K.K.K.K.K.w.E E E E A.W.W.W.W.W.W.W.W.W.W.W.W.W.W.W.W.W.",
"W.W.W.W.W.W.W.W.W.W.W.W.W.W.W.W.W.W.W.W.W.W.K.K.K.K.A.~ E E E &.K.W.W.W.W.W.W.W.W.W.W.W.W.W.W.W.W.W.",
"W.W.W.W.W.W.W.W.W.W.W.W.W.W.W.W.W.W.W.W.W.K.K.K.K.K.6.E E E E d.W.W.W.W.W.W.W.W.W.W.W.W.W.W.W.W.W.W.",
"W.W.W.W.W.W.W.W.W.W.W.W.W.W.W.W.W.W.W.W.W.K.K.K.K.A.( E E E ' D.W.W.W.W.W.W.W.W.W.W.W.W.W.W.W.W.W.W.",
"W.W.W.W.W.W.W.W.W.W.W.W.W.W.W.W.W.W.W.W.W.K.K.K.K.d.E E E E t.W.W.W.W.W.W.W.W.W.W.W.W.W.W.W.W.W.W.W.",
"W.W.W.W.W.W.W.W.W.W.W.W.W.W.W.W.W.W.W.W.W.K.K.K.K.<.E E E ' A.W.W.W.W.W.W.W.W.W.W.W.W.W.W.W.W.W.W.W.",
"W.W.W.W.W.W.W.W.W.W.W.W.W.W.W.W.W.W.W.W.K.K.K.K.K.' E E E t.W.W.W.W.W.W.W.W.W.W.W.W.W.W.W.W.W.W.W.W.",
"W.W.W.W.W.W.W.W.W.W.W.W.W.W.W.W.W.W.W.W.K.K.K.I.D.~ E E ' D.W.W.W.W.W.W.W.W.W.W.W.W.W.W.W.W.W.W.W.W.",
"W.W.W.W.W.W.W.W.W.W.W.W.W.W.W.W.W.W.W.W.K.K.K.K.A.E W W d.D.W.W.W.W.W.W.W.W.W.W.W.W.W.W.W.W.W.W.W.W.",
"W.W.W.W.W.W.W.W.W.W.W.W.W.W.W.W.W.W.W.K.K.K.K.K.K.8.' 6.K.K.K.K.W.W.W.W.W.W.W.W.W.W.W.W.W.W.W.W.W.W.",
"W.W.W.W.W.W.W.W.W.W.W.W.W.W.W.W.W.W.K.K.K.K.K.K.K.K.K.K.K.K.K.K.K.W.W.W.W.W.W.W.W.W.W.W.W.W.W.W.W.W.",
"W.W.W.W.W.W.W.W.W.W.W.W.W.W.W.W.K.K.K.K.K.K.K.K.K.K.K.K.K.K.K.K.K.K.W.W.W.W.W.W.W.W.W.W.W.W.W.W.W.W.",
"W.W.W.W.W.W.W.W.W.W.W.W.W.W.W.K.K.K.K.K.K.K.K.K.K.K.K.K.K.K.K.K.K.K.H.W.W.W.W.W.W.W.W.W.W.W.W.W.W.W.",
"W.W.W.W.W.W.W.W.W.W.W.W.W.W.K.K.K.K.K.K.K.K.K.K.K.K.K.K.K.K.K.K.K.K.K.i.W.W.W.W.W.W.W.W.W.W.W.W.W.W.",
"W.W.W.W.W.W.W.W.W.W.W.W.W.W.K.K.K.K.K.K.K.K.K.K.K.K.K.K.K.K.K.K.K.K.K.K.X.W.W.W.W.W.W.W.W.W.W.W.W.W.",
"W.W.W.W.W.W.W.W.W.W.W.W.W.K.K.K.K.K.K.K.K.K.K.K.K.K.K.K.K.K.K.K.K.K.K.K.9.V W.W.W.W.W.W.W.W.W.W.W.W.",
"W.W.W.W.W.W.W.W.W.W.W.W.W.K.K.K.K.K.K.K.K.K.K.K.K.K.K.K.K.K.K.K.K.K.K.K.M.Z W.W.W.W.W.W.W.W.W.W.W.W.",
"W.W.W.W.W.W.W.W.W.W.W.W.K.K.K.K.K.K.K.K.K.K.K.K.K.K.K.K.K.K.K.K.K.K.K.K.K.F W.W.W.W.W.W.W.W.W.W.W.W.",
"W.W.W.W.W.W.W.W.W.W.W.W.K.K.K.K.K.K.K.K.K.K.K.K.K.K.K.K.K.K.K.K.K.K.K.K.K.X.N W.W.W.W.W.W.W.W.W.W.W.",
"W.W.W.W.W.W.W.W.W.W.W.W.K.K.K.K.K.K.K.K.K.K.K.K.K.K.K.K.K.K.K.K.s.M.K.K.K.+.N W.W.W.W.W.W.W.W.W.W.W.",
"W.W.W.W.W.W.W.W.W.W.W.W.K.K.K.K.K.K.K.K.K.K.K.K.K.K.K.K.K.K.K.@.O ; K.K.K.@.N W.W.W.W.W.W.W.W.W.W.W.",
"W.W.W.W.W.W.W.W.W.W.W.W.K.K.K.K.K.K.K.K.K.K.K.K.K.K.K.K.K.K.K.F   X K.K.K.o.M W.W.W.W.W.W.W.W.W.W.W.",
"W.W.W.W.W.W.W.W.W.W.W.W.K.K.K.K.K.K.K.K.K.K.K.K.K.K.K.K.K.K.K.F . o K.K.K.G M W.W.W.W.W.W.W.W.W.W.W.",
"W.W.W.W.W.W.W.W.W.E.E.E.Y.D.K.K.K.K.K.K.K.K.K.K.K.K.K.K.K.K.K.m.e D K.K.K.o.N W.W.W.W.W.W.W.W.W.W.W.",
"W.W.W.W.W.W.W.W.E.E.E.E.E.E.p.K.K.K.K.K.K.K.K.K.K.K.K.K.K.K.K.K.A.D.K.K.K.D.i.W.W.W.W.W.W.W.W.W.W.W.",
"W.W.W.W.W.W.W.E.E.E.E.E.E.E.a.K.K.K.K.K.K.K.K.K.K.K.K.K.K.A...u.D.K.K.K.K.K.K.W.W.W.W.W.W.W.W.W.W.W.",
"W.W.W.W.W.W.W.E.E.E.E.E.E.E.U.x.H.K.K.K.K.K.K.K.K.K.K.K.K.K.A.y...;.t.A.K.K.K.K.K.W.W.W.W.W.W.W.W.W.",
"W.W.W.W.W.W.W.E.E.E.E.E.E.E.E.K l.K.K.K.K.K.K.K.K.K.K.K.H.../ / ^ P k j 2.K.K.K.A.} d W.W.W.W.W.W.W.",
"W.W.W.W.W.W.W.E.E.E.E.E.E.E.k.n E 1.b.H.K.K.K.K.K.K.K.K.K.H.y.......y.A.D.I.K.K.&.- # $ W.W.W.W.W.W.",
"W.W.W.W.W.W.W.E.E.E.E.E.E.E.s J I W ~ 1.d.A.K.K.K.K.K.K.K.M.u.V.K.K.K.A.A.B.s.*.z % # $ W.W.W.W.W.W.",
"W.W.W.W.W.W.W.W.E.E.E.E.E.#.W.> c W E E E ( %.<.1.6.6.6.1.1.<.<.&.&.' A h f 0 9 q 5 4 W.W.W.W.W.W.W.",
"W.W.W.W.W.W.W.W.W.W.E.W.W.W.W.W.+ 9 l n S W E E E E E E E J J S v l p q 0 9 q t W.W.W.W.W.W.W.W.W.W.",
"W.W.W.W.W.W.W.W.W.W.W.W.W.W.W.W.W.W.@ < 9 p g g g g g p p y w 9 9 9 9 6 9 W.W.W.W.W.W.W.W.W.W.W.W.W.",
"W.W.W.W.W.W.W.W.W.W.W.W.W.W.W.W.W.W.W.W.W.& : 1 2 2 6 6 1 1 , > = * W.W.W.W.W.W.W.W.W.W.W.W.W.W.W.W.",
"W.W.W.W.W.W.W.W.W.W.W.W.W.W.W.W.W.W.W.W.W.W.W.W.W.W.W.W.W.W.W.W.W.W.W.W.W.W.W.W.W.W.W.W.W.W.W.W.W.W.",
"W.W.W.W.W.W.W.W.W.W.W.W.W.W.W.W.W.W.W.W.W.W.W.W.W.W.W.W.W.W.W.W.W.W.W.W.W.W.W.W.W.W.W.W.W.W.W.W.W.W.",
"W.W.W.W.W.W.W.W.W.W.W.W.W.W.W.W.W.W.W.W.W.W.W.W.W.W.W.W.W.W.W.W.W.W.W.W.W.W.W.W.W.W.W.W.W.W.W.W.W.W.",
"W.W.W.W.W.W.W.W.W.W.W.W.W.W.W.W.W.W.W.W.W.W.W.W.W.W.W.W.W.W.W.W.W.W.W.W.W.W.W.W.W.W.W.W.W.W.W.W.W.W.",
"W.W.W.W.W.W.W.W.W.W.W.W.W.W.W.W.W.W.W.W.W.W.W.W.W.W.W.W.W.W.W.W.W.W.W.W.W.W.W.W.W.W.W.W.W.W.W.W.W.W.",
"W.W.W.W.W.W.W.W.W.W.W.W.W.W.W.W.W.W.W.W.W.W.W.W.W.W.W.W.W.W.W.W.W.W.W.W.W.W.W.W.W.W.W.W.W.W.W.W.W.W.",
"W.W.W.W.W.W.W.W.W.W.W.W.W.W.W.W.W.W.W.W.W.W.W.W.W.W.W.W.W.W.W.W.W.W.W.W.W.W.W.W.W.W.W.W.W.W.W.W.W.W.",
"W.W.W.W.W.W.W.W.W.W.W.W.W.W.W.W.W.W.W.W.W.W.W.W.W.W.W.W.W.W.W.W.W.W.W.W.W.W.W.W.W.W.W.W.W.W.W.W.W.W."
};
