/* XPM */
static char *_633188939015[] = {
/* columns rows colors chars-per-pixel */
"50 25 85 1 ",
"  c #0B090A",
". c #1F1C1E",
"X c #211E20",
"o c #262224",
"O c #302C2F",
"+ c #332E31",
"@ c #393336",
"# c #3C373A",
"$ c #3E393C",
"% c #423B3F",
"& c #453E42",
"* c #494246",
"= c #595156",
"- c #5D5459",
"; c #62595E",
": c #655C61",
"> c #72686E",
", c #756B71",
"< c #796E74",
"1 c #7F747B",
"2 c #83777E",
"3 c #85797F",
"4 c #877B81",
"5 c #8A7E85",
"6 c #E17D98",
"7 c #8F828A",
"8 c #95888F",
"9 c #968990",
"0 c #988B93",
"q c #A3949D",
"w c #A698A0",
"e c #AB9CA4",
"r c #AE9FA8",
"t c #B2A3AC",
"y c #BCABB5",
"u c #BFAEB8",
"i c #E2839C",
"p c #DB8AA0",
"a c #D693A6",
"s c #D79DAE",
"d c #DD9CB0",
"f c #E387A0",
"g c #E38BA3",
"h c #E490A7",
"j c #E492A9",
"k c #E599AF",
"l c #E69CB1",
"z c #C0AFB8",
"x c #D1A1B0",
"c c #D1ABB9",
"v c #C5B4BE",
"b c #E6A1B6",
"n c #E7A6BA",
"m c #E8A6B9",
"M c #E5A8BA",
"N c #E8ABBE",
"B c #CBBAC4",
"V c #CFBDC8",
"C c #D1BEC9",
"Z c #E9ADC0",
"A c #E3B6C4",
"S c #EAB4C5",
"D c #E4B9C7",
"F c #EBB7C9",
"G c #E5BBC9",
"H c #ECBCCC",
"J c #D5C3CE",
"K c #DAC3CE",
"L c #D9C6D1",
"P c #DECAD5",
"I c #E7C1CE",
"U c #E1C6D3",
"Y c #EBC3D2",
"T c #EDC8D7",
"R c #E2CEDA",
"E c #EECDDB",
"W c #E5D1DC",
"Q c #EED1DE",
"! c #F0D2DF",
"~ c #ECD6E2",
"^ c #EED9E5",
"/ c #F0D5E2",
"( c #F1DAE6",
") c #F2DDE9",
"_ c None",
/* pixels */
"__)))))))))))))))))))))))))))))))())))))))))))))__",
"_))))))))))))))))))()^))))))^^^^WBV()))))))))))))_",
"_))))))))))))))~WW~RueW))))~B9wBe:0^))))))))))))))",
")))))))))))))))B4,te;:L()))Pt;+:=%t^))))))))))))))",
")))))))))))))))C7$%=@w~))))^Rt:.X5R())))))))))))))",
")))))))))))))))~V5+ =B()))))~v>.X:yQ))))))))))))))",
")))))()))))))))~B4oo+2J()))^J9#-2&;v)))))))(()))))",
"))))(kbH/))))))Pr&=0,&q^)))^V9:uLyeL)))))^TZhY))))",
"())))ESjgkF!)))Ru<uWKyJ)))))~PJ^))/))(/HmhgmY())))",
"E)))))((EFlijST/~W^))^)))))))))))))!HlfhmT/)))))))",
"G()))((((((EFlfjNT()))))))))))))!SkghZT/((((((())E",
"AY)Sjhhhjjjhjhf666g!)))))))))))Mi66ihjhjjhjjhhl/(G",
"AAQQYYYYYYHSlg6fjNY())//////())ESlf6ijNHYYYHYYT(YA",
"AAG^))(!HmjijNH!())))Tg66666N())))/TSlggbFT/)))EAA",
"AAAY/ZhfjNY/)))))))))b666666i~))))))))/TSkhgbE!GAA",
"AAAATSY!)))))))))))))n666666f^))))))))))))/TSTIAAA",
"AAAAAQ)))))))))))))))G666666d()))))))))))))))IAAAA",
"AAAAADQ))))))))))))))^si666pL)))))))))))))))IAAAAA",
"AAAAAADQ))))))))))))))WcaaxK)))))))))))))))YAAAAAA",
"AAAAAAADQ))))))))))))))^WR~))))))))))))))^YAAAAAAA",
"AAAAAAAADT)))))))))))))))))))))))))))))^^IAAAAAAAA",
"DAAAAAAAAAY^)))))))))))))))))))))))))))QGAAAAAAAAD",
"DAAAAAAAAAAGQ))))))))))))))))))))))))^YAAAAAAAAAAD",
"DAAAAAAAAAADAY~()))))))))))))))))))^YGAAAAAAAAAAD_",
"_GAAAAAAAAAAAAAYQ))))))))))))))))~YGAAAAAAAAAAAAG_"
};
