/* XPM */
static char *_631988138911[] = {
/* columns rows colors chars-per-pixel */
"50 50 195 2 ",
"   c black",
".  c #3A3538",
"X  c #987B84",
"o  c #997B84",
"O  c #987D86",
"+  c #9B7E87",
"@  c #9B7F88",
"#  c #9C7E88",
"$  c #E17D98",
"%  c #E17E98",
"&  c #93868D",
"*  c #9B8C95",
"=  c #9B8D95",
"-  c #9E9098",
";  c #A48690",
":  c #AB8A95",
">  c #AB8B95",
",  c #AF8F98",
"<  c #AE8E99",
"1  c #A2939B",
"2  c #A4969E",
"3  c #B1909B",
"4  c #B2919B",
"5  c #B4919C",
"6  c #B6929D",
"7  c #B6929E",
"8  c #B6939E",
"9  c #BB909C",
"0  c #BB909D",
"q  c #BB919E",
"w  c #BC909D",
"e  c #B8949F",
"r  c #B9949F",
"t  c #AC9DA6",
"y  c #AD9DA7",
"u  c #B895A0",
"i  c #B897A2",
"p  c #BC97A2",
"a  c #BC98A3",
"s  c #B999A4",
"d  c #BC99A4",
"f  c #BE99A4",
"g  c #BF99A4",
"h  c #BB9DA7",
"j  c #BC9EA9",
"k  c #BCACB5",
"l  c #C591A0",
"z  c #C09AA6",
"x  c #C19AA6",
"c  c #DB9DAF",
"v  c #E389A2",
"b  c #E38AA3",
"n  c #E698AF",
"m  c #CCA4B0",
"M  c #CEA4B0",
"N  c #CEA5B2",
"B  c #CFA7B4",
"V  c #C0ADB7",
"C  c #CCACB7",
"Z  c #DCA3B3",
"A  c #DCA3B4",
"S  c #DDA4B5",
"D  c #D5ABB8",
"F  c #D8ADBA",
"G  c #DAAEBC",
"H  c #DBAFBD",
"J  c #C1B0BA",
"K  c #C3B0BA",
"L  c #C3B1BB",
"P  c #C3B2BB",
"I  c #C3B2BC",
"U  c #C4B3BD",
"Y  c #C5B3BD",
"T  c #C5B3BE",
"R  c #C5B4BE",
"E  c #C6B5BF",
"W  c #DAB2BF",
"Q  c #E3A2B5",
"!  c #E6A0B5",
"~  c #E7A1B5",
"^  c #E3A8B9",
"/  c #E2AEBE",
"(  c #E3AFBF",
")  c #E9A8BD",
"_  c #E9A9BD",
"`  c #DFB2C0",
"'  c #DFB3C0",
"]  c #E3B1C0",
"[  c #E3B2C0",
"{  c #E7B1C1",
"}  c #E7B3C3",
"|  c #E0B4C2",
" . c #E2B5C3",
".. c #E3B5C3",
"X. c #E2B6C3",
"o. c #E3B6C4",
"O. c #E3B7C4",
"+. c #E3B7C5",
"@. c #E4B7C5",
"#. c #E8B0C2",
"$. c #E9B1C3",
"%. c #EBB4C7",
"&. c #E9B6C7",
"*. c #E4B8C6",
"=. c #E4B9C6",
"-. c #E4B9C7",
";. c #E9B6C8",
":. c #EBB6C8",
">. c #EBB7C9",
",. c #E4BAC8",
"<. c #E5BAC8",
"1. c #E5BBC9",
"2. c #E5BCC9",
"3. c #E5BCCA",
"4. c #E6BCCA",
"5. c #E6BDCB",
"6. c #E6BECB",
"7. c #E6BECC",
"8. c #E6BFCC",
"9. c #E7BFCC",
"0. c #EAB9C9",
"q. c #ECBCCC",
"w. c #D2C0CB",
"e. c #D5C2CC",
"r. c #DAC7D2",
"t. c #DDC9D5",
"y. c #DECBD6",
"u. c #DFCBD7",
"i. c #E7C1CE",
"p. c #E7C1CF",
"a. c #E8C2CF",
"s. c #ECC1D0",
"d. c #ECC1D1",
"f. c #EDC3D2",
"g. c #EDC3D3",
"h. c #E9C5D2",
"j. c #E9C6D2",
"k. c #E9C6D3",
"l. c #EAC7D4",
"z. c #EAC7D5",
"x. c #EDC7D6",
"c. c #EAC8D5",
"v. c #EBCAD7",
"b. c #EBCBD7",
"n. c #E1CDD8",
"m. c #E1CDD9",
"M. c #EBCBD8",
"N. c #EECAD9",
"B. c #ECCDDA",
"V. c #ECCEDA",
"C. c #ECCEDB",
"Z. c #ECCFDB",
"A. c #EDCFDC",
"S. c #E4D0DB",
"D. c #E5D1DC",
"F. c #EDD0DC",
"G. c #EDD0DD",
"H. c #EDD1DD",
"J. c #EDD1DE",
"K. c #EED1DE",
"L. c #EED2DF",
"P. c #EED3DF",
"I. c #F0D2DF",
"U. c #EED3E0",
"Y. c #E9D5E1",
"T. c #EAD5E1",
"R. c #EBD7E3",
"E. c #EED4E0",
"W. c #EFD4E1",
"Q. c #EFD5E1",
"!. c #EFD5E2",
"~. c #EFD6E2",
"^. c #EFD6E3",
"/. c #EDD8E3",
"(. c #EDD8E4",
"). c #EEDAE5",
"_. c #F0D6E3",
"`. c #F0D7E3",
"'. c #F0D7E4",
"]. c #F1D8E4",
"[. c #F0D8E5",
"{. c #F1D8E5",
"}. c #F0D9E5",
"|. c #F1D9E5",
" X c #F1D9E6",
".X c #F1DAE6",
"XX c #F1DAE7",
"oX c #F1DBE7",
"OX c #F2DBE8",
"+X c #F1DCE8",
"@X c #F2DCE8",
"#X c #F2DCE9",
"$X c #F2DDE9",
"%X c #F3DEEA",
"&X c None",
/* pixels */
"&X&X&X&X&X&X&X&X&X&X&X&X&X&X&X&X&X&X&X&X&X&X&X&X&X&X&X&X&X&X&X&X&X&X&X&X&X&X&X&X&X&X&X&X&X&X&X&X&X&X",
"&X&X&X&X&X&X&X&X&X&X&X&X&X$X$X$X&X&X&X&X&X&X&X&X&X&X&X&X&X&X&X&X&X&X$X$X$X&X&X&X&X&X&X&X&X&X&X&X&X&X",
"&X&X&X&X&X&X&X&X&X&X&X&X&X$X$X$X$X&X&X&X&X&X&X&X&X&X&X&X&X&X&X&X&X$X$X$X$X&X&X&X&X&X&X&X&X&X&X&X&X&X",
"&X&X&X&X&X&X&X&X&X&X&X&X&X$X$X$X$X$X&X&X&X&X&X&X&X&X&X&X&X&X&X&X$X$X$X$X$X&X&X&X&X&X&X&X&X&X&X&X&X&X",
"&X&X&X&X&X&X&X&X&X&X&X&X&X$X.Xz.$X$X$X&X&X&X&X&X&X&X&X&X&X&X&X$X$X.Xk..X$X&X&X&X&X&X&X&X&X&X&X&X&X&X",
"&X&X&X&X&X&X&X&X&X&X&X&X&X$XQ.o.8.^.$X$X&X&X&X&X&X&X&X&X&X&X$X$X_.<.-..X$X&X&X&X&X&X&X&X&X&X&X&X&X&X",
"&X&X&X&X&X&X&X&X&X&X&X&X&X$XF.o.o.3.Q.$X$X&X&X&X&X&X&X&X&X$X$XF.-. .@._.$X&X&X&X&X&X&X&X&X&X&X&X&X&X",
"&X&X&X&X&X&X&X&X&X&X&X&X&X$XM.o.o.o.3..X$X&X&X&X&X&X&X&X$X$XQ.<.@. .@.F.$X&X&X&X&X&X&X&X&X&X&X&X&X&X",
"&X&X&X&X&X&X&X&X&X&X&X&X&X$Xc.o.o.o.o.p.$X$X&X&X&X&X&X&X$X+X<.@.@. .@.Z.+X&X&X&X&X&X&X&X&X&X&X&X&X&X",
"&X&X&X&X&X&X&X&X&X&X&X&X&X$Xk.@.o.o.o.o.Q.$X&X&X&X&X&X&X$XF.o.o. .@. .Z.$X&X&X&X&X&X&X&X&X&X&X&X&X&X",
"&X&X&X&X&X&X&X&X&X&X&X&X&X$Xc.o.o.o.o.o.M.$X&X&X&X&X&X&X$Xk.o.o.@. ...Z.$X&X&X&X&X&X&X&X&X&X&X&X&X&X",
"&X&X&X&X&X&X&X&X&X&X&X&X&X$Xc.o.o.o.o.o.k.$X&X&X&X&X&X&X$X8.o.o. .@...Z.$X&X&X&X&X&X&X&X&X&X&X&X&X&X",
"&X&X&X&X&X&X&X&X&X&X&X&X&X$XZ.o.o.o.o.o.i..X&X&X&X&X&X$X.X-.o.o. .@. ._.$X&X&X&X&X&X&X&X&X&X&X&X&X&X",
"&X&X&X&X&X&X&X&X&X&X&X&X&X$XQ.o.o.o.o.o.<.$X$X&X&X&X&X$X+X@.o.o.@. .-..X$X&X&X&X&X&X&X&X&X&X&X&X&X&X",
"&X&X&X&X&X&X&X&X&X&X&X&X&X$X.X-.o.o.o.o.@..X$X&X&X&X&X$XQ.o.o.o. .@.3.$X$X&X&X&X&X&X&X&X&X&X&X&X&X&X",
"&X&X&X&X&X&X&X&X&X&X&X&X&X$X$Xi.o.o.o.o. ..X$X&X&X&X&X$XU.o.o.o.@. .z.$X&X&X&X&X&X&X&X&X&X&X&X&X&X&X",
"&X&X&X&X&X&X&X&X&X&X&X&X&X&X$XA.o.o.o.o.o.Q.$X$X$X$X$X$XA.o.o.o.o.o.Q.$X&X&X&X&X&X&X&X&X&X&X&X&X&X&X",
"&X&X&X&X&X&X&X&X&X&X&X&X&X&X$X.X<.o.o.o.<.+X$X$X$X$X$X$X^.*.o.o.o.8.$X+X&X&X&X&X&X&X&X&X&X&X&X&X&X&X",
"&X&X&X&X&X&X&X&X&X&X&X&X&X&X&X$XC.o.o.o.A.$X$X$X$X$X$X$X$Xc.o.o.*.U.$X&X&X&X&X&X&X&X&X&X&X&X&X&X&X&X",
"&X&X&X&X&X&X&X&X&X&X&X&X&X&X&X$X$XF.c.Q.$X$X$X$X$X$X$X$X$X$XQ.c.F.$X$X&X&X&X&X&X&X&X&X&X&X&X&X&X&X&X",
"&X&X&X&X&X&X&X&X&X&X&X&X&X&X&X$X$X$X$X$X$X$X$X$X$X$X$X$X$X$X$X$X$X$XY.&X&X&X&X&X&X&X&X&X&X&X&X&X&X&X",
"&X&X&X&X&X&X&X&X&X&X&X&X&X&X$X$X$X$X$X$X$X$X$X$X$X$X$X$X$X$X$X$X$X$X$Xr.&X&X&X&X&X&X&X&X&X&X&X&X&X&X",
"&X&X&X&X&X&X&X&X&X&X&X&X&X$X$X$X$X$X$X$X$X$X$X$X$X$X$X$X$X$X$X$X$X$X$X^.U &X&X&X&X&X&X&X&X&X&X&X&X&X",
"&X&X&X&X&X&X&X&X&X&X&X&X&X$X$X$X$X$X$X$X$X$X$X$X$X$X$X$X$X$X$X$X$X$X$X$Xw.&X&X&X&X&X&X&X&X&X&X&X&X&X",
"&X&X&X&X&X&X&X&X&X&X&X&X$X$X$X$X$X$X$X$X$X$X$X$X$X$X$X$X$X$X$X$X$X$X$X$Xm.U &X&X&X&X&X&X&X&X&X&X&X&X",
"&X&X&X&X&X&X&X&X&X&X&X&X$X$X$X$X$X$X$X$X$X$X$X$X$X$X$X$X$X$X$X$X$X$X$X$XY.U &X&X&X&X&X&X&X&X&X&X&X&X",
"&X&X&X&X&X&X&X&X&X&X&X&X$X$X$X$X$X$X$X$X$X$X$X$X$X$X$X$X$X$X$X$X$X$X$X$X).E &X&X&X&X&X&X&X&X&X&X&X&X",
"&X&X&X&X&X&X&X&X&X&X&X&X$X$X$X$X$X$X$X$X$XD.$X$X$X$X$X$XD.%X$X$X$X$X$X$X@XE &X&X&X&X&X&X&X&X&X&X&X&X",
"&X&X&X&X&X&X&X&X&X&X&X$X$X$X$X$X$X$X$X$Xk . J $X$X$X$XJ . k $X$X$X$X$X$X$XE U &X&X&X&X&X&X&X&X&X&X&X",
"&X&X&X&X&X&X&X&X&X&X&X$X$X$X$X$X$X$X$X$X&   = $X$X$X$X=   & $X$X$X$X$X$X@XE L &X&X&X&X&X&X&X&X&X&X&X",
"&X&X&X&X&X&X&X&X&X&X&X$X$X$X$X$X$X$X$X$X-   1 $X$X$X$X2   = $X$X$X$X$X$X/.U J &X&X&X&X&X&X&X&X&X&X&X",
"&X&X&X&X&X&X&X&X&X&X&Xi.Q.$X$X$X$X$X$X$Xu.t y.$X$X$X$Xm.y t.$X$X$X$X$X$XD.V h &X&X&X&X&X&X&X&X&X&X&X",
"&X&X&X&X&X&X&X&X&X&X&X&X<..X$X$X$X$X$X$X$X.X@X@X%X$X$X$X+X$X$X$X$X$X$X$Xe.s &X&X&X&X&X&X&X&X&X&X&X&X",
"&X&X&X&X&X&X&X&X&X&X&X&X*.3..XN.f._.$X$X$X$X@X@X$X$X$X$X$X.X$X$X'.f.N.Q.j 8 &X&X&X&X&X&X&X&X&X&X&X&X",
"&X&X&X&X&X&X&X&X&X&X&X&X-. .3..X_.f.q.f._.OX@X@X$X$X$X$X$X_.f.q.f.'..XC 6 u &X&X&X&X&X&X&X&X&X&X&X&X",
"&X&X&X&X&X&X&X&X&X&X&X&X&X@./ Q #.;.;.) n ! .Xx.0.0.x.$X! n ) ;.;.$.c q 6 &X&X&X&X&X&X&X&X&X&X&X&X&X",
"&X&X&X&X&X&X&X&X&X&X&X&X&X<.o.[ ^ { &.f._.$X$Xv % % b $X$XU.f.;.$.Z 0 6 i &X&X&X&X&X&X&X&X&X&X&X&X&X",
"&X&X&X&X&X&X&X&X&X&X&X&X&X&XB / [  .*.i.Z..X.XS % % A +X+XA.d.@.N 0 0 : &X&X&X&X&X&X&X&X&X&X&X&X&X&X",
"&X&X&X&X&X&X&X&X&X&X&X&X&X&X&Xd F o. . ...@.3.W l l ' 3.o.o.D d 6 5 : &X&X&X&X&X&X&X&X&X&X&X&X&X&X&X",
"&X&X&X&X&X&X&X&X&X&X&X&X&X&X&X&X+ g N W (  .o.o. .[ ' F m p 6 6 5 + &X&X&X&X&X&X&X&X&X&X&X&X&X&X&X&X",
"&X&X&X&X&X&X&X&X&X&X&X&X&X&X&X&X&X&X# 3 e x x x x g e 6 6 6 3 + &X&X&X&X&X&X&X&X&X&X&X&X&X&X&X&X&X&X",
"&X&X&X&X&X&X&X&X&X&X&X&X&X&X&X&X&X&X&X&X&XX ; < , < < ; o &X&X&X&X&X&X&X&X&X&X&X&X&X&X&X&X&X&X&X&X&X",
"&X&X&X&X&X&X&X&X&X&X&X&X&X&X&X&X&X&X&X&X&X&X&X&X&X&X&X&X&X&X&X&X&X&X&X&X&X&X&X&X&X&X&X&X&X&X&X&X&X&X",
"&X&X&X&X&X&X&X&X&X&X&X&X&X&X&X&X&X&X&X&X&X&X&X&X&X&X&X&X&X&X&X&X&X&X&X&X&X&X&X&X&X&X&X&X&X&X&X&X&X&X",
"&X&X&X&X&X&X&X&X&X&X&X&X&X&X&X&X&X&X&X&X&X&X&X&X&X&X&X&X&X&X&X&X&X&X&X&X&X&X&X&X&X&X&X&X&X&X&X&X&X&X",
"&X&X&X&X&X&X&X&X&X&X&X&X&X&X&X&X&X&X&X&X&X&X&X&X&X&X&X&X&X&X&X&X&X&X&X&X&X&X&X&X&X&X&X&X&X&X&X&X&X&X",
"&X&X&X&X&X&X&X&X&X&X&X&X&X&X&X&X&X&X&X&X&X&X&X&X&X&X&X&X&X&X&X&X&X&X&X&X&X&X&X&X&X&X&X&X&X&X&X&X&X&X",
"&X&X&X&X&X&X&X&X&X&X&X&X&X&X&X&X&X&X&X&X&X&X&X&X&X&X&X&X&X&X&X&X&X&X&X&X&X&X&X&X&X&X&X&X&X&X&X&X&X&X",
"&X&X&X&X&X&X&X&X&X&X&X&X&X&X&X&X&X&X&X&X&X&X&X&X&X&X&X&X&X&X&X&X&X&X&X&X&X&X&X&X&X&X&X&X&X&X&X&X&X&X",
"&X&X&X&X&X&X&X&X&X&X&X&X&X&X&X&X&X&X&X&X&X&X&X&X&X&X&X&X&X&X&X&X&X&X&X&X&X&X&X&X&X&X&X&X&X&X&X&X&X&X"
};
