/* XPM */
static char *_632670530395[] = {
/* columns rows colors chars-per-pixel */
"50 25 237 2 ",
"   c black",
".  c #010101",
"X  c gray1",
"o  c #050405",
"O  c #070506",
"+  c #080607",
"@  c #0F0D0E",
"#  c #191618",
"$  c #1D191B",
"%  c #1E1B1D",
"&  c #252123",
"*  c #262225",
"=  c #3A3538",
"-  c #3C3639",
";  c #3D373A",
":  c #474044",
">  c #544C51",
",  c #564E52",
"<  c #5C5359",
"1  c #6F656A",
"2  c #6F656B",
"3  c #71676D",
"4  c #746A70",
"5  c #7C7177",
"6  c #81757B",
"7  c #83777E",
"8  c #867A81",
"9  c #887C83",
"0  c #E17D98",
"q  c #E17D99",
"w  c #E07E99",
"e  c #E07F99",
"r  c #E17F99",
"t  c #E17F9A",
"y  c #92858D",
"u  c #9C8F96",
"i  c #9F9199",
"p  c #AA9BA3",
"a  c #AC9DA6",
"s  c #AE9EA7",
"d  c #B6A6AF",
"f  c #B6A7B0",
"g  c #BAAAB3",
"h  c #E2809A",
"j  c #E2819B",
"k  c #E2839D",
"l  c #E2849E",
"z  c #E2859E",
"x  c #E2859F",
"c  c #E3859F",
"v  c #E2869F",
"b  c #DB8AA0",
"n  c #D791A5",
"m  c #D594A7",
"M  c #D79DAE",
"N  c #DD9CB0",
"B  c #E287A0",
"V  c #E387A0",
"C  c #E188A1",
"Z  c #E388A0",
"A  c #E388A1",
"S  c #E389A1",
"D  c #E389A2",
"F  c #E38AA2",
"G  c #E38BA3",
"H  c #E48AA3",
"J  c #E38BA4",
"K  c #E48EA5",
"L  c #E48EA6",
"P  c #E48FA7",
"I  c #E390A7",
"U  c #E490A7",
"Y  c #E491A8",
"T  c #E491A9",
"R  c #E492A9",
"E  c #E494AA",
"W  c #E494AB",
"Q  c #E594AB",
"!  c #E595AB",
"~  c #E596AC",
"^  c #E599AF",
"/  c #E59AB0",
"(  c #E59BB0",
")  c #E69BB0",
"_  c #E69CB1",
"`  c #E79CB2",
"'  c #E69DB2",
"]  c #E69EB3",
"[  c #E69FB3",
"{  c #D1A1B0",
"}  c #D1ABB9",
"|  c #C2B1BA",
" . c #C3B2BC",
".. c #C5B4BE",
"X. c #E6A0B5",
"o. c #E7A3B7",
"O. c #E7A5B8",
"+. c #E7A6BA",
"@. c #E7A7BB",
"#. c #E8A6B9",
"$. c #E5A8BA",
"%. c #E8A9BC",
"&. c #E8AABD",
"*. c #E8ABBD",
"=. c #E9ABBE",
"-. c #E8ACBF",
";. c #CBBAC4",
":. c #CDBBC5",
">. c #CDBBC6",
",. c #D0BEC8",
"<. c #E9ADC0",
"1. c #E3B6C4",
"2. c #E3B7C4",
"3. c #E3B7C5",
"4. c #E4B7C5",
"5. c #E9B1C2",
"6. c #EAB2C4",
"7. c #EAB3C5",
"8. c #EAB4C5",
"9. c #EAB5C6",
"0. c #EAB6C7",
"q. c #E4B8C6",
"w. c #E4B9C6",
"e. c #E4B9C7",
"r. c #EAB7C8",
"t. c #EBB7C9",
"y. c #E4B9C8",
"u. c #E5BAC8",
"i. c #E5BBC8",
"p. c #E5BAC9",
"a. c #E5BBC9",
"s. c #E5BCC9",
"d. c #E5BCCA",
"f. c #E4BECD",
"g. c #E6BECC",
"h. c #EBB8C8",
"j. c #ECBBCB",
"k. c #EBBCCC",
"l. c #EBBECE",
"z. c #ECBDCD",
"x. c #ECBECE",
"c. c #D5C2CD",
"v. c #DAC3CE",
"b. c #D9C6D0",
"n. c #DAC7D2",
"m. c #DDCAD5",
"M. c #E7C0CD",
"N. c #E7C2CF",
"B. c #E1C6D3",
"V. c #E8C2D0",
"C. c #E8C3D0",
"Z. c #E8C3D1",
"A. c #ECC0D0",
"S. c #ECC1D0",
"D. c #ECC1D1",
"F. c #EDC1D1",
"G. c #ECC2D1",
"H. c #EDC2D2",
"J. c #EDC3D2",
"K. c #EDC3D3",
"L. c #E8C4D1",
"P. c #E8C5D2",
"I. c #E9C5D2",
"U. c #E9C5D3",
"Y. c #E9C6D3",
"T. c #EAC7D4",
"R. c #EDC5D4",
"E. c #EDC6D5",
"W. c #EEC6D5",
"Q. c #EEC7D6",
"!. c #EAC8D5",
"~. c #EEC8D7",
"^. c #EEC9D7",
"/. c #E0CDD8",
"(. c #E1CDD9",
"). c #E3CFDA",
"_. c #EBCBD8",
"`. c #EECBD8",
"'. c #EECBD9",
"]. c #EECCDA",
"[. c #EFCDDB",
"{. c #ECCEDB",
"}. c #ECCFDB",
"|. c #EFCDDC",
" X c #EFCFDC",
".X c #EFCFDD",
"XX c #E4D0DB",
"oX c #E5D0DC",
"OX c #E5D1DC",
"+X c #E7D3DE",
"@X c #EDD0DC",
"#X c #EDD0DD",
"$X c #EDD1DD",
"%X c #EFD0DE",
"&X c #EFD1DE",
"*X c #EED2DE",
"=X c #EED2DF",
"-X c #F0D1DE",
";X c #F0D1DF",
":X c #F0D2DF",
">X c #E9D5E0",
",X c #EBD6E2",
"<X c #EFD4E1",
"1X c #EFD5E1",
"2X c #ECD6E2",
"3X c #EFD6E2",
"4X c #ECD8E3",
"5X c #EDD9E4",
"6X c #EDD9E5",
"7X c #EEDAE5",
"8X c #EFDBE7",
"9X c #F0D2E0",
"0X c #F0D4E1",
"qX c #F0D5E1",
"wX c #F0D5E2",
"eX c #F1D5E2",
"rX c #F1D6E3",
"tX c #F0D7E3",
"yX c #F0D7E4",
"uX c #F1D7E4",
"iX c #F0D8E4",
"pX c #F0D8E5",
"aX c #F1D8E5",
"sX c #F0D9E5",
"dX c #F1D9E5",
"fX c #F1DAE6",
"gX c #F0DBE7",
"hX c #F1DBE7",
"jX c #F2DAE7",
"kX c #F2DBE7",
"lX c #F0DCE7",
"zX c #F2DBE8",
"xX c #F1DCE8",
"cX c #F2DCE8",
"vX c #F2DCE9",
"bX c #F2DDE9",
"nX c None",
/* pixels */
"nXnXbXbXbXbXbXbXbXbXbXbXbXbXbXbXbXbXbXbXbXbXbXbXbXbXbXbXbXbXbXbXbXbXbXbXbXbXbXbXbXbXbXbXbXbXbXbXnXnX",
"nXbXbXbXbXbXbXbXbXbXbXbXbXbXbXbX>.5 y XXbXbXbXbXbXbXbXbXbXbX8Xd 4 p 7XbXbXbXbXbXbXbXbXbXbXbXbXbXbXnX",
"nXbXbXbXbXbXbXbXbXbXbXbXbXbXbXn.; . . 6 kXbXbXbXbXbXbXbXbXbX .# . @ a bXbXbXbXbXbXbXbXbXbXbXbXbXbXbX",
"bXbXbXbXbXbXbXbXbXbXbXbXbXbXbXi . . . * c.bXbXbXbXbXbXbXbX8X2 . . . < ,XbXbXbXbXbXbXbXbXbXbXbXbXbXbX",
"bXbXbXbXbXbXbXbXbXbXbXbXbXbXbX6 . . . . >.bXbXbXbXbXbXbXbXkX> . . . $ m.bXbXbXbXbXbXbXbXbXbXbXbXbXbX",
"bXbXbXbXbXbXbXbXbXbXbXbXbXbXbX8 . . . . >.bXbXbXbXbXbXbXbX8X, . . . & ).bXbXbXbXbXbXbXbXbXbXbXbXbXbX",
"bXbXbXbXbXzXbXbXbXbXbXbXbXbXbXf O . . = m.bXbXbXbXbXbXbXbXbX9 . . . 2 3XbXbXbXbXbXbXbXbXaXbXbXbXbXbX",
"bXbXbXbXaX~ [ z.9XzXbXbXbXbXbXOX3 O % u aXbXbXbXbXbXbXbXbXbX>.: O = | bXbXbXbXbXbX0XE.-.R J.bXbXbXbX",
"bXbXbXbXbX{.5.~ D _ h..XzXzXbXbXn.a g OXbXbXbXbXbXbXbXbXbXbXkX;.a ..7XbXbXbX0XJ.O.P G #.J.aXbXbXbXbX",
"{.bXbXbXbXbXbXaX[.9.) Z Q 6.'.aXbXkXbXbXbXbXbXbXbXbXbXbXbXbXbXbXaXbXbX@Xj.o.V R *.E.uXbXbXbXbXbXbXbX",
"a.aXbXaXaXkXzXaXaXaXaX.Xr.) k R -.E.aXbXbXbXbXbXbXbXbXbXbXbXbXkX X0.^ c P =.E.0XaXaXaXkXaXkXkXbXbX{.",
"1.U.bX9.R R R R R R R R R R Z t t t P 0XbXbXbXbXbXbXbXbXbXbXbX+.h t t c P P R R U W R R R R ] 0XuXa.",
"1.4.@X-XJ.J.J.J.J.J.z.9.) H t k Y =.G.aXbXbX0X0X0X0X9X3XaXbXbX{.7.) D r c W -.j.J.J.J.J.J.J.^.aXU.1.",
"1.1.a.7XbXbXaX Xl.@.R x ~ =.J.@XaXbXbXbXbXK.Z h h h h h =.kXbXbXbXcX0X^.7.] D D X.9.^.0XbXbXbX{.1.1.",
"1.1.1.U.uX<.P D W -.J.-XaXbXbXbXbXbXbXbXbXo.0 0 0 0 0 0 x -XbXbXbXbXbXbXbXcX0X^.9._ G D _ {.0Xe.1.1.",
"1.1.1.1.T.r.J.@XaXbXbXbXbXbXbXbXbXbXbXbXbX$.0 0 0 0 t t Z 3XbXbXbXbXbXbXbXbXbXbXbXbX0X^.9.^.N.1.1.1.",
"1.1.1.1.1.$XbXbXbXbXbXbXbXbXbXbXbXbXbXbXbXf.e e e 0 e 0 N zXbXbXbXbXbXbXbXbXbXbXbXbXbXbXkXM.e.1.1.1.",
"1.1.1.1.1.y.@XbXbXbXbXbXbXbXbXbXbXbXbXbXbX3XM e 0 0 e b B.zXbXbXbXbXbXbXbXbXbXbXbXbXbXbXU.1.1.1.1.1.",
"1.1.1.1.1.1.e.$XbXbXbXbXbXbXbXbXbXbXbXbXbXbXOX} m m M v.7XbXbXbXbXbXbXbXbXbXbXbXbXbXaXU.1.1.1.1.1.1.",
"1.1.1.1.1.1.1.e..XbXbXbXbXbXbXbXbXbXbXbXbXbXbX7X).).,XbXbXbXbXbXbXbXbXbXbXbXbXbXbXaXU.1.1.1.1.1.1.1.",
"e.1.1.1.1.1.1.1.e._.bXbXbXbXbXbXbXbXbXbXbXbXbXbXbXbXbXbXbXbXbXbXbXbXbXbXbXbXbXbX5XM.1.1.1.1.1.1.1.1.",
"e.1.1.1.1.1.1.1.1.1.G.7XbXbXbXbXbXbXbXbXbXbXbXbXbXbXbXbXbXbXbXbXbXbXbXbXbXbXbX@Xe.1.1.1.1.1.1.1.1.e.",
"e.1.1.1.1.1.1.1.1.1.1.s.@XbXbXbXbXbXbXbXbXbXbXbXbXbXbXbXbXbXbXbXbXbXbXbXbX5XU.1.4.1.1.1.1.1.1.1.1.a.",
"y.1.1.1.1.1.1.1.1.1.1.1.1.N.3XbXbXbXbXbXbXbXbXbXbXbXbXbXbXbXbXbXbXbXbXuXT.e.1.1.1.1.1.1.1.1.1.1.1.nX",
"nXa.1.1.1.1.1.1.1.1.1.1.1.1.e.V.@XzXbXbXbXbXbXbXbXbXbXbXbXbXbXbXbX3XU.e.1.1.1.1.1.1.1.1.1.1.1.1.e.nX"
};
