/* XPM */
static char *_632766431502[] = {
/* columns rows colors chars-per-pixel */
"50 25 67 1 ",
"  c #312C28",
". c #312C29",
"X c #322D2A",
"o c #322E2A",
"O c #322E2B",
"+ c #332E2B",
"@ c #332F2B",
"# c #332F2C",
"$ c #33302C",
"% c #363330",
"& c #373330",
"* c #373430",
"= c #373431",
"- c #383431",
"; c #383531",
": c #383532",
"> c #383533",
", c #393632",
"< c #383633",
"1 c #393633",
"2 c #3B3935",
"3 c #3F3E3B",
"4 c #403E3C",
"5 c #43413F",
"6 c #444340",
"7 c #4F504E",
"8 c #525352",
"9 c #5D5F5E",
"0 c #5C5E5F",
"q c #5F6261",
"w c #5F6162",
"e c #626666",
"r c #646767",
"t c #65696A",
"y c #686B6D",
"u c #72787A",
"i c #757A7C",
"p c #767C7E",
"a c #7A8082",
"s c #A5B3B9",
"d c #AAB9BF",
"f c #AFBEC4",
"g c #AFBEC5",
"h c #B2C1C9",
"j c #B3C2CA",
"k c #B4C2C9",
"l c #B4C3CA",
"z c #B6C6CE",
"x c #BCCAD2",
"c c #C0D1D9",
"v c #C1D2DA",
"b c #C3D3DA",
"n c #C5D7DF",
"m c #C6D7DF",
"M c #C8D9E1",
"N c #D1E4EC",
"B c #D2E5EE",
"V c #D6E9F1",
"C c #D8EAF4",
"Z c #D8ECF4",
"A c #D9ECF4",
"S c #D9EDF5",
"D c #DBEEF7",
"F c #DBEEF8",
"G c #DCEFF8",
"H c #DDF0F9",
"J c None",
/* pixels */
"JJJJJJJJJJJJJJJJJJJJJJJJJJJJJJJJJJJJJJJJJJJJJJJJJJ",
"JJJJJJJJJJJJJJJJJJJJJJJJJJJJJJJJJJJJJJJJJJJJJJJJJJ",
"JJJJJJJJJJJJJJJJJJJJJJJJJJJJJJJJJJJJJJJJJJJJJJJJJJ",
"JJJJJJJJJJJ1111111JJJJJJJJJJJJJJ1111111JJJJJJJJJJJ",
"JJJJJJJJJ11111111111JJJJJJJJJJ11111111111JJJJJJJJJ",
"JJJJJJJ>11111111111111JJJJJJ11111111111111>JJJJJJJ",
"JJJJJJJ>1111113*111111JJJJJJ111111-4>>11111JJJJJJJ",
"JJJJJJJ>111>>.h*111111JJJJJJ111111 h>111111JJJJJJJ",
"JJJJJJJ>>111>iNr111111JJJJJJ>111>1eVu-11111JJJJJJJ",
"JJJJJJJJ1111$bAs$111JJJJJJJJJJ11>$hGf->>11JJJJJJJJ",
"JJJJJJJJJJJ19AHb9>JJJJJJJJJJJJJJ17AGmt>JJJJJJJJJJJ",
"JJJJJJJJJJJJJJJJJJJJJJJJJJJJJJJJJJJJJJJJJJJJJJJJJJ",
"JJJJJJJJJJJJJJJJJJJJJJJJJJJJJJJJJJJJJJJJJJJJJJJJJJ",
"JJJJJJJJJJJJJJJJJJJJJJJJJJJJJJJJJJJJJJJJJJJJJJJJJJ",
"JJJJJJJJJJJ1111111JJJJJJJJJJJJJJ1111111JJJJJJJJJJJ",
"JJJJJJJJ1111111111>>JJJJJJJJJ1111111111111JJJJJJJJ",
"JJJJJJJ>>2>>>>111111,1JJJJJJ11111112>11111>JJJJJJJ",
"JJJJJJJ>>,,2>>6&1111,,JJJJJJ11111115-111111JJJJJJJ",
"JJJJJJJ>,,,,>$z-1111>>JJJJJJ111111$h2111111JJJJJJJ",
"JJJJJJJ>>2,>>aBt11112>JJJJJJ1111>>rCp-11111JJJJJJJ",
"JJJJJJJJJ>,,.MAd$>>>JJJJJJJJJJ11>.xHk-2,1JJJJJJJJJ",
"JJJJJJJJJJJ2eAHve>JJJJJJJJJJJJJJ>8AHmy>JJJJJJJJJJJ",
"JJJJJJJJJJJJJJJJJJJJJJJJJJJJJJJJJJJJJJJJJJJJJJJJJJ",
"JJJJJJJJJJJJJJJJJJJJJJJJJJJJJJJJJJJJJJJJJJJJJJJJJJ",
"JJJJJJJJJJJJJJJJJJJJJJJJJJJJJJJJJJJJJJJJJJJJJJJJJJ"
};
