/* XPM */
static char *_632766422712[] = {
/* columns rows colors chars-per-pixel */
"50 50 153 2 ",
"   c #2A2621",
".  c #2E2925",
"X  c #2E2A25",
"o  c #312D29",
"O  c #332F2B",
"+  c #332F2C",
"@  c #34302D",
"#  c #35312E",
"$  c #35322E",
"%  c #35322F",
"&  c #36332F",
"*  c #373431",
"=  c #383431",
"-  c #383532",
";  c #383533",
":  c #393632",
">  c #393633",
",  c #393634",
"<  c #393734",
"1  c #3B3835",
"2  c #3B3836",
"3  c #403E3C",
"4  c #403F3C",
"5  c #413F3D",
"6  c #41403D",
"7  c #474644",
"8  c #484846",
"9  c #494847",
"0  c #4B4B49",
"q  c #515352",
"w  c #555756",
"e  c #575959",
"r  c #5B5D5D",
"t  c #5C5E5E",
"y  c #626667",
"u  c #666969",
"i  c #676C6D",
"p  c #707677",
"a  c #717779",
"s  c #727778",
"d  c #727779",
"f  c #73797B",
"g  c #757B7C",
"h  c #7C8386",
"j  c #7C8487",
"k  c #7F878A",
"l  c #82898B",
"z  c #838B8C",
"x  c #838B8D",
"c  c #868E90",
"v  c #8C969A",
"b  c #909B9F",
"n  c #949DA0",
"m  c #97A2A8",
"M  c #9AA4A8",
"N  c #99A4AA",
"B  c #A0ACB2",
"V  c #A1AEB4",
"C  c #A9B6BB",
"Z  c #ACBAC1",
"A  c #ADBCC3",
"S  c #AFBDC2",
"D  c #AEBDC4",
"F  c #AFBDC5",
"G  c #AEBEC4",
"H  c #AEBEC5",
"J  c #AFBEC5",
"K  c #B0C0C7",
"L  c #B2C1C9",
"P  c #B2C3CA",
"I  c #B3C3CB",
"U  c #B4C3CB",
"Y  c #B5C4C9",
"T  c #B6C5CD",
"R  c #B6C6CD",
"E  c #B8C7CD",
"W  c #B8C8D0",
"Q  c #BBCAD2",
"!  c #BBCBD3",
"~  c #BDCED5",
"^  c #BECFD7",
"/  c #BFCFD7",
"(  c #C2D2D7",
")  c #C0D1D9",
"_  c #C1D2D9",
"`  c #C3D3DA",
"'  c #C2D3DB",
"]  c #C3D4DD",
"[  c #C4D5DD",
"{  c #C6D7DF",
"}  c #C6D8E0",
"|  c #C8D9E1",
" . c #C8DAE2",
".. c #CBDCE4",
"X. c #CBDDE4",
"o. c #CADCE5",
"O. c #CBDCE5",
"+. c #CBDDE5",
"@. c #CCDCE4",
"#. c #CCDDE4",
"$. c #CCDDE5",
"%. c #CCDEE5",
"&. c #CCDEE6",
"*. c #CDDFE6",
"=. c #CDDEE7",
"-. c #CDDFE7",
";. c #CEDFE7",
":. c #CDDFE8",
">. c #CEE0E7",
",. c #CEE0E8",
"<. c #CEE1E9",
"1. c #CFE1EA",
"2. c #D0E2EB",
"3. c #D1E3EC",
"4. c #D2E4EC",
"5. c #D3E5EE",
"6. c #D4E7EF",
"7. c #D4E7F0",
"8. c #D5E8F1",
"9. c #D6E8F1",
"0. c #D6E9F1",
"q. c #D7EAF2",
"w. c #D7EAF3",
"e. c #D8EBF3",
"r. c #D9EBF4",
"t. c #D9ECF4",
"y. c #D9ECF5",
"u. c #DAECF5",
"i. c #DAEDF6",
"p. c #DBEDF6",
"a. c #DAEEF7",
"s. c #DBEEF7",
"d. c #DCEFF7",
"f. c #DBEFF8",
"g. c #DCEEF8",
"h. c #DCEFF8",
"j. c #DCEFF9",
"k. c #DCF0F9",
"l. c #DDF0F9",
"z. c #DDF0FA",
"x. c #DDF1FA",
"c. c #DEF1FA",
"v. c #DEF1FB",
"b. c #DFF2FA",
"n. c #DEF2FB",
"m. c #DFF2FB",
"M. c #DFF2FC",
"N. c #DFF3FC",
"B. c #E0F4FE",
"V. c #E3F7FF",
"C. c #E6FBFF",
"Z. c #E7FCFF",
"A. c None",
/* pixels */
"A.A.A.A.A.A.A.A.A.A.A.A.A.A.A.A.A.A.A.A.A.A.A.A.A.A.A.A.A.A.A.A.A.A.A.A.A.A.A.A.A.A.A.A.A.A.A.A.A.A.",
"A.A.A.A.A.A.A.A.A.A.A.A.A.A.A.A.A.A.A.A.A.A.A.A.A.A.A.A.A.A.A.A.A.A.A.A.A.A.A.A.A.A.A.A.A.A.A.A.A.A.",
"A.A.A.A.A.A.A.A.A.A.A.A.A.A.A.A.A.A.A.A.A.A.A.A.A.A.A.A.A.A.A.A.A.A.A.A.A.A.A.A.A.A.A.A.A.A.A.A.A.A.",
"A.A.A.A.A.A.A.A.A.A.A.A.A.A.A.A.A.A.A.A.A.A.A.A.A.A.A.A.A.A.A.A.A.A.A.A.A.A.A.A.A.A.A.A.A.A.A.A.A.A.",
"A.A.A.A.A.A.A.A.A.A.A.A.A.A.A.A.A.A.A.A.A.A.A.A.A.A.A.A.A.A.A.A.A.A.A.A.A.A.A.A.A.A.A.A.A.A.A.A.A.A.",
"A.A.A.A.A.A.A.A.A.A.A.A.A.A.A.A.A.A.A.A.A.A.A.A.A.A.A.A.A.A.A.A.A.A.A.A.A.A.A.A.A.A.A.A.A.A.A.A.A.A.",
"A.A.A.A.A.A.A.A.A.A.A.A.A.A.A.A.A.A.A.A.A.A.A.A.A.A.A.A.A.A.A.A.A.A.A.A.A.A.A.A.A.A.A.A.A.A.A.A.A.A.",
"A.A.A.A.A.A.A.A.A.A.A.A.A.A.A.A.A.A.A.A.A.A.A.A.A.A.A.A.A.A.A.A.A.A.A.A.A.A.A.A.A.A.A.A.A.A.A.A.A.A.",
"A.A.A.A.A.A.A.A.A.A.A.A.A.A.A.A.A.A.A.A.A.A.A.A.A.A.A.A.A.A.A.A.A.A.A.A.A.A.A.A.A.A.A.A.A.A.A.A.A.A.",
"A.A.A.A.A.A.A.A.A.A.A.A.A.A.A.A.A.A.A.A.A.A.A.A.A.A.A.A.A.A.A.A.A.A.A.A.A.A.A.A.A.A.A.A.A.A.A.A.A.A.",
"A.A.A.A.A.A.A.A.A.A.A.A.A.A.A.A.A.A.A.A.A.A.A.A.A.A.A.A.A.A.A.A.A.A.A.A.A.A.A.A.A.A.A.A.A.A.A.A.A.A.",
"A.A.A.A.A.A.A.A.A.A.A.A.A.A.A.A.A.A.A.A.A.A.A.A.A.A.A.A.A.A.A.A.A.A.A.A.A.A.A.A.A.A.A.A.A.A.A.A.A.A.",
"A.A.A.A.A.A.A.A.A.A.A.A.A.A.A.A.A.A.A.A.A.A.A.A.A.A.A.A.A.A.A.A.A.A.A.A.A.A.A.A.A.A.A.A.A.A.A.A.A.A.",
"A.A.A.A.A.A.A.A.A.A.A.A.A.A.A.A.A.A.A.A.A.A.A.A.A.A.A.A.A.A.A.A.A.A.A.A.A.A.A.A.A.A.A.A.A.A.A.A.A.A.",
"A.A.A.A.A.A.A.A.A.A.A.A.A.A.A.A.A.A.A.A.A.A.A.A.A.A.A.A.A.A.A.A.A.A.A.A.A.A.A.A.A.A.A.A.A.A.A.A.A.A.",
"A.A.A.A.A.A.A.A.A.A.A.A.A.A.A.A.A.A.A.A.A.A.A.A.A.A.A.A.A.A.A.A.A.A.A.A.A.A.A.A.A.A.A.A.A.A.A.A.A.A.",
"A.A.A.A.A.A.A.A.A.A.A.A.A.A.A.A.A.A.A.A.A.A.A.A.A.A.A.A.A.A.A.A.A.A.A.A.A.A.A.A.A.A.A.A.A.A.A.A.A.A.",
"A.A.A.A.A.A.A.A.A.A.A.A.A.A.A.A.A.A.A.A.A.A.A.A.A.A.A.A.A.A.A.A.A.A.A.A.A.A.A.A.A.A.A.A.A.A.A.A.A.A.",
"A.A.A.A.A.A.A.A.A.A.A.A.A.A.A.A.A.A.A.A.A.A.A.A.A.A.A.A.A.A.A.A.A.A.A.A.A.A.A.A.A.A.A.A.A.A.A.A.A.A.",
"A.A.A.A.A.A.A.A.A.A.A.A.A.A.A.A.A.A.A.A.A.A.A.A.A.A.A.A.A.A.A.A.A.A.A.A.A.A.A.A.A.A.A.A.A.A.A.A.A.A.",
"A.A.A.A.A.A.A.A.A.A.A.A.A.A.A.A.A.A.A.A.A.A.A.A.A.A.A.A.A.A.A.A.A.A.A.A.A.A.A.A.A.A.A.A.A.A.A.A.A.A.",
"A.A.A.A.A.A.A.A.A.A.A.A.A.A.A.A.A.A.A.A.A.A.A.A.A.A.A.A.A.A.A.A.A.A.A.A.A.A.A.A.A.A.A.A.A.A.A.A.A.A.",
"A.A.A.A.A.A.A.A.A.A.A.A.A.A.A.A.A.A.A.A.A.A.A.A.A.A.A.A.A.A.A.A.A.A.A.A.A.A.A.A.A.A.A.A.A.A.A.A.A.A.",
"A.A.A.A.A.A.A.A.A.A.A.A.A.A.I A.A.A.A.A.A.A.A.A.A.A.A.A.A.A.A.A.A.A.A.I A.A.A.A.A.A.A.A.A.A.A.A.A.A.",
"A.A.A.A.A.A.A.A.A.A.A.A.A.A.) A.A.A.A.A.A.A.A.A.A.A.A.A.A.A.A.A.A.A.A.( A.A.A.A.A.A.A.A.A.A.A.A.A.A.",
"A.A.A.A.A.A.A.A.A.A.A.A.A.s.e.G A.A.A.A.A.A.A.A.A.A.A.A.A.A.A.A.A.A.s.s.G A.A.A.A.A.A.A.A.A.A.A.A.A.",
"A.A.A.A.A.A.A.A.A.A.A.A.A.s.c.W A.A.A.A.A.A.A.A.A.A.A.A.A.A.A.A.A.A.s.d.~ A.A.A.A.A.A.A.A.A.A.A.A.A.",
"A.A.A.A.A.A.A.A.A.A.A.A.s.s.s.2.G A.A.A.A.A.A.A.A.A.A.A.A.A.A.A.A.j.s.s.7.G A.A.A.A.A.A.A.A.A.A.A.A.",
"A.A.A.A.A.A.A.A.A.A.A.e c.s.s.c.W 4 A.A.A.A.A.A.A.A.A.A.A.A.A.A.4 j.s.s.B.W q A.A.A.A.A.A.A.A.A.A.A.",
"A.A.A.A.A.A.A.A.A.> * M j.s.s.s.2.a > > A.A.A.A.A.A.A.A.A.A.> > z c.s.s.s.6.j * > A.A.A.A.A.A.A.A.A.",
"A.A.A.A.A.A.A.> > > o c.s.s.s.s.j.U o > > > A.A.A.A.A.A.> > > . e.s.s.s.s.j.~ # > > > A.A.A.A.A.A.A.",
"A.A.A.A.A.A.A.> > > c c.s.s.s.s.s...i > > > A.A.A.A.A.A.> > > g c.s.s.s.s.s.,.f > > > A.A.A.A.A.A.A.",
"A.A.A.A.A.A.A.> > # 9.s.s.s.s.s.s.c.V # > > A.A.A.A.A.A.> > + [ d.s.s.s.s.s.c.F > > > A.A.A.A.A.A.A.",
"A.A.A.A.A.A.A.> > a N.s.s.s.r.s.s.s.:.w < > A.A.A.A.A.A.> < t B.d.s.d.e.s.s.s.,.y > > A.A.A.A.A.A.A.",
"A.A.A.A.A.A.A.A.  ( c.s.s.c.T c.f.f.k.M A.A.A.A.A.A.A.A.A.A.Y c.s.f.c.T c.j.f.c.B . A.A.A.A.A.A.A.A.",
"A.A.A.A.A.A.A.A.A.A.A.#.#.s.| ..#.:.A.A.A.A.A.A.A.A.A.A.A.A.A.A.:...s.#.} #.#.A.A.A.A.A.A.A.A.A.A.A.",
"A.A.A.A.A.A.A.A.A.A.A.A.A.f.f.G A.A.A.A.A.A.A.A.A.A.A.A.A.A.A.A.A.A.d.c.I A.A.A.A.A.A.A.A.A.A.A.A.A.",
"A.A.A.A.A.A.A.A.A.A.A.A.A.f.j.' A.A.A.A.A.A.A.A.A.A.A.A.A.A.A.A.A.A.s.s.| A.A.A.A.A.A.A.A.A.A.A.A.A.",
"A.A.A.A.A.A.A.A.A.A.A.A.s.s.s.s.G A.A.A.A.A.A.A.A.A.A.A.A.A.A.A.A.s.s.s.j.K A.A.A.A.A.A.A.A.A.A.A.A.",
"A.A.A.A.A.A.A.A.A.A.A.l j.s.s.j.[ r A.A.A.A.A.A.A.A.A.A.A.A.A.A.u B.s.s.s.{ p A.A.A.A.A.A.A.A.A.A.A.",
"A.A.A.A.A.A.A.A.> > # E s.s.s.s.9.v # > A.A.A.A.A.A.A.A.A.> < @ C s.s.s.s.f.m # > > A.A.A.A.A.A.A.A.",
"A.A.A.A.A.A.A.> > < 0 C.s.s.s.s.c.] 6 > > > A.A.A.A.A.A.> > > 6 C.s.s.s.s.k...8 < > > A.A.A.A.A.A.A.",
"A.A.A.A.A.A.A.> > o S s.s.s.s.s.s.9.l # > > A.A.A.A.A.A.> > # M s.s.s.s.s.s.9.b o > > A.A.A.A.A.A.A.",
"A.A.A.A.A.A.A.> > 9 N.s.s.s.s.s.j.c.W 2 > > A.A.A.A.A.A.> > 1 s.s.s.s.s.s.s.c._ 8 > > A.A.A.A.A.A.A.",
"A.A.A.A.A.A.A.> * n j.s.s.s.s.s.s.s.3.a > > A.A.A.A.A.A.> > l c.s.s.s.s.s.s.s.9.h * > A.A.A.A.A.A.A.",
"A.A.A.A.A.A.A.A.A.6.c.s.s.s.s.s.s.s.B.Z A.A.A.A.A.A.A.A.A.A.#.N.s.s.s.s.s.f.s.N.T A.A.A.A.A.A.A.A.A.",
"A.A.A.A.A.A.A.A.A.A.A.#.#.s.s.r...,.A.A.A.A.A.A.A.A.A.A.A.A.A.A.,...s.s.s.#...A.A.A.A.A.A.A.A.A.A.A.",
"A.A.A.A.A.A.A.A.A.A.A.A.A.A.A.A.A.A.A.A.A.A.A.A.A.A.A.A.A.A.A.A.A.A.A.A.A.A.A.A.A.A.A.A.A.A.A.A.A.A.",
"A.A.A.A.A.A.A.A.A.A.A.A.A.A.A.A.A.A.A.A.A.A.A.A.A.A.A.A.A.A.A.A.A.A.A.A.A.A.A.A.A.A.A.A.A.A.A.A.A.A.",
"A.A.A.A.A.A.A.A.A.A.A.A.A.A.A.A.A.A.A.A.A.A.A.A.A.A.A.A.A.A.A.A.A.A.A.A.A.A.A.A.A.A.A.A.A.A.A.A.A.A."
};
