/* XPM */
static char *_631988178914[] = {
/* columns rows colors chars-per-pixel */
"50 38 8 1 ",
"  c #262323",
". c #2F3732",
"X c #373434",
"o c #383B39",
"O c #3C5348",
"+ c #40584C",
"@ c #527062",
"# c #557365",
/* pixels */
"#########################OOOOOOOOOOOOOOOOOOOOOOOOO",
"#########################OOOOOOOOOOOOOOOOOOOOOOOOO",
"#########################OOOOOOOOOOOOOOOOOOOOOOOOO",
"#########################OOOOOOOOOOOOOOOOOOOOOOOOO",
"#########################OOOOOOOOOOOOOOOOOOOOOOOOO",
"#########################OOOOOOOOOOOOOOOOOOOOOOOOO",
"#########################OOOOOOOOOOOOOOOOOOOOOOOOO",
"#########################OOOOOOOOOOOOOOOOOOOOOOOOO",
"#########################OOOOOOOOOOOOOOOOOOOOOOOOO",
"#########################OOOOOOOOOOOOOOOOOOOOOOOOO",
"#########################OOOOOOOOOOOOOOOOOOOOOOOOO",
"#########################OOOOOOOOOOOOOOOOOOOOOOOOO",
"@@@@@@@@@@@@@@@@@@@@@@@@@+++++++++++++++++++++++++",
"OOOOOOOOOOOOOOOOOOOOOOOOO#########################",
"OOOOOOOOOOOOOOOOOOOOOOOOO#########################",
"OOOOOOOOOOOOOOOOOOOOOOOOO#########################",
"OOOOOOOOOOOOOOOOOOOOOOOOO#########################",
"OOOOOOOOOOOOOOOOOOOOOOOOO#########################",
"OOOOOOOOOOOOOOOOOOOOOOOOO#########################",
"OOOOOOOOOOOOOOOOOOOOOOOOO#########################",
"OOOOOOOOOOOOOOOOOOOOOOOOO#########################",
"OOOOOOOOOOOOOOOOOOOOOOOOO#########################",
"OOOOOOOOOOOOOOOOOOOOOOOOO#########################",
"OOOOOOOOOOOOOOOOOOOOOOOOO#########################",
"OOOOOOOOOOOOOOOOOOOOOOOOO#########################",
"ooooooooooooooooooooooooo.........................",
"XXXXXXXXXXXXXXXXXXXXXXXXX                         ",
"XXXXXXXXXXXXXXXXXXXXXXXXX                         ",
"XXXXXXXXXXXXXXXXXXXXXXXXX                         ",
"XXXXXXXXXXXXXXXXXXXXXXXXX                         ",
"XXXXXXXXXXXXXXXXXXXXXXXXX                         ",
"XXXXXXXXXXXXXXXXXXXXXXXXX                         ",
"XXXXXXXXXXXXXXXXXXXXXXXXX                         ",
"XXXXXXXXXXXXXXXXXXXXXXXXX                         ",
"XXXXXXXXXXXXXXXXXXXXXXXXX                         ",
"XXXXXXXXXXXXXXXXXXXXXXXXX                         ",
"XXXXXXXXXXXXXXXXXXXXXXXXX                         ",
"XXXXXXXXXXXXXXXXXXXXXXXXX                         "
};
