/* XPM */
static char *_632672761325[] = {
/* columns rows colors chars-per-pixel */
"100 50 90 1 ",
"  c #905318",
". c #93571A",
"X c #945618",
"o c #94571B",
"O c #97591C",
"+ c #965A1C",
"@ c #995B1C",
"# c #995B1F",
"$ c #9A5C1C",
"% c #9D5C1C",
"& c #A7611C",
"* c #B1671D",
"= c #B3681E",
"- c #B4681E",
"; c #9B5E20",
": c #9C5E20",
"> c #9D5E20",
", c #9E5F22",
"< c #A06123",
"1 c #A26426",
"2 c #A36426",
"3 c #A36526",
"4 c #A56526",
"5 c #A56527",
"6 c #A66426",
"7 c #A66527",
"8 c #A46626",
"9 c #A56627",
"0 c #A86827",
"q c #A96828",
"w c #AA6928",
"e c #AB6928",
"r c #AC6A29",
"t c #AD6A29",
"y c #AF6C29",
"u c #B66B20",
"i c #B76B21",
"p c #B76D25",
"a c #B86C20",
"s c #B96D22",
"d c #BA6E23",
"f c #BC6F23",
"g c #B16D2A",
"h c #B36F2A",
"j c #B76F28",
"k c #BB7024",
"l c #BE7227",
"z c #B6702B",
"x c #B9722C",
"c c #BB742C",
"v c #BE752D",
"b c #C07328",
"n c #C27428",
"m c #C27529",
"M c #C2752A",
"N c #C2762A",
"B c #C4772B",
"V c #C0772C",
"C c #C0772D",
"Z c #C4782B",
"A c #C2782E",
"S c #C6782C",
"D c #C77A2D",
"F c #C4792E",
"G c #C57A2E",
"H c #C77B2F",
"J c #C87B2E",
"K c #C97B2E",
"L c #C97C30",
"P c #C97D30",
"I c #CA7C30",
"U c #CA7D30",
"Y c #72CB46",
"T c #73CB46",
"R c #72CC46",
"E c #73CC46",
"W c #72CC47",
"Q c #73CC47",
"! c #939F39",
"~ c #BF8733",
"^ c #AF9637",
"/ c #A99B38",
"( c #B59136",
") c #99A93D",
"_ c #C48231",
"` c #8DB440",
"' c #82BD42",
"] c #88B841",
"[ c #89B841",
"{ c None",
/* pixels */
"{{{{{{{{{{{{{{{{{{{{{{{{{{{{{{{{{{{{{{{{{{{{{{{{{{{{{{{{{{{{{{{{{{{{{{{{{{{{{{{{{{{{{{{{{{{{{{{{{{{{",
"{{{{{{{{{{{{{{{{{{{{{{{{{{{{{{{{{{{{{{{{{{{{{{{{{{{{{{{{{{{{{{{{{{{{{{{{{{{{{{{{{{{{{{{{{{{{{{{{{{{{",
"{{{{{{{{{{{{{{{{{{{{{{{{{{{{{{{{{{{{{{{{{{{{{{{{{{{{{{{{{{{{{{{{{{{{{{{{{{{{{{{{{{{{{{{{{{{{{{{{{{{{",
"{{{{{{{{{{{{{{{{{{{{{{{{{{{{{{{{{{{{{{{{{{{{{{{{{{{{{{{{{{{{{{{{{{{{{{{{{{{{{{{{{{{{{{{{{{{{{{{{{{{{",
"{{{{{{{{{{{{{{{{{{{{{{{{{{{{{{{{{{{{{{{{{{{{{{{{{{{{{{{{{{{{{{{{{{{{{{{{{{{{{{{{{{{{{{{{{{{{{{{{{{{{",
"{{{{{{{{{{{{{{{{{{{{{{{{{{{{{{{{{{{{{{{{{{{{{{{{{{{{{{{{{{{{{{{{{{{{{{{{{{{{{{{{{{{{{{{{{{{{{{{{{{{{",
"{{{{{{{{{{{{{{{{{{{{{{{{{{{{{{{{{{{{{{{{{{{{{{{{{{{{{{{{{{{{{{{{{{{{{{{{{{{{{{{{{{{{{{{{{{{{{{{{{{{{",
"{{{{{{{{{{{{{{{{{{{{{{{{{QQQQ{{{{{{{{{{{{{{{{{{{{{{{{{{{{{{{{{{{{{{{{{{{{{{{{{{{{{{{{{{{{{{{{{{{{{{{",
"{{{{{{{{{{{{{{{{{{{{{{{{QQQQQQ{{{{{{{{{{{{{{{{{{{{{{{{{{{{{{{{{{{{{{{{{{{{{{{{{{{{{{{{{{{{{{{{{{{{{{",
"{{{{{{{{{{{{{{{{{{{{{{{QQQQQQQQ{{{{{{{{{{{{{{{{{{{{{{{{{{{{{{{{{{{{{{{{{{{{{{{{{{{{{{{{{{{{{{{{{{{{{",
"{{{{{{{{{{{{{{{{{{{{{{QQQQQQQQQQ{{{{{{{{{{{{{{9222222>O{{{{{{{{{{{{{{{{{{{{{{{{{{{{{{{{{{{{{{{{{{{{{",
"{{{{{{{{{{{{{{{{{{{{{{QQQQQQQQQQY{{{{{{{{{{{{2220rrr22O .@{{{{{{{{{{{{{{{{{{{{{{{{{{{{{{{{{{{{{{{{{{",
"{{{{{{{{{{{{{{{{{{{{{QQQQQQQQQQQQ{{{{{{{{{{{29zHPPPUUHC%  >9{{{{{{{{{{{{{{{{{{{{{{{{{{{{{{{{{{{{{{{{",
"{{{{{{{{{{{{{{{{{{{{{YQQQQQQQQQQQQ{{{{{{{{{2rHUUPPUUUUUS*&<2229{{{{{{{{{{{{{{{{{{{{{{{{{{{{{{{{{{{{{",
"{{{{{{{{{{{{{{{{{{{{{{QQQQQQQQQQQQ{{{{{{{{9yPPUUUUUUUUUUd*Jvy222>${{{{{{{{{{{{{{{{{{{{{{{{{{{{{{{{{{",
"{{{{{{{{{{{{{{{{{{{{{{{QQQQQQQQQQQY{{{{{{{0HPPUUUUUUUUUPN-PPPHzr1X ;{{{{{{{{{{{{{{{{{{{{{{{{{{{{{{{{",
"{{{{{{{{{{{{{{{{{{{{{{{QQQQQQQQQQQQ{{{{{{{vUUUUUUUUUUUUUUaUUUUUUHjX@222{{{{{{{{{{{{{{{{{{{{{{{{{{{{{",
"{{{{{{{{{{{{{{{{{{{{{{{{{QQQQQQQQQQQY{{{{ePUUUUUUUUUUUUUPNUUUUUUUUipy2229{{{{{{{{{{{{{{{{{{{{{{{{{{{",
"{{{{{{{{{{{{{{{{{{{{{{{{{{QQQQQQQQQQQQQQY!(UUUUUUUUUUUUUUJUUUUUUUUbBPIxr2229{{{{{{{{{{{{{{{{{{{{{{{{",
"{{{{{{{{{{{{{{{{{{{{{{{{YY{QQQQQQQQQQQQQQQQQ)_UUUUUUUUUUUUUUUUUUPKNJPPPPCh9229{{{{{{{{{{{{{{{{{{{{{{",
"{{{{{{{{{{{{{{{{{{{{{YQQQQQQQQQQQQQQQQQQQQQQQ'UUUUUUUUUUUUUUUUUUUUJUUUUUPPUvt22{{{{{{{{{{{{{{{{{{{{{",
"{{{{{{{{{{{{{{{{{{{{QQQQQQQQQQQQQQQQQQQQQQQQQQ/UUUUUUUUUUUUUUUUUUUUUUUUUPPUUPvr2{{{{{{{{{{{{{{{{{{{{",
"{{{{{{{{{{{{{{{{{{{{QQQQQQQQQQQQQQQQQQQQQQQQQQ`UUUUUUUUUUUUUUUUUUUUUUUUUUUUUPUKh9{{{{{{{{{{{{{{{{{{{",
"{{{{{{{{{{{{{{{{{{{{QQQQQQQQQQQQQQQQQQQQQQQQQQ[UUUUUUUUUUUUUUUUUUUUUUUUUUUUUPUPPt{{{{{{{{{{{{{{{{{{{",
"{{{{{{{{{{{{{{{{{{{{QQQQQQQQQQQQQQQQQQQQQQQQQQ[UUUUUUUUUUUUUUUUUUUUUUUPUUUUUUUPPN{{{{{{{{{{{{{{{{{{{",
"{{{{{{{{{{{{{{{{{{{{{QQQQQQQQQQQQQQQQQQQQQQQQQ)UUUUUUUUUUUUUUUUUUUUUUUKJUUUUUUUP{{{{{{{{{{{{{{{{{{{{",
"{{{{{{{{{{{{{{{{{{{{{{QQQQQQQQQQQQQQQQQQQQWWQQ(UUUUUUUUUUUUUSUUUUUUUUUUBUUUUUUP{{{{{{{{{{{{{{{{{{{{{",
"{{{{{{{{{{{{{{{{{{{{{{{{{{{{QQQQQQQQQQQQQQQW'^_UUUUUUUUUUUUUfUUUUUUUUUUbUUUPII{{{{{{{{{{{{{{{{{{{{{{",
"{{{{{{{{{{{{{{{{{{{{{{{{{{{QQQQQQQQQQQQQY[/_UUUUUUUUUUUUUUUJaJIUUUUUUUPaUUP{{{{{{{{{{{{{{{{{{{{{{{{{",
"{{{{{{{{{{{{{{{{{{{{{{{{{{QQQQQQQQQQQQQY{HPPUUUUUUUUUUUUUUUJuCUUUUUUUPN-I{{{{{{{{{{{{{{{{{{{{{{{{{{{",
"{{{{{{{{{{{{{{{{{{{{{{{{{QQQQQQQQQQQQQ{{{{UUUUUUUUUUUUUUUUPN-BUUUUUUUJ{{{{{{{{{{{{{{{{{{{{{{{{{{{{{{",
"{{{{{{{{{{{{{{{{{{{{{{{{QQQQQQQQQQQQY{{{{{UUUUUUUUUUUUUUUUIi-SUUUUP{{{{{{{{{{{{{{{{{{{{{{{{{{{{{{{{{",
"{{{{{{{{{{{{{{{{{{{{{{{{QQQQQQQQQQQQ{{{{{{{PUUUUUUUUUUUUUUH*-BPPP{{{{{{{{{{{{{{{{{{{{{{{{{{{{{{{{{{{",
"{{{{{{{{{{{{{{{{{{{{{{{QQQQQQQQQQQQ{{{{{{{{PUUUUUUUUUUUUUUd--K{{{{{{{{{{{{{{{{{{{{{{{{{{{{{{{{{{{{{{",
"{{{{{{{{{{{{{{{{{{{{{{{QQQQQQQQQQQQ{{{{{{{{{PUUUUUUUUUUUUnaf{{{{{{{{{{{{{{{{{{{{{{{{{{{{{{{{{{{{{{{{",
"{{{{{{{{{{{{{{{{{{{{{{{QQQQQQQQQQQ{{{{{{{{{{{UUUUUUUUUUPn{{{{{{{{{{{{{{{{{{{{{{{{{{{{{{{{{{{{{{{{{{{",
"{{{{{{{{{{{{{{{{{{{{{{{QQQQQQQQQQQ{{{{{{{{{{{{{PPUUUUU{{{{{{{{{{{{{{{{{{{{{{{{{{{{{{{{{{{{{{{{{{{{{{",
"{{{{{{{{{{{{{{{{{{{{{{{QQQQQQQQQQ{{{{{{{{{{{{{{{{{{{{{{{{{{{{{{{{{{{{{{{{{{{{{{{{{{{{{{{{{{{{{{{{{{{",
"{{{{{{{{{{{{{{{{{{{{{{{{QQQQQQQQ{{{{{{{{{{{{{{{{{{{{{{{{{{{{{{{{{{{{{{{{{{{{{{{{{{{{{{{{{{{{{{{{{{{{",
"{{{{{{{{{{{{{{{{{{{{{{{{{QTQQY{{{{{{{{{{{{{{{{{{{{{{{{{{{{{{{{{{{{{{{{{{{{{{{{{{{{{{{{{{{{{{{{{{{{{{",
"{{{{{{{{{{{{{{{{{{{{{{{{{{{{{{{{{{{{{{{{{{{{{{{{{{{{{{{{{{{{{{{{{{{{{{{{{{{{{{{{{{{{{{{{{{{{{{{{{{{{",
"{{{{{{{{{{{{{{{{{{{{{{{{{{{{{{{{{{{{{{{{{{{{{{{{{{{{{{{{{{{{{{{{{{{{{{{{{{{{{{{{{{{{{{{{{{{{{{{{{{{{",
"{{{{{{{{{{{{{{{{{{{{{{{{{{{{{{{{{{{{{{{{{{{{{{{{{{{{{{{{{{{{{{{{{{{{{{{{{{{{{{{{{{{{{{{{{{{{{{{{{{{{",
"{{{{{{{{{{{{{{{{{{{{{{{{{{{{{{{{{{{{{{{{{{{{{{{{{{{{{{{{{{{{{{{{{{{{{{{{{{{{{{{{{{{{{{{{{{{{{{{{{{{{",
"{{{{{{{{{{{{{{{{{{{{{{{{{{{{{{{{{{{{{{{{{{{{{{{{{{{{{{{{{{{{{{{{{{{{{{{{{{{{{{{{{{{{{{{{{{{{{{{{{{{{",
"{{{{{{{{{{{{{{{{{{{{{{{{{{{{{{{{{{{{{{{{{{{{{{{{{{{{{{{{{{{{{{{{{{{{{{{{{{{{{{{{{{{{{{{{{{{{{{{{{{{{",
"{{{{{{{{{{{{{{{{{{{{{{{{{{{{{{{{{{{{{{{{{{{{{{{{{{{{{{{{{{{{{{{{{{{{{{{{{{{{{{{{{{{{{{{{{{{{{{{{{{{{",
"{{{{{{{{{{{{{{{{{{{{{{{{{{{{{{{{{{{{{{{{{{{{{{{{{{{{{{{{{{{{{{{{{{{{{{{{{{{{{{{{{{{{{{{{{{{{{{{{{{{{",
"{{{{{{{{{{{{{{{{{{{{{{{{{{{{{{{{{{{{{{{{{{{{{{{{{{{{{{{{{{{{{{{{{{{{{{{{{{{{{{{{{{{{{{{{{{{{{{{{{{{{",
"{{{{{{{{{{{{{{{{{{{{{{{{{{{{{{{{{{{{{{{{{{{{{{{{{{{{{{{{{{{{{{{{{{{{{{{{{{{{{{{{{{{{{{{{{{{{{{{{{{{{"
};
