/* XPM */
static char *_632656753498[] = {
/* columns rows colors chars-per-pixel */
"100 50 144 2 ",
"   c #8DB6F2",
".  c #8EB6F2",
"X  c #8EB7F2",
"o  c #8FB7F2",
"O  c #90B7F2",
"+  c #91B8F2",
"@  c #92B8F2",
"#  c #92B9F2",
"$  c #93B9F2",
"%  c #93B9F3",
"&  c #94BAF3",
"*  c #96BBF3",
"=  c #97BBF3",
"-  c #97BCF3",
";  c #98BCF3",
":  c #99BCF3",
">  c #9ABDF3",
",  c #9BBDF3",
"<  c #9BBEF3",
"1  c #9CBEF3",
"2  c #9DBFF3",
"3  c #9FBFF3",
"4  c #9FC0F4",
"5  c #A0C0F3",
"6  c #A0C0F4",
"7  c #A0C1F4",
"8  c #A1C1F4",
"9  c #A3C2F4",
"0  c #A4C3F4",
"q  c #A5C3F4",
"w  c #A6C4F4",
"e  c #A7C4F4",
"r  c #A9C6F4",
"t  c #AAC6F4",
"y  c #ABC7F5",
"u  c #ACC7F5",
"i  c #ACC8F5",
"p  c #AEC9F5",
"a  c #AFC9F5",
"s  c #AFCAF5",
"d  c #B0C9F5",
"f  c #B0CAF5",
"g  c #B1CAF5",
"h  c #B2CBF5",
"j  c #B3CCF5",
"k  c #B3CCF6",
"l  c #B4CCF5",
"z  c #B4CDF6",
"x  c #B5CDF6",
"c  c #B6CDF6",
"v  c #B7CEF6",
"b  c #B8CFF6",
"n  c #B9CFF6",
"m  c #B9D0F6",
"M  c #BAD0F6",
"N  c #BBD0F6",
"B  c #BBD1F6",
"V  c #BDD1F6",
"C  c #BCD2F6",
"Z  c #BDD2F6",
"A  c #BDD2F7",
"S  c #BED2F7",
"D  c #BED3F7",
"F  c #BFD3F7",
"G  c #C0D4F7",
"H  c #C1D5F7",
"J  c #C3D6F7",
"K  c #C4D6F7",
"L  c #C6D8F7",
"P  c #C6D8F8",
"I  c #C8D9F8",
"U  c #C9D9F8",
"Y  c #C9DAF8",
"T  c #CBDBF8",
"R  c #CCDBF8",
"E  c #CCDCF8",
"W  c #CDDCF8",
"Q  c #CEDDF8",
"!  c #CEDCF9",
"~  c #CFDDF9",
"^  c #D0DEF9",
"/  c #D1DFF9",
"(  c #D2E0F9",
")  c #D3E0F9",
"_  c #D5E2F9",
"`  c #D6E2F9",
"'  c #D7E2FA",
"]  c #D7E3FA",
"[  c #D8E4FA",
"{  c #D9E4FA",
"}  c #DAE5FA",
"|  c #DBE5FA",
" . c #DBE6FA",
".. c #DEE7FB",
"X. c #DEE8FA",
"o. c #DFE8FB",
"O. c #E0E9FB",
"+. c #E1E9FB",
"@. c #E1EAFB",
"#. c #E2EAFB",
"$. c #E3EAFB",
"%. c #E2EBFB",
"&. c #E3EBFB",
"*. c #E4ECFB",
"=. c #E5ECFB",
"-. c #E6EDFB",
";. c #E6EDFC",
":. c #E7EDFC",
">. c #E7EEFC",
",. c #E8EEFC",
"<. c #E8EFFC",
"1. c #E9EFFC",
"2. c #EAF0FC",
"3. c #EBF0FC",
"4. c #EBF1FC",
"5. c #ECF1FC",
"6. c #ECF2FC",
"7. c #EDF2FC",
"8. c #EDF2FD",
"9. c #EEF3FC",
"0. c #EEF3FD",
"q. c #EFF4FD",
"w. c #F0F4FD",
"e. c #F1F4FD",
"r. c #F0F5FD",
"t. c #F1F5FD",
"y. c #F2F5FD",
"u. c #F3F6FD",
"i. c #F4F7FD",
"p. c #F5F7FE",
"a. c #F5F8FE",
"s. c #F6F8FE",
"d. c #F6F9FE",
"f. c #F8FAFE",
"g. c #F9FAFE",
"h. c #F9FBFE",
"j. c #FAFBFE",
"k. c #FAFCFE",
"l. c #FBFCFE",
"z. c #FCFDFF",
"x. c #FDFDFF",
"c. c #FDFEFF",
"v. c #FEFEFF",
"b. c white",
/* pixels */
"                                                                                                                                                                                                        ",
"                                                                                                                                                                                                        ",
"                                                                                                                                                                                                        ",
"                                                                                                                                                                                                        ",
"                                                                                                                                                                                                        ",
"                                                                                                                                                                                                        ",
"                                                                                                                                                                                                        ",
"                                                                                                                                                                                                        ",
"                                                                                                                                                                                                        ",
"                                                                                                                                                                                                        ",
"                                                                                                                                                                                                        ",
"                                                                                                                                                                                                        ",
"                                                                                                                                                                                                        ",
"                                                                                                                                                                                                        ",
"                                                                                                                                                                                                        ",
"                                                                                                                                                                                                        ",
"                                                                                                                                                                                                        ",
"                                                                                                                                                                                                        ",
"                                                                                                                                                                                                        ",
"                                                                                                                                                                                                        ",
"                                                                                                                                                                                                        ",
"                                                                                                                                                                                                        ",
"                                                                                      O 7 u z V M b z u 6 O                                                                                             ",
"                                                                                > z ! ..+.+.+.+.@.@.@.@.@.O.^ b :                                                                                       ",
"                                          $ $ $ $ o                         t W +.+.+.+.+.+.+.+.+.+.+.+.+.+.+.+.O.! u                                                                                   ",
"                                $ 7 t d z z z M z M z a w > $           q ~ +.+.+.+.+.+.+.+.+.+.+.+.+.+.+.+.+.+.O.O.$./ q                                                                               ",
"                            7 a z M z M M M z M M M M z M M z y 1   $ K +.+.+.+.+.+.+.+.+.+.+.+.+.+.+.+.+.+.+.+.O.O.$.$.$.U %                                                                           ",
"                        0 z b b M M z M z M M M z z M M z M M M b V | +.+.+.+.+.+.+.+.+.+.+.+.+.+.+.+.+.+.+.+.+.$.O.O.O.+.$./ 6                                                                         ",
"                    > j b b b b M z M M z M M z M M z M M z z M P ,.2.,.+.+.+.+.+.+.+.+.+.+.+.+.+.+.+.+.+.+.+.+.+.+.+.+.+.+.+.+.t                                                                       ",
"                $ t M M b b b b M M z M z M M z M z M M M M M Y 2.2.2.2.3.-.+.+.+.+.+.+.+.+.+.+.+.+.+.+.+.+.+.+.-.5.w.p.p.p.p.e.q.K 1                                                                   ",
"              $ a M z z b b b b z z M M M M M M M M z z z M J ;.2.2.2.2.2.2.-.+.+.+.+.+.+.+.+.+.+.+.+.+.+.5.a.v.v.v.v.v.v.v.v.v.v.v.v.p._ a o o                                                         ",
"            * z z M M M b b b b M M M z M z z M z M M M M F ;.2.2.2.2.2.2.2.,.,.+.+.+.+.+.+.+.+.+.+.*.w.v.v.v.v.v.v.v.v.v.v.v.v.v.v.v.v.v.v.9.H $                                                       ",
"          * z z M M M z M z z M z M M M M M M z m m m m m o.3.4.2.2.2.2.2.2.2.2.<.o.+.+.+.+.+.+.+.w.v.v.v.v.v.v.v.v.v.v.v.v.v.v.v.v.v.v.v.v.v.v.p.V                                                     ",
"          j M M z z M M M M M M M M z z z z M M z z m m ^ 4.<.<.2.2.2.2.2.2.2.2.<.<.+.+.+.+.+.,.k.v.v.v.v.v.v.v.v.v.v.v.v.v.v.v.v.v.v.v.v.v.v.v.v.v.*.>                                                 ",
"        a z z M M M z M z M M z M z M M M M z M M m m M <.3.4.3.2.2.2.2.2.2.2.2.3.<.*.o.+.*.2.v.v.v.v.v.v.v.v.v.v.v.v.v.v.v.v.v.v.v.v.v.v.v.v.v.v.v.v.a.p                                               ",
"      4 b M M M M z M M z M M z M M z M M z M M M z m _ 3.<.<.3.2.2.2.2.2.2.2.2.3.3.3.+.+.w.v.v.v.v.v.v.v.v.v.v.v.v.v.v.v.v.v.v.v.v.v.v.v.v.v.v.v.v.v.v.v.b                                             ",
"    $ z M M z z M M z M z M M M z z M M M M z z m M V <.3.<.4.4.2.2.2.2.2.2.2.2.3.3.3.<.w.v.v.v.v.v.v.v.v.v.v.v.v.v.v.v.v.v.v.v.v.v.v.v.v.v.v.v.v.v.v.v.v.v.M                                           ",
"    e b z M M M z M z M M M z M M M M z z M M M z M ( 2.4.<.3.<.2.2.2.2.2.2.2.2.3.3.<.a.v.v.v.v.v.v.v.v.v.v.v.v.v.v.v.v.v.v.v.v.v.v.v.v.v.v.v.v.v.v.v.v.v.v.v.l                                         ",
"  $ z b z M M M M z M M M z M z M M M z z M m M m M +.2.4.3.<.3.2.2.2.2.2.2.2.2.3.3.w.v.v.v.v.v.v.v.v.v.v.v.v.v.v.v.v.v.v.v.v.v.v.v.v.v.v.v.v.v.v.v.v.v.v.v.v.h.0                                       ",
"  q b b M M z z M M M z M z M M z z M M m M z z m F 2.2.<.3.4.4.2.2.2.2.2.2.2.2.3.5.v.v.v.v.v.v.v.v.v.v.v.v.v.v.v.v.v.v.v.v.v.v.v.v.v.v.v.v.v.v.v.v.v.v.v.v.v.v.3.                                      ",
"  z b b b b b b M M z z M M z M M M z M M z M M z ^ 3.3.3.3.3.<.2.2.2.2.2.2.2.2.2.k.v.v.v.v.v.v.v.v.v.v.v.v.v.v.v.v.v.v.v.v.v.v.v.v.v.v.v.v.v.v.v.v.v.v.v.v.v.v.v.T                                     ",
"* b b b b b b b z m M M z M T ..-.;.2.+._ H M z M | 3.3.3.<.3.<.2.2.2.2.2.2.2.2.w.v.v.v.v.v.v.v.v.v.v.v.v.v.v.v.v.v.v.v.v.v.v.v.v.v.v.v.v.v.v.v.v.v.v.v.v.v.v.v.v.h.>                                   ",
"q b M T ( | | _ ~ V M V +.k.v.v.v.v.v.v.v.v.w.5.1.w.p.5.3.3.3.3.2.2.2.2.2.2.2.2.v.v.v.v.v.v.v.v.v.v.v.v.v.v.v.v.v.v.v.v.v.v.v.v.v.v.v.v.v.v.v.v.v.v.v.v.v.v.v.v.v.v._                                   ",
"/ w.v.v.v.v.v.v.v.v.a.v.v.v.v.v.v.v.v.v.v.v.v.v.v.v.v.v.k.a.q.3.2.2.2.2.2.2.2.w.v.v.v.v.v.v.v.v.v.v.v.v.v.v.v.v.v.v.v.v.v.v.v.v.v.v.v.v.v.v.v.v.v.v.v.v.v.v.v.v.v.v.k.-                                 ",
"v.v.v.v.v.v.v.v.v.v.v.v.v.v.v.v.v.v.v.v.v.v.v.v.v.v.v.v.v.v.v.v.w.5.2.2.2.2.2.h.v.v.v.v.v.v.v.v.v.v.v.v.v.v.v.v.v.v.v.v.v.v.v.v.v.v.v.v.v.v.v.v.v.v.v.v.v.v.v.v.v.v.v.T                                 ",
"v.v.v.v.v.v.v.v.v.v.v.v.v.v.v.v.v.v.v.v.v.v.v.v.v.v.v.v.v.v.v.v.v.v.w.2.2.2.5.v.v.v.v.v.v.v.v.v.v.v.v.v.v.v.v.v.v.v.v.v.v.v.v.v.v.v.v.v.v.v.v.v.v.v.v.v.v.v.v.v.v.v.v.9.1 1 > - $                       ",
"v.v.v.v.v.v.v.v.v.v.v.v.v.v.v.v.v.v.v.v.v.v.v.v.v.v.v.v.v.v.v.v.v.v.v.h.5.w.k.v.v.v.v.v.v.v.v.v.v.v.v.v.v.v.v.v.v.v.v.v.v.v.v.v.v.v.v.v.v.v.v.v.v.v.v.v.v.v.v.v.v.v.v.v.f q 0 0 0 4 -                   ",
"v.v.v.v.v.v.v.v.v.v.v.v.v.v.v.v.v.v.v.v.v.v.v.v.v.v.v.v.v.v.v.v.v.v.v.v.v.v.v.v.v.v.v.v.v.v.v.v.v.v.v.v.v.v.v.v.v.v.v.v.v.v.v.v.v.v.v.v.v.v.v.v.v.v.v.v.v.v.v.v.v.v.v.v.T q 0 0 0 0 0 4 $               ",
"v.v.v.v.v.v.v.v.v.v.v.v.v.v.v.v.v.v.v.v.v.v.v.v.v.v.v.v.v.v.v.v.v.v.v.v.v.v.v.v.v.v.v.v.v.v.v.v.v.v.v.v.v.v.v.v.v.v.v.v.v.v.v.v.v.v.v.v.v.v.v.v.v.v.v.v.v.v.v.v.v.v.v.v.o.0 0 0 0 0 0 0 0 -             ",
"v.v.v.v.v.v.v.v.v.v.v.v.v.v.v.v.v.v.v.v.v.v.v.v.v.v.v.v.v.v.v.v.v.v.v.v.v.v.v.v.v.v.v.v.v.v.v.v.v.v.v.v.v.v.v.v.v.v.v.v.v.v.v.v.v.v.v.v.v.v.v.v.v.v.v.v.v.v.v.v.v.v.v.v.3.0 0 0 0 0 0 0 0 0 >           "
};
