/* XPM */
static char *_632656743774[] = {
/* columns rows colors chars-per-pixel */
"100 50 114 2 ",
"   c #8DB6F2",
".  c #8EB6F2",
"X  c #8EB7F2",
"o  c #8FB7F2",
"O  c #90B7F2",
"+  c #91B8F2",
"@  c #92B9F2",
"#  c #93B9F3",
"$  c #94BAF3",
"%  c #95BAF3",
"&  c #95BBF3",
"*  c #96BBF3",
"=  c #97BBF3",
"-  c #98BCF3",
";  c #99BDF3",
":  c #9ABDF3",
">  c #9BBDF3",
",  c #9BBEF3",
"<  c #9CBFF3",
"1  c #9DBFF3",
"2  c #9FC0F3",
"3  c #9FC0F4",
"4  c #A0C1F4",
"5  c #A1C1F4",
"6  c #A2C1F4",
"7  c #A2C2F4",
"8  c #A3C2F4",
"9  c #A3C3F4",
"0  c #A4C3F4",
"q  c #A6C4F4",
"w  c #A8C5F4",
"e  c #A9C5F4",
"r  c #A9C6F4",
"t  c #AAC6F4",
"y  c #AAC7F5",
"u  c #ABC7F5",
"i  c #ACC7F5",
"p  c #ADC8F5",
"a  c #AEC9F5",
"s  c #AFC9F5",
"d  c #B0CAF5",
"f  c #B1CAF5",
"g  c #B2CBF5",
"h  c #B3CCF5",
"j  c #B7CEF6",
"k  c #B8CFF6",
"l  c #B9CFF6",
"z  c #BBD0F6",
"x  c #BDD2F6",
"c  c #BED3F7",
"v  c #BFD3F7",
"b  c #C0D4F7",
"n  c #C1D5F7",
"m  c #C2D5F7",
"M  c #C3D6F7",
"N  c #C5D7F7",
"B  c #C6D7F7",
"V  c #C7D8F8",
"C  c #C9D9F8",
"Z  c #C9DAF8",
"A  c #CADAF8",
"S  c #CBDBF8",
"D  c #CDDCF8",
"F  c #CEDDF8",
"G  c #CFDEF9",
"H  c #D0DEF9",
"J  c #D1DFF9",
"K  c #D3E0F9",
"L  c #D3E1F9",
"P  c #D5E2F9",
"I  c #D9E4FA",
"U  c #DAE5FA",
"Y  c #DBE6FA",
"T  c #DDE7FA",
"R  c #DFE8FB",
"E  c #E1E9FB",
"W  c #E1EAFB",
"Q  c #E2EAFB",
"!  c #E2EBFB",
"~  c #E3EBFB",
"^  c #E4ECFB",
"/  c #E5EDFB",
"(  c #E6EDFB",
")  c #E7EEFC",
"_  c #E8EEFC",
"`  c #E8EFFC",
"'  c #E9EFFC",
"]  c #E9F0FC",
"[  c #EAF0FC",
"{  c #EBF0FC",
"}  c #EBF1FC",
"|  c #EDF2FC",
" . c #EDF3FD",
".. c #EEF3FC",
"X. c #EFF4FD",
"o. c #F0F4FD",
"O. c #F1F5FD",
"+. c #F1F6FD",
"@. c #F4F7FD",
"#. c #F5F8FD",
"$. c #F5F8FE",
"%. c #F6F9FE",
"&. c #F7F9FE",
"*. c #F7FAFE",
"=. c #F8FAFE",
"-. c #F9FBFE",
";. c #FAFCFE",
":. c #FBFCFE",
">. c #FBFDFF",
",. c #FCFDFF",
"<. c #FDFEFF",
"1. c #FEFEFF",
"2. c #FEFFFF",
"3. c white",
/* pixels */
"3.3.3.3.3.3.3.3.3.3.3.3.3.3.3.3.3.3.3.3.3.3.3.3.3.3.3.3.3.3.3.3.3.3.3.3.3.3.3.3.3.3.3.3.3.3.3.3.3.3.3.3.3.3.3.3.3.3.3.3.3.3.3.3.3.3.3.3.3.3.3.3.3.3.3.3.3.3.3.3.3.3.3.3.@.8 q 8 0 0 0 0 0 0 0 @         ",
"3.3.3.3.3.3.3.3.3.3.3.3.3.3.3.3.3.3.3.3.3.3.3.3.3.3.3.3.3.3.3.3.3.3.3.3.3.3.3.3.3.3.3.3.3.3.3.3.3.3.3.3.3.3.3.3.3.3.3.3.3.3.3.3.3.3.3.3.3.3.3.3.3.3.3.3.3.3.3.3.3.3.3.3.<.4 8 q 0 0 0 0 0 0 0 7         ",
"3.3.3.3.3.3.3.3.3.3.3.3.3.3.3.3.3.3.3.3.3.3.3.3.3.3.3.3.3.3.3.3.3.3.3.3.3.3.3.3.3.3.3.3.3.3.3.3.3.3.3.3.3.3.3.3.3.3.3.3.3.3.3.3.3.3.3.3.3.3.3.3.3.3.3.3.3.3.3.3.3.3.3.3.3.q q 8 0 0 0 0 0 0 0 0 ,       ",
"3.3.3.3.3.3.3.3.3.3.3.3.3.3.3.3.3.3.3.3.3.3.3.3.3.3.3.3.3.3.3.3.3.3.3.3.3.3.3.3.3.3.3.3.3.3.3.3.3.3.3.3.3.3.3.3.3.3.3.3.3.3.3.3.3.3.3.3.3.3.3.3.3.3.3.3.3.3.3.3.3.3.3.3.3.q 4 q 0 0 0 0 0 0 0 0 7       ",
"3.3.3.3.3.3.3.3.3.3.3.3.3.3.3.3.3.3.3.3.3.3.3.3.3.3.3.3.3.3.3.3.3.3.3.3.3.3.3.3.3.3.3.3.3.3.3.3.3.3.3.3.3.3.3.3.3.3.3.3.3.3.3.3.3.3.3.3.3.3.3.3.3.3.3.3.3.3.3.3.3.3.3.3.:.4 q q 0 0 0 0 0 0 0 0 0 &     ",
"3.3.3.3.3.3.3.3.3.3.3.3.3.3.3.3.3.3.3.3.3.3.3.3.3.3.3.3.3.3.3.3.3.3.3.3.3.3.3.3.3.3.3.3.3.3.3.3.3.3.3.3.3.3.3.3.3.3.3.3.3.3.3.3.3.3.3.3.3.3.3.3.3.3.3.3.3.3.3.3.3.3.3.3.+.q q 4 0 0 0 0 0 0 0 0 q ,     ",
"3.3.3.3.3.3.3.3.3.3.3.3.3.3.3.3.3.3.3.3.3.3.3.3.3.3.3.3.3.3.3.3.3.3.3.3.3.3.3.3.3.3.3.3.3.3.3.3.3.3.3.3.3.3.3.3.3.3.3.3.3.3.3.3.3.3.3.3.3.3.3.3.3.3.3.3.3.3.3.3.3.3.3.3.] q q 4 0 0 0 0 0 0 0 0 7 1     ",
"3.3.3.3.3.3.3.3.3.3.3.3.3.3.3.3.3.3.3.3.3.3.3.3.3.3.3.3.3.3.3.3.3.3.3.3.3.3.3.3.3.3.3.3.3.3.3.3.3.3.3.3.3.3.3.3.3.3.3.3.3.3.3.3.3.3.3.3.3.3.3.3.3.3.3.3.3.3.3.3.3.3.3.3.R 4 q q 0 0 0 0 0 0 0 0 q 7     ",
"3.3.3.3.3.3.3.3.3.3.3.3.3.3.3.3.3.3.3.3.3.3.3.3.3.3.3.3.3.3.3.3.3.3.3.3.3.3.3.3.3.3.3.3.3.3.3.3.3.3.3.3.3.3.3.3.3.3.3.3.3.3.3.3.3.3.3.3.3.3.3.3.3.3.3.3.3.3.3.3.3.3.3.3.A 9 q q 4 4 q q 0 0 0 0 7 7     ",
"3.3.3.3.3.3.3.3.3.3.3.3.3.3.3.3.3.3.3.3.3.3.3.3.3.3.3.3.3.3.3.3.3.3.3.3.3.3.3.3.3.3.3.3.3.3.3.3.3.3.3.3.3.3.3.3.3.3.3.3.3.3.3.3.3.3.3.3.3.3.3.3.3.3.3.3.3.3.3.3.3.3.3.3.p q 4 q q q q 4 0 0 0 0 q 7     ",
"3.3.3.3.3.3.3.3.3.3.3.3.3.3.3.3.3.3.3.3.3.3.3.3.3.3.3.3.3.3.3.3.3.3.3.3.3.3.3.3.3.3.3.3.3.3.3.3.3.3.3.3.3.3.3.3.3.3.3.3.3.3.3.3.3.3.3.3.3.3.3.3.3.3.3.3.3.3.3.3.3.3.3...4 q q q q q q 4 0 0 0 0 7 1     ",
"3.3.3.3.3.3.3.3.3.3.3.3.3.3.3.3.3.3.3.3.3.3.3.3.3.3.3.3.3.3.3.3.3.3.3.3.3.3.3.3.3.3.3.3.3.3.3.3.3.3.3.3.3.3.3.3.3.3.3.3.3.3.3.3.3.3.3.3.3.3.3.3.3.3.3.3.3.3.3.3.3.3.3.W q q 4 4 4 4 q q 0 0 0 0 q ,     ",
"3.3.3.3.3.3.3.3.3.3.3.3.3.3.3.3.3.3.3.3.3.3.3.3.3.3.3.3.3.3.3.3.3.3.3.3.3.3.3.3.3.3.3.3.3.3.3.3.3.3.3.3.3.3.3.3.3.3.3.3.3.3.3.3.3.3.3.3.3.3.3.3.3.3.3.3.3.3.3.3.3.3.3.3.H 4 8 q q q 4 q q 4 0 0 q #     ",
"3.3.3.3.3.3.3.3.3.3.3.3.3.3.3.3.3.3.3.3.3.3.3.3.3.3.3.3.3.3.3.3.3.3.3.3.3.3.3.3.3.3.3.3.3.3.3.3.3.3.3.3.3.3.3.3.3.3.3.3.3.3.3.3.3.3.3.3.3.3.3.3.3.3.3.3.3.3.3.3.3.3.3.3.3.n q 8 q 4 q q q q 0 0 7       ",
"3.3.3.3.3.3.3.3.3.3.3.3.3.3.3.3.3.3.3.3.3.3.3.3.3.3.3.3.3.3.3.3.3.3.3.3.3.3.3.3.3.3.3.3.3.3.3.3.3.3.3.3.3.3.3.3.3.3.3.3.3.3.3.3.3.3.3.3.3.3.3.3.3.3.3.3.3.3.3.3.3.3.3.3.3.*.w q q q 4 4 4 4 q 9 &       ",
"3.3.3.3.3.3.3.3.3.3.3.3.3.3.3.3.3.3.3.3.3.3.3.3.3.3.3.3.3.3.3.3.3.3.3.3.3.3.3.3.3.3.3.3.3.3.3.3.3.3.3.3.3.3.3.3.3.3.3.3.3.3.3.3.3.3.3.3.3.3.3.3.3.3.3.3.3.3.3.3.3.3.3.3.3.3.Y 8 4 q q q q q q 2         ",
"3.3.3.3.3.3.3.3.3.3.3.3.3.3.3.3.3.3.3.3.3.3.3.3.3.3.3.3.3.3.3.3.3.3.3.3.3.3.3.3.3.3.3.3.3.3.3.3.3.3.3.3.3.3.3.3.3.3.3.3.3.3.3.3.3.3.3.3.3.3.3.3.3.3.3.3.3.3.3.3.3.3.3.3.3.3.3.p q 4 4 q q 8 8 @         ",
"3.3.3.3.3.3.3.3.3.3.3.3.3.3.3.3.3.3.3.3.3.<.3.3.3.3.3.3.3.3.3.3.3.3.3.3.3.3.3.3.3.3.3.3.3.3.3.3.3.3.3.3.3.3.3.3.3.3.3.3.3.3.3.3.3.3.3.3.3.3.3.3.3.3.3.3.3.3.3.3.3.3.3.3.3.3.3.L q q q q 8 4 %           ",
"3.3.3.3.3.3.3.3.3.3.3.3.3.3.3.3.3.3.3.<.3.:.3.3.3.3.3.3.3.3.3.3.3.3.3.3.3.3.3.3.3.3.3.3.3.3.3.3.3.3.3.3.3.3.3.3.3.3.3.3.3.3.3.3.3.3.3.3.3.3.3.3.3.3.3.3.3.3.3.3.3.3.3.3.3.3.3. .4 q q 4 8 %             ",
"3.3.3.3.3.3.3.3.3.3.3.3.3.3.3.3.3.3.<.3.3.3.3.:.3.3.3.3.3.3.3.3.3.3.3.3.3.3.3.3.3.3.3.3.3.3.3.3.3.3.3.3.3.3.3.3.3.3.3.3.3.3.3.3.3.3.3.3.3.3.3.3.3.3.3.3.3.3.3.3.3.3.3.3.3.3.3.3.p q 8 1 O               ",
"3.3.3.3.3.3.3.3.3.3.3.3.3.3.3.3.3.3.3.:.:.:.3.3.:.3.3.3.3.3.3.3.3.3.3.3.3.3.3.3.3.3.3.3.3.3.3.3.3.3.3.3.3.3.3.3.3.3.3.3.3.3.3.3.3.3.3.3.3.3.3.3.3.3.3.3.3.3.3.3.3.3.3.3.3.3.3.3.n - %                   ",
"3.3.3.3.3.3.3.3.3.3.3.3.3.3.3.3.3.:.3.3.3.3.3.:.3.3.3.3.3.3.3.3.3.3.3.3.3.3.3.3.3.3.3.3.3.3.3.3.3.3.3.3.3.3.3.3.3.3.3.3.3.3.3.3.3.3.3.3.3.3.3.3.3.3.3.3.3.3.3.3.3.3.3.3.3.3.3.3.B                       ",
"3.3.3.3.3.3.3.3.3.3.3.3.3.3.3.3.:.3.:.3.3.3.3.:.3.:.<.3.3.3.3.3.3.3.3.3.3.3.3.3.3.3.3.3.3.3.3.3.3.3.3.3.3.3.3.3.3.3.3.3.3.3.3.3.3.3.3.3.3.3.3.3.3.3.3.3.3.3.3.3.3.3.3.3.3.3.3.3.F                       ",
"3.3.3.3.3.3.3.3.3.3.3.3.3.3.3.<.:.3.3.3.:.:.3.3.3.:.3.3.3.3.3.3.3.3.3.3.3.3.3.3.3.3.3.3.3.3.3.3.3.3.3.3.3.3.3.3.3.3.3.3.3.3.3.3.3.3.3.3.3.3.3.3.3.3.3.3.3.3.3.3.3.3.3.3.3.3.3.3.F                       ",
"*.3.3.3.3.3.3.3.3.3.3.3.3.3.3.3.3.3.3.:.3.3.:.:.3.3.3.3.3.3.3.3.3.3.3.3.3.3.3.3.3.3.3.3.3.3.3.3.3.3.3.3.3.3.3.3.3.3.3.3.3.3.3.3.3.3.3.3.3.3.3.3.3.3.3.3.3.3.3.3.3.3.3.3.3.3.3.3.A                       ",
"} 3.3.3.3.<.<.3.<.3.3.<.3.3.3.<.3.:.3.3.:.3.3.3.3.:.3.3.3.3.3.3.3.3.3.3.3.3.3.3.3.3.3.3.3.3.3.3.3.3.3.3.3.3.3.3.3.3.3.3.3.3.3.3.3.3.3.3.3.3.3.3.3.3.3.3.3.3.3.3.3.3.3.3.3.3.3.3.x                       ",
"R <.3.<.<.3.<.3.<.3.<.3.<.3.3.<.:.3.:.3.:.3.:.3.:.3.3.3.3.3.3.3.3.3.3.3.3.3.3.3.3.3.3.3.3.3.3.3.3.3.3.3.3.3.3.3.3.3.3.3.3.3.3.3.3.3.3.3.3.3.3.3.3.3.3.3.3.3.3.3.3.3.3.3.3.3.3.3.8 O                     ",
"R } <.3.3.<.3.<.3.<.3.<.3.<.<.<.3.3.:.3.3.<.3.<.3.3.3.3.3.3.3.3.3.3.3.3.3.3.3.3.3.3.3.3.3.3.3.3.3.3.3.3.3.3.3.3.3.3.3.3.3.3.3.3.3.3.3.3.3.3.3.3.3.3.3.3.3.3.3.3.3.3.3.3.3.3.3.*.O                       ",
"R W *.3.3.3.<.3.<.3.<.3.<.3.<.<.3.:.<.<.<.<.<.<.3.3.3.3.3.3.3.3.3.3.3.3.3.3.3.3.3.3.3.3.3.3.3.3.3.3.3.3.3.3.3.3.3.3.3.3.3.3.3.3.3.3.3.3.3.3.3.3.3.3.3.3.3.3.3.3.3.3.3.3.3.3.3.Y                         ",
"W W W 3.<.3.3.<.3.<.3.<.<.<.<.<.3.3.<.<.<.<.<.<.:.3.3.3.3.3.3.3.3.3.3.3.3.3.3.3.3.3.3.3.3.3.3.3.3.3.3.3.3.3.3.3.3.3.3.3.3.3.3.3.3.3.3.3.3.3.3.3.3.3.3.3.3.3.3.3.3.3.3.3.3.3.3.p                         ",
"W E E ' 3.3.<.3.<.3.<.3.3.<.<.<.:.:.3.<.<.<.<.<.3.3.3.3.3.3.3.3.3.3.3.3.3.3.3.3.3.3.3.3.3.3.3.3.3.3.3.3.3.3.3.3.3.3.3.3.3.3.3.3.3.3.3.3.3.3.3.3.3.3.3.3.3.3.3.3.3.3.3.3.3.3.]                           ",
"W E E E  .3.3.<.3.<.3.<.<.<.<.<.3.3.<.<.<.<.<.<.<.3.3.3.3.3.3.3.3.3.3.3.3.3.3.3.3.3.3.3.3.3.3.3.3.3.3.3.3.3.3.3.3.3.3.3.3.3.3.3.3.3.3.3.3.3.3.3.3.3.3.3.3.3.3.3.3.3.3.3.3.3.p                           ",
"E E E E W +.3.3.<.3.3.<.<.<.<.<.<.<.<.<.<.<.<.<.<.3.3.3.3.3.3.3.3.3.3.3.3.3.3.3.3.3.3.3.3.3.3.3.3.3.3.3.3.3.3.3.3.3.3.3.3.3.3.3.3.3.3.3.3.3.3.3.3.3.3.3.3.3.3.3.3.3.3.3.3.L                             ",
"E E E E W W  .3.3.<.<.<.<.<.<.<.<.<.<.<.<.<.<.<.<.3.3.3.3.3.3.3.3.3.3.3.3.3.3.3.3.3.3.3.3.3.3.3.3.3.3.3.3.3.3.3.3.3.3.3.3.3.3.3.3.3.3.3.3.3.3.3.3.3.3.3.3.3.3.3.3.3.3.3.' O                             ",
"E E E E E E W } -.<.<.<.<.<.<.<.<.<.<.<.<.<.<.<.<.3.3.3.3.3.3.3.3.3.3.3.3.3.3.3.3.3.3.3.3.3.3.3.3.3.3.3.3.3.3.3.3.3.3.3.3.3.3.3.3.3.3.3.3.3.3.3.3.3.3.3.3.3.3.3.3.3.3...-                               ",
"E E E E E E L w 7 ) <.<.<.<.<.<.<.<.<.<.<.<.<.<.<.<.3.3.3.3.3.3.3.3.3.3.3.3.3.3.3.3.3.3.3.3.3.3.3.3.3.3.3.3.3.3.3.3.3.3.3.3.3.3.3.3.3.3.3.3.3.3.3.3.3.3.3.3.3.3.3.3.' %                                 ",
"E Q Q E Z w         c +.3.3.<.<.<.<.<.<.<.<.<.<.<.<.3.3.3.3.3.3.3.3.3.3.3.3.3.3.3.3.3.3.3.3.3.3.3.3.3.3.3.3.3.3.3.3.3.3.3.3.3.) 3.3.3.3.3.3.3.3.3.3.3.3.3.3.3.3.3.H O                                   ",
"m h q O                 v  .<.<.<.<.<.<.<.<.<.<.<.<.<.3.3.3.3.3.3.3.3.3.3.3.3.3.3.3.3.3.3.3.3.3.3.3.3.3.3.3.3.3.3.3.3.3.3.3.:.  l  .3.3.3.3.3.3.3.3.3.3.3.3.3.W 8                                       ",
"                            w F } <.<.<.3.3.<.<.<.3.<.@.3.3.3.3.3.3.3.3.3.3.3.3.3.3.3.3.3.3.3.3.3.3.3.3.3.3.3.3.3.3.3.3.3.3.Y       d I @.3.3.3.3.3.3.3. .H 8                                           ",
"                                  @ u h n Z F V x p -   ( 3.3.3.3.3.3.3.3.3.3.3.3.3.3.3.3.3.3.3.3.3.3.3.3.3.3.3.3.3.3.3.3.3.d             - d l x l w %                                                 ",
"                                                        % ..3.3.3.3.3.3.3.3.3.3.3.3.3.3.3.3.3.3.3.3.3.3.3.3.3.3.3.3.3.3.3. .                                                                            ",
"                                                          - ' 3.3.3.3.3.3.3.3.3.3.3.3.3.3.3.3.3.3.3.3.3.3.3.3.3.3.3.3.3.3.w                                                                             ",
"                                                            @ H 3.3.3.3.3.3.3.3.3.3.3.3.3.3.3.3.3.3.3.3.3.3.3.3.3.3.3.3.H                                                                               ",
"                                                                w Q :.3.3.3.3.3.3.3.3.3.3.3.3.3.3.3.3.3.3.3.3.3.3.3.3.W                                                                                 ",
"                                                                    6 D _ :.3.3.3.3.3.3.3.3.3.3.3.3.3.3.3.3.3.3.3.3.W O                                                                                 ",
"                                                                            % w } 3.3.3.3.3.3.3.3.3.3.3.3.3.3.3.3.F O                                                                                   ",
"                                                                                  B *.3.3.3.3.3.3.3.3.3.3.3.3.) w                                                                                       ",
"                                                                                    @ n ( 3.3.3.3.3.3.3.@.Y i                                                                                           ",
"                                                                                          @ t d d h h 4                                                                                                 ",
"                                                                                                                                                                                                        "
};
