/* XPM */
static char *_632656737973[] = {
/* columns rows colors chars-per-pixel */
"100 50 60 1 ",
"  c #8DB6F2",
". c #8EB6F2",
"X c #8EB7F2",
"o c #8FB7F2",
"O c #90B8F2",
"+ c #9BBDF3",
"@ c #9BBEF3",
"# c #A0C0F4",
"$ c #A4C3F4",
"% c #A5C3F4",
"& c #A8C5F4",
"* c #AFC9F5",
"= c #B2CBF5",
"- c #B3CCF5",
"; c #B5CDF6",
": c #B9CFF6",
"> c #BAD0F6",
", c #BBD0F6",
"< c #BED2F7",
"1 c #C0D4F7",
"2 c #C2D5F7",
"3 c #C3D5F7",
"4 c #C4D6F7",
"5 c #C6D7F7",
"6 c #C7D8F8",
"7 c #CADAF8",
"8 c #CBDAF8",
"9 c #CBDBF8",
"0 c #CCDBF8",
"q c #CFDDF9",
"w c #D4E0F9",
"e c #D6E2FA",
"r c #D7E2FA",
"t c #D8E3FA",
"y c #D9E3FA",
"u c #D9E4FA",
"i c #DEE7FB",
"p c #DFE8FB",
"a c #E0E9FB",
"s c #E1E9FB",
"d c #E2E9FB",
"f c #E2EAFB",
"g c #E3EBFB",
"h c #E4EBFB",
"j c #EAEFFC",
"k c #EAF0FC",
"l c #ECF1FC",
"z c #EDF2FD",
"x c #EEF3FD",
"c c #F1F5FD",
"v c #F2F6FD",
"b c #F3F6FD",
"n c #F5F8FE",
"m c #F6F9FE",
"M c #F8FAFE",
"N c #F9FBFE",
"B c #FCFDFF",
"V c #FDFDFF",
"C c #FDFEFF",
"Z c white",
/* pixels */
"                                                                                            kZZZZZZZ",
"                                                                                           :ZZZZZZZZ",
"                                                                                           kZZZZZZZZ",
"                                                                                          $ZZZZZZZZZ",
"                                                                                          8ZZZZZZZZZ",
"                                                                                          sZZZZZZZZZ",
"                                                                                          vZZZZZZZZZ",
"                                                                                          BZZZZZZZZZ",
"                                                                                         ,ZZZZZZZZZZ",
"                                                                                        6sZZZZZZZZZZ",
"                                                                                       8ssBZZZZZZZZZ",
"                                                                                      3sssmZZZZZZZZZ",
"                                                                                     &ssssvZZZZZZZZZ",
"                                                                                    OtssssjZZZZZZZZZ",
"                                                                                    ;ssssssZZZZZZZZZ",
"                                                                                    essssssvZZZZZZZZ",
"                                                                                   $sssssssgZZZZZZZZ",
"                                                                                   <sssssssslZZZZZZZ",
"                                                                                   qsssssssssmZZZZZZ",
"                                                                                   ussssssssssNZZZZZ",
"                                                                                   psssssssssssBZZZZ",
"                                                                                   sssssssssssssmZZZ",
"                                                                                   pssssssssssssskZZ",
"                                                                                   esssssssssssssssl",
"                                                                                   7ssssssssssssssss",
"                                                                                   ,ssssssssssssssss",
"                                                                                   #ssssssssssssssss",
"                                                                                    esssssssssssssss",
"                                                                                    =sssssssssssssss",
"                                                                                     essssssssssssss",
"                                                                                     $ssssssssssssss",
"                                                                                      ,sssssssssssss",
"                                                                                       5ssssssssssss",
"                                                                                        3sssssssssss",
"                                                                                         -isssssssss",
"                                                                                          +7ssssssss",
"                                                                                            #3tsssss",
"                                                                                               +*,35",
"                                                                                                    ",
"                                                                                                    ",
"                                                                                                    ",
"                                                                                                    ",
"                                                                                                    ",
"                                                                                                    ",
"                                                                                                    ",
"                                                                                                    ",
"                                                                                                    ",
"                                                                                                    ",
"                                                                                                    ",
"                                                                                                    "
};
