/* XPM */
static char *_632656748782[] = {
/* columns rows colors chars-per-pixel */
"100 50 94 2 ",
"   c #8DB6F2",
".  c #8EB7F2",
"X  c #8FB7F2",
"o  c #90B7F2",
"O  c #91B8F2",
"+  c #92B8F2",
"@  c #92B9F2",
"#  c #93B9F3",
"$  c #94BAF3",
"%  c #96BBF3",
"&  c #97BBF3",
"*  c #97BCF3",
"=  c #9BBDF3",
"-  c #9BBEF3",
";  c #9DBFF3",
":  c #9EBFF3",
">  c #9EC0F4",
",  c #A0C0F4",
"<  c #A2C1F4",
"1  c #A2C2F4",
"2  c #A3C2F4",
"3  c #A4C3F4",
"4  c #A5C3F4",
"5  c #A7C4F4",
"6  c #ABC7F5",
"7  c #ACC8F5",
"8  c #ADC8F5",
"9  c #AEC8F5",
"0  c #AEC9F5",
"q  c #B2CBF5",
"w  c #B3CCF6",
"e  c #B5CDF6",
"r  c #B8CFF6",
"t  c #BAD0F6",
"y  c #BED2F6",
"u  c #BED3F7",
"i  c #C0D4F7",
"p  c #C1D4F7",
"a  c #C3D6F7",
"s  c #C4D6F7",
"d  c #C6D7F7",
"f  c #C8D9F8",
"g  c #CADAF8",
"h  c #CBDBF8",
"j  c #CCDBF8",
"k  c #CDDCF8",
"l  c #CFDDF9",
"z  c #D0DEF9",
"x  c #D1DFF9",
"c  c #D4E1F9",
"v  c #D6E2F9",
"b  c #D8E4FA",
"n  c #D9E4FA",
"m  c #DBE6FA",
"M  c #DCE6FA",
"N  c #DDE7FA",
"B  c #DEE7FA",
"V  c #DFE8FA",
"C  c #DFE8FB",
"Z  c #DFE9FB",
"A  c #E0E9FB",
"S  c #E1E9FB",
"D  c #E1EAFB",
"F  c #E2EBFB",
"G  c #E3EBFB",
"H  c #E5ECFB",
"J  c #E7EEFB",
"K  c #E6EEFC",
"L  c #E7EEFC",
"P  c #E8EEFC",
"I  c #E9EFFC",
"U  c #E9F0FC",
"Y  c #EAF0FC",
"T  c #EBF1FC",
"R  c #ECF1FC",
"E  c #EEF3FC",
"W  c #EEF3FD",
"Q  c #EFF3FD",
"!  c #EFF4FD",
"~  c #F0F4FD",
"^  c #F3F6FD",
"/  c #F4F7FD",
"(  c #F5F8FE",
")  c #F6F9FE",
"_  c #F7F9FE",
"`  c #F8FAFE",
"'  c #F9FBFE",
"]  c #FAFBFE",
"[  c #FBFCFE",
"{  c #FCFDFF",
"}  c #FDFEFF",
"|  c #FEFEFF",
" . c #FEFFFF",
".. c white",
/* pixels */
"                                                                                                                                                                                                        ",
"                                                                                                                                                                                                        ",
"                                                                                                                                                                                                        ",
"                                                                                                                                                                                                        ",
"                                                                                                                                                                                                        ",
"                                                                                                                                                                                                        ",
"                                                                                                                                                                                                        ",
"                                                                                                                                                                                                        ",
"                                              O v ` ..Q y -                                                                                                                                             ",
"                                              V ............V $                                                                                                                                         ",
"                                    e V U m y ................R U L m 6   ; 7 4 o                                                                                                                       ",
"                                  z ................................{ ..P A A A n 4                                                                                                                     ",
"                                7 ................................{ { ..{ ~ A A A N =                                                                                                                   ",
"                                v ..........................................H G A A p                                                                                                                   ",
"                                m ..............................{ ..{ ......{ J A S z                                                                                                                   ",
"                              > z ..............................................P A j                                                                                                                   ",
"                            - 3 6 ) ............................................_ S 7                                                                                                                   ",
"                            2 3 3 v ..............................................d                                                                                                                     ",
"                            2 3 3 J ............................................]                                                                                                                       ",
"                            ; 2 3 R ............................................G                                                                                                                       ",
"                              > 4 G ..........................................` <                                                                                                                       ",
"                                O p ....................) R / ........` ] ] G <                                                                                                                         ",
"                                    ~ ..................Q Y R P p h h r r r &                                                                                                                           ",
"                                    4 ) ..............! Y Y P A r r r r r 7                                                                                                                             ",
"                                      > N ........) P G P P P s r r r r w O                                                                                                                             ",
"                                          - f P J G A A A G f r r r r 6 o                                                                                                                               ",
"                                              5 f N A n s - o ; < ; O                                                                                                                                   ",
"                                                                                                                                                                                                        ",
"                                                                                                                                                                                                        ",
"                                                                                                                                                                                                        ",
"                                                                                                                                                                                                        ",
"                                                                                                                                                                                                        ",
"                                                                                                                                                                                                        ",
"                                                                                                                                                                                                        ",
"                                                                                                                                                                                                        ",
"                                                                                                                                                                                                        ",
"                                                                                                                                                                                                        ",
"                                                                                                                                                                                                        ",
"                                                                                                                                                                                                        ",
"                                                                                                                                                                                                        ",
"                                                                                                                                                                                                        ",
"                                                                                                                                                                                                        ",
"                                                                                                                                                                                                        ",
"                                                                                                                                                                                                      * ",
"                                                                                                                                                                                                  $ z ` ",
"                                                                                                                                                                                                w / ....",
"                                                                                                                                                                                              h ........",
"                                                                                                                                                                                            k ..........",
"                                                                                                                                                                                          y ............",
"                                                                                                                                                                                        4 { ............"
};
