/* XPM */
static char *_632733704558[] = {
/* columns rows colors chars-per-pixel */
"100 50 117 2 ",
"   c #000000",
".  c #0A0501",
"X  c #0E0801",
"o  c #0B0B0B",
"O  c #140B02",
"+  c #1E1103",
"@  c #141414",
"#  c #1E1E1E",
"$  c #221303",
"%  c #291704",
"&  c #2B1904",
"*  c #321C04",
"=  c #381F04",
"-  c #3E2305",
";  c #2E2215",
":  c #232323",
">  c gray17",
",  c #323232",
"<  c gray24",
"1  c #442606",
"2  c #482600",
"3  c #472806",
"4  c #4C2A07",
"5  c #532F07",
"6  c #552F08",
"7  c #553007",
"8  c #5D3408",
"9  c #653909",
"0  c #6C3D0A",
"q  c #74410A",
"w  c #7A450B",
"e  c #444444",
"r  c #4B4B4B",
"t  c #555555",
"y  c gray37",
"u  c #606060",
"i  c #6D6D6D",
"p  c #727272",
"a  c #7B7B7B",
"s  c #844A0C",
"d  c #8F500D",
"f  c #93530D",
"g  c #9A570E",
"h  c #9D580E",
"j  c #AF5E06",
"k  c #AD6110",
"l  c #B76611",
"z  c #B96711",
"x  c #BD6A12",
"c  c #C46D12",
"v  c #CD7213",
"b  c #D27614",
"n  c #D67814",
"m  c #DE7C15",
"M  c #E17E15",
"N  c #FF8606",
"B  c #FD870A",
"V  c #FF8A0E",
"C  c #E68115",
"Z  c #EB8416",
"A  c #F08716",
"S  c #F68A17",
"D  c #FE8D15",
"F  c #FF8F18",
"G  c #FF9017",
"H  c #FF9219",
"J  c #FF991A",
"K  c #FF9423",
"L  c #FF9729",
"P  c #FF9A2E",
"I  c #FF9C33",
"U  c #FF9F39",
"Y  c #A4815C",
"T  c #FFA443",
"R  c #FFA84D",
"E  c #FFAC53",
"W  c #FFAF59",
"Q  c #FFB363",
"!  c #FFB76B",
"~  c #FFBA70",
"^  c #FFBE78",
"/  c #FFC07E",
"(  c #828282",
")  c #8B8B8B",
"_  c #909090",
"`  c #9F9F9F",
"'  c #A5A5A5",
"]  c #ACACAC",
"[  c gray70",
"{  c #B9B9B9",
"}  c #FFC384",
"|  c #FFC689",
" . c #FCCA94",
".. c #FFCE9A",
"X. c #FFD09E",
"o. c #FFD2A3",
"O. c #FFD6AA",
"+. c #FFDBB4",
"@. c #FFDDBA",
"#. c #FFE0BE",
"$. c #C4C4C4",
"%. c #CCCCCC",
"&. c #CECFD0",
"*. c #D3D3D3",
"=. c gainsboro",
"-. c #FFE2C3",
";. c #FFE7CD",
":. c #FFE8CF",
">. c #FFE9D3",
",. c #FFEFDD",
"<. c #E3E3E3",
"1. c #ECECEC",
"2. c #FFF1E3",
"3. c #FFF5E9",
"4. c #F4F4F5",
"5. c #FFFAF4",
"6. c #FFFFFF",
/* pixels */
"F F F F F F F F F F F F F F F F F F F F F F F F F F F F F F F F F F F H J H G H F F F F F F F F F F F F F F F F F F F F F F F G H J H G G F F F F F F F F F F F F F F F F F F F F F F F F F F F F F F F ",
"F F F F F F F F F F F F F F F F F F F F F F F F F F F F F F F F F H Z 4 1 d F F F F F F F F F F F F F F F F F F F F F F F F H m 3 1 h G F F F F F F F F F F F F F F F F F F F F F F F F F F F F F F F F ",
"F F F F F F F F F F F F F F F F F F F F F F F F F F F F F F F F F Z *       z F F F F F F F F F F F F F F F F F F F F F F H C +       x G F F F F F F F F F F F F F F F F F F F F F F F F F F F F F F F ",
"F F F F F F F F F F F F F F F F F F F F F F F F F F F F F F F F F d           A G F F F F F F F F F F F F F F F F F F F F G 0           F H F F F F F F F F F F F F F F F F F F F F F F F F F F F F F F ",
"F F F F F F F F F F F F F F F F F F F F F F F F F F F F F F F F S .           6 J F F F F F F F F F F F F F F F F F F F F m .           9 H F F F F F F F F F F F F F F F F F F F F F F F F F F F F F F ",
"F F F F F F F F F F F F F F F F F F F F F F F F F F F F F F H G l             . H H F F F F F F F F F F F F F F F F F F G k             $ H F F F F F F F F F F F F F F F F F F F F F F F F F F F F F F ",
"F F F F F F F F F F F F F F F F F F F F F F F F F F F F F F F H -               f H F F F F F F F F F F F F F F F F F F G *             . k H F F F F F F F F F F F F F F F F F F F F F F F F F F F F F ",
"F F F F F F F F F F F F F F F F F F F F F F F F F F F F F F F J                 8 H F F F F F F F F F F F F F F F F F H H                 w H F F F F F F F F F F F F F F F F F F F F F F F F F F F F F ",
"F F F F F F F F F F F F F F F F F F F F F F F F F F F F G G G A                 3 G G F F F F F F F F F F F F F F F G H M                 0 G H F F F F F F F F F F F F F F F F F F F F F F F F F F F F ",
"F F F F F F F F F F F F F F F F F F F F F F F F F F F F G G H k                 & M F F F F F F F F F F F F F F F F G H h                 - Z F F F F F F F F F F F F F F F F F F F F F F F F F F F F F ",
"F F F F F F F F F F F F F F F F F F F F F F F F F F F F G H H 9                 + b F F F F F F F F F F F F F F F F F J 9                 + m F F F F F F F F F F F F F F F F F F F F F F F F F F F F F ",
"F F F F F F F F F F F F F F F F F F F F F F F F F F F F F F J 7                 . x G F F F F F F F F F F F F F F F F H -                 X n F F F F F F F F F F F F F F F F F F F F F F F F F F F F F ",
"F F F F F F F F F F F F F F F F F F F F F F F F F F F F F F H w                 X c F F F F F F F F F F F F F F F F H H w                 O n F F F F F F F F F F F F F F F F F F F F F F F F F F F F F ",
"F F F F F F F F F F F F F F F F F F F F F F F F F F F F F F H g                 $ n F F F F F F F F F F F F F F F F G H s                 * Z F F F F F F F F F F F F F F F F F F F F F F F F F F F F F ",
"F F F F F F F F F F F F F F F F F F F F F F F F F F F F F F G H                 1 F F F F F F F F F F F F F F F F F F F G                 6 S G F F F F F F F F F F F F F F F F F F F F F F F F F F F F ",
"F F F F F F F F F F F F F F F F F F F F F F F F F F F F G G G H                 5 H F F F F F F F F F F F F F F F F F F G                 q H F F F F F F F G F F F F F F F F F F F F F F F F F F F F F ",
"F G F F F F F F F F F F F F F F F F F F F F F F F F F F F F F H 3               s H F F F F F F F F F F F F F F F F F F H -             . g G G G F F F F F F F F F F F F F F F F F F F F F F F F F F F ",
"F F F F F F F F F F F F F F F F F F F F F F F F F F F F F F F F b             . C G F F F F F F F F F F F F F F F F F F F x             O m G F F F F F F F F F F F F F F F F F F F F F F F F F F F F F ",
"F F F F F F F F F F F F F F F F F F F F F F F F F F F F F F F F Z +           = G G F F F F F F F F F F F F F F F F F F F n O           3 H G F F F F F F F F F F F F F F F F F F F F F F F F F F F F F ",
"F F F F F F F F F F F F F F F F F F F F F F F F F F F F F F F F F s           c G G F F F F F F F F F F F F F F F F F F F F 0           v G F F F F F F F F F F F F F F F F F F F F F F F F F F F F F F ",
"F F F F F F F F F F F F F F F F F F F F F F F F F F F F F F F F G M &       s S G F F F F F F F F F H F F F H F F F F F F F C $       g S F F F F F F F F F F F F F F F F F F F F F F F F F F F F F F F ",
"F F F F F F F F F F F F F F F F F F F F F F F F F F F F F F F F F F b 5 % s m G G H G S C M m m m m m m m m m m M Z F H F F S M 3 $ d m F F F F F F F F F F F F F F F F F F F F F F F F F F F F F F F F ",
"F F F F F F F F F F F F F F F F F F F F F F F F F F F F F F F F F F A M m M F F H H l 8 X                         & s Z F F G Z M m M F F F F F F F F F F F F F F F F F F F F F F F F F F F F F F F F F ",
"F F F F F F F F F F F F F F F F F F F F F F F F F F F F F F F F F F F F S S F F H x O                                 8 F F F H S S F F F F F F F F F F F F F F F F F F F F F F F F F F F F F F F F F F ",
"F F F F F F F F F F F F F F F F F F F F F F F F F F F F F F F F F F F F F F F F H 8                                     S G F F F F F F F F F F F F F F F F F F F F F F F F F F F F F F F F F F F F F F ",
"F F F F F F F F F F F F F F F F F F F F F F F F F F F F F F F F F F F F F F F F C *                                     f H F F F F F F F F F F F F F F F F F F F F F F F F F F F F F F F F F F F F F F ",
"F F F F F F F F F F F F G F F F F F F F F F F F F F F F F F F F F F F F F F F F M &                                     s H F F F F F F F F F F F F F F F F F F F F F F F F F F F F F F F F F F F F F F ",
"F F F F F D D D V V V V V V D D D F F F F F F F F F F F F F F F F F F F F F F F m &                                     w H F F F F F F F F F F F F F F F F F F F F F F F D V D D V V V V V V V F F F F ",
"F F H K P E / X.+.-.;.@.+.o. ./ Q R I K K K H H H F F F F F F F F F F F F F F F S 1                                     n F F F F F F F F F F F F F F F F G H K K K K U E ! }  .O.+.-.;.:.>.-.O.^ I K F ",
"F Q O.2.6.6.6.6.6.6.6.6.6.6.6.6.6.6.6.6.3.;.+.../ ! W R T I K V V V D F F F F F H 8                                     A H F F D F D D D V F L U T E Q ~ | O.@.>.5.6.6.6.6.6.6.6.6.6.6.6.6.6.6.6.6.>.} ",
"@.5.6.6.6.6.6.6.6.6.6.6.6.6.6.6.6.6.6.6.6.6.6.6.6.6.6.5.2.>.-.@...^ W T L V B B V j                                   2 B V V N H U R Q } O.#.;.,.3.5.6.6.6.6.6.6.6.6.6.6.6.6.6.6.6.6.6.6.6.6.6.6.6.6.6.",
"6.6.6.6.6.6.6.6.6.6.6.6.6.6.6.6.6.6.6.6.6.6.6.6.6.6.6.6.6.6.6.6.6.6.6.5.5.5.2.-.O. .;                                 Y o.+.:.5.5.6.5.5.6.6.6.6.6.6.6.6.6.6.6.6.6.6.6.6.6.6.6.6.6.6.6.6.6.6.6.6.6.6.6.6.",
"6.6.6.6.6.6.6.6.6.6.6.6.6.6.6.6.6.6.6.6.6.6.6.6.6.6.6.6.6.6.6.6.6.6.6.6.6.6.6.6.6.6.%.o                             t 4.6.6.6.6.6.6.6.6.6.6.6.6.6.6.6.6.6.6.6.6.6.6.6.6.6.6.6.6.6.6.6.6.6.6.6.6.6.6.6.6.",
"6.6.6.6.6.6.6.6.6.6.6.6.6.6.6.6.6.6.6.6.6.6.6.6.6.6.6.6.6.6.6.6.6.6.6.6.6.6.6.6.6.6.4.` @                         e &.6.6.6.6.6.6.6.6.6.6.6.6.6.6.6.6.6.6.6.6.6.6.6.6.6.6.6.6.6.6.6.6.6.6.6.6.6.6.6.6.6.",
"6.6.6.6.6.6.6.6.6.6.6.6.6.6.6.6.6.6.6.6.6.6.6.6.6.6.6.6.6.6.6.6.6.6.6.6.6.6.6.6.6.6.6.1.] :                     a $.6.6.6.6.6.6.6.6.6.6.6.6.6.6.6.6.6.6.6.6.6.6.6.6.6.6.6.6.6.6.6.6.6.6.6.6.6.6.6.6.6.6.",
"6.6.6.6.6.6.6.6.6.6.6.6.6.6.6.6.6.6.6.6.6.6.6.6.6.6.6.6.6.6.6.6.6.6.6.6.6.6.6.6.6.6.6.6.1.*.p o             > ' *.4.6.6.6.6.6.6.6.6.6.6.6.6.6.6.6.6.6.6.6.6.6.6.6.6.6.6.6.6.6.6.6.6.6.6.6.6.6.6.6.6.6.6.",
"6.6.6.6.6.6.6.6.6.6.6.6.6.6.6.6.6.6.6.6.6.6.6.6.6.6.6.6.6.6.6.6.6.6.6.6.6.6.6.6.6.6.6.6.6.1.=.<.[ i y y ( =.=.=.6.6.6.6.6.6.6.6.6.6.6.6.6.6.6.6.6.6.6.6.6.6.6.6.6.6.6.6.6.6.6.6.6.6.6.6.6.6.6.6.6.6.6.6.",
"6.6.6.6.6.6.6.6.6.6.6.6.6.6.6.6.6.6.6.6.6.6.6.6.6.6.6.6.6.6.6.6.6.6.6.6.6.6.6.6.6.6.6.6.6.6.5.1.<.<.=.<.<.1.4.6.6.6.6.6.6.6.6.6.6.6.6.6.6.6.6.6.6.6.6.6.6.6.6.6.6.6.6.6.6.6.6.6.6.6.6.6.6.6.6.6.6.6.6.6.",
"6.6.6.6.6.6.6.6.6.6.6.6.6.6.6.6.6.6.6.6.6.6.6.6.6.6.6.6.6.6.6.6.6.6.6.6.6.6.6.=.6.6.6.6.6.6.6.6.6.6.5.6.6.6.6.6.6.6.6.6.6.6.4.6.6.6.6.6.6.6.6.6.6.6.6.6.6.6.6.6.6.6.6.6.6.6.6.6.6.6.6.6.6.6.6.6.6.6.6.6.",
"6.6.6.6.6.6.6.6.6.6.6.6.6.6.6.6.6.6.6.6.6.6.6.6.6.6.6.6.6.6.6.6.6.6.6.6.6.6.<   < 4.6.6.6.6.6.6.6.6.6.6.6.6.6.6.6.6.6.6.%.    &.6.6.6.6.6.6.6.6.6.6.6.6.6.6.6.6.6.6.6.6.6.6.6.6.6.6.6.6.6.6.6.6.6.6.6.6.",
"6.6.6.6.6.6.6.6.6.6.6.6.6.6.6.6.6.6.6.6.6.6.6.6.6.6.6.6.6.6.6.6.6.6.6.6.6.<.@   @ $.6.6.6.6.6.6.6.6.6.6.6.6.6.6.6.6.6.6.t     ) 6.6.6.6.6.6.6.6.6.6.6.6.6.6.6.6.6.6.6.6.6.6.6.6.6.6.6.6.6.6.6.6.6.6.6.6.",
"6.6.6.6.6.6.6.6.6.6.6.6.6.6.6.6.6.6.6.6.6.6.6.6.6.6.6.6.6.6.6.6.6.6.6.6.6.4.#     _ 6.6.6.6.6.6.6.6.6.6.6.6.6.6.6.6.6.4.o     ] 6.6.6.6.6.6.6.6.6.6.6.6.6.6.6.6.6.6.6.6.6.6.6.6.6.6.6.6.6.6.6.6.6.6.6.6.",
"6.6.6.6.6.6.6.6.6.6.6.6.6.6.6.6.6.6.6.6.6.6.6.6.6.6.6.6.6.6.6.6.6.6.6.6.6.6.u     . { 6.6.6.6.6.6.6.6.6.6.6.6.6.6.6.4.r     @ =.6.6.6.6.6.6.6.6.6.6.6.6.6.6.6.6.6.6.6.6.6.6.6.6.6.6.6.6.6.6.6.6.6.6.6.6.",
"6.6.6.6.6.6.6.6.6.6.6.6.6.6.6.6.6.6.6.6.6.6.6.6.6.6.6.6.6.6.6.6.6.6.6.6.6.6.1..       ( <.5.6.6.6.6.6.6.6.6.6.6.1.*.<       i 5.6.6.6.6.6.6.6.6.6.6.6.6.6.6.6.6.6.6.6.6.6.6.6.6.6.6.6.6.6.6.6.6.6.6.6.6.",
"6.6.6.6.6.6.6.6.6.6.6.6.6.6.6.6.6.6.6.6.6.6.6.6.6.6.6.6.6.6.6.6.6.6.6.6.6.6.6.] o       @ u ' %.<.1.6.5.1.%.$.) <         < <.6.6.6.6.6.6.6.6.6.6.6.6.6.6.6.6.6.6.6.6.6.6.6.6.6.6.6.6.6.6.6.6.6.6.6.6.6.",
"6.6.6.6.6.6.6.6.6.6.6.6.6.6.6.6.6.6.6.6.6.6.6.6.6.6.6.6.6.6.6.6.6.6.6.6.6.6.6.6.$.:         o @ # : > > : @ @           ( 1.6.6.6.6.6.6.6.6.6.6.6.6.6.6.6.6.6.6.6.6.6.6.6.6.6.6.6.6.6.6.6.6.6.6.6.6.6.6.",
"6.6.6.6.6.6.6.6.6.6.6.6.6.6.6.6.6.6.6.6.6.6.6.6.6.6.6.6.6.6.6.6.6.6.6.6.6.6.6.6.6.4.( o                           . , $.6.6.6.6.6.6.6.6.6.6.6.6.6.6.6.6.6.6.6.6.6.6.6.6.6.6.6.6.6.6.6.6.6.6.6.6.6.6.6.6.",
"6.6.6.6.6.6.6.6.6.6.6.6.6.6.6.6.6.6.6.6.6.6.6.6.6.6.6.6.6.6.6.6.6.6.6.6.6.6.6.6.6.6.6.6.' r > : @ o     o # : , a %.6.6.6.6.6.6.6.6.6.6.6.6.6.6.6.6.6.6.6.6.6.6.6.6.6.6.6.6.6.6.6.6.6.6.6.6.6.6.6.6.6.6.",
"6.6.6.6.6.6.6.6.6.6.6.6.6.6.6.6.6.6.6.6.6.6.6.6.6.6.6.6.6.6.6.6.6.6.6.6.6.6.6.6.6.6.6.6.6.6.1.*.$.{ ` ] [ *.=.4.6.6.6.6.6.6.6.6.6.6.6.6.6.6.6.6.6.6.6.6.6.6.6.6.6.6.6.6.6.6.6.6.6.6.6.6.6.6.6.6.6.6.6.6.",
"6.6.6.6.6.6.6.6.6.6.6.6.6.6.6.6.6.6.6.6.6.6.6.6.6.6.6.6.6.6.6.6.6.6.6.6.6.6.6.6.6.6.6.6.6.6.6.6.6.6.6.6.6.6.6.6.6.6.6.6.6.6.6.6.6.6.6.6.6.6.6.6.6.6.6.6.6.6.6.6.6.6.6.6.6.6.6.6.6.6.6.6.6.6.6.6.6.6.6.6."
};
