/* XPM */
static char *_631957791131[] = {
/* columns rows colors chars-per-pixel */
"100 50 108 2 ",
"   c #393533",
".  c #383632",
"X  c #393632",
"o  c #393633",
"O  c #393733",
"+  c #3A3732",
"@  c #3A3633",
"#  c #3A3733",
"$  c #3A3634",
"%  c #3A3734",
"&  c #3B3734",
"*  c #3B3933",
"=  c #3A3834",
"-  c #3B3834",
";  c #3B3934",
":  c #3A3835",
">  c #3B3835",
",  c #3A3935",
"<  c #3C3834",
"1  c #3C3936",
"2  c #3C3937",
"3  c #3D3937",
"4  c #3D3A37",
"5  c #3D3B38",
"6  c #3E3B38",
"7  c #3F3B38",
"8  c #3F3C39",
"9  c #3F3D3A",
"0  c #403D37",
"q  c #403D39",
"w  c #413E38",
"e  c #413F39",
"r  c #403D3A",
"t  c #413E3A",
"y  c #413F3A",
"u  c #413E3B",
"i  c #413F3B",
"p  c #423F3A",
"a  c #423F3B",
"s  c #423F3C",
"d  c #41403A",
"f  c #42403B",
"g  c #43403C",
"h  c #43413C",
"j  c #43403D",
"k  c #43413D",
"l  c #44413C",
"z  c #44413D",
"x  c #45423C",
"c  c #44423D",
"v  c #45423D",
"b  c #45433D",
"n  c #46433D",
"m  c #47433D",
"M  c #47453C",
"N  c #46443D",
"B  c #47443D",
"V  c #47453D",
"C  c #47443E",
"Z  c #49473B",
"A  c #48453C",
"S  c #48453D",
"D  c #48463C",
"F  c #4A473D",
"G  c #48453E",
"H  c #48463E",
"J  c #49463E",
"K  c #49473E",
"L  c #49463F",
"P  c #49473F",
"I  c #4A473E",
"U  c #4A473F",
"Y  c #49483C",
"T  c #4A483C",
"R  c #4B493D",
"E  c #4B4A3D",
"W  c #4A483E",
"Q  c #4B483E",
"!  c #4A493E",
"~  c #4B493E",
"^  c #4A483F",
"/  c #4B483F",
"(  c #4B493F",
")  c #4B4A3E",
"_  c #4B4A3F",
"`  c #4C493E",
"'  c #4C493F",
"]  c #4C4A3E",
"[  c #4D4A3E",
"{  c #4C4A3F",
"}  c #4D4A3F",
"|  c #4C4B3F",
" . c #4D4B3F",
".. c #4B4940",
"X. c #4C4940",
"o. c #4C4A40",
"O. c #4D4A40",
"+. c #4D4B40",
"@. c #4E4B40",
"#. c #4D4C40",
"$. c #4E4C40",
"%. c #4E4D40",
"&. c #4F4D40",
"*. c #4E4C41",
"=. c #4F4C41",
"-. c #4E4D41",
";. c #4F4D41",
":. c None",
/* pixels */
":.:.:.:.:.:.:.:.:.:.:.:.:.:.:.:.:.:.:.:.:.:.:.:.:.:.:.:.:.:.:.:.:.:.:.:.:.:.:.:.:.:.:.:.:.:.:.:.:.:.:.:.:.:.:.:.:.:.:.:.:.:.:.:.:.:.:.:.:.:.:.:.:.:.:.:.:.:.:.:.:.:.:.:.:.:.:.:.:.:.:.:.:.:.:.:.:.:.:.:.",
":.:.:.:.:.:.:.:.:.:.:.:.:.:.:.:.:.:.:.:.:.:.:.:.:.:.:.:.:.:.:.:.:.:.:.:.:.:.:.:.:.:.:.:.:.:.:.:.:.:.:.:.:.:.:.:.:.:.:.:.:.:.:.:.:.:.:.:.:.:.:.:.:.:.:.:.:.:.:.:.:.:.:.:.:.:.:.:.:.:.:.:.:.:.:.:.:.:.:.:.",
":.:.:.:.:.:.:.:.:.:.:.:.:.:.:.:.:.:.:.:.:.:.:.:.:.:.:.:.:.:.:.:.:.:.:.:.:.:.:.:.:.:.:.:.:.:.:.:.:.:.:.:.:.:.:.:.:.:.:.:.:.:.:.:.:.:.:.:.:.:.:.:.:.:.:.:.:.:.:.:.:.:.:.:.:.:.:.:.:.:.:.:.:.:.:.:.:.:.:.:.",
":.:.:.:.:.:.:.:.:.:.:.:.:.:.:.:.:.:.:.:.:.:.:.:.:.:.:.:.:.:.:.:.:.:.:.:.:.:.:.:.:.:.:.:.:.:.:.:.:.:.:.:.:.:.:.:.:.:.:.:.:.:.:.:.:.:.:.:.:.:.:.:.:.:.:.:.:.:.:.:.:.:.:.:.:.:.:.:.:.:.:.:.:.:.:.:.:.:.:.:.",
":.:.:.:.:.:.:.:.:.:.:.:.:.:.:.:.:.:.:.:.:.:.:.:.:.:.:.:.:.:.:.:.:.:.:.:.:.:.:.:.:.:.:.:.:.:.:.:.:.:.:.:.:.:.:.:.:.:.:.:.:.:.:.:.:.:.:.:.:.:.:.:.:.:.:.:.:.:.:.:.:.:.:.:.:.:.:.:.:.:.:.:.:.:.:.:.:.:.:.:.",
":.:.:.:.:.:.:.:.:.:.:.:.:.:.:.:.:.:.:.:.:.:.:.:.:.:.:.:.:.:.:.:.:.:.:.:.:.:.:.:.:.:.:.:.:.:.:.:.;.;.:.:.:.:.:.:.:.:.:.:.:.:.:.:.:.:.:.:.:.:.:.:.:.:.:.:.:.:.:.:.:.:.:.:.:.:.:.:.:.:.:.:.:.:.:.:.:.:.:.:.",
":.:.:.:.:.:.:.:.:.:.:.:.:.:.:.:.:.:.:.:.:.:.:.:.:.:.:.:.:.:.:.:.:.:.:.:.T  .;. .;. . .;.;. . .;.;.;.;.+.;. .;. .;. . .;. .R :.:.:.:.:.:.:.:.:.:.:.:.:.:.:.:.:.:.:.:.:.:.:.:.:.:.:.:.:.:.:.:.:.:.:.:.:.:.",
":.:.:.:.:.:.:.:.:.:.:.:.:.:.:.:.:.:.:.:.:.:.:.:.:.:.:.:.:.:.:.:. .;.;.;.;.;.;.;.;.;.;.;.;.;.;.;.;.;.;.;.;.;.;.;.;.;.;.;.;.;.;.;.;. .Z :.:.:.:.:.:.:.:.:.:.:.:.:.:.:.:.:.:.:.:.:.:.:.:.:.:.:.:.:.:.:.:.:.",
":.:.:.:.:.:.:.:.:.:.:.:.:.:.:.:.:.:.:.:.:.:.:.:.:.:.:.:. . .+.;.;.;.;.;.;.;.;.;.;.;.;.;.;.;.;.;.;.;.;.;.;.;.;.;.;.;.;.;.;.;.;.;.;.;.;.;. .R :.:.:.:.:.:.:.:.:.:.:.:.:.:.:.:.:.:.:.:.:.:.:.:.:.:.:.:.:.:.",
":.:.:.:.:.:.:.:.:.:.:.:.:.:.:.:.:.:.:.:.:.:.:.:.:. . .+.+.;.;.;.;.;.;.;.;.;.;.;.;.;.;.;.;.;.;.;.;.;.;.;.;.;.;.;.;.;.;.;.;.;.;.;.;.;.;.;.;.;.;.;. .:.:.:.:.:.:.:.:.:.:.:.:.:.:.:.:.:.:.:.:.:.:.:.:.:.:.:.",
":.:.:.:.:.:.:.:.:.:.:.:.:.:.:.:.:.:.:.:.:.:.R  .;.;.;.;.;.;.;.;.;.;.;.;.;.;.;.;.;.;.;.;.;.;.;.;.;.;.;.;.;.;.;.;.;.;.;.;.;.;.;.;.;.;.;.;.;.;.;.;.;.;.;. .:.:.:.:.:.:.:.:.:.:.:.:.:.:.:.:.:.:.:.:.:.:.:.:.",
":.:.:.:.:.:.:.:.:.:.:.:.:.:.:.:.:.:.:.:.G  .;.;.;.;.;.;.;.;.;.;.;.;.;.;.;.;.;.;.;.;.;.;.;.;.;.;.;.;.;.;.;.;.;.;.;.;.;.;.;.;.;.;.;.;.;.;.;.;.;.;.;.;.;.;. . .:.:.:.:.:.:.:.:.:.:.:.:.:.:.:.:.:.:.:.:.:.:.",
":.:.:.:.:.:.:.:.:.:.:.:.:.:.:.:.:.:. . .;.;.;.;.;.;.;.;.;.;.;.;.;.;.;.;.;.;.;.;.;.;.;.;.;.;.;.;.;.;.;.;.;.;.;.;.;.;.;.;.;.;.;.;.;.;.;.;.;.;.;.;.;.;.;.;.;.;.=. .:.:.:.:.:.:.:.:.:.:.:.:.:.:.:.:.:.:.:.:.",
":.:.:.:.:.:.:.:.:.:.:.:.:.:.:.:.:. . .;.;.;.;.;.;.;.;.;.;.;.;.;.;.;.;.;.;.;.;.;.;.;.;.;.;.;.;.;.;.;.;.;.;.;.;.;.;.;.;.;.;.;.;.;.;.;.;.;.;.;.;.;.;.;.;.;.;.;.;.;. .G :.:.:.:.:.:.:.:.:.:.:.:.:.:.:.:.:.:.",
":.:.:.:.:.:.:.:.:.:.:.:.:.:.:.R +.;.;.;.;.;.;.;.;.;.;.;.;.;.;.;.;.;.;.;.;.;.;.;.;.;.;.;.;.;.;.;.;.;.;.;.;.;.;.;.;.;.;.;.;.;.;.;.;.;.;.;.;.;.;.;.;.;.;.;.;.;.;.;.;.;. .:.:.:.:.:.:.:.:.:.:.:.:.:.:.:.:.:.",
":.:.:.:.:.:.:.:.:.:.:.:.:.:.R ;.;.;.;.;.;.;.;.;.;.;.;.;.;.;.;.;.;.;.;.;.;.;.;.;.;.;.;.;.;.;.;.;.;.;.;.;.;.;.;.;.;.;.;.;.;.;.;.;.;.;.;.;.;.;.;.;.;.;.;.;.;.;.;.;.;.;.;. .:.:.:.:.:.:.:.:.:.:.:.:.:.:.:.:.",
":.:.:.:.:.:.:.:.:.:.:.:.:. .;.;.;.;.;.;.;.;.;.;.;.;.;.;.;.;.;.;.;.;.;.;.;.;.;.;.;.;.;.;.;.;.;.;.;.;.;.;.;.;.;.;.;.;.;.;.;.;.;.;.;.;.;.;.;.;.;.;.;.;.;.;.;.;.;.;.;.;.;.;.;.:.:.:.:.:.:.:.:.:.:.:.:.:.:.:.",
":.:.:.:.:.:.:.:.:.:.:.:.R ;.;.;.;.;.;.;.;.;.;.;.;.;.;.;.;.;.;.;.;.;.;.;.;.;.;.;.;.;.;.;.;.;.;.;.;.;.;.;.;.;.;.;.;.;.;.;.;.;.;.;.;.;.;.;.;.;.;.;.;.;.;.;.;.;.;.;.;.;.;.;.;.;.:.:.:.:.:.:.:.:.:.:.:.:.:.:.",
":.:.:.:.:.:.:.:.:.:.:. .;.;.;.;.;.;.;.;.;.;.;.;.;.;.;.;.;.;.;.;.;.;.;.;.;.;.;.;.;.;.+.;.;.;.=.;.;.;.;.;.;.;.;.;.;.;.;.;.;.;.;.;.;.;.;.;.;.;.;.;.;.;.;.;.;.;.;.;.;.;.;.;.;.;.;.:.:.:.:.:.:.:.:.:.:.:.:.:.",
":.:.:.:.:.:.:.:.:.:.:.+.;.;.;.;.;.;.;.;.;.;.;.;.;.;.;.;.;.;.;.;.;.;.;.;.;.;.;.=.+.+.+.+.G ..G ....G ..G G ....R +...;.+.;.;.;.;.;.;.;.;.;.;.;.;.;.;.;.;.;.;.;.;.;.;.;.;.;.;.;. .:.:.:.:.:.:.:.:.:.:.:.:.",
":.:.:.:.:.:.:.:.:.:.;.;.;.;.;.;.;.;.;.;.;.;.;.;.;.;.;.;.;.;.;.;.;.+.+./ ..b b s s s s b b s s s s s s s s g g g s s b b B B ....+.;.;.;.;.;.;.;.;.;.;.;.;.;.;.;.;.;.;.;.;.;.;.;.:.:.:.:.:.:.:.:.:.:.:.:.",
":.:.:.:.:.:.:.:.:.R ;.;.;.;.;.;.;.;.;.;.;.;.;.;.;.;.;.;.;.=.+.G m b s s s s s s s s s s s s s s s s s s s s s s s s s s s s s s s b G +.+.+.;.;.;.;.;.;.;.;.;.;.;.;.;.;.;.;.;.;. .:.:.:.:.:.:.:.:.:.:.:.",
":.:.:.:.:.:.:.:.:.;.;.;.;.;.;.;.;.;.;.;.;.;.;.;.=.+.+. .G b s s s s s s s s s s s s s s s s s s s s s s s s s s s s s s s s s s s s s s b m G +.;.;.;.;.;.;.;.;.;.;.;.;.;.;.;.;.;.:.:.:.:.:.:.:.:.:.:.:.",
":.:.:.:.:.:.:.:.:.;.;.;.;.;.;.;.;.;.;.;.;.;.;.;./ b b s s a s s s s s s s s s s s s s s s s s s s s s s s s s s s s s s s s s s s s s s s s a b b G +.;.;.;.;.;.;.;.;.;.;.;.;.;.;.R :.:.:.:.:.:.:.:.:.:.",
":.:.:.:.:.:.:.:.:.;.;.;.;.;.;.;.;.;.;.;.;.+.G b s s s s s s s s s s s s s s s s s s s s s s s s s s s s s s s s s s s s s s s s s s s s s s s s s s b b  .;.;.;.;.;.;.;.;.;.;.;.;.+.:.:.:.:.:.:.:.:.:.:.",
":.:.:.:.:.:.:.:.:.;.;.;.;.;.;.;.;.;.;...G s b s s s s s s s s s s s s s s s s s s s s s s s s s s s s s s s s s s s s s s s s s s s s s s s s s s s s s s b G +.;.;.;.;.;.;.;.;.;.+.:.:.:.:.:.:.:.:.:.:.",
":.:.:.:.:.:.:.:.:.;.;.;.;.;.;.;.;.+.G b s s s s s s s s s s s s s s s s s s s s s s s s s s s s s s s s s s s s s s s s s s s s s s s s s s s s s s s s s s s b R ;.;.;.;.;.;.;.;.+.:.:.:.:.:.:.:.:.:.:.",
":.:.:.:.:.:.:.:.:. .;.;.;.;.;.;.+.b s a s s s s s s s s s s s s s s s s s s s s s s s s s s s s s s s s s s s s s s s s s s s s s s s s s s s s s s s s s s s s g G ;.;.;.;.;.;.;.R :.:.:.:.:.:.:.:.:.:.",
":.:.:.:.:.:.:.:.:. .;.;.;.;.;.G s s s s s s s s s s s s s s s s s s s s s s s s s s s s s s s s s s s s s s s s s s s s s s s s s s s s s s s s s s s s s s s s s s b +.;.;.;.;.;.:.:.:.:.:.:.:.:.:.:.:.",
":.:.:.:.:.:.:.:.:.+.;.;.;. .B a s s s s s s s s s s s s s s s s s s s s s s s s s s s s s s s s s s s s s s s s s s s s s s s s s s s s s s s s s s s s s s s s s s s b R ;.;.;.;.:.:.:.:.:.:.:.:.:.:.:.",
":.:.:.:.:.:.:.:.:.:.;.;...b s s s s s s s s s s s s s s s s s s s s s s s s s s s s s s s s s s s s s s s s s s s s s s s s s s s s s s s s s s s s s s s s s s s s s s g G ;.;.R :.:.:.:.:.:.:.:.:.:.:.",
":.:.:.:.:.:.:.:.:.:. .;.b s s s s s s s s s s s s s s s s s s s s s s s s s s s s s s s s s s s s s s s s s s s s s s s s s s s s s s s s s s s s s s s s s s s s s s s s s ..+.:.:.:.:.:.:.:.:.:.:.:.:.",
":.:.:.:.:.:.:.:.:.:.:.B s s s s s s s s s s s s s s s s s s s s s s s s s s s s s s s s s s s s s s s s s s s s s s s s s s s s s s s s s s s s s s s s s s s s s s s s s s g B :.:.:.:.:.:.:.:.:.:.:.:.",
":.:.:.:.:.:.:.:.:.:.:.:.s s s s s s s s s s s s s s s s s s s s s s s s s s s s s 9 9 7 7 9 9 7 7 9 9 7 7 9 9 7 9 9 s s s s s s s s s s s s s s s s s s s s s s s s s s s s f :.:.:.:.:.:.:.:.:.:.:.:.:.",
":.:.:.:.:.:.:.:.:.:.:.:.f s s s s s s s s s s s s s s s s s s s s s a 7 7 1 1 $ $ $ $ . $ $ . $ . $ . $ . $ . $ 1 $ 1 1 2 7 7 7 9 s s s s s s s s s s s s s s s s s s s a f :.:.:.:.:.:.:.:.:.:.:.:.:.:.",
":.:.:.:.:.:.:.:.:.:.:.:.:.g s s s s s s s s s s s s s s s s 9 9 3 # # $ . # # $ $ . $ $ # . $ . $ . $ . $ . $ . # . # . . . $ $ # 1 3 9 s s s s s s s s s s s s s s s s a :.:.:.:.:.:.:.:.:.:.:.:.:.:.:.",
":.:.:.:.:.:.:.:.:.:.:.:.:.:.a a s s s s s s s s s a a 9 1 $ $ . $ . $ . $ . $ . $ . $ . $ . $ . . $ . $ . $ . $ . $ . $ . $ . $ . $ . $ $ 1 7 9 a s s s s s s s s a a a :.:.:.:.:.:.:.:.:.:.:.:.:.:.:.:.",
":.:.:.:.:.:.:.:.:.:.:.:.:.:.:.:.a a s s s g s s 9 3 $ # $ . . $ . $ . $ . $ . $ . $ . $ . $ . $ $ . $ . $ . $ . $ . $ . $ . $ . $ . $ . $ . $ $ 1 7 9 s s s s s s a a :.:.:.:.:.:.:.:.:.:.:.:.:.:.:.:.:.",
":.:.:.:.:.:.:.:.:.:.:.:.:.:.:.:.:.0 g s s 9 7 $ $ $ # # . $ . $ $ . $ . $ . $ . $ . $ . $ . $ . . $ . $ . $ . $ . $ . $ . $ . $ . $ . $ . $ . $ . $ $ 1 9 s s g a :.:.:.:.:.:.:.:.:.:.:.:.:.:.:.:.:.:.:.",
":.:.:.:.:.:.:.:.:.:.:.:.:.:.:.:.:.:.:.9 9 $ . $ . . $ . $ . $ . . $ . $ . $ . $ . $ . $ . $ . $ $ . $ . $ . $ . $ . $ . $ . $ . $ . $ . $ . $ . $ . . $ # 1 a 9 :.:.:.:.:.:.:.:.:.:.:.:.:.:.:.:.:.:.:.:.",
":.:.:.:.:.:.:.:.:.:.:.:.:.:.:.:.:.:.:.:.* # $ # # . # . #   . $ $ . $ . $ . $ . $ . $ . $ . $ . $ . $ . $ . $ . . $ . $ . $ . $ $ . $ . $ . . $ . # # # # 1 :.:.:.:.:.:.:.:.:.:.:.:.:.:.:.:.:.:.:.:.:.:.",
":.:.:.:.:.:.:.:.:.:.:.:.:.:.:.:.:.:.:.:.:.:.:.# 1 # . # $ . $ . . $ . $ . $ . $ . $ . $ . $ . $ . $ . $ . $ . $ $ . $ . $ . $ . . $ . $ . $ # # # # # :.:.:.:.:.:.:.:.:.:.:.:.:.:.:.:.:.:.:.:.:.:.:.:.:.",
":.:.:.:.:.:.:.:.:.:.:.:.:.:.:.:.:.:.:.:.:.:.:.:.:.:.1 $ . $ $ $ $ . $ . $ . $ . $ . $ . $ . $ . $ . $ . $ . # . . $ . $ . $ . $ $ . # # $ # . 1 $ :.:.:.:.:.:.:.:.:.:.:.:.:.:.:.:.:.:.:.:.:.:.:.:.:.:.:.",
":.:.:.:.:.:.:.:.:.:.:.:.:.:.:.:.:.:.:.:.:.:.:.:.:.:.:.:.:.$ # . $ $ . $ . $ . # . $ . $ . $ . # . $ . $ . $ . # $ . $ . $ . $ . . # . # $ $ :.:.:.:.:.:.:.:.:.:.:.:.:.:.:.:.:.:.:.:.:.:.:.:.:.:.:.:.:.:.",
":.:.:.:.:.:.:.:.:.:.:.:.:.:.:.:.:.:.:.:.:.:.:.:.:.:.:.:.:.:.:.:.1 . # # $ # # # $ . # # . $ # # $ . $ . # . $ . . . # # . $ 1 $ # # :.:.:.:.:.:.:.:.:.:.:.:.:.:.:.:.:.:.:.:.:.:.:.:.:.:.:.:.:.:.:.:.:.:.",
":.:.:.:.:.:.:.:.:.:.:.:.:.:.:.:.:.:.:.:.:.:.:.:.:.:.:.:.:.:.:.:.:.:.:.:.:.:.:.# $ $ 3 $ 1 $ # # . $ # $ $ 1 $ 1 $ 1 $ :.:.:.:.:.:.:.:.:.:.:.:.:.:.:.:.:.:.:.:.:.:.:.:.:.:.:.:.:.:.:.:.:.:.:.:.:.:.:.:.:.",
":.:.:.:.:.:.:.:.:.:.:.:.:.:.:.:.:.:.:.:.:.:.:.:.:.:.:.:.:.:.:.:.:.:.:.:.:.:.:.:.:.:.:.:.:.:.:.:.:.:.:.:.:.:.:.:.:.:.:.:.:.:.:.:.:.:.:.:.:.:.:.:.:.:.:.:.:.:.:.:.:.:.:.:.:.:.:.:.:.:.:.:.:.:.:.:.:.:.:.:.",
":.:.:.:.:.:.:.:.:.:.:.:.:.:.:.:.:.:.:.:.:.:.:.:.:.:.:.:.:.:.:.:.:.:.:.:.:.:.:.:.:.:.:.:.:.:.:.:.:.:.:.:.:.:.:.:.:.:.:.:.:.:.:.:.:.:.:.:.:.:.:.:.:.:.:.:.:.:.:.:.:.:.:.:.:.:.:.:.:.:.:.:.:.:.:.:.:.:.:.:.",
":.:.:.:.:.:.:.:.:.:.:.:.:.:.:.:.:.:.:.:.:.:.:.:.:.:.:.:.:.:.:.:.:.:.:.:.:.:.:.:.:.:.:.:.:.:.:.:.:.:.:.:.:.:.:.:.:.:.:.:.:.:.:.:.:.:.:.:.:.:.:.:.:.:.:.:.:.:.:.:.:.:.:.:.:.:.:.:.:.:.:.:.:.:.:.:.:.:.:.:.",
":.:.:.:.:.:.:.:.:.:.:.:.:.:.:.:.:.:.:.:.:.:.:.:.:.:.:.:.:.:.:.:.:.:.:.:.:.:.:.:.:.:.:.:.:.:.:.:.:.:.:.:.:.:.:.:.:.:.:.:.:.:.:.:.:.:.:.:.:.:.:.:.:.:.:.:.:.:.:.:.:.:.:.:.:.:.:.:.:.:.:.:.:.:.:.:.:.:.:.:."
};
