/* XPM */
static char *_632730106919[] = {
/* columns rows colors chars-per-pixel */
"100 100 78 1 ",
"  c #000101",
". c #060A0B",
"X c #0C0C0C",
"o c #0E0F10",
"O c #0B1214",
"+ c #0F181A",
"@ c #121313",
"# c #111B1D",
"$ c #131E20",
"% c #152225",
"& c #1F2729",
"* c #1A2A2D",
"= c #1C2E31",
"- c #1E3235",
"; c #1E3539",
": c #232728",
"> c #252A2C",
", c #2B2E2F",
"< c #223236",
"1 c #2C3234",
"2 c #21363A",
"3 c #2A3639",
"4 c #243A3E",
"5 c #2C3A3C",
"6 c #333535",
"7 c #303739",
"8 c #353B3C",
"9 c #3A3E3F",
"0 c #263C40",
"q c #2A3E41",
"w c #343E40",
"e c #3C3F41",
"r c #2E4145",
"t c #2F4348",
"y c #314346",
"u c #3D4244",
"i c #364649",
"p c #38474A",
"a c #35484D",
"s c #3D4A4D",
"d c #3A4D52",
"f c #3F5157",
"g c #424546",
"h c #434749",
"j c #444A4B",
"k c #4A4C4D",
"l c #434E51",
"z c #4E4F51",
"x c #455053",
"c c #4D5355",
"v c #44555C",
"b c #4F5658",
"n c #49595F",
"m c #515354",
"M c #515759",
"N c #555A5B",
"B c #5A5D5E",
"V c #4C5B62",
"C c #5D5F60",
"Z c #5E6061",
"A c #5A676F",
"S c #5C6971",
"D c #606162",
"F c #626E76",
"G c #647078",
"H c #69747C",
"J c #6E7982",
"K c #717A84",
"L c #77808A",
"P c #7C848F",
"I c #838994",
"U c #888D99",
"Y c #8F939F",
"T c #9094A0",
"R c #979AA7",
"E c #9FA1AD",
"W c #A3A4B2",
"Q c None",
/* pixels */
"QQQQQQQQQQQQQQQQQQQQQQQQQQQQQQQQQQQQQQQQQQQQQQQQQQQQQQQQQQQQQQQQQQQQQQQQQQQQQQQQQQQQQQQQQQQQQQQQQQQQ",
"QQQQQQQQQQQQQQQQQQQQQQQQQQQQQQQQQQQQQQQQQQQQQQQQQQQQQQQQQQQQQQQQQQQQQQQQQQQQQQQQQQQQQQQQQQQQQQQQQQQQ",
"QQQQQQQQQQQQQQQQQQQQQQQQQQQQQQQQQQQQQQQQQQQQQQQQQQQQQQQQQQQQQQQQQQQQQQQQQQQQQQQQQQQQQQQQQQQQQQQQQQQQ",
"QQQQQQQQQQQQQQQQQQQQQQQQQQQQQQQQQQQQQQQQQQQQQQQQQQQQQQQQQQQQQQQQQQQQQQQQQQQQQQQQQQQQQQQQQQQQQQQQQQQQ",
"QQQQQQQQQQQQQQQQQQQQQQQQQQQQQQQQQQQQQQQQQQQQQQQQQQQQQQQQQQQQQQQQQQQQQQQQQQQQQQQQQQQQQQQQQQQQQQQQQQQQ",
"QQQQQQQQQQQQQQQQQQQQQQQQQQQQQQQQQQQQQQQQQQQQQQQQQQQQQQQQQQQQQQQQQQQQQQQQQQQQQQQQQQQQQQQQQQQQQQQQQQQQ",
"QQQQQQQQQQQQQQQQQQQQQQQQQQQQQQQQQQQQQQQQQQQQQQQQQQQQQQQQQQQQQQQQQQQQQQQQQQQQQQQQQQQQQQQQQQQQQQQQQQQQ",
"QQQQQQQQQQQQQQQQQQQQQQQQQQQQQQQQQQQQQQQQQQQQQQQQQQQQQQQQQQQQQQQQQQQQQQQQQQQQQQQQQQQQQQQQQQQQQQQQQQQQ",
"QQQQQQQQQQQQQQQQQQQQQQQQQQQQQQQQQQQQQQQQQQQQQQQQQQQQQQQQQQQQQQQQQQQQQQQQQQQQQQQQQQQQQQQQQQQQQQQQQQQQ",
"QQQQQQQQQQQQQQQQQQQQQQQQQQQQQQQQQQQQQQQQQQQQQQQQQQQQQQQQQQQQQQQQQQQQQQQQQQQQQQQQQQQQQQQQQQQQQQQQQQQQ",
"QQQQQQQQQQQQQQQQQQQQQQQQQQQQQQQQQQQQQQQQQQQQQQQQQQQQQQQQQQQQQQQQQQQQQQQQQQQQQQQQQQQQQQQQQQQQQQQQQQQQ",
"QQQQQQQQQQQQQQQQQQQQQQQQQQQQQQQQQQQQQQQQQQQQQQQQQQQQQQQQQQQQQQQQQQQQQQQQQQQQQQQQQQQQQQQQQQQQQQQQQQQQ",
"QQQQQQQQQQQQQQQQQQQQQQQQQQQQQQQQQQQQQQQQQQQQQQQQQQQQQQQQQQQQQQQQQQQQQQQQQQQQQQQQQQQQQQQQQQQQQQQQQQQQ",
"QQQQQQQQQQQQQQQQQQQQQQQQQQQQQQQQQQQQQQQQQQQQQQQQQQQQQQQQQQQQQQQQQQQQQQQQQQQQQQQQQQQQQQQQQQQQQQQQQQQQ",
"QQQQQQQQQQQQQQQQQQQQQQQQQQQQQQQQQQQQQQQQQQQQQQQQQQQQQQQQQQQQQQQQQQQQQQQQQQQQQQQQQQQQQQQQQQQQQQQQQQQQ",
"QQQQQQQQQQQQQQQQQQQQQQQQQQQQQQQQQQQQQQQQQQQQQQQQQQQQQQQQQQQQQQQQQQQQQQQQQQQQQQQQQQQQQQQQQQQQQQQQQQQQ",
"QQQQQQQQQQQQQQQQQQQQQQQQQQQQQQQQQQQQQQQQQQQQQQQQQQQQQQQQQQQQQQQQQQQQQQQQQQQQQQQQQQQQQQQQQQQQQQQQQQQQ",
"QQQQQQQQQQQQQQQQQQQQQQQQQQQQQQQQQQQQQQQQQQQQQQQQQQQQQQQQQQQQQQQQQQQQQQQQQQQQQQQQQQQQQQQQQQQQQQQQQQQQ",
"QQQQQQQQQQQQQQQQQQQQQQQQQQQQQQQQQQQQQQQQQQQQQQQQQQQQQQQQQQQQQQQQQQQQQQQQQQQQQQQQQQQQQQQQQQQQQQQQQQQQ",
"QQQQQQQQQQQQQQQQQQQQQQQQQQQQQQQQQQQQQQQQQQQQQQQQQQQQQQQQQQQQQQQQQQQQQQQQQQQQQQQQQQQQQQQQQQQQQQQQQQQQ",
"QQQQQQQQQQQQQQQQQQQQQQQQQQQQQQQQQQQQQQQQQQQQQ4444QQQQQQQQQQQQQQQQQQQQQQQQQQQQQQQQQQQQQQQQQQQQQQQQQQQ",
"QQQQQQQQQQQQQQQQQQQQQQQQQQQQQQQQQQQQQQQQQQQ444444444QQQQQQQQQQQQQQQQQQQQQQQQQQQQQQQQQQQQQQQQQQQQQQQQ",
"QQQQQQQQQQQQQQQQQQQQQQQQQQQQQQQQQQQQQQQQQ444qyisiyq444QQQQQQQQQQQQQQQQQQQQQQQQQQQQQQQQQQQQQQQQQQQQQQ",
"QQQQQQQQQQQQQQQQQQQQQQQQQQQQQQQQQQQQQQQQ444jMZDZDZNl444QQQQQQQQQQQQQQQQQQQQQQQQQQQQQQQQQQQQQQQQQQQQQ",
"QQQQQQQQQQQQQQQQQQQQQQQQQQQQQQQQQQQQQQQ444MCCCCCCCCCN044QQQQQQQQQQQQQQQQQQQQQQQQQQQQQQQQQQQQQQQQQQQQ",
"QQQQQQQQQQQQQQQQQQQQQQQQQQQQQQQQQQQQQQ440cZZCCCCCCCCCN44QQQQQQQQQQQQQQQQQQQQQQQQQQQQQQQQQQQQQQQQQQQQ",
"QQQQQQQQQQQQQQQQQQQQQQQQQQQQQQQQQQQQQQ44sZCZCCCCCCCCCZx44QQQQQQQQQQQQQQQQQQQQQQQQQQQQQQQQQQQQQQQQQQQ",
"QQQQQQQQQQQQQQQQQQQQQQQQQQQQQQQQQQQQQ444BCCZCCCCCCCCCCBr4QQQQQQQQQQQQQQQQQQQQQQQQQQQQQQQQQQQQQQQQQQQ",
"QQQQQQQQQQQQQQQQQQQQQQQQQQQQQQQQQQQQQ44yDZBBCCCCCCCCCCCa44QQQQQQQQQQQQQQQQQQQQQQQQQQQQQQQQQQQQQQQQQQ",
"QQQQQQQQQQQQQQQQQQQQQQQQQQQQQQQQQQQQQ44sZCZZCCCCCCCCCCZs44QQQQQQQQQQQQQQQQQQQQQQQQQQQQQQQQQQQQQQQQQQ",
"QQQQQQQQQQQQQQQQQQQQQQQQQQQQQQQQQQQQQ44lZCCCCCCCZBCCZCBr44QQQQQQQQQQQQQQQQQQQQQQQQQQQQQQQQQQQQQQQQQQ",
"QQQQQQQQQQQQQQQQQQQQQQQQQQQQQQQQQQQQQ44lZCCCCCCCZZCCCZj44444QQQQQQQQQQQQQQQQQQQQQQQQQQQQQQQQQQQQQQQQ",
"QQQQQQQQQQQQQQQQQQQQQQQQQQQQQQQQQQQQQ44iZCCCCCCCCCCCBc44444444QQQQQQQQQQQQQQQQQQQQQQQQQQQQQQQQQQQQQQ",
"QQQQQQQQQQQQQQQQQQQQQQQQQQQQQQQQQQQQ4444CCCCCCCCCCZBs44444444444QQQQQQQQQQQQQQQQQQQQQQQQQQQQQQQQQQQQ",
"QQQQQQQQQQQQQQQQQQQQQQQQQQQQQQQQQQ444444lZCCCCCCDDxq4444444444444QQQQQQQQQQQQQQQQQQQQQQQQQQQQQQQQQQQ",
"QQQQQQQQQQQQQQQQQQQQQQQQQQQQQQQQQ4444444qNCCCCCZNq40444444444444444QQQQQQQQQQQQQQQQQQQQQQQQQQQQQQQQQ",
"QQQQQQQQQQQQQQQQQQQQQQQQQQQQQQQQ444444444qMBBNMp44444444444444444442QQQQQQQQQQQQQQQQQQQQQQQQQQQQQQQQ",
"QQQQQQQQQQQQQQQQQQQQQQQQQQQQQQQ444444444444yyq44444444444444444444442QQQQQQQQQQQQQQQQQQQQQQQQQQQQQQQ",
"QQQQQQQQQQQQQQQQQQQQQQQQQQQQQQ444444444444444444444444444444444444444;QQQQQQQQQQQQQQQQQQQQQQQQQQQQQQ",
"QQQQQQQQQQQQQQQQQQQQQQQQQQQQQ44444444444444444444444444444444444444442;QQQQQQQQQQQQQQQQQQQQQQQQQQQQQ",
"QQQQQQQQQQQQQQQQQQQQQQQQQQQQ444444444444444444444444444444444444444444<=QQQQQQQQQQQQQQQQQQQQQQQQQQQQ",
"QQQQQQQQQQQQQQQQQQQQQQQQQQQ4444444444444q444444444444444444444444424444;QQQQQQQQQQQQQQQQQQQQQQQQQQQQ",
"QQQQQQQQQQQQQQQQQQQQQQQQQQQ44444444444444444444440444444444444444slp4442=QQQQQQQQQQQQQQQQQQQQQQQQQQQ",
"QQQQQQQQQQQQQQQQQQQQQQQQQQ4444444444444444444444444444444444440qNDDDc044==QQQQQQQQQQQQQQQQQQQQQQQQQQ",
"QQQQQQQQQQQQQQQQQQQQQQQQQQ444444444444444444444444444444444444qNCCZCCc042=QQQQQQQQQQQQQQQQQQQQQQQQQQ",
"QQQQQQQQQQQQQQQQQQQQQQQQQ0444444444444444444444444444444444444lCDCNDZDy42==QQQQQQQQQQQQQQQQQQQQQQQQQ",
"QQQQQQQQQQQQQQQQQQQQQQQQQ444444444444444444444444444444444444qNCx44qcDc44-=QQQQQQQQQQQQQQQQQQQQQQQQQ",
"QQQQQQQQQQQQQQQQQQQQQQQQ4444444444444444444444444444444444444rDs24444lD44<==QQQQQQQQQQQQQQQQQQQQQQQQ",
"QQQQQQQQQQQQQQQQQQQQQQQQ4444444444444444044444444444444444444sm0444440By4;==QQQQQQQQQQQQQQQQQQQQQQQQ",
"QQQQQQQQQQQQQQQQQQQQQQQQ4444444444444440444444444444444440444li4440044ls42==QQQQQQQQQQQQQQQQQQQQQQQQ",
"QQQQQQQQQQQQQQQQQQQQQQQ44444444444444444444444444444444444444s004= O44rs42===QQQQQQQQQQQQQQQQQQQQQQQ",
"QQQQQQQQQQQQQQQQQQQQQQQ44444444444444444444444444444444444444i444O  %04i44===QQQQQQQQQQQQQQQQQQQQQQQ",
"QQQQQQQQQQQQQQQQQQQQQQQ444444444444444444444444444444444444440444   .q4q44===QQQQQQQQQQQQQQQQQQQQQQQ",
"QQQQQQQQQQQQQQQQQQQQQQQ44444440444444444444444444444444444444444%    24444===QQQQQQQQQQQQQQQQQQQQQQQ",
"QQQQQQQQQQQQQQQQQQQQQQQ44444444404444444444444444404444444444440#    =4444===QQQQQQQQQQQQQQQQQQQQQQQ",
"QQQQQQQQQQQQQQQQQQQQQQQ44444444444444444444444404444444444444440.    %4444===QQQQQQQQQQQQQQQQQQQQQQQ",
"QQQQQQQQQQQQQQQQQCCCCCc44444444444444444444444444444444444444440.    %4444===QQQQQQQQQQQQQQQQQQQQQQQ",
"QQQQQQQQQQQQQQQQCCCCCCc44444444444444444444444440444444444444440.    %4444===QQQQQQQQQQQQQQQQQQQQQQQ",
"QQQQQQQQQQQQQQQCCCCCCCb44444444044444444444444444444444444444440#    *4442===QQQQQQQQQQQQQQQQQQQQQQQ",
"QQQQQQQQQQQQQQQCCCCCCCM04444444444444444444444444444444404444440*   .2444;===QQQQQQQQQQQQQQQQQQQQQQQ",
"QQQQQQQQQQQQQQCCCCCCCCQ444444444444444444444444444444444444444442   .4444<===QQQQQQQQQQQQQQQQQQQQQQQ",
"QQQQQQQQQQQQQQCCCCQQQQQy44054444444444444444444444444444444444444O  $04442===QQQQQQQQQQQQQQQQQQQQQQQ",
"QQQQQQQQQQQQQQCCCQQQQQQNp4444444444444404444444444444440444444444=O+24444442;QQQQQQQQQQQQQQQQQQQQQQQ",
"QQQQQQQQQQQQQQCCQQQQQQQBBs4444444444444404444444444444444444444442*;444444444QQQQQQQQQQQQQQQQQQQQQQQ",
"QQQQQQQQQQQQQCCCQQQQQQQQBZs44444444444044444444444444q44444444444444444444444QQQQQQQQQQQQQQQQQQQQQQQ",
"QQQQQQQQQQQQQCCQQQQQQQQQBCZlq44444444444444444444444444444rr;;44444444444444444QQQQQQQQQQQQQQQQQQQQQ",
"QQQQQQQQQQQQCCCQQQQQQQQQcZCZby4444444444444444444444444444dJKV4;;44444444444444444QQQQQQQQQQQQQQQQQQ",
"QQQQQQQQCCCCCQQQQQQQQQQQQBCCZBs4444444444444444444444444444qfGTLv;4444444444444444000QQQQQQQQQQQQQQQ",
"QQQQQQQQQQQQQQQQQQQQQQQQQcCZCCDx44444444444444444444444444244;;vJTGft0444444444444#     QQQQQQQQQQQQ",
"QQQQQQQQQQQQQQQQQQQQQQQQQQNZCCCZNs44444444444444444444444ffffffddfFIPHAv444444440<       QQQQQQQQQQQ",
"QQQQQQQQQQQQQQQQQQQQQQQQQQQBCCCCZBMi444444444404444444442GHHHGHGGGSHIEWJ;44444444<      .QQQQQQQQQQQ",
"QQQQQQQQQQQQQQQQQQQQQQQQQQQjCCCCZBZBNy44444444444444444444244444vHRISt;444444440sB@     @QQQQQQQQQQQ",
"QQQQQQQQQQQQQQQQQQQQQQQQQQQQzCZCCCCCZDMpq44444444444444444qdvAKUJn4;2444222225ukkkgX   OQQQQQQQQQQQQ",
"QQQQQQQQQQQQQQQQQQQQQQQQQQQQQuBZCCCCCCZZNxiq24444444444444dGFnp2;4442;;==-<9ukkkkkkh6,,QQQQQQQQQQQQQ",
"QQQQQQQQQQQQQQQQQQQQQQQQQQQQQQ9mBZCZCCCCZBCBcsq4444444444400444442====<8uhkkkkkkkkku9QQQQQQQQQQQQQQQ",
"QQQQQQQQQQQQQQQQQQQQQQQQQQQQQQQ8kmBZCCCCBDCCCDDCcxpiwq4400q04q45<35wukkkkkkkkkhu95QQQQQQQQQQQQQQQQQQ",
"QQQQQQQQQQQQQQQQQQQQQQQQQQQQQQQQ,ghmNBBCDZBDCCCCZDDDDDBNNMmccckkzkkkzkhg981>QQQQQQQQQQQQQQQQQQQQQQQQ",
"QQQQQQQQQQQQQQQQQQQQQQQQQQQQQQQQQQ,ukkzcmNBBCBCCCZBBBBMmzczkkkkkkkkku>QQQQQQQQQQQQQQQQQQQQQQQQQQQQQQ",
"QQQQQQQQQQQQQQQQQQQQQQQQQQQQQQQQQQQQ:gkkkkkkkkkkkkkkkkkkkkkkkkkkkkuQQQQQQQQQQQQQQQQQQQQQQQQQQQQQQQQQ",
"QQQQQQQQQQQQQQQQQQQQQQQQQQQQQQQQQQQQQQ:uhkkkkkkkkkkkkkkkkkkkkhh97QQQQQQQQQQQQQQQQQQQQQQQQQQQQQQQQQQQ",
"QQQQQQQQQQQQQQQQQQQQQQQQQQQQQQQQQQQQQQQQQ:169ghkhkhkhhhguu861>QQQQQQQQQQQQQQQQQQQQQQQQQQQQQQQQQQQQQQ",
"QQQQQQQQQQQQQQQQQQQQQQQQQQQQQQQQQQQQQQQQQQQQQQQQQQQQQQQQQQQQQQQQQQQQQQQQQQQQQQQQQQQQQQQQQQQQQQQQQQQQ",
"QQQQQQQQQQQQQQQQQQQQQQQQQQQQQQQQQQQQQQQQQQQQQQQQQQQQQQQQQQQQQQQQQQQQQQQQQQQQQQQQQQQQQQQQQQQQQQQQQQQQ",
"QQQQQQQQQQQQQQQQQQQQQQQQQQQQQQQQQQQQQQQQQQQQQQQQQQQQQQQQQQQQQQQQQQQQQQQQQQQQQQQQQQQQQQQQQQQQQQQQQQQQ",
"QQQQQQQQQQQQQQQQQQQQQQQQQQQQQQQQQQQQQQQQQQQQQQQQQQQQQQQQQQQQQQQQQQQQQQQQQQQQQQQQQQQQQQQQQQQQQQQQQQQQ",
"QQQQQQQQQQQQQQQQQQQQQQQQQQQQQQQQQQQQQQQQQQQQQQQQQQQQQQQQQQQQQQQQQQQQQQQQQQQQQQQQQQQQQQQQQQQQQQQQQQQQ",
"QQQQQQQQQQQQQQQQQQQQQQQQQQQQQQQQQQQQQQQQQQQQQQQQQQQQQQQQQQQQQQQQQQQQQQQQQQQQQQQQQQQQQQQQQQQQQQQQQQQQ",
"QQQQQQQQQQQQQQQQQQQQQQQQQQQQQQQQQQQQQQQQQQQQQQQQQQQQQQQQQQQQQQQQQQQQQQQQQQQQQQQQQQQQQQQQQQQQQQQQQQQQ",
"QQQQQQQQQQQQQQQQQQQQQQQQQQQQQQQQQQQQQQQQQQQQQQQQQQQQQQQQQQQQQQQQQQQQQQQQQQQQQQQQQQQQQQQQQQQQQQQQQQQQ",
"QQQQQQQQQQQQQQQQQQQQQQQQQQQQQQQQQQQQQQQQQQQQQQQQQQQQQQQQQQQQQQQQQQQQQQQQQQQQQQQQQQQQQQQQQQQQQQQQQQQQ",
"QQQQQQQQQQQQQQQQQQQQQQQQQQQQQQQQQQQQQQQQQQQQQQQQQQQQQQQQQQQQQQQQQQQQQQQQQQQQQQQQQQQQQQQQQQQQQQQQQQQQ",
"QQQQQQQQQQQQQQQQQQQQQQQQQQQQQQQQQQQQQQQQQQQQQQQQQQQQQQQQQQQQQQQQQQQQQQQQQQQQQQQQQQQQQQQQQQQQQQQQQQQQ",
"QQQQQQQQQQQQQQQQQQQQQQQQQQQQQQQQQQQQQQQQQQQQQQQQQQQQQQQQQQQQQQQQQQQQQQQQQQQQQQQQQQQQQQQQQQQQQQQQQQQQ",
"QQQQQQQQQQQQQQQQQQQQQQQQQQQQQQQQQQQQQQQQQQQQQQQQQQQQQQQQQQQQQQQQQQQQQQQQQQQQQQQQQQQQQQQQQQQQQQQQQQQQ",
"QQQQQQQQQQQQQQQQQQQQQQQQQQQQQQQQQQQQQQQQQQQQQQQQQQQQQQQQQQQQQQQQQQQQQQQQQQQQQQQQQQQQQQQQQQQQQQQQQQQQ",
"QQQQQQQQQQQQQQQQQQQQQQQQQQQQQQQQQQQQQQQQQQQQQQQQQQQQQQQQQQQQQQQQQQQQQQQQQQQQQQQQQQQQQQQQQQQQQQQQQQQQ",
"QQQQQQQQQQQQQQQQQQQQQQQQQQQQQQQQQQQQQQQQQQQQQQQQQQQQQQQQQQQQQQQQQQQQQQQQQQQQQQQQQQQQQQQQQQQQQQQQQQQQ",
"QQQQQQQQQQQQQQQQQQQQQQQQQQQQQQQQQQQQQQQQQQQQQQQQQQQQQQQQQQQQQQQQQQQQQQQQQQQQQQQQQQQQQQQQQQQQQQQQQQQQ",
"QQQQQQQQQQQQQQQQQQQQQQQQQQQQQQQQQQQQQQQQQQQQQQQQQQQQQQQQQQQQQQQQQQQQQQQQQQQQQQQQQQQQQQQQQQQQQQQQQQQQ",
"QQQQQQQQQQQQQQQQQQQQQQQQQQQQQQQQQQQQQQQQQQQQQQQQQQQQQQQQQQQQQQQQQQQQQQQQQQQQQQQQQQQQQQQQQQQQQQQQQQQQ"
};
