/* XPM */
static char *_632730102077[] = {
/* columns rows colors chars-per-pixel */
"100 100 78 1 ",
"  c #010101",
". c #060A0B",
"X c #090B0C",
"o c #0F1719",
"O c #131515",
"+ c #131C1D",
"@ c #1B1C1D",
"# c #131E20",
"$ c #152325",
"% c #1C2123",
"& c #182729",
"* c #1A2A2D",
"= c #1C2E31",
"- c #1E3135",
"; c #1E3539",
": c #212627",
"> c #24292A",
", c #2B2E2F",
"< c #282E30",
"1 c #223336",
"2 c #2C3234",
"3 c #21363A",
"4 c #293739",
"5 c #243A3E",
"6 c #2F393C",
"7 c #303738",
"8 c #3A3D3F",
"9 c #34393A",
"0 c #263C41",
"q c #2A3E42",
"w c #333C40",
"e c #3A3F41",
"r c #274044",
"t c #2D4145",
"y c #2F4348",
"u c #324346",
"i c #3C4244",
"p c #344549",
"a c #38474A",
"s c #37494F",
"d c #3C494C",
"f c #374A50",
"g c #3B4D53",
"h c #414546",
"j c #434748",
"k c #454A4B",
"l c #4A4C4D",
"z c #434E51",
"x c #4D4F50",
"c c #475153",
"v c #4C5254",
"b c #44555C",
"n c #4F5658",
"m c #525456",
"M c #535758",
"N c #55595A",
"B c #5A5D5E",
"V c #4B5A61",
"C c #5D5F60",
"Z c #5E6061",
"A c #54636A",
"S c #58666D",
"D c #5D6A72",
"F c #606162",
"G c #616D76",
"H c #66717A",
"J c #69747D",
"K c #717A84",
"L c #77808A",
"P c #7C838E",
"I c #7F8690",
"U c #868C97",
"Y c #888E9A",
"T c #9497A4",
"R c #9498A4",
"E c #9D9FAC",
"W c #A7A7B5",
"Q c None",
/* pixels */
"QQQQQQQQQQQQQQQQQQQQQQQQQQQQQQQQQQQQQQQQQQQQQQQQQQQQQQQQQQQQQQQQQQQQQQQQQQQQQQQQQQQQQQQQQQQQQQQQQQQQ",
"QQQQQQQQQQQQQQQQQQQQQQQQQQQQQQQQQQQQQQQQQQQQQQQQQQQQQQQQQQQQQQQQQQQQQQQQQQQQQQQQQQQQQQQQQQQQQQQQQQQQ",
"QQQQQQQQQQQQQQQQQQQQQQQQQQQQQQQQQQQQQQQQQQQQQQQQQQQQQQQQQQQQQQQQQQQQQQQQQQQQQQQQQQQQQQQQQQQQQQQQQQQQ",
"QQQQQQQQQQQQQQQQQQQQQQQQQQQQQQQQQQQQQQQQQQQQQQQQQQQQQQQQQQQQQQQQQQQQQQQQQQQQQQQQQQQQQQQQQQQQQQQQQQQQ",
"QQQQQQQQQQQQQQQQQQQQQQQQQQQQQQQQQQQQQQQQQQQQQQQQQQQQQQQQQQQQQQQQQQQQQQQQQQQQQQQQQQQQQQQQQQQQQQQQQQQQ",
"QQQQQQQQQQQQQQQQQQQQQQQQQQQQQQQQQQQQQQQQQQQQQQQQQQQQQQQQQQQQQQQQQQQQQQQQQQQQQQQQQQQQQQQQQQQQQQQQQQQQ",
"QQQQQQQQQQQQQQQQQQQQQQQQQQQQQQQQQQQQQQQQQQQQQQQQQQQQQQQQQQQQQQQQQQQQQQQQQQQQQQQQQQQQQQQQQQQQQQQQQQQQ",
"QQQQQQQQQQQQQQQQQQQQQQQQQQQQQQQQQQQQQQQQQQQQQQQQQQQQQQQQQQQQQQQQQQQQQQQQQQQQQQQQQQQQQQQQQQQQQQQQQQQQ",
"QQQQQQQQQQQQQQQQQQQQQQQQQQQQQQQQQQQQQQQQQQQQQQQQQQQQQQQQQQQQQQQQQQQQQQQQQQQQQQQQQQQQQQQQQQQQQQQQQQQQ",
"QQQQQQQQQQQQQQQQQQQQQQQQQQQQQQQQQQQQQQQQQQQQQQQQQQQQQQQQQQQQQQQQQQQQQQQQQQQQQQQQQQQQQQQQQQQQQQQQQQQQ",
"QQQQQQQQQQQQQQQQQQQQQQQQQQQQQQQQQQQQQQQQQQQQQQQQQQQQQQQQQQQQQQQQQQQQQQQQQQQQQQQQQQQQQQQQQQQQQQQQQQQQ",
"QQQQQQQQQQQQQQQQQQQQQQQQQQQQQQQQQQQQQQQQQQQQQQQQQQQQQQQQQQQQQQQQQQQQQQQQQQQQQQQQQQQQQQQQQQQQQQQQQQQQ",
"QQQQQQQQQQQQQQQQQQQQQQQQQQQQQQQQQQQQQQQQQQQQQQQQQQQQQQQQQQQQQQQQQQQQQQQQQQQQQQQQQQQQQQQQQQQQQQQQQQQQ",
"QQQQQQQQQQQQQQQQQQQQQQQQQQQQQQQQQQQQQQQQQQQQQQQQQQQQQQQQQQQQQQQQQQQQQQQQQQQQQQQQQQQQQQQQQQQQQQQQQQQQ",
"QQQQQQQQQQQQQQQQQQQQQQQQQQQQQQQQQQQQQQQQQQQQQQQQQQQQQQQQQQQQQQQQQQQQQQQQQQQQQQQQQQQQQQQQQQQQQQQQQQQQ",
"QQQQQQQQQQQQQQQQQQQQQQQQQQQQQQQQQQQQQQQQQQQQQQQQQQQQQQQQQQQQQQQQQQQQQQQQQQQQQQQQQQQQQQQQQQQQQQQQQQQQ",
"QQQQQQQQQQQQQQQQQQQQQQQQQQQQQQQQQQQQQQQQQQQQQQQQQQQQQQQQQQQQQQQQQQQQQQQQQQQQQQQQQQQQQQQQQQQQQQQQQQQQ",
"QQQQQQQQQQQQQQQQQQQQQQQQQQQQQQQQQQQQQQQQQQQQQQQQQQQQQQQQQQQQQQQQQQQQQQQQQQQQQQQQQQQQQQQQQQQQQQQQQQQQ",
"QQQQQQQQQQQQQQQQQQQQQQQQQQQQQQQQQQQQQQQQQQQQQQQQQQQQQQQQQQQQQQQQQQQQQQQQQQQQQQQQQQQQQQQQQQQQQQQQQQQQ",
"QQQQQQQQQQQQQQQQQQQQQQQQQQQQQQQQQQQQQQQQQQQQQQQQQQQQQQQQQQQQQQQQQQQQQQQQQQQQQQQQQQQQQQQQQQQQQQQQQQQQ",
"QQQQQQQQQQQQQQQQQQQQQQQQQQQQQQQQQQQQQQQQQQQQQQQQ555555555QQQQQQQQQQQQQQQQQQQQQQQQQQQQQQQQQQQQQQQQQQQ",
"QQQQQQQQQQQQQQQQQQQQQQQQQQQQQQQQQQQQQQQQQQQQQQQ5550qut55550QQQQQQQQQQQQQQQQQQQQQQQQQQQQQQQQQQQQQQQQQ",
"QQQQQQQQQQQQQQQQQQQQQQQQQQQQQQQQQQQQQQQQQQQQQ555uvZFZFZcu555QQQQQQQQQQQQQQQQQQQQQQQQQQQQQQQQQQQQQQQQ",
"QQQQQQQQQQQQQQQQQQQQQQQQQQQQQQQQQQQQQQQQQQQQQ5qcCZCCCCCZBz555QQQQQQQQQQQQQQQQQQQQQQQQQQQQQQQQQQQQQQQ",
"QQQQQQQQQQQQQQQQQQQQQQQQQQQQQQQQQQQQQQQQQQQQ55nCZZZBCCCCCCc555QQQQQQQQQQQQQQQQQQQQQQQQQQQQQQQQQQQQQQ",
"QQQQQQQQQQQQQQQQQQQQQQQQQQQQQQQQQQQQQQQQQQQ55zCCBBZZCCCCCCCp55QQQQQQQQQQQQQQQQQQQQQQQQQQQQQQQQQQQQQQ",
"QQQQQQQQQQQQQQQQQQQQQQQQQQQQQQQQQQQQQQQQQQQ5qNZZZZCCCCCCCCZM555QQQQQQQQQQQQQQQQQQQQQQQQQQQQQQQQQQQQQ",
"QQQQQQQQQQQQQQQQQQQQQQQQQQQQQQQQQQQQQQQQQQQ5aBCCZBCCCCCCCCCZt55QQQQQQQQQQQQQQQQQQQQQQQQQQQQQQQQQQQQQ",
"QQQQQQQQQQQQQQQQQQQQQQQQQQQQQQQQQQQQQQQQQQ55dZCZZCCCCZBCCCZZd55QQQQQQQQQQQQQQQQQQQQQQQQQQQQQQQQQQQQQ",
"QQQQQQQQQQQQQQQQQQQQQQQQQQQQQQQQQQQQQQQQQQ55uBCZCCCCCCZZCCCZz55QQQQQQQQQQQQQQQQQQQQQQQQQQQQQQQQQQQQQ",
"QQQQQQQQQQQQQQQQQQQQQQQQQQQQQQQQQQQQQQQQQ5550vZZZCCCCCCCCCCZz55QQQQQQQQQQQQQQQQQQQQQQQQQQQQQQQQQQQQQ",
"QQQQQQQQQQQQQQQQQQQQQQQQQQQQQQQQQQQQQQ55555550MZBCCCCCCCCCCZa55QQQQQQQQQQQQQQQQQQQQQQQQQQQQQQQQQQQQQ",
"QQQQQQQQQQQQQQQQQQQQQQQQQQQQQQQQQQQQQ5555555555zCCCCCCCCCCCZq55QQQQQQQQQQQQQQQQQQQQQQQQQQQQQQQQQQQQQ",
"QQQQQQQQQQQQQQQQQQQQQQQQQQQQQQQQQQQ5555555555555aNCCCCCCCCCv05555QQQQQQQQQQQQQQQQQQQQQQQQQQQQQQQQQQQ",
"QQQQQQQQQQQQQQQQQQQQQQQQQQQQQQQQQ5555555555555555qdBZCCCCCBt555555QQQQQQQQQQQQQQQQQQQQQQQQQQQQQQQQQQ",
"QQQQQQQQQQQQQQQQQQQQQQQQQQQQQQQQ55555555555555555550zBCCCCu555555553QQQQQQQQQQQQQQQQQQQQQQQQQQQQQQQQ",
"QQQQQQQQQQQQQQQQQQQQQQQQQQQQQQQ55555555555555555555553uaa53555555555;QQQQQQQQQQQQQQQQQQQQQQQQQQQQQQQ",
"QQQQQQQQQQQQQQQQQQQQQQQQQQQQQQ555555555555555555555555555555555555555;QQQQQQQQQQQQQQQQQQQQQQQQQQQQQQ",
"QQQQQQQQQQQQQQQQQQQQQQQQQQQQQ55550555555555555555555555555555555555555=QQQQQQQQQQQQQQQQQQQQQQQQQQQQQ",
"QQQQQQQQQQQQQQQQQQQQQQQQQQQQ5555555555555555555555555555555555555555551=QQQQQQQQQQQQQQQQQQQQQQQQQQQQ",
"QQQQQQQQQQQQQQQQQQQQQQQQQQQQ5555555555555555555555555555555555055555555=QQQQQQQQQQQQQQQQQQQQQQQQQQQQ",
"QQQQQQQQQQQQQQQQQQQQQQQQQQQ5550;uau3555555555555555555555555555555555553=QQQQQQQQQQQQQQQQQQQQQQQQQQQ",
"QQQQQQQQQQQQQQQQQQQQQQQQQQ55555vCBCn050555555555555555555555555555555555==QQQQQQQQQQQQQQQQQQQQQQQQQQ",
"QQQQQQQQQQQQQQQQQQQQQQQQQQ5555zZCCCCM55555555555555555555555555555555555-=QQQQQQQQQQQQQQQQQQQQQQQQQQ",
"QQQQQQQQQQQQQQQQQQQQQQQQQ5555yCCFBZZCd55555555555555555505555555505555553==QQQQQQQQQQQQQQQQQQQQQQQQQ",
"QQQQQQQQQQQQQQQQQQQQQQQQQ5555cFMaquvZn05555555555555555555555555555555555-=QQQQQQQQQQQQQQQQQQQQQQQQQ",
"QQQQQQQQQQQQQQQQQQQQQQQQ55550Cv05555zFt5555550555555555555555555555555555-==QQQQQQQQQQQQQQQQQQQQQQQQ",
"QQQQQQQQQQQQQQQQQQQQQQQQ5550qBq555550Na55555555555555555555555555555555551==QQQQQQQQQQQQQQQQQQQQQQQQ",
"QQQQQQQQQQQQQQQQQQQQQQQQ5555dv5500555dz55555555555555055555555555555555551==QQQQQQQQQQQQQQQQQQQQQQQQ",
"QQQQQQQQQQQQQQQQQQQQQQQ55555du50+.-55qd55555555555555555555555555555555q55-=QQQQQQQQQQQQQQQQQQQQQQQQ",
"QQQQQQQQQQQQQQQQQQQQQQQ55555d55*  +555d55555555555555555555555555555555555===QQQQQQQQQQQQQQQQQQQQQQQ",
"QQQQQQQQQQQQQQQQQQQQQQQ55555q5q.   555q55555555555555555555555555555555555===QQQQQQQQQQQQQQQQQQQQQQQ",
"QQQQQQQQQQQQQQQQQQQQQQQ55555553.   *55555555550555555555555555555555555q55===QQQQQQQQQQQQQQQQQQQQQQQ",
"QQQQQQQQQQQQQQQQQQQQQQQ5555555*.   +05555055555555555555555505555555555555-==QQQQQQQQQQQQQQQQQQQQQQQ",
"QQQQQQQQQQQQQQQQQQQQQQQ5555555$    .q5555555555555555555555555555555555555*==QQQQQQQQQQQQQQQQQQQQQQQ",
"QQQQQQQQQQQQQQQQQQQQQQQ5555550$    .q55555555555555555555555555555555555551**vZZCCQQQQQQQQQQQQQQQQQQ",
"QQQQQQQQQQQQQQQQQQQQQQQ5555555$    .05555555555555555555555555555555555555===vCCCCCCQQQQQQQQQQQQQQQQ",
"QQQQQQQQQQQQQQQQQQQQQQQ5555550*    o05555555555555555055555555555555555555===vCCCCCCCQQQQQQQQQQQQQQQ",
"QQQQQQQQQQQQQQQQQQQQQQQ5555550-    &55555555555555555555550555555555555553===vCCCCCCCQQQQQQQQQQQQQQQ",
"QQQQQQQQQQQQQQQQQQQQQQQ55555550    355550555555555555555555555555555555551===cCCCCCCCCQQQQQQQQQQQQQQ",
"QQQQQQQQQQQQQQQQQQQQQQQ55555550o  X55555555555555555055555555555555555555-==1QQQQQCCCCQQQQQQQQQQQQQQ",
"QQQQQQQQQQQQQQQQQQQQQQQ555555555..*55555555555555555655555555555555555553==1hQQQQQQCCCQQQQQQQQQQQQQQ",
"QQQQQQQQQQQQQQQQQQQQQQQ555555555=*555555555555550555555555555555555555553*4klQQQQQQQCCQQQQQQQQQQQQQQ",
"QQQQQQQQQQQQQQQQQQQQQQQ5555555553555555555555555555555555555055555555555=6kliQQQQQQQCCCQQQQQQQQQQQQQ",
"QQQQQQQQQQQQQQQQQQQQQQ555555555555555555505555505555555555555555555555539lllQQQQQQQQCCCQQQQQQQQQQQQQ",
"QQQQQQQQQQQQQQQQQQQ55555555555555055;5fVDf55555555555555555555555555555ixlliQQQQQQQQQCCCQQQQQQQQQQQQ",
"QQQQQQQQQQQQQQQQr0555555555555555;-fDLJSbq555555555555555555555555555alllllQQQQQQQQQQQCZCCCQQQQQQQQQ",
"QQQQQQQQQQQQ    .$05555555555553qDTPVy005555555555555555555555555555zmlllliQQQQQQQQQQQQQCCQQQQQQQQQQ",
"QQQQQQQQQQQX      3555555555tfAPRGu0tryrrtr05555555555555555555555qNBllllkQQQQQQQQQQQQQQQQQQQQQQQQQQ",
"QQQQQQQQQQQ       155555555;KWEPGDHHJJJJJJH;55555555555055555553uzCBklllkiQQQQQQQQQQQQQQQQQQQQQQQQQQ",
"QQQQQQQQQQQO     XNa55555555sgVJUTKb0tyyspy5555555555555555555uvBZmllllliQQQQQQQQQQQQQQQQQQQQQQQQQQQ",
"QQQQQQQQQQQQ.    jZCNa55555555555rAIEKV055555555555555555555tnFZFmllllljQQQQQQQQQQQQQQQQQQQQQQQQQQQQ",
"QQQQQQQQQQQQ2@O@ellxmNmdt555555555;;;bJYKf555555555555550tanFZBBmkllllhQQQQQQQQQQQQQQQQQQQQQQQQQQQQQ",
"QQQQQQQQQQQQQQkjjllllllllkiuu553355555;;sr555555555556pknBZZCBmllllllhQQQQQQQQQQQQQQQQQQQQQQQQQQQQQQ",
"QQQQQQQQQQQQQQQQQQwijklllllllxncdaw5;;0;5;;05355qpdvBBBCBBZBmllllllxeQQQQQQQQQQQQQQQQQQQQQQQQQQQQQQQ",
"QQQQQQQQQQQQQQQQQQQQQQQ>78hkkklmBBFFZBMnccvvnMBFZZZZCCCBBBvlllllllk,QQQQQQQQQQQQQQQQQQQQQQQQQQQQQQQQ",
"QQQQQQQQQQQQQQQQQQQQQQQQQQQQ@78hllxmmmBBCBZZZZBZCCBBBmmmllllllllj8QQQQQQQQQQQQQQQQQQQQQQQQQQQQQQQQQQ",
"QQQQQQQQQQQQQQQQQQQQQQQQQQQQQQQQ,jllxlllzmmxlmmllvmlllllllllllj2QQQQQQQQQQQQQQQQQQQQQQQQQQQQQQQQQQQQ",
"QQQQQQQQQQQQQQQQQQQQQQQQQQQQQQQQQQ>ejxlllllllllllllllxlxllllj<QQQQQQQQQQQQQQQQQQQQQQQQQQQQQQQQQQQQQQ",
"QQQQQQQQQQQQQQQQQQQQQQQQQQQQQQQQQQQQQ:9hhjjjkkllllklkkjjj82QQQQQQQQQQQQQQQQQQQQQQQQQQQQQQQQQQQQQQQQQ",
"QQQQQQQQQQQQQQQQQQQQQQQQQQQQQQQQQQQQQQQQQQQ::>,,,<,,,>:QQQQQQQQQQQQQQQQQQQQQQQQQQQQQQQQQQQQQQQQQQQQQ",
"QQQQQQQQQQQQQQQQQQQQQQQQQQQQQQQQQQQQQQQQQQQQQQQQQQQQQQQQQQQQQQQQQQQQQQQQQQQQQQQQQQQQQQQQQQQQQQQQQQQQ",
"QQQQQQQQQQQQQQQQQQQQQQQQQQQQQQQQQQQQQQQQQQQQQQQQQQQQQQQQQQQQQQQQQQQQQQQQQQQQQQQQQQQQQQQQQQQQQQQQQQQQ",
"QQQQQQQQQQQQQQQQQQQQQQQQQQQQQQQQQQQQQQQQQQQQQQQQQQQQQQQQQQQQQQQQQQQQQQQQQQQQQQQQQQQQQQQQQQQQQQQQQQQQ",
"QQQQQQQQQQQQQQQQQQQQQQQQQQQQQQQQQQQQQQQQQQQQQQQQQQQQQQQQQQQQQQQQQQQQQQQQQQQQQQQQQQQQQQQQQQQQQQQQQQQQ",
"QQQQQQQQQQQQQQQQQQQQQQQQQQQQQQQQQQQQQQQQQQQQQQQQQQQQQQQQQQQQQQQQQQQQQQQQQQQQQQQQQQQQQQQQQQQQQQQQQQQQ",
"QQQQQQQQQQQQQQQQQQQQQQQQQQQQQQQQQQQQQQQQQQQQQQQQQQQQQQQQQQQQQQQQQQQQQQQQQQQQQQQQQQQQQQQQQQQQQQQQQQQQ",
"QQQQQQQQQQQQQQQQQQQQQQQQQQQQQQQQQQQQQQQQQQQQQQQQQQQQQQQQQQQQQQQQQQQQQQQQQQQQQQQQQQQQQQQQQQQQQQQQQQQQ",
"QQQQQQQQQQQQQQQQQQQQQQQQQQQQQQQQQQQQQQQQQQQQQQQQQQQQQQQQQQQQQQQQQQQQQQQQQQQQQQQQQQQQQQQQQQQQQQQQQQQQ",
"QQQQQQQQQQQQQQQQQQQQQQQQQQQQQQQQQQQQQQQQQQQQQQQQQQQQQQQQQQQQQQQQQQQQQQQQQQQQQQQQQQQQQQQQQQQQQQQQQQQQ",
"QQQQQQQQQQQQQQQQQQQQQQQQQQQQQQQQQQQQQQQQQQQQQQQQQQQQQQQQQQQQQQQQQQQQQQQQQQQQQQQQQQQQQQQQQQQQQQQQQQQQ",
"QQQQQQQQQQQQQQQQQQQQQQQQQQQQQQQQQQQQQQQQQQQQQQQQQQQQQQQQQQQQQQQQQQQQQQQQQQQQQQQQQQQQQQQQQQQQQQQQQQQQ",
"QQQQQQQQQQQQQQQQQQQQQQQQQQQQQQQQQQQQQQQQQQQQQQQQQQQQQQQQQQQQQQQQQQQQQQQQQQQQQQQQQQQQQQQQQQQQQQQQQQQQ",
"QQQQQQQQQQQQQQQQQQQQQQQQQQQQQQQQQQQQQQQQQQQQQQQQQQQQQQQQQQQQQQQQQQQQQQQQQQQQQQQQQQQQQQQQQQQQQQQQQQQQ",
"QQQQQQQQQQQQQQQQQQQQQQQQQQQQQQQQQQQQQQQQQQQQQQQQQQQQQQQQQQQQQQQQQQQQQQQQQQQQQQQQQQQQQQQQQQQQQQQQQQQQ",
"QQQQQQQQQQQQQQQQQQQQQQQQQQQQQQQQQQQQQQQQQQQQQQQQQQQQQQQQQQQQQQQQQQQQQQQQQQQQQQQQQQQQQQQQQQQQQQQQQQQQ",
"QQQQQQQQQQQQQQQQQQQQQQQQQQQQQQQQQQQQQQQQQQQQQQQQQQQQQQQQQQQQQQQQQQQQQQQQQQQQQQQQQQQQQQQQQQQQQQQQQQQQ",
"QQQQQQQQQQQQQQQQQQQQQQQQQQQQQQQQQQQQQQQQQQQQQQQQQQQQQQQQQQQQQQQQQQQQQQQQQQQQQQQQQQQQQQQQQQQQQQQQQQQQ",
"QQQQQQQQQQQQQQQQQQQQQQQQQQQQQQQQQQQQQQQQQQQQQQQQQQQQQQQQQQQQQQQQQQQQQQQQQQQQQQQQQQQQQQQQQQQQQQQQQQQQ",
"QQQQQQQQQQQQQQQQQQQQQQQQQQQQQQQQQQQQQQQQQQQQQQQQQQQQQQQQQQQQQQQQQQQQQQQQQQQQQQQQQQQQQQQQQQQQQQQQQQQQ"
};
