/* XPM */
static char *_632733711727[] = {
/* columns rows colors chars-per-pixel */
"100 50 92 1 ",
"  c #000000",
". c #050708",
"X c #060A0B",
"o c #090C0D",
"O c #0C1415",
"+ c #0E1718",
"@ c #0F191A",
"# c #101010",
"$ c #111B1D",
"% c #181919",
"& c #131F21",
"* c #152224",
"= c #18272A",
"- c #1A2B2E",
"; c #1C2E31",
": c #1E3235",
"> c #1E3539",
", c #252526",
"< c #282929",
"1 c #203337",
"2 c #21363A",
"3 c #2C3638",
"4 c #243A3E",
"5 c #333535",
"6 c #263C41",
"7 c #293E42",
"8 c #2D4144",
"9 c #2F4348",
"0 c #324346",
"q c #344549",
"w c #38474A",
"e c #35484D",
"r c #3C4A4C",
"t c #374B50",
"y c #3C4E53",
"u c #434545",
"i c #424B4D",
"p c #4A4C4C",
"a c #434E51",
"s c #4E4F50",
"d c #475153",
"f c #4C5355",
"g c #44545B",
"h c #4E5659",
"j c #525354",
"k c #515658",
"l c #555A5B",
"z c #5B5D5E",
"x c #4D5C63",
"c c #505F67",
"v c #5D5F60",
"b c #5E6061",
"n c #56646C",
"m c #59666D",
"M c #5B686F",
"N c #5C6971",
"B c #626365",
"V c #656668",
"C c #67696B",
"Z c #696B6E",
"A c #6B6D71",
"S c #636F78",
"D c #6F7075",
"F c #647079",
"G c #6A737B",
"H c #717277",
"J c #76777E",
"K c #77797F",
"L c #6C7780",
"P c #727B85",
"I c #7A7C83",
"U c #767E89",
"Y c #787F8A",
"T c #7E8087",
"R c #7A818B",
"E c #82848C",
"W c #858790",
"Q c #848994",
"! c #8A8C95",
"~ c #878D98",
"^ c #8A8F9A",
"/ c #8D919D",
"( c #91939E",
") c #9397A3",
"_ c #9699A5",
"` c #989BA7",
"' c #9B9DAA",
"] c #9FA1AE",
"[ c #A0A2AF",
"{ c #A3A4B2",
"} c #A6A8B6",
"| c #A9A9B7",
/* pixels */
"444444444464444444444444444444446jzbbvly44444444444444444wlzbbzl044444444444444444444444444444444444",
"44444444444444444444444444444448zbvvvvzbd444444444444444rBbzbbbzzq4444444444444444444444444444444444",
"4444444444444444444444444444446zbvvvbzbbzf4444444444444rzbbbzbzbvBw444444444444444444444444444444444",
"444444444444444444644444444444jBbbvvbbbzBzq444444444447bbzzbbbzbbzz644444444444444444444744444444444",
"44444444444444444444444444444wBzvvbbbbvvzzz44444444444kbvvvvbzzbvvva44444444444444444464444444444444",
"44444444444444444444444444444bbzvbbljzbvBzBi444444444wBzvvvvklbbvvvB44444444444444444444444444444444",
"4444444444444444444444444444wzbzzr4>4>8fzbbz444444444fvzBkq2242wlvvva4444444444444444444444444444444",
"4444444444444444444444444444dbbz64444444wBbzq44444444lvBa44444446hbvz4444444444444444444444444444444",
"4444444444444464444444444444lbl4444444444wvvi44444447Bbd4444444442fbz0444444444444444444444444444448",
"0444444444444444444444444444zbq44444664444hvf4444444ibz444444664447zvr44444444444444444444444444446l",
"l444444444444444444444444448Bf44444:.o24446Bl4444442fB844444* $4444rva4444444444444444444444444444sv",
"zf4444444444444444444444444wB644444    2444iv4444444lj44444*   O6444zf444644444444444444444444444ibB",
"bBr444444444444444444444444af44446O    +4446B444444>Bw44446     -444rk444444444444444444444444440zbv",
"vvb044444444444444444444444ar44444      2444l4444444z64446@     O4447f44444444444444444444444444lvvv",
"zBzz44444444444444444444444i84444@      :444d444444>z44446o     .2447i4444444444444444464444444lvvvv",
"zzzBz7444444444444444444444r64446o      @444r4444444a4444:       1444r444444444444444444444444lbvvvv",
"Bzbzbj444444444444444444444744444o      .6446444444476444;       ;444644444444444444444444444avvvvvv",
"BzzBzBr4444444444444444444444444:        6444444444444444-       +64444444444444464444444444qbvvvvvv",
"zbzzbbbw444444444444444444444444;        6444444444444444-       .64444444444444444444444447zvvvvvvv",
"bzBzzzbz7444444444444444444446441        6444444444444444-       o6444444444444444444444444kvvvvvvvv",
"vvvvbvvvl444444444444444444444444.       6444444444444444;       $644444444444444444444444fvvvvvvvvv",
"vvvvvvvvBk44444444444444444444444o      .6444444444444444;       ;44444444444444444444444ivvvvvvvvvv",
"vvvvvvvvzbi4444444444444444444444O      &64444444444444442.      ;4444444444446444444444rvvvvvvvvvvv",
"vvvvvvvvbzBw444444444444446444444-      -64444444444444444O     X:444444444444444444444qvvvvvvvvvvvv",
"vvvvvvvvvvvBw444444444444444444442.    .144444446444444444-     O4444444444444444444447vvvvvvvvvvvvv",
"vvvvvvvvvvzzz044444444444444444442=    $4444444444444444441+    ;444444444444444444647vvvvvvvvvvvvvv",
"vvvvvvvvvvbvbB04>24464444444444444;$  +:4444444444444444442-o  =:64444444444444442247zvvvvvvvvvvvvvv",
"vvvvvvvvvvvvzbbr_Nq2>44464444444442;--;:4444444444444444444;;--;>444644444444444yYPwBvvvvvvvvvvvvvvv",
"vvvvvvvvvvvvvvvB^_|/ny8>>6444444444;;;;444444444444444444442;;;:444444464644egL'}^Ivbvvvvvvvvvvvvvvv",
"vvvvvvvvvvvvvvvvvltG]{)Rx>>444444444;:2444444444444444444444>;:444444444:7MQ`}^cehzvvvvvvvvvvvvvvvvv",
"vvvvvvvvvvvvvvvvvbk4>yP)]{Pg86>644444644444444444444444444444644646>>6enR}`^m9:7abvvvvvvvvvvvvvvvvvv",
"vvvvvvvvvvvvvvvvvvbzw>>8tnQ|`QS9:24444444444444444444444444444446>:xL^{]Pxq624qlbbvvvvvvvvvvvvvvvvvv",
"vvvvvvvvvvvvvzvvvzvzBa444624m/'{)N766444444444444644444444444446tP[[`Yg>66663ivvvvzzbzbvvvvvvvvvvvvv",
"vvvvvvvvvvvvvzVVVVVBVVva7q7977ymP)[~Lx6>44444444444444444444qnR)[~Lxq7797q7tbVVBBVBVVzvvvvvvvvvvvvvv",
"vvvvvvvvvvvvv'['[[[[['[[{]'{{][[[[]][['74444444444444444444x{[]]['[[]][]][[[]]]][[[[[Ivvvvvvvvvvvvvv",
"vvvvvvvvvvvvzIKIKJKKKIKKJPGncxSY/`[[^Pn644444444444444444448FR){')!PMxcmAJPIKKKKPKKKKCvvvvvvvvvvvvvv",
"vvvvvvvvvvvvvvvvzvvvbzbzzzzZI`'[]Ux76644444444444644444444446669M~}[`!Gvzvvvvvvvvvvvbvvvvvvvvvvvvvvv",
"vvvvvvvvvvvvvvvvvvvvzbCDI({{_!Pf>:2466444444-=&+O+O+==14444444464:6cY/'}'!JABzzvvvvbvvvvvvvvvvvvvvvv",
"vvvvvvvvvvvvvvvvzzzHW`'{'WDVbbbzla744644446$           ;4444444>7jzzbbVVI/{]`)TZlzzbvvvvvvvvvvvvvvvv",
"vvvvvvvvvvvvvvvbI(}[_!IVzzzvbzbzvvBkr776446            @44668qalbvvvbbvvzlzAE('][!Dvvvvvvvvvvvvvvvvv",
"vvvvvvvvvvvvvvvB_EDCBzzbbbzzbbbbvvvvvvvlhd3            OihkzzbbvvvvvvvvvvvbzzzVZK!Wbvvvvvvvvvvvvvvvv",
"vvvvvvvvvvvvvvvvzzbbzbbbzbbbbzzbvvvvvvvvvvC            ,bvvvvvvvvvvvvvvvvvvvvvvvbzzbvvvvvvvvvvvvvvvv",
"vvvvvvvvvvvvvvvvbbzzbzzbbzbzbbzbvvvvvvvvvvV            <bvvvvvvvvvvvvvvvvvvvvvvvbzbbvvvvvvvvvvvvvvvv",
"vvvvvvvvvvvvvvvvzbbbbbzbbzbbzbbzvvvvvvvvvvv,           uvvvvvvvvvvvvvvvvvvvvvvvvbbzbvvvvvvvvvvvvvvvv",
"vvvvvvvvvvvvbbbzzbbbzzbbbzbbzbbzvvvvvvvvvvBpo         <lvvvvvvvvvvvvvvvvvvvvvvvvzbvvvvvvvvvvvvvvvvvv",
"vvvvvvvvvvvvzzbbbbzzbbbzbzbzbbzbvvvvvvvvvvzfp        ,plvvvvvvvvvvvvvvvvvvvvvvvvzbbzvvvvvvvvvvvvvvvv",
"vvvvvvvvvvvvbbzbbzbbzbbzzbbbbzzbvvvvvvvvvvvzpj,#...%5ssvvvvvvvvvvvvvvvvvvvvvvvvvbbbbvvvvvvvvvvvvvvvv",
"vvvvvvvvvvvvbzbbzbzbbzbbbbzzbbbbvvvvvvvvvvvvjpppuuupppzvvvvvvvvvvvvvvvvvvvvvvvvvbzzbvvvvvvvvvvvvvvvv",
"vvvvvvvvvvvvvvvvbzbbzbzbbbzbbbzzbzzbbbbzbbbzbjppppppszbbbzzbbbzbvvvvvvvvvvvvvvvvvvvvvvvvvvvvvvvvvvvv",
"vvvvvvvvvvvvvvvvbzzbzbbbzbbzzbbbbbbbzzbbzzbbbbzljjjlzbbzzbbbzbzbvvvvvvvvvvvvvvvvvvvvvvvvvvvvvvvvvvvv"
};
