/* XPM */
static char *_633188860625[] = {
/* columns rows colors chars-per-pixel */
"100 50 128 2 ",
"   c #030203",
".  c #080607",
"X  c #0C0A0B",
"o  c #100E0F",
"O  c #110F10",
"+  c #151314",
"@  c #181516",
"#  c #1A1719",
"$  c #1E1B1C",
"%  c #201C1F",
"&  c #221F21",
"*  c #252124",
"=  c #282426",
"-  c #2B2629",
";  c #2E292C",
":  c #302B2E",
">  c #332E31",
",  c #363134",
"<  c #393437",
"1  c #3C3639",
"2  c #413B3E",
"3  c #443E42",
"4  c #494347",
"5  c #4E464B",
"6  c #524A4E",
"7  c #564E52",
"8  c #584F54",
"9  c #595156",
"0  c #5D5459",
"q  c #62595E",
"w  c #645B61",
"e  c #685F64",
"r  c #6A6166",
"t  c #6F656B",
"y  c #71676D",
"u  c #73696F",
"i  c #766B72",
"p  c #7A6F76",
"a  c #7B7177",
"s  c #7E7379",
"d  c #81767D",
"f  c #84787F",
"g  c #867A81",
"h  c #8A7E85",
"j  c #E17C97",
"k  c #E17D98",
"l  c #8D8087",
"z  c #8E8289",
"x  c #93868D",
"c  c #95888F",
"v  c #968990",
"b  c #9B8D95",
"n  c #9F9199",
"m  c #A2949C",
"M  c #A697A0",
"N  c #A799A1",
"B  c #AB9CA4",
"V  c #AF9FA8",
"C  c #AFA0A9",
"Z  c #B3A4AD",
"A  c #B7A7B1",
"S  c #BBABB4",
"D  c #BFAFB8",
"F  c #DE839C",
"G  c #E2829C",
"H  c #DA8BA1",
"J  c #CF9FAF",
"K  c #D693A6",
"L  c #D497AA",
"P  c #DD94A9",
"I  c #D39CAD",
"U  c #E387A0",
"Y  c #E38CA4",
"T  c #E490A7",
"R  c #E494AA",
"E  c #E599AF",
"W  c #E69CB2",
"Q  c #CEA0AF",
"!  c #CCA5B3",
"~  c #C8AAB6",
"^  c #C0AFB9",
"/  c #DEA3B6",
"(  c #D4A4B4",
")  c #C4B3BC",
"_  c #C9B3BE",
"`  c #D7B0BE",
"'  c #E7A2B7",
"]  c #E8A2B7",
"[  c #E7A5B9",
"{  c #E8A6BA",
"}  c #E7A8BB",
"|  c #E9AABD",
" . c #C7B6C0",
".. c #C9B7C1",
"X. c #CBB9C3",
"o. c #CFBDC8",
"O. c #D3BBC7",
"+. c #D1BFC9",
"@. c #DBBDCA",
"#. c #E9AEC0",
"$. c #E3B6C4",
"%. c #EAB2C4",
"&. c #E4B9C6",
"*. c #EBB7C8",
"=. c #E5BCCA",
"-. c #EBBCCC",
";. c #ECBFD0",
":. c #D5C2CD",
">. c #DAC4CF",
",. c #D9C6D1",
"<. c #DCC9D4",
"1. c #E7C0CE",
"2. c #EAC1CF",
"3. c #EBC4D3",
"4. c #E0CBD6",
"5. c #EBC9D6",
"6. c #E1CED9",
"7. c #EECCDA",
"8. c #F0CFDD",
"9. c #E5D1DD",
"0. c #ECD2DE",
"q. c #F0D1DF",
"w. c #ECD6E1",
"e. c #EED9E5",
"r. c #F0D5E3",
"t. c #F1DAE6",
"y. c #F2DDE9",
"u. c None",
/* pixels */
"u.u.u.u.y.y.y.y.y.y.y.y.y.y.y.y.y.y.y.y.y.y.y.y.y.y.y.y.y.y.y.y.y.y.y.y.y.y.y.y.y.y.y.y.y.y.y.y.y.y.y.y.y.y.y.y.y.y.y.y.y.y.y.y.y.y.y.y.y.y.y.y.y.y.y.y.y.y.y.y.y.y.y.y.y.y.y.y.y.y.y.y.y.y.y.y.u.u.u.u.",
"u.u.u.y.y.y.y.y.y.y.y.y.y.y.y.y.y.y.y.y.y.y.y.y.y.y.y.y.y.y.y.y.y.y.y.y.y.y.y.y.y.y.y.y.y.y.y.y.y.y.y.y.y.y.y.y.y.y.y.y.y.y.y.y.y.y.y.y.e.y.y.y.y.y.y.y.y.y.y.y.y.y.y.y.y.y.y.y.y.y.y.y.y.y.y.y.y.u.u.u.",
"u.u.y.y.y.y.y.y.y.y.y.y.y.y.y.y.y.y.y.y.y.y.y.y.y.y.y.y.y.y.y.y.y.y.y.y.y.y.y.y.y.y.y.y.y.y.y.y.y.y.y.y.y.y.y.y.y.y.y.y.y.e.y.y.y.w.6.<.<.w.e.y.y.y.y.y.y.y.y.y.y.y.y.y.y.y.y.y.y.y.y.y.y.y.y.y.y.y.u.u.",
"u.u.y.y.y.y.y.y.y.y.y.y.y.y.y.y.y.y.y.y.y.y.y.y.y.y.y.y.y.y.y.y.y.y.y.y.y.y.y.t.e.w.w.w.y.y.y.y.y.y.y.y.y.y.y.e.e.e.9.9.9.e.e.e.6.<.D M N X.e.y.y.y.y.y.y.y.y.y.y.y.y.y.y.y.y.y.y.y.y.y.y.y.y.y.y.y.u.u.",
"u.y.y.y.y.y.y.y.y.y.y.y.y.y.y.y.y.y.y.y.y.y.y.y.y.y.y.y.y.y.y.y.e.y.t.y.y.e.w.w.<. .D X.6.y.y.y.y.y.y.y.y.y.e.9.<.X.A A S X.,.<.X.Z l w u S w.y.y.y.y.y.y.y.y.y.y.y.y.y.y.y.y.y.y.y.y.y.y.y.y.y.y.y.y.u.",
"u.y.y.y.y.y.y.y.y.y.y.y.y.y.y.y.y.y.y.y.y.y.y.y.y.y.y.y.y.y.w.6.<.:.:.,.6.w.<.:.S x i b :.e.y.y.y.y.y.y.y.e.w.,.X.n y 0 r x A S N a 5 > 0 C w.y.y.y.y.y.y.y.y.y.y.y.y.y.y.y.y.y.y.y.y.y.y.y.y.y.y.y.y.y.",
"y.y.y.y.y.y.y.y.y.y.y.y.y.y.y.y.y.y.y.y.y.y.y.y.y.y.y.y.y.y.<. .M z h b D :. .C h 9 2 s  .w.e.y.y.y.y.y.y.y.9.:.D b 9 : : 6 u g s 6 * , u D w.y.y.y.y.y.y.y.y.y.y.y.y.y.y.y.y.y.y.y.y.y.y.y.y.y.y.y.y.y.",
"y.y.y.y.y.y.y.y.y.y.y.y.y.y.y.y.y.y.y.y.y.y.y.y.y.y.y.y.y.y.+.Z s 4 , 7 g M N g 9 ; , d  .w.y.y.y.y.y.y.y.y.e.6.:.A l 7 ; & > 4 5 > = r N :.e.y.y.y.y.y.y.y.y.y.y.y.y.y.y.y.y.y.y.y.y.y.y.y.y.y.y.y.y.y.",
"y.y.y.y.y.y.y.y.y.y.y.y.y.y.y.y.y.y.y.y.y.y.y.y.y.y.y.y.y.y.:.S h 9 > * 1 w i w > ; e N <.e.y.y.y.y.y.y.y.y.e.e.6.:.A l 0 < $ $ $ & 7 c +.w.y.y.y.y.y.y.y.y.y.y.y.y.y.y.y.y.y.y.y.y.y.y.y.y.y.y.y.y.y.y.",
"y.y.y.y.y.y.y.y.y.y.y.y.y.y.y.y.y.y.y.y.y.y.y.y.y.y.y.y.y.y.6.o.A z 0 , $ - 1 < & 7 n :.w.e.y.y.y.y.y.y.y.y.y.y.e.6.:.A l 9 ; .   : t B ,.e.t.y.y.y.y.y.y.y.y.y.y.y.y.y.y.y.y.y.y.y.y.y.y.y.y.y.y.y.y.y.",
"y.y.y.y.y.y.y.y.y.y.y.y.y.y.y.y.y.y.y.y.y.y.y.y.y.y.y.y.y.y.w.9.:.A z w < # o o > t S 9.y.y.y.y.y.y.y.y.y.y.y.y.e.9.:.D c 9 = X . - w c S <.w.y.y.y.y.y.y.y.y.y.y.y.y.y.y.y.y.y.y.y.y.y.y.y.y.y.y.y.y.y.",
"y.y.y.y.y.y.y.y.y.y.y.y.y.y.y.y.y.y.y.y.y.y.y.y.y.y.y.y.y.y.y.e.<.o.B a 3 #   X 1 i C ,.w.y.y.y.y.y.y.y.y.y.y.e.e.<.X.C s 2 # = : & ; 7 g A <.w.y.y.y.y.y.y.y.y.y.y.y.y.y.y.y.y.y.y.y.y.y.y.y.y.y.y.y.y.",
"y.y.y.y.y.y.y.y.y.y.y.y.y.y.y.y.y.y.y.y.y.y.y.y.y.y.y.y.y.y.y.w.<.o.B y , + o o * 5 s Z ,.w.t.y.y.y.y.y.y.y.y.e.6.:.A l 9 = ; 7 w 5 > - 5 d A 4.y.y.y.y.y.y.y.y.y.y.y.y.y.y.y.y.y.y.y.y.y.y.y.y.y.y.y.y.",
"y.y.y.y.y.y.y.y.y.y.t.r.y.y.y.y.y.y.y.y.y.y.y.y.y.y.y.y.y.y.e.9.o.A z 9 & & , > * * 3 p V ,.e.y.y.y.y.y.y.y.e.w.:.D n r > ; 7 g m x t 3 > 7 b ,.y.y.y.y.y.y.y.y.y.y.y.y.y.y.y.y.y.t.t.y.y.y.y.y.y.y.y.y.",
"y.y.y.y.y.y.y.y.y.r.[ E #.3.r.r.y.y.y.y.y.y.y.y.y.y.y.y.y.y.w.,. .b w > * 5 y i q 1 * 3 p D w.y.y.y.y.y.y.y.e.9.:.S n q > 7 l A +. .B h s g V 4.y.y.y.y.y.y.y.y.y.y.y.y.y.w.q.;.[ R %.t.y.y.y.y.y.y.y.y.",
"y.y.y.y.y.y.y.y.y.8.E k G G E | 3.7.t.y.y.y.y.y.y.y.y.y.y.y.<.o.D x 5 = 5 g C A n i 7 5 i D w.y.y.y.y.y.y.y.y.w.,.:.S g r z ) 6.w.6.<.o. .X.<.w.y.y.y.y.y.y.y.y.y.y.e.7.=.} T k k k } r.y.y.y.y.y.y.y.y.",
"y.y.y.y.y.y.y.y.y.t.3.%.E G G k G E { *.8.t.y.y.y.y.y.y.y.y.<.:.) b 7 5 l S ,.<.:.S m v Z >.t.y.y.y.y.y.y.y.y.e.e.9.,.D S  .6.e.y.t.t.r.0.w.t.t.y.y.y.y.y.y.y.r.7.| ] T G G G G W *.8.y.y.y.y.y.y.y.y.y.",
"y.y.y.y.y.y.y.y.y.y.y.t.r.5.%.E U G k G T W #.8.r.y.y.y.y.y.w.4.>.A x v ) 9.e.w.9.9.>.:.<.w.y.y.y.y.y.y.y.y.y.y.e.e.e.e.w.e.e.y.y.y.y.y.t.t.y.y.y.y.y.t.r.5.#.E T G G G G ] *.7.q.t.y.y.y.y.y.y.y.y.y.y.",
"5.t.y.y.y.y.y.y.y.y.y.y.y.t.t.r.5.%.W T G k G Y W %.3.r.r.y.t.w.w.6.>.>.6.e.y.y.y.e.w.w.t.y.y.y.y.y.y.y.y.y.y.y.y.y.y.y.y.y.y.y.y.y.y.y.y.y.y.y.r.7.3.#.R U k k G R [ *.q.q.t.y.y.y.y.y.y.y.y.y.y.y.y.y.",
"=.r.y.y.y.y.y.y.y.y.y.y.y.y.y.y.y.t.t.5.*.{ T G k G U W #.3.8.t.y.y.y.y.y.y.y.y.y.y.y.y.y.y.y.y.y.y.y.y.y.y.y.y.y.y.y.y.y.y.y.y.y.y.y.y.y.w.7.;.#.E U k k G E #.-.5.y.y.y.y.y.y.y.y.y.y.y.y.y.y.y.y.y.y.",
"&.3.t.y.y.y.y.y.y.y.y.y.y.y.y.y.y.y.y.y.y.t.8.-.| T G k G U E | =.0.t.y.y.y.y.y.y.y.y.y.y.y.y.y.y.y.y.y.y.y.y.y.y.y.y.y.y.y.y.y.y.y.t.7.*.] E G k k U R #.3.q.t.y.y.y.y.y.y.y.y.y.y.y.y.y.y.y.y.y.y.t.7.",
"$.&.7.y.y.y.y.r.r.r.r.r.r.r.r.t.t.r.r.r.t.r.r.r.8.7.-.] U G k k G R ] -.0.r.y.y.y.y.y.y.y.y.y.y.y.y.y.y.y.y.y.y.y.y.y.y.y.y.y.e.8.*.W Y G k k G T | ;.7.r.r.r.w.q.t.t.q.t.0.q.t.q.t.t.q.r.r.y.y.y.y.w.=.",
"$.$.=.t.y.y.q.#.' ' ] ] ] ] ] ] ] ] ] ] ] ] W ] ] ] ] W W Y G k k k k G Y { 7.y.y.y.y.y.y.y.y.y.y.y.y.y.y.y.y.y.y.y.y.y.y.y.5.' U G k k k k G R E W ] ] W ] ] ] ' ' ] ] W ' ' W ' ' [ ] ] %.q.y.y.w.3.$.",
"$.$.&.3.t.t.3.U G G k G k G k k k G k G k G G k k G G k k k k k k k k k k G 3.y.y.y.y.y.y.y.y.y.y.y.y.y.y.y.y.y.y.y.y.y.y.e.| F k k k k k k k k k k k G k G G k G G G G G G G G G G G G G R 8.y.y.7.&.&.",
"$.$.$.&.0.t.r.*.| | | | { | | { | | | | [ | | [ ] W W Y G k k k k G G Y W %.r.y.y.y.y.y.y.y.y.y.y.y.y.y.y.y.y.y.y.y.y.y.y.y.7.| R U G k k j k k G T W W ] | | | [ | | | | { | | | | | | | 2.r.y.w.=.$.$.",
"$.$.$.$.1.w.y.t.t.r.t.r.t.t.t.t.t.r.t.r.r.7.3.*.] Y G k k k U Y E | -.7.r.t.y.y.y.y.y.y.q.8.5.8.5.8.5.7.7.7.7.7.w.y.y.y.y.y.y.r.q.8.*.| E T G k k G G T { -.3.8.q.r.t.t.t.t.r.r.t.r.r.t.t.t.y.t.3.$.$.$.",
"$.$.$.$.&.5.t.y.y.y.y.y.y.y.y.y.r.r.3.-.#.W Y G k k G R W #.*.8.r.y.y.y.y.y.y.y.y.y.t.5.W G G G G G G G G G G G | 7.y.y.y.y.y.y.y.y.y.y.r.7.*.| W T G G G G Y W $.-.5.q.y.y.y.y.y.y.y.y.y.y.y.5.&.$.$.$.",
"$.$.$.$.&.&.7.y.y.y.y.t.t.r.5.-.| W Y G k k G Y W #.;.8.r.t.y.y.y.y.y.y.y.y.y.y.y.y.r.E j k G j j j k k k k j k G [ r.y.y.y.y.y.y.y.y.y.y.y.y.r.8.7.2.| E G G G G G T W | *.8.r.t.y.y.y.y.y.q.1.$.$.$.$.",
"$.$.$.$.$.$.=.w.y.y.7.-.[ E Y G k k U Y W | ;.7.r.t.y.y.y.y.y.y.y.y.y.y.y.y.y.y.y.y.2.G j k k k k k k j k j k k k T 7.y.y.y.y.y.y.y.y.y.y.y.y.y.y.y.y.r.q.8.-.[ E U G j G G T E | 2.q.y.y.q.2.&.$.$.$.$.",
"$.$.$.$.$.$.$.1.r.q.W G G k G T W #.*.8.r.t.y.y.y.y.y.y.y.y.y.y.y.y.y.y.y.y.y.y.y.y.*.G k k j k k j k k k k k j k U 3.y.y.y.y.y.y.y.y.y.y.y.y.y.y.y.y.y.y.y.y.t.r.8.*.| E T G j G G | t.y.5.&.$.$.$.$.$.",
"$.$.$.$.$.$.$.&.5.q.' T W %.-.5.r.y.y.y.y.y.y.y.y.y.y.y.y.y.y.y.y.y.y.y.y.y.y.y.y.y.-.G k k k j k k k j k j k k k Y 7.y.y.y.y.y.y.y.y.y.y.y.y.y.y.y.y.y.y.y.y.y.y.y.y.y.q.3.-.| W T | 0.7.&.$.$.$.$.$.$.",
"$.$.$.$.$.$.$.$.&.5.7.8.r.t.y.y.y.y.y.y.y.y.y.y.y.y.y.y.y.y.y.y.y.y.y.y.y.y.y.y.y.y.5.U k j k j k j k k k k k k G R 0.y.y.y.y.y.y.y.y.y.y.y.y.y.y.y.y.y.y.y.y.y.y.y.y.y.y.y.y.y.q.q.q.7.1.&.$.$.$.$.$.$.",
"$.$.$.$.$.$.$.$.&.&.0.y.y.y.y.y.y.y.y.y.y.y.y.y.y.y.y.y.y.y.y.y.y.y.y.y.y.y.y.y.y.y.w.P k k k k j j k k k j k j k / e.y.y.y.y.y.y.y.y.y.y.y.y.y.y.y.y.y.y.y.y.y.y.y.y.y.y.y.y.y.y.y.q.1.` &.$.$.$.$.$.$.",
"$.$.$.$.$.$.$.$.$.$.&.0.y.y.y.y.y.y.y.y.y.y.y.y.y.y.y.y.y.y.y.y.y.y.y.y.y.y.y.y.y.y.w.` F k k k k k k j k k k k H @.t.y.y.y.y.y.y.y.y.y.y.y.y.y.y.y.y.y.y.y.y.y.y.y.y.y.y.y.y.y.y.0.3.&.$.$.$.$.$.$.$.$.",
"$.$.$.$.$.$.$.$.$.$.$.1.w.y.y.y.y.y.y.y.y.y.y.y.y.y.y.y.y.y.y.y.y.y.y.y.y.y.y.y.y.y.y.4.L G k k k j k k k k k F ( 0.y.y.y.y.y.y.y.y.y.y.y.y.y.y.y.y.y.y.y.y.y.y.y.y.y.y.y.y.y.y.w.2.$.$.$.$.$.$.$.$.$.$.",
"$.$.$.$.$.$.$.$.$.$.$.$.1.r.y.y.y.y.y.y.y.y.y.y.y.y.y.y.y.y.y.y.y.y.y.y.y.y.y.y.y.y.y.w.O.L F k k k k j k G F J >.e.y.y.y.y.y.y.y.y.y.y.y.y.y.y.y.y.y.y.y.y.y.y.y.y.y.y.y.y.y.y.2.&.$.$.$.$.$.$.$.$.$.$.",
"$.$.$.$.$.$.$.$.$.$.$.$.$.1.w.y.y.y.y.y.y.y.y.y.y.y.y.y.y.y.y.y.y.y.y.y.y.y.y.y.y.y.y.y.9.O.! K F F F F H K ! :.w.y.y.y.y.y.y.y.y.y.y.y.y.y.y.y.y.y.y.y.y.y.y.y.y.y.y.y.y.y.r.5.$.$.$.$.$.$.$.$.$.$.$.$.",
"$.$.$.$.$.$.$.$.$.$.$.$.$.&.1.0.y.y.y.y.y.y.y.y.y.y.y.y.y.y.y.y.y.y.y.y.y.y.y.y.y.y.y.y.y.0.:._ ! J J Q ~ ..<.w.y.y.y.y.y.y.y.y.y.y.y.y.y.y.y.y.y.y.y.y.y.y.y.y.y.y.y.y.y.r.2.$.$.$.$.$.$.$.$.$.$.$.$.$.",
"$.$.$.$.$.$.$.$.$.$.$.$.$.$.$.=.0.y.y.y.y.y.y.y.y.y.y.y.y.y.y.y.y.y.y.y.y.y.y.y.y.y.y.y.y.y.y.w.<.,.:.,.4.0.e.y.y.y.y.y.y.y.y.y.y.y.y.y.y.y.y.y.y.y.y.y.y.y.y.y.y.y.y.y.w.1.&.$.$.$.$.$.$.$.$.$.$.$.$.$.",
"$.$.$.$.$.$.$.$.$.$.$.$.$.$.$.$.1.w.y.y.y.y.y.y.y.y.y.y.y.y.y.y.y.y.y.y.y.y.y.y.y.y.y.y.y.y.y.y.e.e.e.e.y.y.y.y.y.y.y.y.y.y.y.y.y.y.y.y.y.y.y.y.y.y.y.y.y.y.y.y.y.y.y.0.1.$.$.$.$.$.$.$.$.$.$.$.$.$.$.$.",
"$.$.$.$.$.$.$.$.$.$.$.$.$.$.$.$.$.=.7.t.y.y.y.y.y.y.y.y.y.y.y.y.y.y.y.y.y.y.y.y.y.y.y.y.y.y.y.y.y.y.y.y.y.y.y.y.y.y.y.y.y.y.y.y.y.y.y.y.y.y.y.y.y.y.y.y.y.y.y.y.y.y.0.=.&.&.$.$.$.$.$.$.$.$.$.$.$.$.$.$.",
"$.$.$.$.$.$.$.$.$.$.$.$.$.$.$.$.$.$.&.5.t.y.y.y.y.y.y.y.y.y.y.y.y.y.y.y.y.y.y.y.y.y.y.y.y.y.y.y.y.y.y.y.y.y.y.y.y.y.y.y.y.y.y.y.y.y.y.y.y.y.y.y.y.y.y.y.y.y.y.y.r.5.&.$.` $.$.$.$.$.$.$.$.$.$.$.$.$.$.&.",
"&.$.$.$.$.$.$.$.$.$.$.$.$.$.$.$.$.$.$.&.2.r.y.y.y.y.y.y.y.y.y.y.y.y.y.y.y.y.y.y.y.y.y.y.y.y.y.y.y.y.y.y.y.y.y.y.y.y.y.y.y.y.y.y.y.y.y.y.y.y.y.y.y.y.y.y.y.y.y.w.5.&.$.$.$.$.$.$.$.$.$.$.$.$.$.$.$.$.$.&.",
"=.$.$.$.$.$.$.$.$.$.$.$.$.$.$.$.$.$.$.$.&.=.0.t.y.y.y.y.y.y.y.y.y.y.y.y.y.y.y.y.y.y.y.y.y.y.y.y.y.y.y.y.y.y.y.y.y.y.y.y.y.y.y.y.y.y.y.y.y.y.y.y.y.y.y.y.y.t.0.=.$.$.$.$.$.$.$.$.$.$.$.$.$.$.$.$.$.$.$.=.",
"&.$.$.$.$.$.$.$.$.$.$.$.$.$.$.$.$.$.$.$.$.$.&.5.w.y.y.y.y.y.y.y.y.y.y.y.y.y.y.y.y.y.y.y.y.y.y.y.y.y.y.y.y.y.y.y.y.y.y.y.y.y.y.y.y.y.y.y.y.y.y.y.y.y.y.y.r.5.&.$.$.$.$.$.$.$.$.$.$.$.$.$.$.$.$.$.$.$.$.=.",
"&.&.$.$.$.$.$.$.$.$.$.$.$.$.$.$.$.$.$.$.$.$.$.&.1.7.t.y.y.y.y.y.y.y.y.y.y.y.y.y.y.y.y.y.y.y.y.y.y.y.y.y.y.y.y.y.y.y.y.y.y.y.y.y.y.y.y.y.y.y.y.y.y.y.t.7.=.$.$.$.$.$.$.$.$.$.$.$.$.$.&.| $.$.$.$.$.$.&.u.",
"&.&.$.$.$.$.$.$.$.$.$.$.$.$.$.$.$.$.$.$.$.$.$.$.$.&.3.w.y.y.y.y.y.y.y.y.y.y.y.y.y.y.y.y.y.y.y.y.y.y.y.y.y.y.y.y.y.y.y.y.y.y.y.y.y.y.y.y.y.y.y.y.w.7.1.&.$.$.$.$.$.$.$.$.$.$.$.$.$.$.$.$.$.$.$.$.$.$.=.u.",
"u.u.&.$.$.$.$.$.$.$.$.$.$.$.$.$.$.$.$.$.$.$.$.$.$.$.$.&.5.0.t.y.y.y.y.y.y.y.y.y.y.y.y.y.y.y.y.y.y.y.y.y.y.y.y.y.y.y.y.y.y.y.y.y.y.y.y.y.y.y.w.7.1.&.$.$.$.$.$.$.$.$.$.$.$.$.$.$.$.$.$.$.$.$.$.$.$.&.u.u.",
"u.u.=.&.$.$.$.$.$.$.$.$.$.$.$.$.$.$.$.$.$.$.$.$.$.$.$.$.$.&.3.0.e.y.y.y.y.y.y.y.y.y.y.y.y.y.y.y.y.y.y.y.y.y.y.y.y.y.y.y.y.y.y.y.y.y.y.t.w.5.1.&.$.$.$.$.$.$.$.$.$.$.$.$.$.$.$.$.$.$.$.$.$.$.$.$.&.=.u.u.",
"u.u.u.=.$.$.$.$.$.$.$.$.$.$.$.$.$.&.$.$.$.$.$.$.$.$.$.$.$.$.&.&.1.7.t.y.y.y.y.y.y.y.y.y.y.y.y.y.y.y.y.y.y.y.y.y.y.y.y.y.y.y.y.y.y.y.q.3.=.&.$.$.$.$.$.$.$.$.$.$.$.$.$.$.$.$.$.$.$.$.$.$.$.$.$.$.=.u.u.u."
};
