/* XPM */
static char *_631957820372[] = {
/* columns rows colors chars-per-pixel */
"100 100 63 1 ",
"  c #836C74",
". c #8C6F79",
"X c #8C727B",
"o c #957B84",
"O c #987D86",
"+ c #A68992",
"@ c #AB8C96",
"# c #B6929D",
"$ c #B9949F",
"% c #B795A0",
"& c #BA96A1",
"* c #BB99A4",
"= c gray67",
"- c #BEA6B1",
"; c #B1B1B1",
": c #C09AA6",
"> c #C49DA9",
", c #C3A5AE",
"< c #CAA2AE",
"1 c #CDA5B1",
"2 c #C0ACB6",
"3 c #D0A7B3",
"4 c #D5ADBA",
"5 c #D9AEBB",
"6 c #C3B2BC",
"7 c #CFB1BB",
"8 c #D6B2BD",
"9 c #DDB1BE",
"0 c #C7B5C0",
"q c #C9B7C2",
"w c #CBBAC3",
"e c #DEB4C1",
"r c #D3BCC5",
"t c #E3B6C4",
"y c #E4B8C6",
"u c #E5BBC9",
"i c #C6C6C6",
"p c #D1C1C6",
"a c #D4C2CD",
"s c #D8C5CF",
"d c #DCC9D4",
"f c gray84",
"g c #DEDEDE",
"h c #E6C2CE",
"j c #E6C4D0",
"k c #E9C5D2",
"l c #E6CBD4",
"z c #EAC9D6",
"x c #E3CFDB",
"c c #ECCDDA",
"v c #E6D3DB",
"b c #EDD2DE",
"n c #E8DBDF",
"m c #EED5E1",
"M c #EDDAE4",
"N c #F0D7E3",
"B c #F1DAE6",
"V c #F2DDE9",
"C c #E5E4E4",
"Z c #EAE4E6",
"A c #E9E7E8",
"S c #EBEBEB",
"D c None",
/* pixels */
"DDDDDDDDDDDDDDDDDDDDDDDDDDDDDDDDDDDDDDDDDDDDDDDDDDDDDDDDDDDDDDDDDDDDDDDDVDDDDDDDDDDDDDDDDDDDDDDDDDDD",
"DDDDDDDDDDDDDDDDDDDDDDDDDDDVVDDDDDDDDDDDDDDDDDDDDDDDDDDDDDDDDDDDDDDDDDDVVDDDDDDDDDDDDDDDDDDDDDDDDDDD",
"DDDDDDDDDDDDDDDDDDDDDDDDDDDVVVDDDDDDDDDDDDDDDDDDDDDDDDDDDDDDDDDDDDDDDVVVVDDDDDDDDDDDDDDDDDDDDDDDDDDD",
"DDDDDDDDDDDDDDDDDDDDDDDDDDVVVVVVDDDDDDDDDDDDDDDDDDDDDDDDDDDDDDDDDDDDVVVVVDDDDDDDDDDDDDDDDDDDDDDDDDDD",
"DDDDDDDDDDDDDDDDDDDDDDDDDDVVVVVVVDDDDDDDDDDDDDDDDDDDDDDDDDDDDDDDDDDVVVVVVDDDDDDDDDDDDDDDDDDDDDDDDDDD",
"DDDDDDDDDDDDDDDDDDDDDDDDDDVVVVVVVVDDDDDDDDDDDDDDDDDDDDDDDDDDDDDDDDVVVVVVVVDDDDDDDDDDDDDDDDDDDDDDDDDD",
"DDDDDDDDDDDDDDDDDDDDDDDDDDVVVVVVVVVDDDDDDDDDDDDDDDDDDDDDDDDDDDDDVVVVVVVVVVDDDDDDDDDDDDDDDDDDDDDDDDDD",
"DDDDDDDDDDDDDDDDDDDDDDDDDDVVVVVVVVVVDDDDDDDDDDDDDDDDDDDDDDDDDDDVVVVVVVVVVVDDDDDDDDDDDDDDDDDDDDDDDDDD",
"DDDDDDDDDDDDDDDDDDDDDDDDDDVVVVVVVVVVVDDDDDDDDDDDDDDDDDDDDDDDDDVVVVVVVVVVVVDDDDDDDDDDDDDDDDDDDDDDDDDD",
"DDDDDDDDDDDDDDDDDDDDDDDDDDVVVVVVVVVVVVDDDDDDDDDDDDDDDDDDDDDDDVVVVVVVVVVVVVDDDDDDDDDDDDDDDDDDDDDDDDDD",
"DDDDDDDDDDDDDDDDDDDDDDDDDVVVVVVVVVVVVVVDDDDDDDDDDDDDDDDDDDDDVVVVVVVVVVVVVVDDDDDDDDDDDDDDDDDDDDDDDDDD",
"DDDDDDDDDDDDDDDDDDDDDDDDDVVVVVVVVVVVVVVVDDDDDDDDDDDDDDDDDDDDVVVVVVVVVVVVVVDDDDDDDDDDDDDDDDDDDDDDDDDD",
"DDDDDDDDDDDDDDDDDDDDDDDDDBVVVVVVVVVVVVVVVDDDDDDDDDDDDDDDDDDVVVVVVVVVVVVVVVDDDDDDDDDDDDDDDDDDDDDDDDDD",
"DDDDDDDDDDDDDDDDDDDDDDDDDVVVVVVVVVVVVVVVVDDDDDDDDDDDDDDDDDVVVVVVVVVVVVVVVVDDDDDDDDDDDDDDDDDDDDDDDDDD",
"DDDDDDDDDDDDDDDDDDDDDDDDDVVVVVVVVVVVVVVVVVDDDDDDDDDDDDDDDDVVVVVVVVVVVVVVVVVDDDDDDDDDDDDDDDDDDDDDDDDD",
"DDDDDDDDDDDDDDDDDDDDDDDDDVVVVVVVVVVVVVVVVVVDDDDDDDDDDDDDDVVVVVVVVVVVVVVVVVVDDDDDDDDDDDDDDDDDDDDDDDDD",
"DDDDDDDDDDDDDDDDDDDDDDDDDVVVVVVVVVVVVVVVVVVDDDDDDDDDDDDDDVVVVVVVVVVVVVVVVVVDDDDDDDDDDDDDDDDDDDDDDDDD",
"DDDDDDDDDDDDDDDDDDDDDDDDDVVVVVVVVVVVVVVVVVVDDDDDDDDDDDDDVVVVVVVVVVVVVVVVVVVDDDDDDDDDDDDDDDDDDDDDDDDD",
"DDDDDDDDDDDDDDDDDDDDDDDDDVVVVVVVVVVVVVVVVVVVDDDDDDDDDDDDVVVVVVVVVVVVVVVVVVVDDDDDDDDDDDDDDDDDDDDDDDDD",
"DDDDDDDDDDDDDDDDDDDDDDDDDVVVVVVVVVVVVVVVVVVVDDDDDDDDDDDDVVVVVVVVVVVVVVVVVVVDDDDDDDDDDDDDDDDDDDDDDDDD",
"DDDDDDDDDDDDDDDDDDDDDDDDDVVVVVVVVVVVVVVVVVVVDDDDDDDDDDDDVVVVVVVVVVVVVVVVVVDDDDDDDDDDDDDDDDDDDDDDDDDD",
"DDDDDDDDDDDDDDDDDDDDDDDDDVVVVVVVVVVVVVVVVVVVDDDDDDDDDDDVVVVVVVVVVVVVVVVVVVDDDDDDDDDDDDDDDDDDDDDDDDDD",
"DDDDDDDDDDDDDDDDDDDDDDDDDVVVVVVVVVVVVVVVVVVVDDDDDDDDDDDVVVVVVVVVVVVVVVVVVVDDDDDDDDDDDDDDDDDDDDDDDDDD",
"DDDDDDDDDDDDDDDDDDDDDDDDDVVVVVVVVVVVVVVVVVVVVDDDDDDDDDDVVVVVVVVVVVVVVVVVVVDDDDDDDDDDDDDDDDDDDDDDDDDD",
"DDDDDDDDDDDDDDDDDDDDDDDDDDVVVVVVVVVVVVVVVVVVVDDDDDDDDDDVVVVVVVVVVVVVVVVVVVDDDDDDDDDDDDDDDDDDDDDDDDDD",
"DDDDDDDDDDDDDDDDDDDDDDDDDDVVVVVVVVVVVVVVVVVVVDDDDDDDDDDVVVVVVVVVVVVVVVVVVVDDDDDDDDDDDDDDDDDDDDDDDDDD",
"DDDDDDDDDDDDDDDDDDDDDDDDDDVVVVVVVVVVVVVVVVVVVDDDDDDDDDDVVVVVVVVVVVVVVVVVVVDDDDDDDDDDDDDDDDDDDDDDDDDD",
"DDDDDDDDDDDDDDDDDDDDDDDDDDVVVVVVVVVVVVVVVVVVVDDDDDDDDDDVVVVVVVVVVVVVVVVVVVDDDDDDDDDDDDDDDDDDDDDDDDDD",
"DDDDDDDDDDDDDDDDDDDDDDDDDDVVVVVVVVVVVVVVVVVVVDDDDDDDDDDVVVVVVVVVVVVVVVVVVVDDDDDDDDDDDDDDDDDDDDDDDDDD",
"DDDDDDDDDDDDDDDDDDDDDDDDDDVVVVVVVVVVVVVVVVVVVDDDDDDDDDVVVVVVVVVVVVVVVVVVVDDDDDDDDDDDDDDDDDDDDDDDDDDD",
"DDDDDDDDDDDDDDDDDDDDDDDDDDDVVVVVVVVVVVVVVVVVVDDDDDDDDDVVVVVVVVVVVVVVVVVVVDDDDDDDDDDDDDDDDDDDDDDDDDDD",
"DDDDDDDDDDDDDDDDDDDDDDDDDDDVVVVVVVVVVVVVVVVVVmjuytymVVVVVVVVVVVVVVVVVVVVVDDDDDDDDDDDDDDDDDDDDDDDDDDD",
"DDDDDDDDDDDDDDDDDDDDDDDDDDDVVVVVVVVVVVVVVVVVVcttttuVVVVVVVVVVVVVVVVVVVVVVDDDDDDDDDDDDDDDDDDDDDDDDDDD",
"DDDDDDDDDDDDDDDDDDDDDDDDDDDVVVVVVVVVVVVVVVVVVcyttymVVVVVVVVVVVVVVVVVVVVVVDDDDDDDDDDDDDDDDDDDDDDDDDDD",
"DDDDDDDDDDDDDDDDDDDDDDDDDDDVVVVVVVVVVVVVVVVVVmytyuVVVVVVVVVVVVVVVVVVVVVVDDDDDDDDDDDDDDDDDDDDDDDDDDDD",
"DDDDDDDDDDDDDDDDDDDDDDDDDDDDVVVVVVVVVVVVVVVVVNyyyNVVVVVVVVVVVVVVVVVVVVVVDDDDDDDDDDDDDDDDDDDDDDDDDDDD",
"DDDDDDDDDDDDDDDDDDDDDDDDDDDDVVVVVVVVVVVVVVVVVVyykBVVVVVVVVVVVVVVVVVVVVVVDDDDDDDDDDDDDDDDDDDDDDDDDDDD",
"DDDDDDDDDDDDDDDDDDDDDDDDDDDDVVVVVVVVVVVVVVVVVVyybVVVVVVVVVVVVVVVVVVVVVVDDDDDDDDDDDDDDDDDDDDDDDDDDDDD",
"DDDDDDDDDDDDDDDDDDDDDDDDDDDDDVVVVVVVVVVVVVVVVVukVVVVVVVVVVVVVVVVVVVVVVVDDDDDDDDDDDDDDDDDDDDDDDDDDDDD",
"DDDDDDDDDDDDDDDDDDDDDDDDDDDDDVVVVVVVVVVVVVVVVVzVVVVVVVVVVVVVVVVVVVVVVVDDDDDDDDDDDDDDDDDDDDDDDDDDDDDD",
"DDDDDDDDDDDDDDDDDDDDDDDDDDDDDVVVVVVVVVVVVVVVVVVVVVVVVVVVVVVVVVVVVVVVVc7DDDDDDDDDDDDDDDDDDDDDDDDDDDDD",
"DDDDDDDDDDDDDDDDDDDDDDDDDDDDDVVVVVVVVVVVVVVVVVVVVVVVVVVVVVVVVVVVVVVVVz7DDDDDDDDDDDDDDDDDDDDDDDDDDDDD",
"DDDDDDDDDDDDDDDDDDDDDDDDDDDDVVVVVVVVVVVVVVVVVVVVVVVVVVVVVVVVVVVVVVVVMzmwDDDDDDDDDDDDDDDDDDDDDDDDDDDD",
"DDDDDDDDDDDDDDDDDDDDDDDDDDDVVVVVVVVVVVVVVVVVVVVVVVVVVVVVVVVVVVVVVVVVmBVa6DDDDDDDDDDDDDDDDDDDDDDDDDDD",
"DDDDDDDDDDDDDDDDDDDDDDDDDDDVVVVVVVVVVVVVVVVVVVVVVVVVVVVVVVVVVVVVVVVVMVVm0DDDDDDDDDDDDDDDDDDDDDDDDDDD",
"DDDDDDDDDDDDDDDDDDDDDDDDDDVVVVVVVVVVVVVVVVVVVVVVVVVVVVVVVVVVVVVVVVVVVVVVa6DDDDDDDDDDDDDDDDDDDDDDDDDD",
"DDDDDDDDDDDDDDDDDDDDDDDDDDVVVVVVVVVVVVVVVVVVVVVVVVVVVVVVVVVVVVVVVVVVVVVVv6DDDDDDDDDDDDDDDDDDDDDDDDDD",
"DDDDDDDDDDDDDDDDDDDDDDDDDVVVVVVVVVVVVVVVVVVVVVVVVVVVVVVVVVVVVVVVVVVVVVVVMw6DDDDDDDDDDDDDDDDDDDDDDDDD",
"DDDDDDDDDDDDDDDDDDDDDDDDDVVVVVVVVVVVVVVVVVVVVVVVVVVVVVVVVVVVVVVVVVVVVVVVVa-DDDDDDDDDDDDDDDDDDDDDDDDD",
"DDDDDDDDDDDDDDDDDDDDDDDDVVVVVVVVVVVVVVVVVVVVVVVVVVVVVVVVVVVVVVVVVVVVVVVVVd00DDDDDDDDDDDDDDDDDDDDDDDD",
"DDDDDDDDDDDDDDDDDDDDDDDDVVVVVVVVVVVVVVVVVVVVVVVVVVVVVVVVVVVVVVVVVVVVVVVVVd0;DDDDDDDDDDDDDDDDDDDDDDDD",
"DDDDDDDDDDDDDDDDDDDDDDDDVVVVVVVVVVVVVVVVVVVVVVVVVVVVVVVVVVVVVVVVVVVVVVVVVmq0DDDDDDDDDDDDDDDDDDDDDDDD",
"DDDDDDDDDDDDDDDDDDDDDDDVVVVVVVVVVVVVVVVVVVVVVVVVVVVVVVVVVVVVVVVVVVVVVVVVVMq66DDDDDDDDDDDDDDDDDDDDDDD",
"DDDDDDDDDDDDDDDDDDDDDDDVVVVVVVVVVVVVVVVVVVVVVVVVVVVVVVVVVVVVVVVVVVVVVVVVVVq00DDDDDDDDDDDDDDDDDDDDDDD",
"DDDDDDDDDDDDDDDDDDDDDDDVVVVVVVVVVVVVVVVVVVVVVVVVVVVVVVVVVVVVVVVVVVVVVVVVVVq-6DDDDDDDDDDDDDDDDDDDDDDD",
"DDDDDDDDDDDDDDDDDDDDDDDVVVVVVVVVVVVVVVVVVVVVVVVVVVVVVVVVVVVVVVVVVVVVVVVVVVq00DDDDDDDDDDDDDDDDDDDDDDD",
"DDDDDDDDDDDDDDDDDDDDDDDVVVVVVVVVVVVVVVVVVVVVVVVVVVVVVVVVVVVVVVVVVVVVVVVVVVq66DDDDDDDDDDDDDDDDDDDDDDD",
"DDDDDDDDDDDDDDDDDDDDDDDVVVVVVVVVVVVVVVVVVVVVVVVVVVVVVVVVVVVVVVVVVVVVVVVVVBq66DDDDDDDDDDDDDDDDDDDDDDD",
"DDDDDDDDDDDDDDDDDDDDDDDVVVVVVVVVVVVVVVVVVVVVVVVVVVVVVVVVVVVVVVVVVVVVVVVVVMq66DDDDDDDDDDDDDDDDDDDDDDD",
"DDDDDDDDDDDDDDDDDDDDDDDVVVVVVVVVVVVVVVVVVVVVVVVVVVVVVVVVVVVVVVVVVVVVVVVVVMq66DDDDDDDDDDDDDDDDDDDDDDD",
"DDDDDDDDDDDDDDDDDDDDDDDVVVVVVVVVVVVVVVVVVVVVVVVVVVVVVVVVVVVVVVVVVVVVVVVVVv066DDDDDDDDDDDDDDDDDDDDDDD",
"DDDDDDDDDDDDDDDDDDDDDDDcVVVVVVVVVVVVVVVVVVVVVVVVVVVVVVVVVVVVVVVVVVVVVVVVVd66-DDDDDDDDDDDDDDDDDDDDDDD",
"DDDDDDDDDDDDDDDDDDDDDDDucVVVVVVVVVVVVVVVVVVVVVVVVVVVVVVVVVVVVVVVVVVVVVVVVa6-%DDDDDDDDDDDDDDDDDDDDDDD",
"DDDDDDDDDDDDDDDDDDDDDDDyycVVVVVVVVVVVVVVVVVVVVVVVVVVVVVVVVVVVVVVVVVVVVVVMw-%*DDDDDDDDDDDDDDDDDDDDDDD",
"DDDDDDDDDDDDDDDDDDDDDDDyyyNVVVVVVVVVVVVVVVVVVVVVVVVVVVVVVVVVVVVVVVVVVVVVv-*#*DDDDDDDDDDDDDDDDDDDDDDD",
"DDDDDDDDDDDDDDDDDDDDDDDuyyymVVVVVVVVVVVVVVVVVVVVVVVVVVVVVVVVVVVVVVVVVVVBw*%%*DDDDDDDDDDDDDDDDDDDDDDD",
"DDDDDDDDDDDDDDDDDDDDDDDDyttyNBVVVVVVVVVVVVVVVVVVVVVVVVVVVVVVVVVVVVVVVVVv*$#%DDDDDDDDDDDDDDDDDDDDDDDD",
"DDDDDDDDDDDDDDDDDDDDDDDDyyytyNVVVVVVVVVVVVVVVVVVVVVVVVVVVVVVVVVVVVVVVVN,###%DDDDDDDDDDDDDDDDDDDDDDDD",
"DDDDDDDDDDDDDDDDDDDDDDDDDytttycVVVVVVVVVVVVVVVVVVVVVVVVVVVVVVVVVVVVVVN4$###DDDDDDDDDDDDDDDDDDDDDDDDD",
"DDDDDDDDDDDDDDDDDDDDDDDDDyttttycVVVVVVVVVVVVVVmzkzbNVVVVVVVVVVVVVVVVce%###*DDDDDDDDDDDDDDDDDDDDDDDDD",
"DDDDDDDDDDDDDDDDDDDDDDDDDDyyttythNVVVVVVVVVVVculnnlhkcmNVVVVVVVVVVBkt&###%DDDDDDDDDDDDDDDDDDDDDDDDDD",
"DDDDDDDDDDDDDDDDDDDDDDDDDDuttttttucVVVVVVVVVkunSSAAZblhubVVVVVVVVbut*####*DDDDDDDDDDDDDDDDDDDDDDDDDD",
"DDDDDDDDDDDDDDDDDDDDDDDDDDDyyytttttkbVVVVVbhjZSSSSSSSSSnumVVVVNbzy9:####%DDDDDDDDDDDDDDDDDDDDDDDDDDD",
"DDDDDDDDDDDDDDDDDDDDDDDDDDDDeyttttttthzNNkyvASSSSSSSSSSSkhVVNckyt5:#####DDDDDDDDDDDDDDDDDDDDDDDDDDDD",
"DDDDDDDDDDDDDDDDDDDDDDDDDDDDO5ttttttttyuuynSSSSSSSSSSSSSvuzkuyyy3$##### DDDDDDDDDDDDDDDDDDDDDDDDDDDD",
"DDDDDDDDDDDDDDDDDDDDDDDDDDDDDX19ttttttttthSSSSSSSSSSSSSSZuttte9:###### DDDDDDDDDDDDDDDDDDDDDDDDDDDDD",
"DDDDDDDDDDDDDDDDDDDDDDDDDDDDDDX*35tttttttjASSSSSSSSSSSSSAltt4<$$#####XDDDDDDDDDDDDDDDDDDDDDDDDDDDDDD",
"DDDDDDDDDDDDDDDDDDDDDDDDDDDDDDDD@*>5ttttthASSSSSSSSSSSSSSZ8:$######+DDDDDDDDDDDDDDDDDDDDDDDDDDDDDDDD",
"DDDDDDDDDDDDDDDDDDDDDDDDDDDDDDDDDO#$$<5eelASSSSSSSSSSSSSSA8####$##oDDDDDDDDDDDDDDDDDDDDDDDDDDDDDDDDD",
"DDDDDDDDDDDDDDDDDDDDDDDDDDDDDDDDDDD@@###$rASSSSSSSSSSSSSSAp####@@DDDDDDDDDDDDDDDDDDDDDDDDDDDDDDDDDDD",
"DDDDDDDDDDDDDDDDDDDDDDDDDDDDDDDDDDDDD+@$#wSSSSSSSSSSSSSSSC,#$@ODDDDDDDDDDDDDDDDDDDDDDDDDDDDDDDDDDDDD",
"DDDDDDDDDDDDDDDDDDDDDDDDDDDDDDDDDDDDDDDD.wASSSSSSSSSSSSSSp@XDDDDDDDDDDDDDDDDDDDDDDDDDDDDDDDDDDDDDDDD",
"DDDDDDDDDDDDDDDDDDDDDDDDDDDDDDDDDDDDDDDDDDCSSSSSSSSSSSSSgDDDDDDDDDDDDDDDDDDDDDDDDDDDDDDDDDDDDDDDDDDD",
"DDDDDDDDDDDDDDDDDDDDDDDDDDDDDDDDDDDDDDDDDD;gSSSSSSSSSSSA=DDDDDDDDDDDDDDDDDDDDDDDDDDDDDDDDDDDDDDDDDDD",
"DDDDDDDDDDDDDDDDDDDDDDDDDDDDDDDDDDDDDDDDDDDDfSSSSSSSSSSgDDDDDDDDDDDDDDDDDDDDDDDDDDDDDDDDDDDDDDDDDDDD",
"DDDDDDDDDDDDDDDDDDDDDDDDDDDDDDDDDDDDDDDDDDDDDgSSSSSSSSAiDDDDDDDDDDDDDDDDDDDDDDDDDDDDDDDDDDDDDDDDDDDD",
"DDDDDDDDDDDDDDDDDDDDDDDDDDDDDDDDDDDDDDDDDDDDDDSSSSSSSSDDDDDDDDDDDDDDDDDDDDDDDDDDDDDDDDDDDDDDDDDDDDDD",
"DDDDDDDDDDDDDDDDDDDDDDDDDDDDDDDDDDDDDDDDDDDDDDDDDDDDDDDDDDDDDDDDDDDDDDDDDDDDDDDDDDDDDDDDDDDDDDDDDDDD",
"DDDDDDDDDDDDDDDDDDDDDDDDDDDDDDDDDDDDDDDDDDDDDDDDDDDDDDDDDDDDDDDDDDDDDDDDDDDDDDDDDDDDDDDDDDDDDDDDDDDD",
"DDDDDDDDDDDDDDDDDDDDDDDDDDDDDDDDDDDDDDDDDDDDDDDDDDDDDDDDDDDDDDDDDDDDDDDDDDDDDDDDDDDDDDDDDDDDDDDDDDDD",
"DDDDDDDDDDDDDDDDDDDDDDDDDDDDDDDDDDDDDDDDDDDDDDDDDDDDDDDDDDDDDDDDDDDDDDDDDDDDDDDDDDDDDDDDDDDDDDDDDDDD",
"DDDDDDDDDDDDDDDDDDDDDDDDDDDDDDDDDDDDDDDDDDDDDDDDDDDDDDDDDDDDDDDDDDDDDDDDDDDDDDDDDDDDDDDDDDDDDDDDDDDD",
"DDDDDDDDDDDDDDDDDDDDDDDDDDDDDDDDDDDDDDDDDDDDDDDDDDDDDDDDDDDDDDDDDDDDDDDDDDDDDDDDDDDDDDDDDDDDDDDDDDDD",
"DDDDDDDDDDDDDDDDDDDDDDDDDDDDDDDDDDDDDDDDDDDDDDDDDDDDDDDDDDDDDDDDDDDDDDDDDDDDDDDDDDDDDDDDDDDDDDDDDDDD",
"DDDDDDDDDDDDDDDDDDDDDDDDDDDDDDDDDDDDDDDDDDDDDDDDDDDDDDDDDDDDDDDDDDDDDDDDDDDDDDDDDDDDDDDDDDDDDDDDDDDD",
"DDDDDDDDDDDDDDDDDDDDDDDDDDDDDDDDDDDDDDDDDDDDDDDDDDDDDDDDDDDDDDDDDDDDDDDDDDDDDDDDDDDDDDDDDDDDDDDDDDDD",
"DDDDDDDDDDDDDDDDDDDDDDDDDDDDDDDDDDDDDDDDDDDDDDDDDDDDDDDDDDDDDDDDDDDDDDDDDDDDDDDDDDDDDDDDDDDDDDDDDDDD",
"DDDDDDDDDDDDDDDDDDDDDDDDDDDDDDDDDDDDDDDDDDDDDDDDDDDDDDDDDDDDDDDDDDDDDDDDDDDDDDDDDDDDDDDDDDDDDDDDDDDD",
"DDDDDDDDDDDDDDDDDDDDDDDDDDDDDDDDDDDDDDDDDDDDDDDDDDDDDDDDDDDDDDDDDDDDDDDDDDDDDDDDDDDDDDDDDDDDDDDDDDDD",
"DDDDDDDDDDDDDDDDDDDDDDDDDDDDDDDDDDDDDDDDDDDDDDDDDDDDDDDDDDDDDDDDDDDDDDDDDDDDDDDDDDDDDDDDDDDDDDDDDDDD"
};
