/* XPM */
static char *_632670458795[] = {
/* columns rows colors chars-per-pixel */
"100 50 114 2 ",
"   c #000000",
".  c #090708",
"X  c #0C0A0B",
"o  c #100E0F",
"O  c #120F11",
"+  c #161315",
"@  c #181617",
"#  c #1A1718",
"$  c #1D191B",
"%  c #231F21",
"&  c #252123",
"*  c #292527",
"=  c #2A2628",
"-  c #2E2A2C",
";  c #312C2F",
":  c #332E31",
">  c #373235",
",  c #383236",
"<  c #3E383C",
"1  c #403A3D",
"2  c #453E42",
"3  c #4A4347",
"4  c #4B4348",
"5  c #4F484C",
"6  c #524A4F",
"7  c #585055",
"8  c #5D5459",
"9  c #61585D",
"0  c #675E63",
"q  c #685E64",
"w  c #6D6369",
"e  c #72686D",
"r  c #756B71",
"t  c #796E74",
"y  c #7B7077",
"u  c #80757B",
"i  c #877B82",
"p  c #897D84",
"a  c #E17C97",
"s  c #E17D98",
"d  c #8C8087",
"f  c #92858C",
"g  c #968991",
"h  c #9B8D95",
"j  c #9E9098",
"k  c #A3949C",
"l  c #A798A1",
"z  c #AB9CA5",
"x  c #B1A2AA",
"c  c #B7A7B0",
"v  c #BAAAB3",
"b  c #DE839C",
"n  c #E2829C",
"m  c #DA8BA1",
"M  c #CF9FAF",
"N  c #D693A6",
"B  c #D497AA",
"V  c #DD94A9",
"C  c #D39CAD",
"Z  c #E387A0",
"A  c #E38CA4",
"S  c #E490A7",
"D  c #E494AA",
"F  c #E599AF",
"G  c #E69CB2",
"H  c #CEA0AF",
"J  c #CCA5B3",
"K  c #C8AAB6",
"L  c #DEA3B6",
"P  c #D4A4B4",
"I  c #C3B2BC",
"U  c #C9B3BE",
"Y  c #D7B0BE",
"T  c #E7A2B7",
"R  c #E8A2B7",
"E  c #E7A5B9",
"W  c #E8A6BA",
"Q  c #E7A8BB",
"!  c #E9AABD",
"~  c #CAB7C1",
"^  c #CCBAC4",
"/  c #CFBDC8",
"(  c #D3BBC7",
")  c #D0BEC8",
"_  c #DBBDCA",
"`  c #E9AEC0",
"'  c #E3B6C4",
"]  c #EAB2C4",
"[  c #E4B9C6",
"{  c #EBB7C8",
"}  c #E5BCCA",
"|  c #EBBCCC",
" . c #ECBFD0",
".. c #D5C2CD",
"X. c #DAC4CF",
"o. c #DAC7D1",
"O. c #DDCAD4",
"+. c #E7C0CE",
"@. c #EAC1CF",
"#. c #EBC4D3",
"$. c #E0CBD7",
"%. c #EBC9D6",
"&. c #E1CED9",
"*. c #EECCDA",
"=. c #F0CFDD",
"-. c #E6D2DD",
";. c #EED1DE",
":. c #F0D1DF",
">. c #EDD5E1",
",. c #EED9E5",
"<. c #F0D5E3",
"1. c #F1D9E6",
"2. c #F2DDE9",
"3. c None",
/* pixels */
"3.3.3.3.2.2.2.2.2.2.2.2.2.2.2.2.2.2.2.2.2.2.2.2.2.2.2.2.2.2.2.2.2.2.2.2.2.2.2.2.2.2.2.2.2.2.2.2.2.2.2.2.2.2.2.2.2.2.2.2.2.2.2.2.2.2.2.2.2.2.2.2.2.2.2.2.2.2.2.2.2.2.2.2.2.2.2.2.2.2.2.2.2.2.2.2.3.3.3.3.",
"3.3.3.2.2.2.2.2.2.2.2.2.2.2.2.2.2.2.2.2.2.2.2.2.2.2.2.2.2.2.2.2.2.2.2.2.2.2.2.2.2.2.2.2.2.2.2.2.2.2.2.2.2.2.2.2.2.2.2.2.2.2.2.2.2.2.2.2.2.2.2.2.2.2.2.2.2.2.2.2.2.2.2.2.2.2.2.2.2.2.2.2.2.2.2.2.2.3.3.3.",
"3.3.2.2.2.2.2.2.2.2.2.2.2.2.2.2.2.2.2.2.2.2.2.2.2.2.2.2.2.2.2.2.2.O.x h l ..,.2.2.2.2.2.2.2.2.2.2.2.2.2.2.2.2.2.2.2.2.2.2.2.,.I k h v -.2.2.2.2.2.2.2.2.2.2.2.2.2.2.2.2.2.2.2.2.2.2.2.2.2.2.2.2.2.2.3.3.",
"3.3.2.2.2.2.2.2.2.2.2.2.2.2.2.2.2.2.2.2.2.2.2.2.2.2.2.2.2.2.2.2.) r , X & 8 c ,.2.2.2.2.2.2.2.2.2.2.2.2.2.2.2.2.2.2.2.2.2.>.l 5 $ X 3 p O.2.2.2.2.2.2.2.2.2.2.2.2.2.2.2.2.2.2.2.2.2.2.2.2.2.2.2.2.2.3.3.",
"3.2.2.2.2.2.2.2.2.2.2.2.2.2.2.2.2.2.2.2.2.2.2.2.2.2.2.2.2.2.2.o.w O       . 6 ^ 2.2.2.2.2.2.2.2.2.2.2.2.2.2.2.2.2.2.2.2.,.c >         & f -.2.2.2.2.2.2.2.2.2.2.2.2.2.2.2.2.2.2.2.2.2.2.2.2.2.2.2.2.2.3.",
"3.2.2.2.2.2.2.2.2.2.2.2.2.2.2.2.2.2.2.2.2.2.2.2.2.2.2.2.2.2.,.k *           O y >.2.2.2.2.2.2.2.2.2.2.2.2.2.2.2.2.2.2.2.&.7             3 I 2.2.2.2.2.2.2.2.2.2.2.2.2.2.2.2.2.2.2.2.2.2.2.2.2.2.2.2.2.2.",
"2.2.2.2.2.2.2.2.2.2.2.2.2.2.2.2.2.2.2.2.2.2.2.2.2.2.2.2.2.2.O.w               4 I 2.2.2.2.2.2.2.2.2.2.2.2.2.2.2.2.2.2.,.z -               h >.2.2.2.2.2.2.2.2.2.2.2.2.2.2.2.2.2.2.2.2.2.2.2.2.2.2.2.2.2.",
"2.2.2.2.2.2.2.2.2.2.2.2.2.2.2.2.2.2.2.2.2.2.2.2.2.2.2.2.2.2.v ,               @ k 2.2.2.2.2.2.2.2.2.2.2.2.2.2.2.2.2.2.,.y X               8 ..2.2.2.2.2.2.2.2.2.2.2.2.2.2.2.2.2.2.2.2.2.2.2.2.2.2.2.2.2.",
"2.2.2.2.2.2.2.2.2.2.2.2.2.2.2.2.2.2.2.2.2.2.2.2.2.2.2.2.2.2.x #                 j 1.2.2.2.2.2.2.2.2.2.2.2.2.2.2.2.2.2.,.r                 ; ^ 2.2.2.2.2.2.2.2.2.2.2.2.2.2.2.2.2.2.2.2.2.2.2.2.2.2.2.2.2.",
"2.2.2.2.2.2.2.2.2.2.2.2.2.2.2.2.2.2.2.2.2.2.2.2.2.2.2.2.2.2.z X                 j 2.2.2.2.2.2.2.2.2.2.2.2.2.2.2.2.2.2.,.e                 & ^ 2.2.2.2.2.2.2.2.2.2.2.2.2.2.2.2.2.2.2.2.2.2.2.2.2.2.2.2.2.",
"2.2.2.2.2.2.2.2.2.2.2.2.2.2.2.2.2.2.2.2.2.2.2.2.2.2.2.2.2.2.x @                 j 2.2.2.2.2.2.2.2.2.2.2.2.2.2.2.2.2.2.,.r                 = ^ 2.2.2.2.2.2.2.2.2.2.2.2.2.2.2.2.2.2.2.2.2.2.2.2.2.2.2.2.2.",
"2.2.2.2.2.2.2.2.2.2.2.2.2.2.2.2.2.2.2.2.2.2.2.2.2.2.2.2.2.2.c :               . j 2.2.2.2.2.2.2.2.2.2.2.2.2.2.2.2.2.2.,.t .               1 / 2.2.2.2.2.2.2.2.2.2.2.2.2.2.2.2.2.2.2.2.2.2.2.2.2.2.2.2.2.",
"2.2.2.2.2.2.2.2.2.2.2.2.2.2.2.2.2.2.2.2.2.2.2.2.2.2.2.2.2.2...0               > x 2.2.2.2.2.2.2.2.2.2.2.2.2.2.2.2.2.2.,.g &               u &.2.2.2.2.2.2.2.2.2.2.2.2.2.2.2.2.2.2.2.2.2.2.2.2.2.2.2.2.2.",
"2.2.2.2.2.2.2.2.2.2.1.1.2.2.2.2.2.2.2.2.2.2.2.2.2.2.2.2.2.2.>.d @           . q ..2.2.2.2.2.2.2.2.2.2.2.2.2.2.2.2.2.2.,.~ 4             * l ,.2.2.2.2.2.2.2.2.2.2.2.2.2.2.2.2.2.1.1.1.2.2.2.2.2.2.2.2.2.",
"2.2.2.2.2.2.2.2.2.<.W F ! %.:.1.1.2.2.2.2.2.2.2.2.2.2.2.2.2.1.~ 9 .         , l ,.2.2.2.2.2.2.2.2.2.2.2.2.2.2.2.2.2.2.2.-.f *         O r o.2.2.2.2.2.2.2.2.2.2.2.2.2.2.1.<.:.#.W S ] 1.2.2.2.2.2.2.2.2.",
"2.2.2.2.2.2.2.2.2.=.D n n n D ! #.*.1.2.2.2.2.2.2.2.2.2.2.2.2.-.x 8 O . X < p ..2.2.2.2.2.2.2.2.2.2.2.2.2.2.2.2.2.2.2.2.,.^ y ; X . $ w c >.2.2.2.2.2.2.2.2.2.2.2.2.1.*.| W A n s s ! <.2.2.2.2.2.2.2.2.",
"2.2.2.2.2.2.2.2.2.1.#.] G n n s n D W { =.1.2.2.2.2.2.2.2.2.2.1.O.x g y g k / <.2.2.2.2.2.2.2.2.2.2.2.2.2.2.2.2.2.2.2.2.2.,.I j f i h v &.2.2.2.2.2.2.2.2.2.1.<.#.] T S n n n n T ] *.2.2.2.2.2.2.2.2.2.",
"1.2.2.2.2.2.2.2.2.2.2.1.<.#.] F Z n n n A G ] =.1.1.2.2.2.2.2.2.,.$.^ I ~ o.>.2.2.2.2.2.2.2.2.2.2.2.2.2.2.2.2.2.2.2.2.2.2.2.,...~ I ) &.2.2.2.2.2.2.2.1.<.#.` G A n n n Z T { %.:.1.2.2.2.2.2.2.2.2.2.2.",
"%.1.2.2.2.2.2.2.2.2.2.2.2.2.1.<.=.] T A n s n Z G ] %.:.1.2.2.2.2.2.,.,.,.2.2.2.2.2.2.2.2.2.2.2.2.2.2.2.2.2.2.2.2.2.2.2.2.2.2.,.1.,.1.2.2.2.2.1.<.:. .` D Z s a n D R { =.1.2.2.2.2.2.2.2.2.2.2.2.2.2.2.",
"} >.2.2.2.2.2.2.2.2.2.2.2.2.2.2.1.1.<.%.{ ! S n s s Z G `  .:.1.2.2.2.2.2.2.2.2.2.2.2.2.2.2.2.2.2.2.2.2.2.2.2.2.2.2.2.2.2.2.2.2.2.2.2.1.2.1.*. .` D Z s s Z D ` | *.1.1.2.2.2.2.2.2.2.2.2.2.2.2.2.2.2.2.",
"' #.1.2.2.2.2.2.2.2.2.2.2.2.2.2.2.2.2.2.2.1.=.| ` S Z n s Z F ! | :.2.2.2.2.2.2.2.2.2.2.2.2.2.2.2.2.2.2.2.2.2.2.2.2.2.2.2.2.2.2.2.2.1.=.{ W S Z a s Z D ` #.=.1.2.2.2.2.2.2.2.2.2.2.2.2.2.2.2.2.2.2.2.%.",
"' } *.2.2.2.2.1.<.>.<.<.1.<.<.<.<.<.<.,.<.<.<.<.:.*.{ G A n s s n D E { :.<.2.2.2.2.2.2.2.2.2.2.2.2.2.2.2.2.2.2.2.2.2.2.2.2.2.>.=.{ G A Z s s n A `  .=.<.<.<.1.<.<.1.<.1.;.1.;.<.1.1.:.<.1.2.2.2.2.;.} ",
"' ' } <.2.2.=.` T T T T R R R R R R R R T T R R R R R G G A n s s s n n A W =.2.2.2.2.2.2.2.2.2.2.2.2.2.2.2.2.2.2.2.2.2.2.2.#.G Z s s s a a Z S G G G G G G W W T T T T T T T T T T T T T ] :.2.2.,.#.' ",
"' ' [ #.1.2.#.Z n n s n s n s s s n s n s n n s s n s s s a a a s a s s n n | 2.2.2.2.2.2.2.2.2.2.2.2.2.2.2.2.2.2.2.2.2.2.1.` n s s s s s a a s a s s Z s Z s s n n s n s n s n n s n n n D *.2.1.*.} [ ",
"' ' ' } ;.2.>.{ ! ! ! ! ! ! ! ! ! ! ! ! W ! ! W R G G A Z s a a s s n A F ] :.2.2.2.2.2.2.2.2.2.2.2.2.2.2.2.2.2.2.2.2.2.2.2.%.W S Z n s s a s s Z S G G W W ! W W W ! ! ! ! ! W W W W ! ! | 1.2.>.} ' ' ",
"' ' ' ' +.>.2.1.1.<.<.1.<.1.1.1.,.<.<.1.<.*.#.{ G S Z s s s Z S F W | *.1.1.2.2.2.2.2.2.:.=.%.=.*.*.=.%.*.*.*.*.<.2.2.2.2.2.2.1.<.=.| W F A n s s n n S W { *.:.:.1.1.1.1.1.<.1.1.1.1.1.1.2.2.1.#.' ' ' ",
"' ' ' ' ' %.,.2.2.2.2.2.2.2.2.2.<.<.#.| ` G A s s s s S G ` | %.1.2.2.2.2.2.2.2.2.2.2.#.G n n n n n n n n n n n W *.2.2.2.2.2.2.2.2.2.1.<.#.| ! G A n n n n Z G ] | *.:.1.2.2.2.2.2.2.2.2.2.2.*.[ ' ' ' ",
"' ' ' ' ' } *.2.2.2.2.1.2.<.#.{ ! G A n s s n A G `  .=.:.2.2.2.2.2.2.2.2.2.2.2.2.2.<.F s s n s s a s s s s s s n E 1.2.2.2.2.2.2.2.2.2.2.2.2.2.:.%.@.! F n n n n n A G ! { =.<.1.2.2.2.2.2.:.+.' ' ' ' ",
"' ' ' ' ' ' } >.2.2.*.| W D A Z s n Z A G ! #.=.<.2.2.2.2.2.2.2.2.2.2.2.2.2.2.2.2.2.@.n a s s s a s a s s s s a s S *.2.2.2.2.2.2.2.2.2.2.2.2.2.2.2.2.1.<.=.{ W F Z n s n n S F ! @.:.2.2.1.+.' ' ' ' ' ",
"' ' ' ' ' ' ' +.1.:.G n n n n A G ! | =.<.1.1.2.2.2.2.2.2.2.2.2.2.2.2.2.2.2.2.2.2.2.{ n s s a a s s a s s s s s s Z #.2.2.2.2.2.2.2.2.2.2.2.2.2.2.2.2.2.2.2.2.1.<.=.{ ! F A n n n n W 1.1.%.[ ' ' ' ' ' ",
"' ' ' ' ' ' ' ' #.;.T S G ] | *.<.1.2.2.2.2.2.2.2.2.2.2.2.2.2.2.2.2.2.2.2.2.2.2.2.2.| n s s s s s a s s s s s s s A *.2.2.2.2.2.2.2.2.2.2.2.2.2.2.2.2.2.2.2.2.2.2.2.2.1.:.%.| ! F S ! ;.%.[ ' ' ' ' ' ' ",
"' ' ' ' ' ' ' ' [ *.*.*.>.1.2.2.2.2.2.2.2.2.2.2.2.2.2.2.2.2.2.2.2.2.2.2.2.2.2.2.2.2.%.n s a a s s s s a s s s s s D ;.2.2.2.2.2.2.2.2.2.2.2.2.2.2.2.2.2.2.2.2.2.2.2.2.2.2.2.2.1.:.;.1.;.+.' ' ' ' ' ' ' ",
"' ' ' ' ' ' ' ' [ [ -.2.2.2.2.2.2.2.2.2.2.2.2.2.2.2.2.2.2.2.2.2.2.2.2.2.2.2.2.2.2.2.;.V a a s a s s s a a s s s b L ,.2.2.2.2.2.2.2.2.2.2.2.2.2.2.2.2.2.2.2.2.2.2.2.2.2.2.2.2.2.2.2.;.+.' ' ' ' ' ' ' ' ",
"' ' ' ' ' ' ' ' ' ' [ ;.2.2.2.2.2.2.2.2.2.2.2.2.2.2.2.2.2.2.2.2.2.2.2.2.2.2.2.2.2.2.,.Y b a s s s a s s s a a s b _ 2.2.2.2.2.2.2.2.2.2.2.2.2.2.2.2.2.2.2.2.2.2.2.2.2.2.2.2.2.2.2.;.+.[ ' ' ' ' ' ' ' ' ",
"' ' ' ' ' ' ' ' ' ' ' +.;.2.2.2.2.2.2.2.2.2.2.2.2.2.2.2.2.2.2.2.2.2.2.2.2.2.2.2.2.2.2.$.C b s s s s a s a a a b P -.2.2.2.2.2.2.2.2.2.2.2.2.2.2.2.2.2.2.2.2.2.2.2.2.2.2.2.2.2.2.,.+.' ' ' ' ' ' ' ' ' ' ",
"' ' ' ' ' ' ' ' ' ' ' ' +.,.2.2.2.2.2.2.2.2.2.2.2.2.2.2.2.2.2.2.2.2.2.2.2.2.2.2.2.2.2.,.( B b s a a s s a b b M X.,.2.2.2.2.2.2.2.2.2.2.2.2.2.2.2.2.2.2.2.2.2.2.2.2.2.2.2.2.2.1.+.' ' ' ' ' ' ' ' ' ' ' ",
"' ' ' ' ' ' ' ' ' ' ' ' ' +.;.2.2.2.2.2.2.2.2.2.2.2.2.2.2.2.2.2.2.2.2.2.2.2.2.2.2.2.2.2.-.( J N b b b b b B J ..,.2.2.2.2.2.2.2.2.2.2.2.2.2.2.2.2.2.2.2.2.2.2.2.2.2.2.2.2.2.1.+.' ' ' ' ' ' ' ' ' ' ' ' ",
"' ' ' ' ' ' ' ' ' ' ' ' ' ' +.,.2.2.2.2.2.2.2.2.2.2.2.2.2.2.2.2.2.2.2.2.2.2.2.2.2.2.2.2.2.;...~ J M H H K ~ O.,.2.2.2.2.2.2.2.2.2.2.2.2.2.2.2.2.2.2.2.2.2.2.2.2.2.2.2.2.2.,.+.[ ' ' ' ' ' ' ' ' ' ' ' ' ",
"' ' ' ' ' ' ' ' ' ' ' ' ' ' _ +.;.2.2.2.2.2.2.2.2.2.2.2.2.2.2.2.2.2.2.2.2.2.2.2.2.2.2.2.2.2.2.-.O.....o.$.>.,.2.2.2.2.2.2.2.2.2.2.2.2.2.2.2.2.2.2.2.2.2.2.2.2.2.2.2.2.2.>.+.[ ' ' ' ' ' ' ' ' ' ' ' ' ' ",
"' ' ' ' ' ' ' ' ' ' ' ' ' ' ! ' +.;.2.2.2.2.2.2.2.2.2.2.2.2.2.2.2.2.2.2.2.2.2.2.2.2.2.2.2.2.2.2.,.,.,.,.2.2.2.2.2.2.2.2.2.2.2.2.2.2.2.2.2.2.2.2.2.2.2.2.2.2.2.2.2.2.2.;.+.[ ' ' ' ' ' ' ' ' ' ' ' ' ' ' ",
"' ' ' ' ' ' ' ' ' ' ' ' ' ' ' ' ' } ;.1.2.2.2.2.2.2.2.2.2.2.2.2.2.2.2.2.2.2.2.2.2.2.2.2.2.2.2.2.2.2.2.2.2.2.2.2.2.2.2.2.2.2.2.2.2.2.2.2.2.2.2.2.2.2.2.2.2.2.2.2.2.2.*.} ' ' ' ' ' ' ' ' ' ' ' ' ' ' ' [ ",
"' ' ' ' ' ' ' ' ' ' ' ' ' ' ' ' ' ' [ %.1.2.2.2.2.2.2.2.2.2.2.2.2.2.2.2.2.2.2.2.2.2.2.2.2.2.2.2.2.2.2.2.2.2.2.2.2.2.2.2.2.2.2.2.2.2.2.2.2.2.2.2.2.2.2.2.2.2.2.2.1.%.[ ' ' ' ' ' ' ' ' ' ' ' ' ' ' ' ' [ ",
"} ' ' ' ' ' ' ' ' ' ' ' ' ' ' ' ' ' ' [ #.;.2.2.2.2.2.2.2.2.2.2.2.2.2.2.2.2.2.2.2.2.2.2.2.2.2.2.2.2.2.2.2.2.2.2.2.2.2.2.2.2.2.2.2.2.2.2.2.2.2.2.2.2.2.2.2.2.2.>.#.[ ' ' ' ' ' ' ' ' ' ' ' ' ' ' ' ' ' [ ",
"} ' ' ' ' ' ' ' ' ' ' ' ' ' ' ' ' ' ' ' ' } ;.1.2.2.2.2.2.2.2.2.2.2.2.2.2.2.2.2.2.2.2.2.2.2.2.2.2.2.2.2.2.2.2.2.2.2.2.2.2.2.2.2.2.2.2.2.2.2.2.2.2.2.2.2.2.1.;.} ' ' ' ' ' ' ' ' ' ' ' ' ' ' ' ' ' ' ' } ",
"} ' ' ' ' ' ' ' ' ' ' ' ' ' ' ' ' ' ' ' ' ' [ %.>.2.2.2.2.2.2.2.2.2.2.2.2.2.2.2.2.2.2.2.2.2.2.2.2.2.2.2.2.2.2.2.2.2.2.2.2.2.2.2.2.2.2.2.2.2.2.2.2.2.2.2.>.#.} ' ' ' ' ' ' ' ' ' ' ' ' ' ' ' ' ' ' ' ' } ",
"' [ ' ' ' ' ' ' ' ' ' ' ' ' ' ' ' ' ' ' ' ' ' [ +.-.1.2.2.2.2.2.2.2.2.2.2.2.2.2.2.2.2.2.2.2.2.2.2.2.2.2.2.2.2.2.2.2.2.2.2.2.2.2.2.2.2.2.2.2.2.2.2.2.,.*.} ' ' ' ' ' ' ' ' ' ' ' ' ' ' ' ' ' ' ' ' ' } 3.",
"[ } ' ' ' ' ' ' ' ' ' ' ' ' ' ' ' ' ' ' ' ' ' ' ' [ #.;.2.2.2.2.2.2.2.2.2.2.2.2.2.2.2.2.2.2.2.2.2.2.2.2.2.2.2.2.2.2.2.2.2.2.2.2.2.2.2.2.2.2.2.2.,.*.+.[ ' ' ' ' ' ' ' ' ' ' ' ' ' ' ' ' ' ' ' ' ' ' } 3.",
"3.3.' ' ' ' ' ' ' ' ' ' ' ' ' ' ' ' ' ' ' ' ' ' ' ' ' } %.;.,.2.2.2.2.2.2.2.2.2.2.2.2.2.2.2.2.2.2.2.2.2.2.2.2.2.2.2.2.2.2.2.2.2.2.2.2.2.2.2.>.*.+.[ ' ' ' ' ' ' ' ' ' ' ' ' ' ' ' ' ' ' ' ' ' ' ' [ 3.3.",
"3.3.| [ ' ' ' ' ' ' ' ' ' ' ' ' ' ' ' ' ' ' ' ' ' ' ' ' ' } #.;.,.2.2.2.2.2.2.2.2.2.2.2.2.2.2.2.2.2.2.2.2.2.2.2.2.2.2.2.2.2.2.2.2.2.2.1.>.%.+.[ ' ' ' ' ' ' ' ' ' ' ' ' ' ' ' ' ' ' ' ' ' ' ' ' ' } 3.3.",
"3.3.3.} ' ' ' ' ' ' ' ' ' ' ' ' ' [ ' ' ' ' ' ' ' ' ' ' ' ' ' [ +.%.,.2.2.2.2.2.2.2.2.2.2.2.2.2.2.2.2.2.2.2.2.2.2.2.2.2.2.2.2.2.2.1.>.#.} [ ' ' ' ' ' ' ' ' ' ' ' ' ' ' ' ' ' ' ' ' ' ' ' ' ' ' } 3.3.3."
};
