/* XPM */
static char *_632766186713[] = {
/* columns rows colors chars-per-pixel */
"100 100 72 1 ",
"  c #2F2B27",
". c #322E2A",
"X c #35312E",
"o c #373430",
"O c #393633",
"+ c #3B3836",
"@ c #413F3D",
"# c #42403E",
"$ c #464442",
"% c #494847",
"& c #4D4D4C",
"* c #504F4E",
"= c #50504F",
"- c #515251",
"; c #565758",
": c #575958",
"> c #5B5E5E",
", c #5E605F",
"< c #5E6161",
"1 c #606363",
"2 c #696C6C",
"3 c #65696A",
"4 c #6A6F70",
"5 c #72777A",
"6 c #727879",
"7 c #777E80",
"8 c #797F81",
"9 c #7C8284",
"0 c #7E8588",
"q c #808688",
"w c #848B8E",
"e c #848D90",
"r c #879094",
"t c #8A9396",
"y c #8C9599",
"u c #8E999C",
"i c #939EA3",
"p c #96A1A6",
"a c #99A3A6",
"s c #9AA5A9",
"d c #9EA9AE",
"f c #9FABB1",
"g c #A2AEB4",
"h c #A3B1B7",
"j c #A5B2B9",
"k c #AAB7BC",
"l c #ACB9BF",
"z c #AEBDC4",
"x c #B0BFC5",
"c c #B1C0C7",
"v c #B4C3CA",
"b c #B8C7CD",
"n c #B8C8CF",
"m c #BBCBD3",
"M c #BFD0D6",
"N c #BFD0D8",
"B c #C3D4DB",
"V c #C6D8DF",
"C c #C7D7E0",
"Z c #C7D8E0",
"A c #CADBE4",
"S c #CDDFE8",
"D c #CFE1E9",
"F c #D2E5ED",
"G c #D5E7F0",
"H c #D6E9F2",
"J c #DBEEF7",
"K c #DCEFF8",
"L c #DDF0FA",
"P c #E1F4FE",
"I c #E4F9FF",
"U c None",
/* pixels */
"UUUUUUUUUUUUUUUUUUUUUUUUUUUUUUUUUUUUUUUUUUUUUUUUUUUUUUUUUUUUUUUUUUUUUUUUUUUUUUUUUUUUUUUUUUUUUUUUUUUU",
"UUUUUUUUUUUUUUUUUUUUUUUUUUUUUUUUUUUUUUUUUUUUUUUUUUUUUUUUUUUUUUUUUUUUUUUUUUUUUUUUUUUUUUUUUUUUUUUUUUUU",
"UUUUUUUUUUUUUUUUUUUUUUUUUUUUUUUUUUUUUUUUUUUUUUUUUUUUUUUUUUUUUUUUUUUUUUUUUUUUUUUUUUUUUUUUUUUUUUUUUUUU",
"UUUUUUUUUUUUUUUUUUUUUUUUUUUUUUUUUUUUUUUUUUUUUUUUUUUUUUUUUUUUUUUUUUUUUUUUUUUUUUUUUUUUUUUUUUUUUUUUUUUU",
"UUUUUUUUUUUUUUUUUUUUUUUUUUUUUUUUUUUUUUUUUUUUUUUUUUUUUUUUUUUUUUUUUUUUUUUUUUUUUUUUUUUUUUUUUUUUUUUUUUUU",
"UUUUUUUUUUUUUUUUUUUUUUUUUUUUUUUUUUUUUUUUUUUUUUUUUUUUUUUUUUUUUUUUUUUUUUUUUUUUUUUUUUUUUUUUUUUUUUUUUUUU",
"UUUUUUUUUUUUUUUUUUUUUUUUUUUUUUUUUUUUUUUUUUUUUUUUUUUUUUUUUUUUUUUUUUUUUUUUUUUUUUUUUUUUUUUUUUUUUUUUUUUU",
"UUUUUUUUUUUUUUUUUUUUUUUUUUUUUUUUUUUUUUUUUUUUUUUUUUUUUUUUUUUUUUUUUUUUUUUUUUUUUUUUUUUUUUUUUUUUUUUUUUUU",
"UUUUUUUUUUUUUUUUUUUUUUUUUUUUUUUUUUUUUUUUUUUUUUUUUUUUUUUUUUUUUUUUUUUUUUUUUUUUUUUUUUUUUUUUUUUUUUUUUUUU",
"UUUUUUUUUUUUUUUUUUUUUUUUUUUUUUUUUUUUUUUUUUUUUUUUUUUUUUUUUUUUUUUUUUUUUUUUUUUUUUUUUUUUUUUUUUUUUUUUUUUU",
"UUUUUUUUUUUUUUUUUUUUUUUUUUUUUUUUUUUUUUUUUUUUUUUUUUUUUUUUUUUUUUUUUUUUUUUUUUUUUUUUUUUUUUUUUUUUUUUUUUUU",
"UUUUUUUUUUUUUUUUUUUUUUUUUUUUUUUUUUUUUUUUUUUUUUUUUUUUUUUUUUUUUUUUUUUUUUUUUUUUUUUUUUUUUUUUUUUUUUUUUUUU",
"UUUUUUUUUUUUUUUUUUUUUUUUUUUUUUUUUUUUUUUUUUUUUUUUUUUUUUUUUUUUUUUUUUUUUUUUUUUUUUUUUUUUUUUUUUUUUUUUUUUU",
"UUUUUUUUUUUUUUUUUUUUUUUUUUUUUUUUUUUUUUUUUUUUUUUUUUUUUUUUUUUUUUUUUUUUUUUUUUUUUUUUUUUUUUUUUUUUUUUUUUUU",
"UUUUUUUUUUUUUUUUUUUUUUUUUUUUUUUUUUUUUUUUUUUUUUUUUUUUUUUUUUUUUUUUUUUUUUUUUUUUUUUUUUUUUUUUUUUUUUUUUUUU",
"UUUUUUUUUUUUUUUUUUUUUUUUUUUUUUUUUUUUUUUUUUUUUUUUUUUUUUUUUUUUUUUUUUUUUUUUUUUUUUUUUUUUUUUUUUUUUUUUUUUU",
"UUUUUUUUUUUUUUUUUUUUUUUUUUUUUUUUUUUUUUUUUUUUUUUUUUUUUUUUUUUUUUUUUUUUUUUUUUUUUUUUUUUUUUUUUUUUUUUUUUUU",
"UUUUUUUUUUUUUUUUUUUUUUUUUUUUUUUUUUUUUUUUUUUUUUUUUUUUUUUUUUUUUUUUUUUUUUUUUUUUUUUUUUUUUUUUUUUUUUUUUUUU",
"UUUUUUUUUUUUUUUUUUUUUUUUUUUUUUUUUUUUUUUUUUUUUUUUUUUUUUUUUUUUUUUUUUUUUUUUUUUUUUUUUUUUUUUUUUUUUUUUUUUU",
"UUUUUUUUUUUUUUUUUUUUUUUUUUUUUUUUUUUUUUUUUUUUUUUUUUUUUUUUUUUUUUUUUUUUUUUUUUUUUUUUUUUUUUUUUUUUUUUUUUUU",
"UUUUUUUUUUUUUUUUUUUUUUUUUUUUUUUUUUUUUUUUUUUUUUUUUUUUUUUUUUUUUUUUUUUUUUUUUUUUUUUUUUUUUUUUUUUUUUUUUUUU",
"UUUUUUUUUUUUUUUUUUUUUUUUUUUUUUUUUUUUUUUUUUUUUUUUUUUUUUUUUUUUUUUUUUUUUUUUUUUUUUUUUUUUUUUUUUUUUUUUUUUU",
"UUUUUUUUUUUUUUUUUUUUUUUUUUUUUUUUUUUUUUUUUUUUUUUUUUUUUUUUUUUUUUUUUUUUUUUUUUUUUUUUUUUUUUUUUUUUUUUUUUUU",
"UUUUUUUUUUUUUUUUUUUUUUUUUUUUUUUUUUUUUUUUUUUUUUUUUUUUUUUUUUUUUUUUUUUUUUUUUUUUUUUUUUUUUUUUUUUUUUUUUUUU",
"UUUUUUUUUUUUUUUUUUUUUUUUUUUUUUUUUUUUUUUUUUUUUUUUUUUUUUUUUUUUUUUUUUUUUUUUUUUUUUUUUUUUUUUUUUUUUUUUUUUU",
"UUUUUUUUUUUUUUUUUUUUUUUUUUUUUUUUUUUUUUUUUUUUUUUUUUUUUUUUUUUUUUUUUUUUUUUUUUUUUUUUUUUUUUUUUUUUUUUUUUUU",
"UUUUUUUUUUUUUUUUUUUUUUUUUUUUUUUUUUUUUUUUUUUUUUUUUUUUUUUUUUUUUUUUUUUUUUUUUUUUUUUUUUUUUUUUUUUUUUUUUUUU",
"UUUUUUUUUUUUUUUUUUUUUUUUUUUUUUUUUUUUUUUUUUUUUUUUUUUUUUUUUUUUUUUUUUUUUUUUUUUUUUUUUUUUUUUUUUUUUUUUUUUU",
"UUUUUUUUUUUUUUUUUUUUUUUUUUUUUUUUUUUUUUUUUUUUUUUUUUUUUUUUUUUUUUUUUUUUUUUUUUUUUUUUUUUUUUUUUUUUUUUUUUUU",
"UUUUUUUUUUUUUUUUUUUUUUUUUUUUUUUUUUUUUUUUUUUUUUUUUUUUUUUUUUUUUUUUUUUUUUUUUUUUUUUUUUUUUUUUUUUUUUUUUUUU",
"UUUUUUUUUUUUUUUUUUUUUUUUUUUUUUUUUUUUUUUUUUUUUUUUUUUUUUUUUUUUUUUUUUUUUUUUUUUUUUUUUUUUUUUUUUUUUUUUUUUU",
"UUUUUUUUUUUUUUUUUUUUUUUUUUUUUUUUUUUUUUUUUUUUUUUUUUUUUUUUUUUUUUUUUUUUUUUUUUUUUUUUUUUUUUUUUUUUUUUUUUUU",
"UUUUUUUUUUUUUUUUUUUUUUUUUUUUUUUUUUUUUUUUUUUUUUUUUUUUUUUUUUUUUUUUUUUUUUUUUUUUUUUUUUUUUUUUUUUUUUUUUUUU",
"UUUUUUUUUUUUUUUUUUUUUUUUUUUUUUUUUUUUUUUUUUUUUUUUUUUUUUUUUUUUUUUUUUUUUUUUUUUUUUUUUUUUUUUUUUUUUUUUUUUU",
"UUUUUUUUUUUUUUUUUUUUUUUUUUUUUUUUUUUUUUUUUUUUUUUUUUUUUUUUUUUUUUUUUUUUUUUUUUUUUUUUUUUUUUUUUUUUUUUUUUUU",
"UUUUUUUUUUUUUUUUUUUUUUUUUUUUUUUUUUUUUUUUUUUUUUUUUUUUUUUUUUUUUUUUUUUUUUUUUUUUUUUUUUUUUUUUUUUUUUUUUUUU",
"UUUUUUUUUUUUUUUUUUUUUUUUUUUUUUUUUUUUUUUUUUUUUUUUUUUUUUUUUUUUUUUUUUUUUUUUUUUUUUUUUUUUUUUUUUUUUUUUUUUU",
"UUUUUUUUUUUUUUUUUUUUUUUUUUUUUUUUUUUUUUUUUUUUUUUUUUUUUUUUUUUUUUUUUUUUUUUUUUUUUUUUUUUUUUUUUUUUUUUUUUUU",
"UUUUUUUUUUUUUUUUUUUUUUUUUUUUUUUUUUUUUUUUUUUUUUUUUUUUUUUUUUUUUUUUUUUUUUUUUUUUUUUUUUUUUUUUUUUUUUUUUUUU",
"UUUUUUUUUUUUUUUUUUUUUUUUUUUUUUUUUUUUUUUUUUUUUUUUUUUUUUUUUUUUUUUUUUUUUUUUUUUUUUUUUUUUUUUUUUUUUUUUUUUU",
"UUUUUUUUUUUUUUUUUUUUUUUUUUUUUUUUUUUUUUUUUUUUUUUUUUUUUUUUUUUUUUUUUUUUUUUUUUUUUUUUUUUUUUUUUUUUUUUUUUUU",
"UUUUUUUUUUUUUUUUUUUUUUUUUUUUUUUUUUUUUUUUUUUUUUUUUUUUUUUUUUUUUUUUUUUUUUUUUUUUUUUUUUUUUUUUUUUUUUUUUUUU",
"UUUUUUUUUUUUUUUUUUUUUUUUUUUUUUUUUUUUUUUUUUUUUUUUUUUUUUUUUUUUUUUUUUUUUUUUUUUUUUUUUUUUUUUUUUUUUUUUUUUU",
"UUUUUUUUUUUUUUUUUUUUUUUUUUUUUUUUUUUUUUUUUUUUUUUUUUUUUUUUUUUUUUUUUUUUUUUUUUUUUUUUUUUUUUUUUUUUUUUUUUUU",
"UUUUUUUUUUUUUUUUUUUUUUUUUUUUUUUUUUUUUUUUUUUUUUUUUUUUUUUUUUUUUUUUUUUUUUUUUUUUUUUUUUUUUUUUUUUUUUUUUUUU",
"UUUUUUUUUUUUUUUUUUUUUUUUUUUUUUUUUUUUUUUUUUUUUUUUUUUUUUUUUUUUUUUUUUUUUUUUUUUUUUUUUUUUUUUUUUUUUUUUUUUU",
"UUUUUUUUUUUUUUUUUUUUUUUUUUUUUUUUUUUUUUUUUUUUUUUUUUUUUUUUUUUUUUUUUUUUUUUUUUUUUUUUUUUUUUUUUUUUUUUUUUUU",
"UUUUUUUUUUUUUUUUUUUUUUUUUUUUncUUUUUUUUUUUUUUUUUUUUUUUUUUUUUUUUUUUUUUUUncUUUUUUUUUUUUUUUUUUUUUUUUUUUU",
"UUUUUUUUUUUUUUUUUUUUUUUUUUUUBzUUUUUUUUUUUUUUUUUUUUUUUUUUUUUUUUUUUUUUUUVzUUUUUUUUUUUUUUUUUUUUUUUUUUUU",
"UUUUUUUUUUUUUUUUUUUUUUUUUUUJJcUUUUUUUUUUUUUUUUUUUUUUUUUUUUUUUUUUUUUUUULvcUUUUUUUUUUUUUUUUUUUUUUUUUUU",
"UUUUUUUUUUUUUUUUUUUUUUUUUUUJJZzUUUUUUUUUUUUUUUUUUUUUUUUUUUUUUUUUUUUUUJLVzUUUUUUUUUUUUUUUUUUUUUUUUUUU",
"UUUUUUUUUUUUUUUUUUUUUUUUUUJJJHcUUUUUUUUUUUUUUUUUUUUUUUUUUUUUUUUUUUUUUJJJncUUUUUUUUUUUUUUUUUUUUUUUUUU",
"UUUUUUUUUUUUUUUUUUUUUUUUUUJJJJBxUUUUUUUUUUUUUUUUUUUUUUUUUUUUUUUUUUUUJJJJZzUUUUUUUUUUUUUUUUUUUUUUUUUU",
"UUUUUUUUUUUUUUUUUUUUUUUUUKJJJJDcUUUUUUUUUUUUUUUUUUUUUUUUUUUUUUUUUUUUJJJJFnUUUUUUUUUUUUUUUUUUUUUUUUUU",
"UUUUUUUUUUUUUUUUUUUUUUUUUJJJJJLncUUUUUUUUUUUUUUUUUUUUUUUUUUUUUUUUUUKJJJJJNcUUUUUUUUUUUUUUUUUUUUUUUUU",
"UUUUUUUUUUUUUUUUUUUUUUUUKJJJJJJFzUUUUUUUUUUUUUUUUUUUUUUUUUUUUUUUUUUJJJJJJFcnUUUUUUUUUUUUUUUUUUUUUUUU",
"UUUUUUUUUUUUUUUUUUUUUUUUHJJKJJJLnjUUUUUUUUUUUUUUUUUUUUUUUUUUUUUUUUZJJJJJJLmzUUUUUUUUUUUUUUUUUUUUUUUU",
"UUUUUUUUUUUUUUUUUUUUUOXaKJJJJJJKDc<OOUUUUUUUUUUUUUUUUUUUUUUUUUUOo2LLJJJJJLFz0oOUUUUUUUUUUUUUUUUUUUUU",
"UUUUUUUUUUUUUUUUUUOOOO=VKKJJJJJJJms+OOOOUUUUUUUUUUUUUUUUUUUUOOOO+lLJJJJJJJLmf%+oOOUUUUUUUUUUUUUUUUUU",
"UUUUUUUUUUUUUUUUOOOOOO2PJJJJJJJJJAn@OOOOOOUUUUUUUUUUUUUUUUOOOOOO%PLJJJJJJJLFv>OOOOOOUUUUUUUUUUUUUUUU",
"UUUUUUUUUUUUUUUOOOOOOOzLJJJJJJJJJHmroOOOOOOUUUUUUUUUUUUUUOOOOOO.sLLJJJJJJJJHNi+o+OOOOUUUUUUUUUUUUUUU",
"UUUUUUUUUUUUUUOOOOOOO-IJJJJJJJJJJKBc@oOOOOOOUUUUUUUUUUUUOOOOOOO@LJJJJJJJJJJLDn&oOOOOOOUUUUUUUUUUUUUU",
"UUUUUUUUUUUUUUOOOOOO xLKJJJKJJJJJJHce.OOOOOOUUUUUUUUUUUUOOOOOO.aLJJLJJJJJJJJHmp.OOOOOOUUUUUUUUUUUUUU",
"UUUUUUUUUUUUUOOOOOOo>JJJJJJJJJJJJJKNh&OOOOOOUUUUUUUUUUUUOOOOOo&VJJJJJJJJJJJJLZc:XOOOOOOUUUUUUUUUUUUU",
"UUUUUUUUUUUUUOOOOOO.lJJJJJJJJJJJJJJHc6OOOOOOUUUUUUUUUUUOOOOOOOqJJJJJJJJJJJJJJJxu.OOOOOOUUUUUUUUUUUUU",
"UUUUUUUUUUUUUUOOOOO:SJJJJJJJJJJJJJJJBs@OOOOOUUUUUUUUUUUUOOOOO$nKJJJJJJJJJJKJJKVj;oOOOOUUUUUUUUUUUUUU",
"UUUUUUUUUUUUUUOOOO+yJJJJJJJJJLJJJJJJFn<oOOOOUUUUUUUUUUUUOOOOO2PJJJJJJJKKJJJJJJJv7OOOOOUUUUUUUUUUUUUU",
"UUUUUUUUUUUUUUUOOO$ZJJJJJJJLFGJJJJJJJNdXOOOUUUUUUUUUUUUUUOOO.nKJJJJJJKFFKJJJJJJVg$OOOUUUUUUUUUUUUUUU",
"UUUUUUUUUUUUUUUUOO9IJJJJJJJPmBJJJJJJJSn<oOUUUUUUUUUUUUUUUUOX1IJJJJJKJLBmLJJJJKJHm3OOUUUUUUUUUUUUUUUU",
"UUUUUUUUUUUUUUUUUUvHKJJJJJJKBvFJJJJJLLcuUUUUUUUUUUUUUUUUUUUUhFLKJJJKKLVxFKJJJJKKNiUUUUUUUUUUUUUUUUUU",
"UUUUUUUUUUUUUUUUUUUUvALPKKJJHxZKJLLKVnUUUUUUUUUUUUUUUUUUUUUUUUnBKLKKKKJvmKLKLKZnUUUUUUUUUUUUUUUUUUUU",
"UUUUUUUUUUUUUUUUUUUUUUUdnBFJJBnFBvsUUUUUUUUUUUUUUUUUUUUUUUUUUUUUUdxBFKKBvDBndUUUUUUUUUUUUUUUUUUUUUUU",
"UUUUUUUUUUUUUUUUUUUUUUUUUUUJJFcUUUUUUUUUUUUUUUUUUUUUUUUUUUUUUUUUUUUUUJJJvUUUUUUUUUUUUUUUUUUUUUUUUUUU",
"UUUUUUUUUUUUUUUUUUUUUUUUUUJJJJmcUUUUUUUUUUUUUUUUUUUUUUUUUUUUUUUUUUUUJJJJVzUUUUUUUUUUUUUUUUUUUUUUUUUU",
"UUUUUUUUUUUUUUUUUUUUUUUUUUJJJKScUUUUUUUUUUUUUUUUUUUUUUUUUUUUUUUUUUUUJJJJFcUUUUUUUUUUUUUUUUUUUUUUUUUU",
"UUUUUUUUUUUUUUUUUUUUUUUUUJJJJJJncUUUUUUUUUUUUUUUUUUUUUUUUUUUUUUUUUUJKJJJKBcUUUUUUUUUUUUUUUUUUUUUUUUU",
"UUUUUUUUUUUUUUUUUUUUUUUUUJJJJJLAzUUUUUUUUUUUUUUUUUUUUUUUUUUUUUUUUUUJJJJJKFxUUUUUUUUUUUUUUUUUUUUUUUUU",
"UUUUUUUUUUUUUUUUUUUUUUUUJJJJJJJJncUUUUUUUUUUUUUUUUUUUUUUUUUUUUUUUUKJJJJJJJmxUUUUUUUUUUUUUUUUUUUUUUUU",
"UUUUUUUUUUUUUUUUUUUUUUUzJJJJJJJKZzUUUUUUUUUUUUUUUUUUUUUUUUUUUUUUUUHJJJJJJKFzpUUUUUUUUUUUUUUUUUUUUUUU",
"UUUUUUUUUUUUUUUUUUUUOO$nKJJJJJJJJme+OUUUUUUUUUUUUUUUUUUUUUUUUUUO+dPJJJJJJJLnp$OoUUUUUUUUUUUUUUUUUUUU",
"UUUUUUUUUUUUUUUUUUOOOO2PJJJJJJJJJCn+++OOUUUUUUUUUUUUUUUUUUUUOOOO%PJJJJJJJJJFc>OOOOUUUUUUUUUUUUUUUUUU",
"UUUUUUUUUUUUUUUUOOOOOOgPJJJJJJJJJHn0XOO+OOUUUUUUUUUUUUUUUUOOOOO.yPJJJJJJJJJHNyOOOOOOUUUUUUUUUUUUUUUU",
"UUUUUUUUUUUUUUUOOOOOo%IJJJJJJJJJJLBc+oOOOOOUUUUUUUUUUUUUUOOOOOO+KJJJJJJJJJJJSn$OOOOOOUUUUUUUUUUUUUUU",
"UUUUUUUUUUUUUUOOOOOO.gPJJJJJJJJJJKFc9XOOOOOOUUUUUUUUUUUUOOOOOO.tLJJJJKJJJJJJHnu.+OOOOOUUUUUUUUUUUUUU",
"UUUUUUUUUUUUUUOOOOOX-JJJJJJJJJJJJJLmg$OOOOOOUUUUUUUUUUUUOOOOOO$BJJJJJJJJJJJJKVz=oOOOOOUUUUUUUUUUUUUU",
"UUUUUUUUUUUUUOOOOOO.dJJJJJJJJJJJJJKHz4oOOOOOUUUUUUUUUUUOOOO+Oo8JJJJJJJJJJJJJKHxtXOOOOOOUUUUUUUUUUUUU",
"UUUUUUUUUUUUUOOOO+O=ZJJJJJJJJJJJJJJLmi@OOOOOUUUUUUUUUUUUOOOOO#xKJJJJJJJJJJJJJKBh&OOOOOOUUUUUUUUUUUUU",
"UUUUUUUUUUUUUUOOOOOwLJJJJJJJJJJJJJJJFc;OOOOOUUUUUUUUUUUUOOOOO,KJJJJJJJJJJJJJJJJx6OOOOOUUUUUUUUUUUUUU",
"UUUUUUUUUUUUUUOOOO#mLJJJJJJJJJJJJJJJJmiXOOOOUUUUUUUUUUUUOOOOXkPJJJJJJJKJJJJJJJJVd#OOOOUUUUUUUUUUUUUU",
"UUUUUUUUUUUUUUUOOo2IJJJJJJJJJJJJJJJJJSn&OOOUUUUUUUUUUUUUUOOO*IJJJJJJJJJJJJJJJJKFn1OOOUUUUUUUUUUUUUUU",
"UUUUUUUUUUUUUUUUOOBJJJJJJJJJJJJJJJJJJHnioOUUUUUUUUUUUUUUUUO.lPJJJJJJJJJJJJJJJJJJNfOOUUUUUUUUUUUUUUUU",
"UUUUUUUUUUUUUUUUUUmFPLJJJJJJJKJJJJJJLPmsUUUUUUUUUUUUUUUUUUUUbDKKJJJJJJJJJJJJJJLLZfUUUUUUUUUUUUUUUUUU",
"UUUUUUUUUUUUUUUUUUUUlVKLJJJJJJJJJJJKBlUUUUUUUUUUUUUUUUUUUUUUUUkBJLJJJJJJJJKJLKVzUUUUUUUUUUUUUUUUUUUU",
"UUUUUUUUUUUUUUUUUUUUUUUabBHJJJKFBxUUUUUUUUUUUUUUUUUUUUUUUUUUUUUUUUxBFKJJJHBvaUUUUUUUUUUUUUUUUUUUUUUU",
"UUUUUUUUUUUUUUUUUUUUUUUUUUUUUUUUUUUUUUUUUUUUUUUUUUUUUUUUUUUUUUUUUUUUUUUUUUUUUUUUUUUUUUUUUUUUUUUUUUUU",
"UUUUUUUUUUUUUUUUUUUUUUUUUUUUUUUUUUUUUUUUUUUUUUUUUUUUUUUUUUUUUUUUUUUUUUUUUUUUUUUUUUUUUUUUUUUUUUUUUUUU",
"UUUUUUUUUUUUUUUUUUUUUUUUUUUUUUUUUUUUUUUUUUUUUUUUUUUUUUUUUUUUUUUUUUUUUUUUUUUUUUUUUUUUUUUUUUUUUUUUUUUU",
"UUUUUUUUUUUUUUUUUUUUUUUUUUUUUUUUUUUUUUUUUUUUUUUUUUUUUUUUUUUUUUUUUUUUUUUUUUUUUUUUUUUUUUUUUUUUUUUUUUUU",
"UUUUUUUUUUUUUUUUUUUUUUUUUUUUUUUUUUUUUUUUUUUUUUUUUUUUUUUUUUUUUUUUUUUUUUUUUUUUUUUUUUUUUUUUUUUUUUUUUUUU",
"UUUUUUUUUUUUUUUUUUUUUUUUUUUUUUUUUUUUUUUUUUUUUUUUUUUUUUUUUUUUUUUUUUUUUUUUUUUUUUUUUUUUUUUUUUUUUUUUUUUU"
};
