/* XPM */
static char *_632766193100[] = {
/* columns rows colors chars-per-pixel */
"100 50 171 2 ",
"   c #322D2A",
".  c #322E2B",
"X  c #332F2B",
"o  c #332F2C",
"O  c #34302C",
"+  c #34302D",
"@  c #34312D",
"#  c #35312E",
"$  c #35322E",
"%  c #35322F",
"&  c #36322F",
"*  c #36332F",
"=  c #363330",
"-  c #373330",
";  c #373431",
":  c #383431",
">  c #383531",
",  c #383532",
"<  c #393532",
"1  c #383533",
"2  c #393533",
"3  c #383632",
"4  c #393632",
"5  c #393633",
"6  c #3A3734",
"7  c #3A3835",
"8  c #3B3835",
"9  c #3B3936",
"0  c #3C3937",
"q  c #3D3A37",
"w  c #3F3D3A",
"e  c #3F3E3B",
"r  c #403D3B",
"t  c #403E3B",
"y  c #403E3C",
"u  c #413F3C",
"i  c #42403E",
"p  c #43423F",
"a  c #454442",
"s  c #464442",
"d  c #474543",
"f  c #484745",
"g  c #484846",
"h  c #4B4B49",
"j  c #4D4E4C",
"k  c #4E4E4C",
"l  c #50504F",
"z  c #505151",
"x  c #535352",
"c  c #535453",
"v  c #555655",
"b  c #545656",
"n  c #585A5A",
"m  c #5A5C5C",
"M  c #5B5D5D",
"N  c #5C5F5F",
"B  c #606363",
"V  c #626565",
"C  c #626566",
"Z  c #636666",
"A  c #626667",
"S  c #696E6F",
"D  c #6A6E6F",
"F  c #6A6F6F",
"G  c #6B7071",
"H  c #727779",
"J  c #777D80",
"K  c #797E80",
"L  c #797F81",
"P  c #798082",
"I  c #7A8084",
"U  c #7B8285",
"Y  c #7C8486",
"T  c #808789",
"R  c #81888C",
"E  c #81898D",
"W  c #828A8D",
"Q  c #8C969B",
"!  c #919CA0",
"~  c #959FA6",
"^  c #95A0A5",
"/  c #97A1A5",
"(  c #95A0A6",
")  c #96A1A6",
"_  c #99A4A7",
"`  c #97A1A8",
"'  c #9CA7AE",
"]  c #9EA9AD",
"[  c #9DA9B0",
"{  c #A0ACB0",
"}  c #A0AEB3",
"|  c #A5B1B6",
" . c #A4B1B8",
".. c #A5B2B8",
"X. c #A5B3B9",
"o. c #A6B3BA",
"O. c #A7B5BC",
"+. c #A8B5BA",
"@. c #A9B6BB",
"#. c #A8B6BD",
"$. c #A9B7BE",
"%. c #A9B8BE",
"&. c #ABB8BE",
"*. c #ACBAC1",
"=. c #ADBBC2",
"-. c #AFBEC5",
";. c #B0BEC4",
":. c #B0BFC6",
">. c #B1BFC6",
",. c #B1C0C7",
"<. c #B1C1C7",
"1. c #B3C2CA",
"2. c #B5C5CC",
"3. c #B5C5CD",
"4. c #B6C5CC",
"5. c #B6C6CE",
"6. c #B7C7CF",
"7. c #B9C7CE",
"8. c #B7C8CF",
"9. c #B8C8CF",
"0. c #B9CAD1",
"q. c #BACAD2",
"w. c #BACBD3",
"e. c #BBCCD3",
"r. c #BCCCD4",
"t. c #BECDD4",
"y. c #C1D2DA",
"u. c #C2D3DB",
"i. c #C3D3DB",
"p. c #C3D4DC",
"a. c #C3D5DC",
"s. c #C5D6DE",
"d. c #C5D7DF",
"f. c #C6D7DF",
"g. c #C7D8DF",
"h. c #C7D9E1",
"j. c #C8DAE2",
"k. c #C9DAE2",
"l. c #C8DAE3",
"z. c #C9DAE3",
"x. c #C9DBE3",
"c. c #CADCE3",
"v. c #CADCE4",
"b. c #CBDCE4",
"n. c #CBDDE5",
"m. c #CCDEE6",
"M. c #CDDFE7",
"N. c #CFE1E9",
"B. c #D0E2EB",
"V. c #D5E7F0",
"C. c #D5E8F1",
"Z. c #D6E9F2",
"A. c #D7EAF2",
"S. c #D8EBF4",
"D. c #DAECF5",
"F. c #DAEDF6",
"G. c #DBEEF7",
"H. c #DCEFF8",
"J. c #DCF0F9",
"K. c #DDF0F9",
"L. c #DDF0FA",
"P. c #DDF1FA",
"I. c #DEF1FB",
"U. c #DEF2FB",
"Y. c #DFF2FC",
"T. c #E0F3FD",
"R. c #E0F4FD",
"E. c #E3F7FF",
"W. c #E4F9FF",
"Q. c #E5F9FF",
"!. c None",
/* pixels */
"!.!.!.!.!.!.!.!.!.!.!.!.!.!.!.!.!.!.!.!.!.!.!.!.!.!.!.!.!.!.!.!.!.!.!.!.!.!.!.!.!.!.!.!.!.!.!.!.!.!.!.!.!.!.!.!.!.!.!.!.!.!.!.!.!.!.!.!.!.!.!.!.!.!.!.!.!.!.!.!.!.!.!.!.!.!.!.!.!.!.!.!.!.!.!.!.!.!.!.!.",
"!.!.!.!.!.!.!.!.!.!.!.!.!.!.!.!.!.!.!.!.!.!.!.!.!.!.!.!.!.!.!.!.!.!.!.!.!.!.!.!.!.!.!.!.!.!.!.!.!.!.!.!.!.!.!.!.!.!.!.!.!.!.!.!.!.!.!.!.!.!.!.!.!.!.!.!.!.!.!.!.!.!.!.!.!.!.!.!.!.!.!.!.!.!.!.!.!.!.!.!.",
"!.!.!.!.!.!.!.!.!.!.!.!.!.!.!.!.!.!.!.!.!.!.!.!.!.!.!.!.!.!.!.!.!.!.!.!.!.!.!.!.!.!.!.!.!.!.!.!.!.!.!.!.!.!.!.!.!.!.!.!.!.!.!.!.!.!.!.!.!.!.!.!.!.!.!.!.!.!.!.!.!.!.!.!.!.!.!.!.!.!.!.!.!.!.!.!.!.!.!.!.",
"!.!.!.!.!.!.!.!.!.!.!.!.!.!.!.!.!.!.!.!.!.!.!.!.!.!.!.!.!.!.!.!.!.!.!.!.!.!.!.!.!.!.!.!.!.!.!.!.!.!.!.!.!.!.!.!.!.!.!.!.!.!.!.!.!.!.!.!.!.!.!.!.!.!.!.!.!.!.!.!.!.!.!.!.!.!.!.!.!.!.!.!.!.!.!.!.!.!.!.!.",
"!.!.!.!.!.!.!.!.!.!.!.!.!.!.!.!.!.!.!.!.!.!.!.!.!.!.!.!.!.!.!.!.!.!.!.!.!.!.!.!.!.!.!.!.!.!.!.!.!.!.!.!.!.!.!.!.!.!.!.!.!.!.!.!.!.!.!.!.!.!.!.!.!.!.!.!.!.!.!.!.!.!.!.!.!.!.!.!.!.!.!.!.!.!.!.!.!.!.!.!.",
"!.!.!.!.!.!.!.!.!.!.!.!.!.!.!.!.!.!.!.!.!.!.!.!.!.!.!.!.!.!.!.!.!.!.!.!.!.!.!.!.!.!.!.!.!.!.!.!.!.!.!.!.!.!.!.!.!.!.!.!.!.!.!.!.!.!.!.!.!.!.!.!.!.!.!.!.!.!.!.!.!.!.!.!.!.!.!.!.!.!.!.!.!.!.!.!.!.!.!.!.",
"!.!.!.!.!.!.!.!.!.!.!.!.!.!.!.!.!.!.!.!.!.!.!.!.!.1 1 1 6 1 6 ; 1 !.!.!.!.!.!.!.!.!.!.!.!.!.!.!.!.!.!.!.!.!.!.!.!.!.!.!.!.!.!.!.!.!.!.; 1 1 6 4 1 1 1 !.!.!.!.!.!.!.!.!.!.!.!.!.!.!.!.!.!.!.!.!.!.!.!.!.",
"!.!.!.!.!.!.!.!.!.!.!.!.!.!.!.!.!.!.!.!.!.1 6 1 1 6 1 6 1 6 1 6 1 6 1 6 1 !.!.!.!.!.!.!.!.!.!.!.!.!.!.!.!.!.!.!.!.!.!.!.!.!.!.1 6 1 6 6 1 6 1 4 6 1 6 1 6 1 1 !.!.!.!.!.!.!.!.!.!.!.!.!.!.!.!.!.!.!.!.!.",
"!.!.!.!.!.!.!.!.!.!.!.!.!.!.!.!.!.!.6 6 1 6 6 4 1 4 4 6 4 6 1 6 6 1 6 1 6 4 1 4 !.!.!.!.!.!.!.!.!.!.!.!.!.!.!.!.!.!.!.!.6 1 1 6 6 4 1 1 6 4 1 6 6 1 1 4 1 4 4 6 6 1 !.!.!.!.!.!.!.!.!.!.!.!.!.!.!.!.!.!.",
"!.!.!.!.!.!.!.!.!.!.!.!.!.!.!.!.> 1 6 1 6 1 1 4 6 6 1 1 1 1 6 1 1 6 1 6 1 4 1 6 1 1 !.!.!.!.!.!.!.!.!.!.!.!.!.!.!.!.1 1 1 6 6 1 1 4 6 4 6 1 4 6 4 4 6 6 6 6 1 1 1 6 1 6 !.!.!.!.!.!.!.!.!.!.!.!.!.!.!.!.",
"!.!.!.!.!.!.!.!.!.!.!.!.!.!.!.1 6 4 1 4 1 1 6 6 4 1 6 4 6 4 1 6 4 6 6 1 1 6 4 6 6 1 1 !.!.!.!.!.!.!.!.!.!.!.!.!.!.1 1 6 6 1 1 6 1 6 4 6 4 4 1 1 1 6 4 1 4 1 6 4 6 1 6 1 1 !.!.!.!.!.!.!.!.!.!.!.!.!.!.!.",
"!.!.!.!.!.!.!.!.!.!.!.!.!.!.1 1 1 4 6 6 6 4 4 1 4 6 1 4 6 1 6 1 1 1 4 6 4 6 1 1 1 6 1 6 !.!.!.!.!.!.!.!.!.!.!.!.1 6 6 1 4 4 6 1 4 6 1 1 1 6 6 4 1 4 6 1 4 6 1 4 1 6 1 6 1 6 !.!.!.!.!.!.!.!.!.!.!.!.!.!.",
"!.!.!.!.!.!.!.!.!.!.!.!.!.!.1 6 6 4 1 1 1 4 4 6 1 1 6 4 ; ; 1 6 6 4 1 6 4 1 6 4 6 1 1 6 !.!.!.!.!.!.!.!.!.!.!.!.4 6 6 1 1 1 6 4 1 6 4 4 6 6 ; & 6 4 1 6 4 1 6 6 6 4 1 6 4 1 !.!.!.!.!.!.!.!.!.!.!.!.!.!.",
"!.!.!.!.!.!.!.!.!.!.!.!.!.1 6 1 1 4 6 4 6 6 1 1 6 4 6 * p m ; 1 6 1 4 6 4 6 1 4 1 6 4 6 !.!.!.!.!.!.!.!.!.!.!.!.1 1 4 4 6 4 6 1 4 6 1 6 1 ; e B $ 6 1 4 6 1 4 1 6 1 4 6 4 6 6 !.!.!.!.!.!.!.!.!.!.!.!.!.",
"!.!.!.!.!.!.!.!.!.!.!.!.!.1 1 6 1 6 4 6 4 1 6 4 6 1 6 O Q ! O 1 4 4 1 1 1 1 6 6 6 4 1 1 !.!.!.!.!.!.!.!.!.!.!.1 6 4 1 6 4 6 4 1 6 1 6 1 6 O P | O 6 6 4 6 4 1 4 4 4 1 1 1 1 > !.!.!.!.!.!.!.!.!.!.!.!.!.",
"!.!.!.!.!.!.!.!.!.!.!.!.!.!.6 1 4 6 1 1 4 6 1 6 1 6 * s g.| z 1 1 6 6 4 6 4 4 1 1 6 6 4 !.!.!.!.!.!.!.!.!.!.!.!.6 1 4 6 1 1 4 6 1 6 1 6 1 w ,.,.V O 6 1 1 4 6 6 1 6 6 4 6 4 !.!.!.!.!.!.!.!.!.!.!.!.!.!.",
"!.!.!.!.!.!.!.!.!.!.!.!.!.!.1 6 1 6 1 6 1 1 6 4 6 1 O / S.1.P 7 1 6 6 4 6 4 4 1 4 1 1 6 !.!.!.!.!.!.!.!.!.!.!.!.1 6 6 1 6 1 6 1 6 1 6 6 4 H S.4.! 7 6 1 6 4 1 1 6 1 6 1 6 6 !.!.!.!.!.!.!.!.!.!.!.!.!.!.",
"!.!.!.!.!.!.!.!.!.!.!.!.!.!.!.1 6 1 6 1 6 4 6 1 1 1 k i.G.g.[ a 4 4 1 1 1 1 6 6 6 6 4 !.!.!.!.!.!.!.!.!.!.!.!.!.!.1 1 6 1 6 1 6 1 6 4 1 t +.P.m.+.n 1 6 1 6 6 4 1 6 1 6 1 !.!.!.!.!.!.!.!.!.!.!.!.!.!.!.",
"!.!.!.!.!.!.!.!.!.!.!.!.!.!.!.!.1 6 1 6 4 6 4 1 1 1 K H.G.B.e.V 1 4 4 6 4 6 1 4 1 4 !.!.!.!.!.!.!.!.!.!.!.!.!.!.!.!.1 1 6 1 6 4 6 1 1 1 x H.H.G.9.Y 6 6 6 1 6 1 6 1 6 1 !.!.!.!.!.!.!.!.!.!.!.!.!.!.!.!.",
"!.!.!.!.!.!.!.!.!.!.!.!.!.!.!.!.!.!.6 1 1 1 4 6 1 t t.P.G.G.i.@.6 4 1 6 4 1 6 4 !.!.!.!.!.!.!.!.!.!.!.!.!.!.!.!.!.!.!.!.4 4 6 1 1 6 1 O &.R.G.G.n.&.f 1 1 6 1 6 4 6 !.!.!.!.!.!.!.!.!.!.!.!.!.!.!.!.!.!.",
"!.!.!.!.!.!.!.!.!.!.!.!.!.!.!.!.!.!.!.!.4 1 1 6 1 V Q.H.G.H.N.9.D & 1 4 1 !.!.!.!.!.!.!.!.!.!.!.!.!.!.!.!.!.!.!.!.!.!.!.!.!.!.1 1 1 1 k E.J.G.G.C.t.P ; ; 2 1 1 !.!.!.!.!.!.!.!.!.!.!.!.!.!.!.!.!.!.!.!.",
"!.!.!.!.!.!.!.!.!.!.!.!.!.!.!.!.!.!.!.!.!.!.!.!.!.| s.c.G.S.x.&.~ !.!.!.!.!.!.!.!.!.!.!.!.!.!.!.!.!.!.!.!.!.!.!.!.!.!.!.!.!.!.!.!.!.!._ a.h.G.G.n.,.] !.!.!.!.!.!.!.!.!.!.!.!.!.!.!.!.!.!.!.!.!.!.!.!.!.",
"!.!.!.!.!.!.!.!.!.!.!.!.!.!.!.!.!.!.!.!.!.!.!.!.!.!.!.!.!.!.!.!.!.!.!.!.!.!.!.!.!.!.!.!.!.!.!.!.!.!.!.!.!.!.!.!.!.!.!.!.!.!.!.!.!.!.!.!.!.!.!.!.!.!.!.!.!.!.!.!.!.!.!.!.!.!.!.!.!.!.!.!.!.!.!.!.!.!.!.!.",
"!.!.!.!.!.!.!.!.!.!.!.!.!.!.!.!.!.!.!.!.!.!.!.!.!.!.!.!.!.!.!.!.!.!.!.!.!.!.!.!.!.!.!.!.!.!.!.!.!.!.!.!.!.!.!.!.!.!.!.!.!.!.!.!.!.!.!.!.!.!.!.!.!.!.!.!.!.!.!.!.!.!.!.!.!.!.!.!.!.!.!.!.!.!.!.!.!.!.!.!.",
"!.!.!.!.!.!.!.!.!.!.!.!.!.!.!.!.!.!.!.!.!.!.!.!.!.!.!.!.!.!.!.!.!.!.!.!.!.!.!.!.!.!.!.!.!.!.!.!.!.!.!.!.!.!.!.!.!.!.!.!.!.!.!.!.!.!.!.!.!.!.!.!.!.!.!.!.!.!.!.!.!.!.!.!.!.!.!.!.!.!.!.!.!.!.!.!.!.!.!.!.",
"!.!.!.!.!.!.!.!.!.!.!.!.!.!.!.!.!.!.!.!.!.!.!.!.!.!.!.!.!.!.!.!.!.!.!.!.!.!.!.!.!.!.!.!.!.!.!.!.!.!.!.!.!.!.!.!.!.!.!.!.!.!.!.!.!.!.!.!.!.!.!.!.!.!.!.!.!.!.!.!.!.!.!.!.!.!.!.!.!.!.!.!.!.!.!.!.!.!.!.!.",
"!.!.!.!.!.!.!.!.!.!.!.!.!.!.!.!.!.!.!.!.!.!.!.!.!.!.!.!.!.!.!.!.!.!.!.!.!.!.!.!.!.!.!.!.!.!.!.!.!.!.!.!.!.!.!.!.!.!.!.!.!.!.!.!.!.!.!.!.!.!.!.!.!.!.!.!.!.!.!.!.!.!.!.!.!.!.!.!.!.!.!.!.!.!.!.!.!.!.!.!.",
"!.!.!.!.!.!.!.!.!.!.!.!.!.!.!.!.!.!.!.!.!.!.!.!.!.!.!.!.!.!.!.!.!.!.!.!.!.!.!.!.!.!.!.!.!.!.!.!.!.!.!.!.!.!.!.!.!.!.!.!.!.!.!.!.!.!.!.!.!.!.!.!.!.!.!.!.!.!.!.!.!.!.!.!.!.!.!.!.!.!.!.!.!.!.!.!.!.!.!.!.",
"!.!.!.!.!.!.!.!.!.!.!.!.!.!.!.!.!.!.!.!.!.!.!.!.1 1 4 1 1 6 4 4 1 1 !.!.!.!.!.!.!.!.!.!.!.!.!.!.!.!.!.!.!.!.!.!.!.!.!.!.!.!.!.!.!.!.1 1 4 4 4 6 1 1 1 1 !.!.!.!.!.!.!.!.!.!.!.!.!.!.!.!.!.!.!.!.!.!.!.!.",
"!.!.!.!.!.!.!.!.!.!.!.!.!.!.!.!.!.!.!.!.1 1 1 6 1 6 4 6 1 4 6 1 1 6 1 6 2 !.!.!.!.!.!.!.!.!.!.!.!.!.!.!.!.!.!.!.!.!.!.!.!.!.!.1 6 1 1 6 1 6 1 1 6 1 1 6 6 1 1 1 !.!.!.!.!.!.!.!.!.!.!.!.!.!.!.!.!.!.!.!.",
"!.!.!.!.!.!.!.!.!.!.!.!.!.!.!.!.!.!.1 6 6 1 6 1 6 1 6 1 6 6 4 4 6 1 6 1 6 1 2 2 !.!.!.!.!.!.!.!.!.!.!.!.!.!.!.!.!.!.!.!.1 6 1 6 6 4 1 4 1 6 6 4 1 4 6 1 1 6 1 6 1 6 !.!.!.!.!.!.!.!.!.!.!.!.!.!.!.!.!.!.",
"!.!.!.!.!.!.!.!.!.!.!.!.!.!.!.!.1 6 6 1 1 6 1 6 1 6 1 6 4 1 1 6 1 6 1 6 1 1 7 2 4 4 !.!.!.!.!.!.!.!.!.!.!.!.!.!.!.!.4 1 6 1 6 1 1 4 6 6 1 4 1 4 6 6 1 6 6 1 6 1 6 1 6 1 !.!.!.!.!.!.!.!.!.!.!.!.!.!.!.!.",
"!.!.!.!.!.!.!.!.!.!.!.!.!.!.!.1 1 6 6 4 6 4 4 1 6 4 4 4 1 6 1 1 6 1 6 4 1 1 6 4 6 1 1 !.!.!.!.!.!.!.!.!.!.!.!.!.!.1 4 6 1 1 4 6 4 1 6 6 4 1 6 1 6 4 1 6 6 ; 6 6 6 ; 6 6 ; !.!.!.!.!.!.!.!.!.!.!.!.!.!.!.",
"!.!.!.!.!.!.!.!.!.!.!.!.!.!.6 1 4 4 1 1 1 1 6 6 1 4 4 4 6 1 6 1 4 6 1 4 6 4 6 1 4 1 4 6 !.!.!.!.!.!.!.!.!.!.!.!.6 4 1 6 4 6 4 1 6 1 4 1 4 6 1 1 1 6 1 4 6 ; 6 ; 6 6 ; 6 6 ; !.!.!.!.!.!.!.!.!.!.!.!.!.!.",
"!.!.!.!.!.!.!.!.!.!.!.!.!.!.1 6 6 1 4 6 4 6 1 4 4 6 1 4 4 $ 1 1 1 1 6 6 4 6 4 1 4 6 1 6 !.!.!.!.!.!.!.!.!.!.!.!.1 1 4 4 6 4 6 1 6 4 1 4 1 4 4 O 6 1 6 4 6 6 ; 6 ; ; 6 6 6 ; !.!.!.!.!.!.!.!.!.!.!.!.!.!.",
"!.!.!.!.!.!.!.!.!.!.!.!.!.1 6 1 6 4 1 6 4 1 6 4 4 1 1 4 f V 4 1 6 4 4 1 1 1 4 6 1 6 4 4 !.!.!.!.!.!.!.!.!.!.!.1 4 6 6 1 1 1 6 4 1 4 6 6 6 4 p F O 4 6 1 ; 6 6 6 6 6 6 ; 6 6 6 !.!.!.!.!.!.!.!.!.!.!.!.!.",
"!.!.!.!.!.!.!.!.!.!.!.!.!.2 2 1 1 1 4 6 4 6 1 1 6 6 1 X ( ( & 1 1 4 4 6 6 6 4 1 4 6 1 1 !.!.!.!.!.!.!.!.!.!.!.!.1 6 6 4 4 4 6 1 6 4 1 1 1 & R @.* 6 6 6 ; 6 6 ; 4 6 1 6 ; ; 6 !.!.!.!.!.!.!.!.!.!.!.!.!.",
"!.!.!.!.!.!.!.!.!.!.!.!.!.!.2 7 4 6 4 1 1 6 4 6 1 4 1 l z.X.b 1 6 6 1 1 4 1 4 6 1 6 4 6 !.!.!.!.!.!.!.!.!.!.!.!.4 4 1 1 6 1 6 4 1 4 6 4 ; s 3.-.F O ; 6 ; 6 6 ; 1 1 6 1 6 6 !.!.!.!.!.!.!.!.!.!.!.!.!.!.",
"!.!.!.!.!.!.!.!.!.!.!.!.!.!.4 4 6 4 6 1 4 4 4 4 1 1 & { S.3.Y 7 4 1 6 4 1 4 1 6 1 4 6 4 !.!.!.!.!.!.!.!.!.!.!.!.6 1 4 6 1 6 1 4 1 6 1 1 1 K G.7.( w 6 6 6 6 6 6 6 4 1 6 1 6 !.!.!.!.!.!.!.!.!.!.!.!.!.!.",
"!.!.!.!.!.!.!.!.!.!.!.!.!.!.!.1 1 1 6 4 4 4 4 1 1 1 x g.G.x.X.s 4 6 1 4 6 6 1 4 6 4 1 !.!.!.!.!.!.!.!.!.!.!.!.!.!.1 1 6 4 4 1 6 6 1 6 1 p ;.T.N.&.N * 6 6 ; ; 6 6 1 6 1 6 !.!.!.!.!.!.!.!.!.!.!.!.!.!.!.",
"!.!.!.!.!.!.!.!.!.!.!.!.!.!.!.!.4 4 4 6 1 1 4 6 1 1 T P.G.C.w.G 4 1 4 4 6 1 6 1 6 1 !.!.!.!.!.!.!.!.!.!.!.!.!.!.!.!.4 4 6 6 1 4 6 1 6 1 M R.G.H.w.R q 1 1 6 6 4 4 4 1 > !.!.!.!.!.!.!.!.!.!.!.!.!.!.!.!.",
"!.!.!.!.!.!.!.!.!.!.!.!.!.!.!.!.!.!.1 6 4 6 4 1 1 u g.P.G.G.a.=.6 4 4 4 1 1 1 6 !.!.!.!.!.!.!.!.!.!.!.!.!.!.!.!.!.!.!.!.1 4 1 6 1 6 1 X 7.T.G.G.N.>.h 1 4 4 1 4 1 6 !.!.!.!.!.!.!.!.!.!.!.!.!.!.!.!.!.!.",
"!.!.!.!.!.!.!.!.!.!.!.!.!.!.!.!.!.!.!.!.!.1 6 1 - F Q.G.G.G.B.7.H & 4 4 1 !.!.!.!.!.!.!.!.!.!.!.!.!.!.!.!.!.!.!.!.!.!.!.!.!.!.1 1 1 & b E.G.G.G.C.e.R & 6 1 1 !.!.!.!.!.!.!.!.!.!.!.!.!.!.!.!.!.!.!.!.!.",
"!.!.!.!.!.!.!.!.!.!.!.!.!.!.!.!.!.!.!.!.!.!.!.!.!.@.s.b.G.S.x.@.` !.!.!.!.!.!.!.!.!.!.!.!.!.!.!.!.!.!.!.!.!.!.!.!.!.!.!.!.!.!.!.!.!.!.] y.g.S.G.c.,.{ !.!.!.!.!.!.!.!.!.!.!.!.!.!.!.!.!.!.!.!.!.!.!.!.!.",
"!.!.!.!.!.!.!.!.!.!.!.!.!.!.!.!.!.!.!.!.!.!.!.!.!.!.!.!.!.!.!.!.!.!.!.!.!.!.!.!.!.!.!.!.!.!.!.!.!.!.!.!.!.!.!.!.!.!.!.!.!.!.!.!.!.!.!.!.!.!.!.!.!.!.!.!.!.!.!.!.!.!.!.!.!.!.!.!.!.!.!.!.!.!.!.!.!.!.!.!.",
"!.!.!.!.!.!.!.!.!.!.!.!.!.!.!.!.!.!.!.!.!.!.!.!.!.!.!.!.!.!.!.!.!.!.!.!.!.!.!.!.!.!.!.!.!.!.!.!.!.!.!.!.!.!.!.!.!.!.!.!.!.!.!.!.!.!.!.!.!.!.!.!.!.!.!.!.!.!.!.!.!.!.!.!.!.!.!.!.!.!.!.!.!.!.!.!.!.!.!.!.",
"!.!.!.!.!.!.!.!.!.!.!.!.!.!.!.!.!.!.!.!.!.!.!.!.!.!.!.!.!.!.!.!.!.!.!.!.!.!.!.!.!.!.!.!.!.!.!.!.!.!.!.!.!.!.!.!.!.!.!.!.!.!.!.!.!.!.!.!.!.!.!.!.!.!.!.!.!.!.!.!.!.!.!.!.!.!.!.!.!.!.!.!.!.!.!.!.!.!.!.!.",
"!.!.!.!.!.!.!.!.!.!.!.!.!.!.!.!.!.!.!.!.!.!.!.!.!.!.!.!.!.!.!.!.!.!.!.!.!.!.!.!.!.!.!.!.!.!.!.!.!.!.!.!.!.!.!.!.!.!.!.!.!.!.!.!.!.!.!.!.!.!.!.!.!.!.!.!.!.!.!.!.!.!.!.!.!.!.!.!.!.!.!.!.!.!.!.!.!.!.!.!.",
"!.!.!.!.!.!.!.!.!.!.!.!.!.!.!.!.!.!.!.!.!.!.!.!.!.!.!.!.!.!.!.!.!.!.!.!.!.!.!.!.!.!.!.!.!.!.!.!.!.!.!.!.!.!.!.!.!.!.!.!.!.!.!.!.!.!.!.!.!.!.!.!.!.!.!.!.!.!.!.!.!.!.!.!.!.!.!.!.!.!.!.!.!.!.!.!.!.!.!.!.",
"!.!.!.!.!.!.!.!.!.!.!.!.!.!.!.!.!.!.!.!.!.!.!.!.!.!.!.!.!.!.!.!.!.!.!.!.!.!.!.!.!.!.!.!.!.!.!.!.!.!.!.!.!.!.!.!.!.!.!.!.!.!.!.!.!.!.!.!.!.!.!.!.!.!.!.!.!.!.!.!.!.!.!.!.!.!.!.!.!.!.!.!.!.!.!.!.!.!.!.!."
};
