/* XPM */
static char *_631961043959[] = {
/* columns rows colors chars-per-pixel */
"100 75 8 1 ",
"  c #262323",
". c #262625",
"X c #373434",
"o c #383736",
"O c #3B5247",
"+ c #3C5348",
"@ c #547264",
"# c #557365",
/* pixels */
"##################################################++++++++++++++++++++++++++++++++++++++++++++++++++",
"##################################################++++++++++++++++++++++++++++++++++++++++++++++++++",
"##################################################++++++++++++++++++++++++++++++++++++++++++++++++++",
"##################################################++++++++++++++++++++++++++++++++++++++++++++++++++",
"##################################################++++++++++++++++++++++++++++++++++++++++++++++++++",
"##################################################++++++++++++++++++++++++++++++++++++++++++++++++++",
"##################################################++++++++++++++++++++++++++++++++++++++++++++++++++",
"##################################################++++++++++++++++++++++++++++++++++++++++++++++++++",
"##################################################++++++++++++++++++++++++++++++++++++++++++++++++++",
"##################################################++++++++++++++++++++++++++++++++++++++++++++++++++",
"##################################################++++++++++++++++++++++++++++++++++++++++++++++++++",
"##################################################++++++++++++++++++++++++++++++++++++++++++++++++++",
"##################################################++++++++++++++++++++++++++++++++++++++++++++++++++",
"##################################################++++++++++++++++++++++++++++++++++++++++++++++++++",
"##################################################++++++++++++++++++++++++++++++++++++++++++++++++++",
"##################################################++++++++++++++++++++++++++++++++++++++++++++++++++",
"##################################################++++++++++++++++++++++++++++++++++++++++++++++++++",
"##################################################++++++++++++++++++++++++++++++++++++++++++++++++++",
"##################################################++++++++++++++++++++++++++++++++++++++++++++++++++",
"##################################################++++++++++++++++++++++++++++++++++++++++++++++++++",
"##################################################++++++++++++++++++++++++++++++++++++++++++++++++++",
"##################################################++++++++++++++++++++++++++++++++++++++++++++++++++",
"##################################################++++++++++++++++++++++++++++++++++++++++++++++++++",
"##################################################++++++++++++++++++++++++++++++++++++++++++++++++++",
"##################################################++++++++++++++++++++++++++++++++++++++++++++++++++",
"++++++++++++++++++++++++++++++++++++++++++++++++++##################################################",
"++++++++++++++++++++++++++++++++++++++++++++++++++##################################################",
"++++++++++++++++++++++++++++++++++++++++++++++++++##################################################",
"++++++++++++++++++++++++++++++++++++++++++++++++++##################################################",
"++++++++++++++++++++++++++++++++++++++++++++++++++##################################################",
"++++++++++++++++++++++++++++++++++++++++++++++++++##################################################",
"++++++++++++++++++++++++++++++++++++++++++++++++++##################################################",
"++++++++++++++++++++++++++++++++++++++++++++++++++##################################################",
"++++++++++++++++++++++++++++++++++++++++++++++++++##################################################",
"++++++++++++++++++++++++++++++++++++++++++++++++++##################################################",
"++++++++++++++++++++++++++++++++++++++++++++++++++##################################################",
"++++++++++++++++++++++++++++++++++++++++++++++++++##################################################",
"++++++++++++++++++++++++++++++++++++++++++++++++++##################################################",
"++++++++++++++++++++++++++++++++++++++++++++++++++##################################################",
"++++++++++++++++++++++++++++++++++++++++++++++++++##################################################",
"++++++++++++++++++++++++++++++++++++++++++++++++++##################################################",
"++++++++++++++++++++++++++++++++++++++++++++++++++##################################################",
"++++++++++++++++++++++++++++++++++++++++++++++++++##################################################",
"++++++++++++++++++++++++++++++++++++++++++++++++++##################################################",
"++++++++++++++++++++++++++++++++++++++++++++++++++##################################################",
"++++++++++++++++++++++++++++++++++++++++++++++++++##################################################",
"++++++++++++++++++++++++++++++++++++++++++++++++++##################################################",
"++++++++++++++++++++++++++++++++++++++++++++++++++##################################################",
"++++++++++++++++++++++++++++++++++++++++++++++++++##################################################",
"OOOOOOOOOOOOOOOOOOOOOOOOOOOOOOOOOOOOOOOOOOOOOOOOOO##@@@@@@@@@@@@@@@@@@@@@@@@@@@@@@@@@@@@@@@@@@@@@@@@",
"ooooooooooooooooooooooooooooooooooooooooooooooooXX..................................................",
"XXXXXXXXXXXXXXXXXXXXXXXXXXXXXXXXXXXXXXXXXXXXXXXXXX                                                  ",
"XXXXXXXXXXXXXXXXXXXXXXXXXXXXXXXXXXXXXXXXXXXXXXXXXX                                                  ",
"XXXXXXXXXXXXXXXXXXXXXXXXXXXXXXXXXXXXXXXXXXXXXXXXXX                                                  ",
"XXXXXXXXXXXXXXXXXXXXXXXXXXXXXXXXXXXXXXXXXXXXXXXXXX.                                                 ",
"XXXXXXXXXXXXXXXXXXXXXXXXXXXXXXXXXXXXXXXXXXXXXXXXXX.                                                 ",
"XXXXXXXXXXXXXXXXXXXXXXXXXXXXXXXXXXXXXXXXXXXXXXXXXX                                                  ",
"XXXXXXXXXXXXXXXXXXXXXXXXXXXXXXXXXXXXXXXXXXXXXXXXXX                                                  ",
"XXXXXXXXXXXXXXXXXXXXXXXXXXXXXXXXXXXXXXXXXXXXXXXXXX                                                  ",
"XXXXXXXXXXXXXXXXXXXXXXXXXXXXXXXXXXXXXXXXXXXXXXXXXX                                                  ",
"XXXXXXXXXXXXXXXXXXXXXXXXXXXXXXXXXXXXXXXXXXXXXXXXXX                                                  ",
"XXXXXXXXXXXXXXXXXXXXXXXXXXXXXXXXXXXXXXXXXXXXXXXXXX                                                  ",
"XXXXXXXXXXXXXXXXXXXXXXXXXXXXXXXXXXXXXXXXXXXXXXXXXX                                                  ",
"XXXXXXXXXXXXXXXXXXXXXXXXXXXXXXXXXXXXXXXXXXXXXXXXXX                                                  ",
"XXXXXXXXXXXXXXXXXXXXXXXXXXXXXXXXXXXXXXXXXXXXXXXXXX                                                  ",
"XXXXXXXXXXXXXXXXXXXXXXXXXXXXXXXXXXXXXXXXXXXXXXXXXX                                                  ",
"XXXXXXXXXXXXXXXXXXXXXXXXXXXXXXXXXXXXXXXXXXXXXXXXXX                                                  ",
"XXXXXXXXXXXXXXXXXXXXXXXXXXXXXXXXXXXXXXXXXXXXXXXXXX                                                  ",
"XXXXXXXXXXXXXXXXXXXXXXXXXXXXXXXXXXXXXXXXXXXXXXXXXX                                                  ",
"XXXXXXXXXXXXXXXXXXXXXXXXXXXXXXXXXXXXXXXXXXXXXXXXXX                                                  ",
"XXXXXXXXXXXXXXXXXXXXXXXXXXXXXXXXXXXXXXXXXXXXXXXXXX                                                  ",
"XXXXXXXXXXXXXXXXXXXXXXXXXXXXXXXXXXXXXXXXXXXXXXXXXX                                                  ",
"XXXXXXXXXXXXXXXXXXXXXXXXXXXXXXXXXXXXXXXXXXXXXXXXXX                                                  ",
"XXXXXXXXXXXXXXXXXXXXXXXXXXXXXXXXXXXXXXXXXXXXXXXXXX                                                  ",
"XXXXXXXXXXXXXXXXXXXXXXXXXXXXXXXXXXXXXXXXXXXXXXXXXX                                                  "
};
